<?xml version="1.0" standalone="no"?>
<!DOCTYPE svg PUBLIC "-//W3C//DTD SVG 1.1//EN" "http://www.w3.org/Graphics/SVG/1.1/DTD/svg11.dtd" >
<svg>
<metadata>
Created by FontForge 20090622 at Sat Jul  4 05:55:21 2020
 By deploy user
&#194;&#169; 2016 Paulo Goode
</metadata>
<defs>
<font id="Fnord-Twenty-Three" horiz-adv-x="0" >
  <font-face 
    font-family="Fnord Twenty-Three"
    font-weight="400"
    font-stretch="normal"
    units-per-em="1000"
    panose-1="0 0 5 0 0 0 0 0 0 0"
    ascent="800"
    descent="-200"
    x-height="414"
    cap-height="650"
    bbox="-618 -293 1234 785"
    underline-thickness="50"
    underline-position="-50"
    unicode-range="U+0020-U+FB02"
  />
<missing-glyph horiz-adv-x="736" 
d="M368 -8q-138 0 -235.5 97.5t-97.5 235.5t97.5 235.5t235.5 97.5t235.5 -97.5t97.5 -235.5t-97.5 -235.5t-235.5 -97.5zM244 50q106 -43 167 49q36 58 22 113.5t-74 102.5q-23 18 -34 28t-28 31t-23.5 46.5t-4.5 57.5q4 61 38 97.5t79 48.5v3q-139 4 -230 -86t-91 -218
q0 -98 54 -171t125 -102zM350 22q140 -4 230 87t90 217q0 96 -54 170.5t-126 103.5q-107 41 -167 -50q-21 -31 -25 -64t15 -73t65 -77q29 -23 44.5 -38.5t31.5 -50t13 -75.5q-4 -58 -37.5 -96.5t-79.5 -50.5v-3zM385 567q-14 -22 -13 -39q1 -13 21 -33q7 5 10 10
q12 17 -2 43q-8 16 -16 19zM365 419q5 -20 17.5 -33.5t23 -19.5t28.5 -13q20 -8 37 -9q30 -2 45 9q7 6 9 19q2 18 7 23q4 4 19 8q7 2 16 11q14 17 0 56q-14 37 -41 61q-25 22 -51 22q-24 0 -41 -18q-8 -8 -13 -21q-1 -2 -2.5 -6.5t-3 -8.5t-2.5 -6q-1 -1 -6.5 -3.5
t-10.5 -5.5q-14 -8 -20 -16q-10 -12 -12 -29q-2 -11 1 -20zM517 449q8 2 13 9l5 -4l-17 -21q-2 5 -7 5l-47 -3v-3l24 -20q3 -2 10 7l4 -4l-20 -24l-4 4q4 6 2 8l-55 46q-2 2 -7 -4l-5 4l18 21l5 -4q-6 -6 -3 -8l22 -18l-3 39q0 6 -4 2l-5 4l18 21l5 -4q-6 -6 -6 -14l3 -42z
M233 95l-57 119l88 92l115 -56l-13 -132zM247 121l98 18l9 96l-84 42l-65 -68z" />
    <glyph glyph-name="fi" unicode="fi" horiz-adv-x="487" 
d="M410 45q0 -30 49 -30v-15h-159v15q44 0 44 30v305q0 36 -32 36h-157v-341q0 -30 45 -30v-15h-159v15q49 0 49 30v341h-57l9 28h48v66q0 81 43.5 129.5t110.5 48.5q66 0 104 -38.5t38 -67.5q0 -16 -10 -27.5t-25 -11.5q-16 0 -27.5 10.5t-11.5 26.5q0 9 5 21t5 16
q0 9 -5 18.5t-24 19.5t-50 10q-37 0 -62.5 -19t-25.5 -57v-145h224q31 0 31 -34v-335z" />
    <glyph glyph-name="fl" unicode="fl" horiz-adv-x="483" 
d="M410 45q0 -30 49 -30v-15h-159v15q44 0 44 30v514q0 27 -20.5 51.5t-69.5 24.5q-41 0 -70 -26t-29 -68v-127h103v-28h-103v-341q0 -30 45 -30v-15h-160v15q50 0 50 30v341h-57l9 28h48v51q0 82 46.5 137.5t118.5 55.5q56 0 90 -27q23 6 39 6q26 0 26 -29v-563z" />
    <glyph glyph-name="f_f" unicode="ff" horiz-adv-x="578" 
d="M467 658q49 0 73 -25t24 -51q0 -17 -10.5 -27t-26.5 -10t-26.5 10.5t-10.5 28.5q0 9 4 19t4 13q0 19 -32 19q-31 0 -43.5 -20.5t-12.5 -71.5v-129h93l-8 -28h-85v-341q0 -15 19.5 -22.5t41.5 -7.5v-15h-176v15q49 0 49 30v341h-189v-341q0 -30 45 -30v-15h-159v15
q49 0 49 30v341h-57l9 28h48v31q0 83 45 138t119 55q71 0 109 -48q30 68 104 68zM344 414v122q1 16 -4.5 32t-27.5 31.5t-59 15.5q-41 0 -69.5 -26t-28.5 -68v-107h189z" />
    <glyph glyph-name="f_f_i" unicode="ffi" horiz-adv-x="736" 
d="M658 45q0 -30 49 -30v-15h-159v15q45 0 45 30v305q0 36 -32 36h-158v-341q0 -30 45 -30v-15h-154v15q44 0 44 30v341h-189v-341q0 -30 44 -30v-15h-158v15q49 0 49 30v341h-51l9 28h42v31q0 83 45 138t119 55t114 -53q18 34 53 53.5t77 19.5q66 0 104 -38.5t38 -67.5
q0 -16 -10 -27.5t-25 -11.5q-16 0 -27.5 10.5t-11.5 26.5q0 9 5 21t5 16q0 9 -5 18.5t-24 19.5t-50 10q-37 0 -62.5 -19t-25.5 -57v-145h224q31 0 31 -34v-335zM338 414v122q1 27 -19 53t-72 26q-41 0 -69.5 -26t-28.5 -68v-107h189z" />
    <glyph glyph-name="f_f_l" unicode="ffl" horiz-adv-x="732" 
d="M658 45q0 -30 50 -30v-15h-160v15q45 0 45 30v514q-1 27 -21.5 51.5t-69.5 24.5q-41 0 -70 -26t-29 -68v-127h104v-28h-104v-341q0 -30 45 -30v-15h-159v15q49 0 49 30v341h-189v-341q0 -30 44 -30v-15h-158v15q49 0 49 30v341h-51l9 28h42v31q0 83 45 138t119 55
q82 0 117 -59q19 36 57 57.5t82 21.5q57 0 89 -27q23 6 40 6q11 0 18 -8t7 -21v-563zM338 414v122q1 27 -19 53t-72 26q-41 0 -69.5 -26t-28.5 -68v-107h189z" />
    <glyph glyph-name=".notdef" horiz-adv-x="736" 
d="M368 -8q-138 0 -235.5 97.5t-97.5 235.5t97.5 235.5t235.5 97.5t235.5 -97.5t97.5 -235.5t-97.5 -235.5t-235.5 -97.5zM244 50q106 -43 167 49q36 58 22 113.5t-74 102.5q-23 18 -34 28t-28 31t-23.5 46.5t-4.5 57.5q4 61 38 97.5t79 48.5v3q-139 4 -230 -86t-91 -218
q0 -98 54 -171t125 -102zM350 22q140 -4 230 87t90 217q0 96 -54 170.5t-126 103.5q-107 41 -167 -50q-21 -31 -25 -64t15 -73t65 -77q29 -23 44.5 -38.5t31.5 -50t13 -75.5q-4 -58 -37.5 -96.5t-79.5 -50.5v-3zM385 567q-14 -22 -13 -39q1 -13 21 -33q7 5 10 10
q12 17 -2 43q-8 16 -16 19zM365 419q5 -20 17.5 -33.5t23 -19.5t28.5 -13q20 -8 37 -9q30 -2 45 9q7 6 9 19q2 18 7 23q4 4 19 8q7 2 16 11q14 17 0 56q-14 37 -41 61q-25 22 -51 22q-24 0 -41 -18q-8 -8 -13 -21q-1 -2 -2.5 -6.5t-3 -8.5t-2.5 -6q-1 -1 -6.5 -3.5
t-10.5 -5.5q-14 -8 -20 -16q-10 -12 -12 -29q-2 -11 1 -20zM517 449q8 2 13 9l5 -4l-17 -21q-2 5 -7 5l-47 -3v-3l24 -20q3 -2 10 7l4 -4l-20 -24l-4 4q4 6 2 8l-55 46q-2 2 -7 -4l-5 4l18 21l5 -4q-6 -6 -3 -8l22 -18l-3 39q0 6 -4 2l-5 4l18 21l5 -4q-6 -6 -6 -14l3 -42z
M233 95l-57 119l88 92l115 -56l-13 -132zM247 121l98 18l9 96l-84 42l-65 -68z" />
    <glyph glyph-name=".null" 
 />
    <glyph glyph-name="nonmarkingreturn" horiz-adv-x="333" 
 />
    <glyph glyph-name="space" unicode=" " horiz-adv-x="227" 
 />
    <glyph glyph-name="exclam" unicode="!" horiz-adv-x="239" 
d="M101 139l35 2l22 535l-70 -28zM118 83q20 0 32 -14t12 -32q0 -19 -12.5 -30t-29.5 -11q-21 0 -33 13.5t-12 31.5q0 19 12.5 30.5t30.5 11.5z" />
    <glyph glyph-name="quotedbl" unicode="&#x22;" horiz-adv-x="288" 
d="M75 675q4 16 20 16q20 0 30 -9t5 -22l-57 -151q-2 -8 -10 -8t-8 9zM186 675q4 16 20 16q20 0 30 -9t5 -22l-57 -151q-2 -8 -10 -8t-8 9z" />
    <glyph glyph-name="numbersign" unicode="#" horiz-adv-x="503" 
d="M442 366h-69l-41 -177h70l-6 -25h-69l-38 -164h-34l38 164h-146l-38 -164h-34l38 164h-69l6 25h68l41 177h-70l6 25h70l38 166h34l-38 -166h146l38 166h34l-38 -166h69zM298 189l41 177h-146l-41 -177h146z" />
    <glyph glyph-name="dollar" unicode="$" horiz-adv-x="479" 
d="M187 700h29v-43q23 2 41 0v43h29v-48q49 -10 78 -38t29 -61q0 -19 -9.5 -32t-26.5 -13q-14 0 -23.5 10t-9.5 26q0 11 7 19t7 15q0 28 -52 41v-260q36 -18 58 -32.5t45 -35.5t34 -48t11 -60q0 -64 -39.5 -114.5t-107.5 -68.5v-50h-31v44q-15 -2 -39 -2v-42h-31v45
q-62 9 -101.5 42t-39.5 71q0 20 10.5 32.5t25.5 12.5q13 0 24 -11t11 -27q0 -10 -7.5 -18t-7.5 -14q0 -16 23 -32.5t62 -23.5l1 312q-127 66 -128 162q-1 59 33.5 99.5t94.5 52.5v47zM216 626v-228l41 -23v250q-19 2 -41 1zM120 529q0 -36 14.5 -61t52.5 -51v205
q-67 -14 -67 -93zM217 23q21 0 39 3v276q-12 7 -40 21zM287 32q84 27 84 125q0 79 -84 128v-253z" />
    <glyph glyph-name="percent" unicode="%" horiz-adv-x="580" 
d="M144 329q-49 0 -79.5 41t-30.5 118q0 84 35.5 125t79.5 41q49 0 79 -41t30 -117q0 -85 -35 -126t-79 -41zM411 650h33l-277 -650h-33zM152 348q30 0 43.5 29.5t13.5 107.5q0 150 -68 150q-29 0 -43.5 -28.5t-14.5 -98.5q0 -160 69 -160zM436 -4q-49 0 -79.5 41t-30.5 118
q0 84 35.5 125t79.5 41q49 0 79 -41t30 -117q0 -85 -35 -126t-79 -41zM444 15q30 0 43.5 29.5t13.5 107.5q0 150 -68 150q-29 0 -43.5 -28.5t-14.5 -98.5q0 -160 69 -160z" />
    <glyph glyph-name="ampersand" unicode="&#x26;" horiz-adv-x="594" 
d="M568 381q0 -80 -127 -95q77 -35 77 -117q0 -76 -66.5 -126.5t-164.5 -50.5q-96 0 -164.5 51.5t-68.5 137.5q0 67 42 115.5t103 67.5q-47 15 -72 54t-25 88q0 74 50.5 113t113.5 39q55 0 88 -29t33 -73q0 -28 -13 -48.5t-36 -20.5q-15 0 -23.5 9t-8.5 23q0 17 16 30.5
t16 25.5q0 18 -18.5 36.5t-55.5 18.5q-90 0 -90 -121q0 -60 23.5 -93.5t67.5 -34.5l-7 -25q-53 -4 -90 -44.5t-37 -113.5q0 -78 42.5 -126.5t121.5 -48.5q68 0 108.5 37.5t40.5 106.5q0 45 -18.5 76.5t-59.5 31.5q-28 0 -44.5 -13.5t-16.5 -31.5q0 -10 10 -24.5t10 -25.5
q0 -14 -9.5 -24t-27.5 -10q-36 0 -36 48q0 46 32 76t86 30q82 0 112.5 18.5t30.5 62.5q0 55 -43 55q-19 0 -32.5 -9t-13.5 -23q0 -7 7 -18t7 -20q0 -26 -28 -26q-31 0 -31 35t27 60.5t71 25.5q39 0 65 -21.5t26 -58.5z" />
    <glyph glyph-name="quotesingle" unicode="'" horiz-adv-x="176" 
d="M75 675q4 16 20 16q20 0 30 -9t5 -22l-57 -151q-2 -8 -10 -8t-8 9z" />
    <glyph glyph-name="parenleft" unicode="(" horiz-adv-x="277" 
d="M224 670q-75 -70 -117 -177.5t-42 -223.5q0 -118 42.5 -232t116.5 -183l8 20q-40 61 -70.5 181t-30.5 244q0 33 2.5 64t6.5 56.5t10 50t11.5 43t13.5 37.5t14 30.5t14 25.5t12 19.5l10.5 14.5t6.5 10z" />
    <glyph glyph-name="parenright" unicode=")" horiz-adv-x="277" 
d="M53 -146q75 70 117 177.5t42 223.5q0 118 -42.5 232t-116.5 183l-8 -20q40 -61 70.5 -181t30.5 -244q0 -33 -2.5 -64t-6.5 -56.5t-10 -50t-11.5 -43t-13.5 -37.5t-14 -30.5t-14 -25.5t-12 -19.5l-10.5 -14.5t-6.5 -10z" />
    <glyph glyph-name="asterisk" unicode="*" horiz-adv-x="298" 
d="M240 615l13 -40l-6 -4q-13 6 -22.5 3t-41.5 -22q13 -34 19.5 -41.5t21.5 -10.5l2 -7l-34 -25l-6 5q2 15 -3.5 23t-33.5 31q-29 -23 -34.5 -31t-3.5 -23l-6 -5l-34 25l3 7q15 3 21.5 10.5t19.5 41.5q-31 21 -40.5 23.5t-23.5 -4.5l-6 4l13 40h8q7 -15 15.5 -18.5
t45.5 -5.5q9 39 9 48t-10 20l2 7h42l2 -7q-10 -11 -10 -20t9 -48q36 3 45.5 7t15.5 17h8zM155 571h-12l-4 -11l10 -7l10 7z" />
    <glyph glyph-name="plus" unicode="+" horiz-adv-x="345" 
d="M300 264v-31h-111v-123h-33v123h-111v31h111v123h33v-123h111z" />
    <glyph glyph-name="comma" unicode="," horiz-adv-x="168" 
d="M130 12q0 -31 -17 -61.5t-54 -37.5l-4 15q22 7 33 23.5t11 30.5q0 11 -16 14q-20 3 -31.5 15t-11.5 29q0 19 12 30t30 11q48 0 48 -69z" />
    <glyph glyph-name="hyphen" unicode="-" horiz-adv-x="315" 
d="M46 251h234l-11 -29h-234z" />
    <glyph glyph-name="period" unicode="." horiz-adv-x="175" 
d="M87 81q19 0 31 -13.5t12 -30.5q0 -20 -12 -30.5t-29 -10.5q-20 0 -32 13t-12 30q0 20 12.5 31t29.5 11z" />
    <glyph glyph-name="slash" unicode="/" horiz-adv-x="375" 
d="M318 712h38l-299 -774h-38z" />
    <glyph glyph-name="zero" unicode="0" horiz-adv-x="529" 
d="M266 -8q-105 0 -163.5 87t-58.5 257q0 88 19 153t51.5 100.5t69.5 52t79 16.5q105 0 163.5 -87t58.5 -257q0 -88 -19 -153t-51.5 -100.5t-69.5 -52t-79 -16.5zM282 27q127 0 127 266q0 171 -37.5 250.5t-124.5 79.5q-127 0 -127 -266q0 -170 37.5 -250t124.5 -80z" />
    <glyph glyph-name="one" unicode="1" horiz-adv-x="287" 
d="M182 45q0 -30 74 -30v-15h-220v15q81 0 81 30v500q0 15 -13 9l-8 -4q-8 -5 -24.5 -14.5t-30.5 -16.5l-6 18q31 17 61.5 49t44.5 64h47q-6 -42 -6 -73v-532z" />
    <glyph glyph-name="two" unicode="2" horiz-adv-x="451" 
d="M386 142q18 0 28.5 -13.5t10.5 -30.5q0 -13 -6 -29t-18.5 -34t-39 -30.5t-61.5 -12.5q-29 0 -62.5 10t-56.5 18.5t-60.5 4.5t-81.5 -26l-13 24l59 76.5l52.5 67.5l42 55t36 49.5l27.5 41t23 39l15 33.5t11.5 35.5t5 33t2.5 37.5q0 65 -22.5 100.5t-78.5 35.5
q-38 0 -64.5 -13t-26.5 -32q0 -9 10 -20.5t10 -22.5q0 -15 -11 -25t-26 -10q-18 0 -28.5 14t-10.5 33q0 40 43.5 73.5t115.5 33.5q69 0 117 -41t48 -126q0 -30 -8.5 -59.5t-18.5 -53.5t-38.5 -64l-49 -67l-69 -89.5l-81.5 -105.5q51 10 75 3t59 -21t60 -14q31 0 46.5 14
t15.5 30q0 8 -9 20.5t-9 24.5q0 15 11 24t26 9z" />
    <glyph glyph-name="three" unicode="3" horiz-adv-x="429" 
d="M192 23q60 0 93 38t33 104q0 72 -41.5 110t-125.5 61v14q78 21 110.5 49.5t32.5 95.5q0 132 -112 132q-34 0 -57 -12t-23 -33q0 -9 7.5 -19t7.5 -21q0 -17 -11 -27.5t-26 -10.5q-17 0 -28 13.5t-11 31.5q0 40 43 74.5t110 34.5q30 0 58 -8t54 -23.5t41.5 -44.5t15.5 -67
q0 -111 -123 -162q71 -19 112.5 -67.5t41.5 -107.5q0 -72 -55 -129t-144 -57q-66 0 -113 30.5t-47 75.5q0 22 11 35t27 13q15 0 26.5 -10.5t11.5 -28.5q0 -13 -7 -22t-7 -16q0 -19 28.5 -32.5t66.5 -13.5z" />
    <glyph glyph-name="four" unicode="4" horiz-adv-x="463" 
d="M405 229h13v-95h-13q0 31 -23 31h-46v-120q0 -30 59 -30v-15h-182v15q59 0 59 30v120h-248v12l255 473h57v-453h46q23 0 23 32zM77 197h195v366z" />
    <glyph glyph-name="five" unicode="5" horiz-adv-x="464" 
d="M239 422q78 0 129.5 -55t51.5 -149q0 -93 -57 -159.5t-160 -66.5q-78 0 -121.5 35t-36.5 78q6 39 39 37q15 -1 25.5 -13t9.5 -29q-1 -10 -7.5 -17.5t-7.5 -10.5q-6 -10 5.5 -21.5t37.5 -20t57 -8.5q64 0 102.5 43t38.5 134q0 87 -32.5 139.5t-87.5 52.5q-73 0 -114 -78
l-52 15l39 322h290l-6 -19q-66 -20 -234 -20l-29 -243q44 54 120 54z" />
    <glyph glyph-name="six" unicode="6" horiz-adv-x="478" 
d="M244 422q75 0 132.5 -56t57.5 -155q0 -100 -58.5 -159.5t-140.5 -59.5q-91 0 -141 75.5t-50 186.5q0 153 86 262.5t211 141.5l9 -22q-183 -69 -224 -263q49 49 118 49zM250 23q109 0 109 167q0 98 -36 149.5t-93 51.5q-65 0 -113 -67q-4 -29 -4 -70q0 -64 12.5 -114
t44.5 -83.5t80 -33.5z" />
    <glyph glyph-name="seven" unicode="7" horiz-adv-x="405" 
d="M380 637q-78 -126 -127 -229.5t-67 -182t-22 -116t-3 -91.5v-18h-67q0 105 13 171q38 186 191 444h-181q-60 -4 -93 -28l20 63h331z" />
    <glyph glyph-name="eight" unicode="8" horiz-adv-x="478" 
d="M294 370q70 -39 105 -78.5t35 -102.5q0 -84 -59.5 -140.5t-144.5 -56.5q-78 0 -132 48.5t-54 126.5q0 65 38.5 120.5t98.5 83.5q-97 56 -97 140q0 64 49 105.5t115 41.5q64 0 105 -39t41 -93q0 -45 -28 -87t-72 -69zM231 627q-42 0 -63 -27t-21 -70q0 -53 30 -84t96 -64
q58 46 58 131q0 44 -25.5 79t-74.5 35zM250 23q47 0 80.5 32.5t33.5 109.5q0 19 -6.5 38t-17 35t-24.5 32t-28 28t-29 23.5t-25.5 18l-19.5 12.5l-10 6q-90 -61 -90 -167q0 -75 38.5 -121.5t97.5 -46.5z" />
    <glyph glyph-name="nine" unicode="9" horiz-adv-x="469" 
d="M236 658q93 0 143 -75t50 -187q0 -155 -91.5 -263t-223.5 -141l-9 22q85 29 152 95.5t91 175.5q-44 -37 -107 -37q-82 0 -142 54.5t-60 150.5q0 93 58 149t139 56zM251 278q60 0 105 52q4 42 4 66q0 101 -32.5 166t-106.5 65q-107 0 -107 -152q0 -97 39.5 -147t97.5 -50z
" />
    <glyph glyph-name="colon" unicode=":" horiz-adv-x="211" 
d="M105 374q19 0 31 -13.5t12 -30.5q0 -20 -12 -30.5t-29 -10.5q-20 0 -32 13t-12 30q0 20 12.5 31t29.5 11zM105 81q19 0 31 -13.5t12 -30.5q0 -20 -12 -30.5t-29 -10.5q-20 0 -32 13t-12 30q0 20 12.5 31t29.5 11z" />
    <glyph glyph-name="semicolon" unicode=";" horiz-adv-x="217" 
d="M110 378q19 0 31 -13.5t12 -30.5q0 -20 -12 -30.5t-29 -10.5q-20 0 -32 13t-12 30q0 20 12.5 31t29.5 11zM153 12q0 -31 -17 -61.5t-54 -37.5l-4 15q22 7 33 23.5t11 30.5q0 11 -16 14q-20 3 -31.5 15t-11.5 29q0 19 12 30t30 11q48 0 48 -69z" />
    <glyph glyph-name="less" unicode="&#x3c;" horiz-adv-x="330" 
d="M285 371v-40l-209 -84l209 -85v-40l-250 108v33z" />
    <glyph glyph-name="equal" unicode="=" horiz-adv-x="345" 
d="M45 314h255v-31h-255v31zM45 214h255v-31h-255v31z" />
    <glyph glyph-name="greater" unicode="&#x3e;" horiz-adv-x="330" 
d="M45 371l250 -108v-33l-250 -108v40l209 85l-209 84v40z" />
    <glyph glyph-name="question" unicode="?" horiz-adv-x="394" 
d="M205 177l-16 -34q-62 0 -71 39.5t48 104.5l35.5 37t40 45.5t22 46.5t12.5 70q0 62 -28.5 101t-83.5 40q-31 1 -54 -9.5t-23 -25.5q0 -8 11.5 -19.5t11.5 -25.5q0 -16 -9.5 -27.5t-26.5 -11.5q-18 0 -29 13t-11 33q0 14 5.5 29.5t19 33.5t42 29.5t68.5 11.5
q81 0 130.5 -45.5t49.5 -113.5q0 -38 -18.5 -76t-36 -59t-51.5 -54l-41 -40q-38 -44 -34.5 -67.5t37.5 -25.5zM161 83q21 0 33 -14t12 -33q0 -18 -12.5 -29t-30.5 -11q-20 0 -32 14t-12 32q0 19 12.5 30t29.5 11z" />
    <glyph glyph-name="at" unicode="@" horiz-adv-x="906" 
d="M527 595q89 0 158.5 -34.5t108 -88.5t54 -119t3.5 -128q-17 -91 -83 -161t-163 -70q-62 0 -76 35q-46 -37 -108 -37q-85 0 -128.5 61.5t-27.5 153.5q17 97 83 156t143 59q68 0 101 -38l32 11h24l-51 -316q-5 -32 0 -42.5t26 -10.5q53 0 97 42t59 117q8 53 9.5 105.5
t-17 102t-49 87t-86 60.5t-128.5 23q-143 0 -250 -91.5t-132 -235.5q-28 -162 52.5 -273t238.5 -111q90 0 177 41l12 -28q-83 -45 -202 -45q-110 0 -195.5 46t-128.5 135.5t-24 205.5q15 89 62 164t113 123t142.5 74.5t153.5 26.5zM442 23q47 0 83 45l45 277
q-7 20 -28.5 34.5t-53.5 14.5q-53 0 -93.5 -43.5t-53.5 -118.5q-15 -85 12.5 -147t88.5 -62z" />
    <glyph glyph-name="A" unicode="A" horiz-adv-x="596" 
d="M534 40q13 -25 51 -25v-15h-161v15q17 0 28 6.5t10 16.5l-66 180h-230l-61 -180q-2 -8 7.5 -13t24 -7.5t32.5 -2.5v-15h-158v15q47 0 54 20l214 622l22 8zM177 251h207l-107 291z" />
    <glyph glyph-name="B" unicode="B" horiz-adv-x="525" 
d="M370 348q50 -14 85 -52t35 -108q0 -86 -56 -137t-146 -51h-236v15q22 0 40.5 7.5t18.5 22.5v560q0 15 -18.5 22.5t-40.5 7.5v15h225q29 0 56.5 -6t56 -21t46 -46.5t17.5 -75.5q0 -48 -21 -89.5t-62 -63.5zM255 622q-51 0 -75 -6v-261h112q27 0 46 13.5t27.5 36.5t12 43
t3.5 41q0 133 -126 133zM282 28q132 0 132 148q0 76 -33.5 111.5t-79.5 35.5h-121v-287q40 -8 102 -8z" />
    <glyph glyph-name="C" unicode="C" horiz-adv-x="624" 
d="M567 111l14 -21q-67 -98 -218 -98q-142 0 -233 92.5t-91 238.5q0 79 28.5 144t75.5 106t106 63t122 22q58 0 123 -23q16 -5 23.5 -7t17.5 0t14 12l13 -6l-41 -137l-13 6q7 33 2 58t-31 38q-43 23 -113 23q-112 0 -181 -75.5t-69 -203.5q0 -133 73.5 -224t192.5 -91
q56 0 105.5 22t79.5 61z" />
    <glyph glyph-name="D" unicode="D" horiz-adv-x="663" 
d="M325 650q54 0 104.5 -17.5t95.5 -52.5t72 -97t27 -142q0 -90 -30.5 -165.5t-96.5 -125.5t-157 -50h-288v15q22 0 40.5 7.5t18.5 22.5v560q0 15 -18.5 22.5t-40.5 7.5v15h273zM307 28q56 0 99 16t69 42.5t43 64t23 75.5t6 83q0 146 -67 229.5t-197 83.5q-62 0 -103 -8
v-577q63 -9 127 -9z" />
    <glyph glyph-name="E" unicode="E" horiz-adv-x="515" 
d="M461 97l16 -5l-28 -92h-397v15q22 0 41 7.5t19 22.5v560q0 15 -19 22.5t-41 7.5v15h393l27 -92l-16 -5q-21 65 -66 65h-209v-265h167q30 0 30 69h15v-169h-15q0 68 -30 68h-167v-289h213q46 0 67 65z" />
    <glyph glyph-name="F" unicode="F" horiz-adv-x="504" 
d="M443 650l28 -92l-16 -5q-11 34 -26.5 49.5t-40.5 15.5h-207v-282h139q31 0 31 69h15v-169h-15q0 68 -31 68h-139v-259q0 -16 25 -23t55 -7v-15h-209v15q22 0 41 7.5t19 22.5v560q0 15 -19 22.5t-41 7.5v15h391z" />
    <glyph glyph-name="G" unicode="G" horiz-adv-x="674" 
d="M639 293q-38 0 -38 -30v-141q1 -27 10 -45q-92 -85 -252 -85q-139 0 -229.5 94t-90.5 243q0 157 99.5 243t239.5 86q70 0 139 -30q22 -10 33 14h15v-136l-17 7q-6 58 -56.5 83.5t-120.5 25.5q-111 0 -183 -66.5t-72 -205.5q0 -140 73.5 -231t189.5 -91q89 0 158 42v171
q0 44 -87 52v14h189v-14z" />
    <glyph glyph-name="H" unicode="H" horiz-adv-x="706" 
d="M654 635q-22 0 -41 -7.5t-19 -22.5v-560q0 -15 19 -22.5t41 -7.5v-15h-178v15q49 0 49 30v283h-344v-283q0 -30 49 -30v-15h-178v15q22 0 41 7.5t19 22.5v560q0 15 -19 22.5t-41 7.5v15h178v-15q-49 0 -49 -30v-245h344v245q0 30 -49 30v15h178v-15z" />
    <glyph glyph-name="I" unicode="I" horiz-adv-x="288" 
d="M235 636q-21 0 -39 -7t-18 -23v-561q0 -16 18 -23t39 -7v-15h-183v15q21 0 39 7t18 23v561q0 16 -18 23t-39 7v14h183v-14z" />
    <glyph glyph-name="J" unicode="J" horiz-adv-x="278" 
d="M236 650v-15q-22 0 -40 -7t-18 -23v-541q0 -73 -38 -118t-121 -93l-4 14q48 36 71 76t23 96v566q0 16 -18 23t-40 7v15h185z" />
    <glyph glyph-name="K" unicode="K" horiz-adv-x="653" 
d="M540 61q41 -46 112 -46v-15h-171q9 19 -2 33l-272 288l-26 -27v-249q0 -30 71 -30v-15h-200v15q22 0 41 7.5t19 22.5v560q0 15 -19 22.5t-41 7.5v15h178v-15q-49 0 -49 -30v-266l276 269q9 12 2.5 19.5t-21.5 7.5v15h160v-15q-62 0 -95 -32l-248 -242z" />
    <glyph glyph-name="L" unicode="L" horiz-adv-x="500" 
d="M451 96l16 -5l-28 -91h-387v15q22 0 41 7.5t19 22.5v560q0 15 -19 22.5t-41 7.5v15h199v-15q-70 0 -70 -30v-572h205q25 0 39.5 15t25.5 48z" />
    <glyph glyph-name="M" unicode="M" horiz-adv-x="809" 
d="M723 40q1 -11 21 -18t40 -7v-15h-182v15q20 0 38 6.5t18 17.5l-36 502l-219 -545h-16l-226 516l-33 -465q0 -15 20 -23.5t47 -8.5v-15h-171v15q22 0 41 8t21 23l41 559q1 14 -21 22t-50 8v15h115l238 -541l218 541h125v-15q-66 0 -69 -29z" />
    <glyph glyph-name="N" unicode="N" horiz-adv-x="710" 
d="M668 650v-15q-19 0 -37 -8t-18 -22v-609h-14l-451 536v-487q0 -30 79 -30v-15h-175v15q21 0 40 8t19 22v560q0 14 -19 22t-40 8v15h90l433 -517v472q0 30 -78 30v15h171z" />
    <glyph glyph-name="O" unicode="O" horiz-adv-x="713" 
d="M349 -8q-133 0 -221.5 97t-88.5 241q0 79 28.5 143t76 103.5t104 60.5t116.5 21q133 0 221.5 -97t88.5 -241q0 -79 -29 -143t-76 -103.5t-104 -60.5t-116 -21zM369 28q45 0 84 14.5t72 44.5t52.5 85t19.5 128q0 140 -67 231t-186 91q-45 0 -84 -14.5t-72 -44.5t-52.5 -85
t-19.5 -128q0 -139 67 -230.5t186 -91.5z" />
    <glyph glyph-name="P" unicode="P" horiz-adv-x="524" 
d="M480 466q0 -94 -79 -162t-220 -74v-185q0 -30 69 -30v-15h-198v15q22 0 41 7.5t19 22.5v560q0 15 -19 22.5t-41 7.5v15h218q85 0 147.5 -50t62.5 -134zM243 622q-35 0 -62 -6v-353q222 10 222 189q0 70 -38 120t-122 50z" />
    <glyph glyph-name="Q" unicode="Q" horiz-adv-x="716" 
d="M730 -56q133 -67 271.5 -80t232.5 34v-15q-108 -58 -255.5 -52t-277.5 68q-21 10 -41.5 21.5t-46 28l-37 24t-42.5 29.5l-35 25q-72 -35 -150 -35q-133 0 -221.5 97t-88.5 241q0 79 28.5 143t76 103.5t104 60.5t116.5 21q133 0 221.5 -97t88.5 -241q0 -174 -130 -266
l58.5 -35.5l70 -42.5t57.5 -32zM369 28q54 0 100 20q-29 20 -51 32.5t-44.5 21t-42.5 8t-37 -9.5v15q57 49 216 -42q87 70 87 227q0 140 -67 231t-186 91q-45 0 -84 -14.5t-72 -44.5t-52.5 -85t-19.5 -128q0 -139 67 -230.5t186 -91.5z" />
    <glyph glyph-name="R" unicode="R" horiz-adv-x="611" 
d="M511 61q40 -46 99 -46v-15h-160q13 18 -1 37l-175 225q-42 -8 -93 -10v-207q0 -30 68 -30v-15h-197v15q22 0 41 7.5t19 22.5v560q0 15 -19 22.5t-41 7.5v15h214q90 0 151.5 -43t61.5 -121q0 -67 -43 -121.5t-97 -83.5zM181 615v-331q221 6 221 192q0 146 -159 146
q-37 0 -62 -7z" />
    <glyph glyph-name="S" unicode="S" horiz-adv-x="501" 
d="M243 -8q-31 0 -59.5 7t-45.5 15.5t-32 15t-25.5 5t-18.5 -13.5l-13 5l46 150l12 -5q-12 -61 27 -102.5t109 -41.5q41 0 70 11.5t43 30.5t20 38t6 40q0 26 -10.5 50.5t-22 40t-37.5 35.5t-38 27.5t-44.5 25.5t-37.5 21q-55 32 -83.5 67t-29.5 89q-1 74 50 114.5t124 40.5
q30 0 59 -7.5t43.5 -14t26.5 -5.5t18 15l12 -5l-38 -124l-11 5q10 47 -22.5 74t-88.5 27q-107 0 -107 -102q0 -15 3 -27t6 -21.5t12.5 -19.5l15 -16t22 -16.5t25 -15.5l31.5 -18l34 -19q78 -46 118 -88t40 -106q0 -77 -59 -129.5t-150 -52.5z" />
    <glyph glyph-name="T" unicode="T" horiz-adv-x="606" 
d="M577 555l-14 -4q-21 66 -68 66h-158v-572q0 -30 79 -30v-15h-227v15q79 0 79 30v572h-158q-47 0 -68 -66l-13 4l31 102q9 -7 23 -7h439q14 0 23 7z" />
    <glyph glyph-name="U" unicode="U" horiz-adv-x="673" 
d="M631 650v-15q-22 0 -40.5 -7.5t-18.5 -22.5v-423q0 -94 -67.5 -142t-169.5 -48q-104 0 -168.5 51.5t-64.5 148.5v413q0 15 -18.5 22.5t-40.5 7.5v15h186v-15q-22 0 -40 -7t-18 -23v-397q0 -90 49.5 -135t127.5 -45q77 0 129.5 40t52.5 100v437q0 16 -18 23t-40 7v15h159z
" />
    <glyph glyph-name="V" unicode="V" horiz-adv-x="606" 
d="M577 650v-15q-45 0 -62 -44l-205 -595h-18l-207 601q-6 17 -22 27.5t-34 10.5v15h110l179 -530l159 480q5 14 -15.5 24.5t-52.5 10.5v15h168z" />
    <glyph glyph-name="W" unicode="W" horiz-adv-x="887" 
d="M858 650v-15q-43 0 -55 -28l-186 -611h-19l-153 443l-137 -443h-19l-209 614q-11 25 -51 25v15h109l173 -528l113 378l-38 109q-11 26 -70 26v15h127l176 -528l142 483q4 13 -16.5 21.5t-53.5 8.5v15h167z" />
    <glyph glyph-name="X" unicode="X" horiz-adv-x="622" 
d="M513 44q18 -29 75 -29v-15h-176v15q16 0 23 6.5t3 17.5l-149 251l-145 -247q-7 -12 3 -20t28 -8v-15h-135v15q45 0 63 29l166 281l-165 281q-22 29 -70 29v15h123l164 -280l138 237q8 14 -1.5 21t-28.5 7v15h151v-15q-61 0 -77 -26l-162 -273z" />
    <glyph glyph-name="Y" unicode="Y" horiz-adv-x="578" 
d="M549 650v-15q-35 0 -51 -27l-172 -300v-263q0 -30 79 -30v-15h-226v15q78 0 78 30v256l-182 315q-14 19 -46 19v15h100l179 -309l152 268q3 6 -1.5 12t-16 10t-27.5 4v15h134z" />
    <glyph glyph-name="Z" unicode="Z" horiz-adv-x="503" 
d="M454 97l14 -5l-28 -92h-406v8l333 609h-231q-46 0 -67 -64l-15 5l28 92h371v-8l-333 -609h267q46 0 67 64z" />
    <glyph glyph-name="bracketleft" unicode="[" horiz-adv-x="264" 
d="M131 -85h79l9 -27h-108q-18 -2 -26 -7v789q8 -5 26 -7h108l-9 -28h-79v-720z" />
    <glyph glyph-name="backslash" unicode="\" horiz-adv-x="375" 
d="M57 712l299 -774h-38l-299 774h38z" />
    <glyph glyph-name="bracketright" unicode="]" horiz-adv-x="264" 
d="M133 -85v720h-79l-9 28h108q18 2 26 7v-789q-8 5 -26 7h-108l9 27h79z" />
    <glyph glyph-name="asciicircum" unicode="^" horiz-adv-x="341" 
d="M299 455h-48l-80 160l-81 -160h-48l111 211h35z" />
    <glyph glyph-name="underscore" unicode="_" horiz-adv-x="545" 
d="M45 -39h455v-28h-455v28z" />
    <glyph glyph-name="grave" unicode="`" horiz-adv-x="186" 
d="M103 781h-59l87 -97l12 22z" />
    <glyph glyph-name="a" unicode="a" horiz-adv-x="444" 
d="M419 35l6 -15q-69 -28 -85 -28q-22 0 -37 50q-57 -50 -125 -50q-54 0 -96.5 29.5t-42.5 92.5q0 40 19.5 68t58 43.5t81 23t103.5 11.5v49q0 86 -103 86q-73 0 -73 -35q0 -7 10.5 -16.5t10.5 -25.5t-10.5 -25t-23.5 -9q-17 0 -28 12.5t-11 35.5q0 34 36 62t110 28
q78 0 113 -35.5t35 -103.5v-230q0 -25 23 -25q10 0 29 7zM196 20q46 0 105 46v170q-44 -5 -68 -9t-51.5 -12t-41 -19t-22.5 -28.5t-9 -42.5q0 -44 24 -74.5t63 -30.5z" />
    <glyph glyph-name="b" unicode="b" horiz-adv-x="456" 
d="M230 422q83 0 137 -57.5t54 -151.5q0 -98 -58.5 -159.5t-139.5 -61.5q-54 0 -98 28q-13 -20 -47 -20h-12v603q0 32 -41 20l-6 -2l-5 15l42 12q33 10 50 10q25 0 25 -29v-241q36 34 99 34zM217 20q66 0 100 45.5t34 129.5q0 86 -33.5 142.5t-95.5 56.5q-57 0 -91 -47v-296
q35 -31 86 -31z" />
    <glyph glyph-name="c" unicode="c" horiz-adv-x="411" 
d="M370 86l6 -21q-52 -73 -148 -73q-86 0 -140 60.5t-54 152.5q0 93 54.5 155t143.5 62q66 0 101.5 -31.5t35.5 -64.5q0 -16 -10.5 -27t-24.5 -11q-15 0 -26.5 11t-11.5 29q0 10 3.5 17t3.5 13q0 15 -22.5 25.5t-54.5 10.5q-121 0 -121 -166q0 -89 35 -148.5t105 -59.5
q73 0 125 66z" />
    <glyph glyph-name="d" unicode="d" horiz-adv-x="472" 
d="M447 35l6 -15q-70 -28 -86 -28q-20 0 -32 37q-42 -37 -105 -37q-86 0 -141 60.5t-55 154.5q0 96 56.5 155.5t138.5 59.5q68 0 100 -35v216q0 34 -43 19l-11 -3l-4 15l59 18q19 6 39 6q25 0 25 -29v-576q0 -25 23 -25q11 0 30 7zM105 230q0 -88 37 -149t106 -61
q45 0 81 34v285q-26 55 -94 55q-63 0 -96.5 -43.5t-33.5 -120.5z" />
    <glyph glyph-name="e" unicode="e" horiz-adv-x="419" 
d="M250 20q59 0 114 45l6 -21q-55 -52 -138 -52q-87 0 -142.5 61t-55.5 152t54.5 154t138.5 63q77 0 117.5 -56.5t40.5 -144.5h-280q1 -87 39 -144t106 -57zM211 394q-48 0 -74.5 -40t-30.5 -106h209q1 55 -25 100.5t-79 45.5z" />
    <glyph glyph-name="f" unicode="f" horiz-adv-x="327" 
d="M216 658q49 0 73 -25t24 -51q0 -17 -10.5 -27t-26.5 -10t-26.5 10.5t-10.5 28.5q0 9 4 19t4 13q0 19 -32 19q-31 0 -43.5 -20.5t-12.5 -71.5v-129h93l-8 -28h-85v-341q0 -15 19.5 -22.5t41.5 -7.5v-15h-176v15q49 0 49 30v341h-60l9 28h51v51q0 193 123 193z" />
    <glyph glyph-name="g" unicode="g" horiz-adv-x="422" 
d="M206 422q52 0 88 -25q23 46 66 46q21 0 32 -10.5t11 -26.5t-9.5 -25t-23.5 -9q-15 0 -24 9.5t-9 24.5q0 9 6 18q-21 -8 -27 -45q42 -39 42 -100q0 -63 -46 -104t-115 -41q-35 0 -63 11l-25 -25q-5 -7 -3.5 -12t8.5 -7q17 -5 53.5 -14.5l61.5 -16t56.5 -19.5t51.5 -26.5
t34 -35t14 -47.5q0 -54 -52.5 -88t-135.5 -34q-73 0 -118.5 27.5t-45.5 74.5q0 37 27 62t67 32l4 -14q-45 -20 -45 -69q0 -38 36.5 -61.5t88.5 -23.5q49 0 77 22t28 54q0 28 -21.5 51t-56.5 38t-66.5 25t-64.5 17.5t-38 9.5q-18 7 -19.5 22t12.5 27l48 43q-64 40 -64 120
q0 62 45 103.5t115 41.5zM211 161q81 0 81 100q0 55 -25.5 94t-75.5 39q-79 0 -79 -104q0 -54 24 -91.5t75 -37.5z" />
    <glyph glyph-name="h" unicode="h" horiz-adv-x="484" 
d="M413 45q0 -30 47 -30v-15h-151v15q39 0 39 30v232q0 50 -24 78.5t-64 28.5q-61 0 -119 -77v-262q0 -16 18 -23t40 -7v-15h-172v15q49 0 49 30v558q0 31 -38 21l-10 -3l-4 14l42 13q33 10 47 10q28 0 28 -29v-283q70 76 148 76q54 0 89 -35t35 -89v-253z" />
    <glyph glyph-name="i" unicode="i" horiz-adv-x="239" 
d="M120 495q-19 0 -32 12.5t-13 31.5q0 17 11.5 28.5t29.5 11.5t31 -12.5t13 -31.5q0 -17 -11.5 -28.5t-28.5 -11.5zM160 45q0 -30 51 -30v-15h-168v15q52 0 52 30v295q0 23 -16 30.5t-36 -2.5l-8 -4l-7 15l68 29q12 6 29 6q35 0 35 -35v-334z" />
    <glyph glyph-name="j" unicode="j" horiz-adv-x="222" 
d="M110 495q-19 0 -31.5 13t-12.5 32q0 17 11 28t29 11t31 -12.5t13 -31.5q0 -17 -11 -28.5t-29 -11.5zM116 414q34 0 34 -35v-383q0 -73 -26.5 -110.5t-95.5 -65.5l-5 10q36 26 49 59.5t13 82.5v368q0 23 -15.5 30.5t-35.5 -2.5l-9 -4l-6 15l61 26q21 9 36 9z" />
    <glyph glyph-name="k" unicode="k" horiz-adv-x="464" 
d="M382 47q26 -32 68 -32v-15h-130q9 20 -3 38l-134 191l-42 -39v-145q0 -30 43 -30v-15h-157v15q49 0 49 30v558q0 32 -38 21l-10 -3l-4 14l42 13q33 10 49 10q26 0 26 -29v-401l157 145q9 8 4 17.5t-16 9.5v14h147v-15q-57 0 -100 -35l-107 -97z" />
    <glyph glyph-name="l" unicode="l" horiz-adv-x="214" 
d="M141 45q0 -30 49 -30v-15h-163v15q49 0 49 30v558q0 32 -38 21l-10 -3l-4 14l42 13q33 10 48 10q27 0 27 -29v-584z" />
    <glyph glyph-name="m" unicode="m" horiz-adv-x="730" 
d="M24 379l61 26q24 9 37 9q29 0 31 -30v-35q61 73 132 73q41 0 72 -21.5t43 -55.5q64 78 137 78q53 0 86 -33t33 -81v-264q0 -30 50 -30v-15h-156v15q16 0 28.5 7t12.5 23v242q0 41 -21 69.5t-58 28.5q-51 0 -107 -75v-265q0 -30 49 -30v-15h-155v15q16 0 28.5 7t12.5 23
v241q0 45 -23 71.5t-57 26.5q-51 0 -106 -75v-264q0 -30 48 -30v-15h-163v15q49 0 49 30v295q0 24 -15.5 30.5t-35.5 -2.5l-7 -3z" />
    <glyph glyph-name="n" unicode="n" horiz-adv-x="496" 
d="M427 45q0 -30 45 -30v-15h-151v15q41 0 41 30v241q0 98 -72 98q-71 0 -136 -78v-261q0 -16 18 -23t39 -7v-15h-167v15q44 0 44 30v295q0 24 -15.5 30.5t-35.5 -2.5l-7 -3l-6 14l56 24q28 11 43 11q29 0 30 -31v-39q78 78 167 78q54 0 80.5 -32t26.5 -83v-262z" />
    <glyph glyph-name="o" unicode="o" horiz-adv-x="472" 
d="M235 -8q-85 0 -143 60.5t-58 152.5q0 93 59 155t145 62q85 0 142.5 -60.5t57.5 -152.5q0 -93 -58.5 -155t-144.5 -62zM251 20q59 0 87.5 46t28.5 119q0 89 -38.5 149t-107.5 60q-59 0 -87.5 -46.5t-28.5 -119.5q0 -89 38.5 -148.5t107.5 -59.5z" />
    <glyph glyph-name="p" unicode="p" horiz-adv-x="457" 
d="M257 422q67 0 116 -59.5t49 -151.5q0 -94 -52 -156.5t-129 -62.5q-50 0 -92 24v-151q0 -30 69 -30v-15h-184v15q50 0 50 30v475q0 24 -15.5 31t-35.5 -3l-7 -3l-7 14l56 24q28 11 43 11q28 0 29 -29q0 -2 0.5 -6t0.5 -7q54 50 109 50zM233 20q56 0 87.5 47t31.5 132
t-29 140t-79 55q-48 0 -95 -60v-284q41 -30 84 -30z" />
    <glyph glyph-name="q" unicode="q" horiz-adv-x="452" 
d="M381 -135q0 -30 66 -30v-15h-173v15q42 0 42 30v151q-40 -24 -92 -24q-81 0 -135.5 58.5t-54.5 151.5q0 96 56.5 158t130.5 62q59 0 98 -41q7 15 21.5 26t28.5 11h12v-553zM241 20q41 0 75 27v292q-31 55 -89 55t-90 -46t-32 -123q0 -87 37 -146t99 -59z" />
    <glyph glyph-name="r" unicode="r" horiz-adv-x="368" 
d="M267 422q35 0 55.5 -21.5t20.5 -50.5q0 -20 -10.5 -30.5t-25.5 -10.5q-17 0 -28.5 10.5t-11.5 26.5q0 12 8 22.5t8 15.5q0 13 -20 13q-34 0 -61 -35t-38.5 -74t-11.5 -67v-176q0 -30 74 -30v-15h-187v15q49 0 49 30v295q0 24 -15.5 30.5t-35.5 -2.5l-7 -3l-6 14l52 22
q30 13 47 13q29 0 29 -35v-57q38 100 115 100z" />
    <glyph glyph-name="s" unicode="s" horiz-adv-x="368" 
d="M179 -8q-76 0 -140 53l22 73l11 -5q-7 -43 28 -68.5t83 -25.5q45 0 66 23.5t21 57.5q0 16 -6.5 29.5t-13 22t-23.5 19t-25 14.5t-31 13.5t-29 12.5q-88 38 -88 103q0 44 35 76t98 32q60 0 127 -44l-35 -75l-10 4q12 31 -2 52t-36 28.5t-46 7.5q-31 0 -52.5 -16t-21.5 -48
q0 -20 15.5 -36t32.5 -24.5t58 -25.5q53 -23 85 -52.5t32 -77.5q0 -56 -44 -89.5t-111 -33.5z" />
    <glyph glyph-name="t" unicode="t" horiz-adv-x="295" 
d="M266 60l6 -19q-35 -49 -99 -49q-40 0 -67.5 22t-27.5 72v300h-50v15q73 16 98 123h18v-110h118l-8 -28h-110v-271q0 -47 11 -71t40 -24q42 0 71 40z" />
    <glyph glyph-name="u" unicode="u" horiz-adv-x="491" 
d="M470 35l6 -15q-68 -28 -85 -28q-13 0 -23.5 19t-13.5 43q-52 -62 -136 -62q-62 0 -95.5 33t-33.5 83v232q0 23 -16.5 29.5t-35.5 -3.5l-7 -3l-6 15l67 30q15 6 30 6q33 0 33 -35v-259q0 -45 21 -72.5t62 -27.5q60 0 116 65v274q0 31 -37 21l-11 -3l-6 14l55 17q20 6 34 6
q30 0 30 -29v-332q0 -25 23 -25q12 0 29 7z" />
    <glyph glyph-name="v" unicode="v" horiz-adv-x="404" 
d="M317 422q24 0 38 -20t14 -52q0 -57 -27 -112l-119 -238h-33l-120 344q-16 44 -46 31l-5 -2l-5 15l46 20q16 6 29 6q27 0 39 -31l103 -308l80 165q24 48 24 79q0 15 -8.5 23t-18 9.5t-18 9.5t-8.5 24q0 37 35 37z" />
    <glyph glyph-name="w" unicode="w" horiz-adv-x="608" 
d="M521 422q24 0 38 -20t14 -52q0 -47 -29 -111l-109 -239h-35l-76 231l-103 -231h-34l-115 344q-9 25 -17 31t-31 -1l-5 -3l-5 15l51 22q13 6 28 6q23 0 34 -31l97 -305l86 194l-24 72q-9 25 -17.5 31.5t-30.5 -1.5l-4 -2l-5 14l50 22q12 6 28 6q21 0 34 -31l96 -306
l76 163q25 56 25 80q0 15 -8 22.5t-17.5 9t-17.5 9.5t-8 24q0 37 34 37z" />
    <glyph glyph-name="x" unicode="x" horiz-adv-x="435" 
d="M349 52q28 -37 62 -37v-15h-123q10 22 -1 38l-81 131l-78 -127q-6 -10 -2.5 -18.5t13.5 -8.5v-15h-113v15q46 0 70 34l92 148l-95 157q-23 37 -59 21l-5 -2l-5 15l45 20q13 6 31 6q16 0 24.5 -6t17.5 -20l86 -140l78 124q6 10 2 18.5t-14 8.5v15h114v-15q-47 0 -71 -34
l-91 -147z" />
    <glyph glyph-name="y" unicode="y" horiz-adv-x="411" 
d="M324 422q24 0 37.5 -19.5t13.5 -53.5q0 -54 -28 -111l-144 -295q-31 -65 -58 -86.5t-56 -21.5q-53 0 -53 38q0 31 27 31q7 0 14 -3t11 -5.5t9.5 -7.5t6.5 -6q8 -4 17.5 -2.5t25 22.5t33.5 60l27 54l-132 328q-7 16 -11 22.5t-13.5 11.5t-21.5 -3l-5 -2l-6 15l40 17
q23 9 37 9q24 0 37 -31l113 -291l71 149q25 50 25 78q0 15 -8 23t-18 9.5t-18 9.5t-8 24q0 37 35 37z" />
    <glyph glyph-name="z" unicode="z" horiz-adv-x="347" 
d="M309 65l13 -4l-18 -61h-278v5l205 381h-139q-22 0 -35 -38l-16 5l17 61h253v-5l-206 -381h166q26 0 38 37z" />
    <glyph glyph-name="braceleft" unicode="{" horiz-adv-x="314" 
d="M163 -3q0 -56 18.5 -78.5t53.5 -22.5q23 0 34 5l-14 -32q-148 0 -148 136q0 44 19 92t19 75q0 45 -25.5 63t-73.5 23v15q48 5 73.5 23t25.5 63q0 27 -19 75t-19 92q0 137 148 137l13 -33q-11 5 -33 5q-35 0 -53.5 -22.5t-18.5 -78.5q0 -39 12 -89t12 -75q0 -91 -95 -104
q95 -15 95 -105q0 -25 -12 -75t-12 -89z" />
    <glyph glyph-name="bar" unicode="|" horiz-adv-x="166" 
d="M65 715h36v-828h-36v828z" />
    <glyph glyph-name="braceright" unicode="}" horiz-adv-x="314" 
d="M151 -3q0 39 -12 89t-12 75q0 90 95 105q-95 13 -95 104q0 25 12 75t12 89q0 56 -18.5 78.5t-53.5 22.5q-22 0 -33 -5l13 33q148 0 148 -137q0 -44 -19 -92t-19 -75q0 -45 25.5 -63t73.5 -23v-15q-48 -5 -73.5 -23t-25.5 -63q0 -27 19 -75t19 -92q0 -136 -148 -136
l-14 32q11 -5 34 -5q35 0 53.5 22.5t18.5 78.5z" />
    <glyph glyph-name="asciitilde" unicode="~" horiz-adv-x="389" 
d="M42 214q5 36 28 58t57 22q35 0 78 -31t67 -31q38 0 55 42h20q-5 -36 -28 -58t-57 -22q-35 0 -78 31t-67 31q-38 0 -55 -42h-20z" />
    <glyph glyph-name="exclamdown" unicode="&#xa1;" horiz-adv-x="250" 
d="M118 403q-18 0 -30.5 11.5t-12.5 30.5q0 18 12 31.5t33 13.5q17 0 29.5 -11t12.5 -30q0 -18 -12 -32t-32 -14zM101 347l-13 -509l70 -28l-22 535z" />
    <glyph glyph-name="cent" unicode="&#xa2;" horiz-adv-x="411" 
d="M376 65q-48 -70 -140 -73v-42h-26v43q-79 7 -127.5 66t-48.5 146q0 86 48 147t128 69v43h26v-42q64 -1 98.5 -32.5t34.5 -63.5q0 -16 -10.5 -27t-24.5 -11q-15 0 -26.5 11t-11.5 29q0 10 3.5 17t3.5 13q0 13 -19 23.5t-48 12.5v-374h9q73 0 125 66zM105 228
q0 -77 26 -133t79 -70v368q-105 -10 -105 -165z" />
    <glyph glyph-name="sterling" unicode="&#xa3;" horiz-adv-x="450" 
d="M387 134q15 0 26.5 -12t11.5 -29q0 -12 -5 -26.5t-17.5 -33t-39.5 -30.5t-65 -12q-29 0 -62 8.5t-55.5 15t-60 2.5t-82.5 -25l-13 29q8 8 23 21q45 41 59 63t20.5 64.5t6.5 142.5h-74l13 33h61v109q0 90 33.5 147t103.5 57q55 0 88 -34t33 -74q0 -23 -10.5 -34t-24.5 -11
t-24.5 9t-10.5 23q0 10 8.5 21t8.5 22q0 21 -19 36t-50 15q-37 0 -52.5 -31t-15.5 -112v-143h140l-13 -33h-127q-1 -82 -13 -132t-30 -75.5t-55 -56.5q51 15 112.5 -4.5t88.5 -19.5q32 0 48.5 9.5t16.5 23.5q0 7 -8 19t-8 24q0 16 10.5 25t22.5 9z" />
    <glyph glyph-name="currency" unicode="&#xa4;" horiz-adv-x="521" 
d="M476 207q0 -80 -52 -142l29 -28l-22 -22l-28 29q-62 -52 -142 -52t-142 52l-28 -29l-22 22l29 28q-53 61 -53 142t53 142l-29 28l22 22l28 -29q62 52 142 52t142 -52l28 29l22 -22l-29 -28q52 -62 52 -142zM261 25q69 0 123.5 52.5t54.5 129.5t-54.5 129.5t-123.5 52.5
t-124 -52.5t-55 -129.5t55 -129.5t124 -52.5z" />
    <glyph glyph-name="yen" unicode="&#xa5;" horiz-adv-x="578" 
d="M415 650h134v-15q-35 0 -51 -27l-156 -272h102l-13 -32h-105v-56h118l-13 -33h-105v-170q0 -30 79 -30v-15h-226v15q78 0 78 30v170h-109l13 33h96v53l-2 3h-107l13 32h76l-162 280q-14 19 -46 19v15h100l179 -309l152 268q3 6 -1.5 12t-16 10t-27.5 4v15z" />
    <glyph glyph-name="brokenbar" unicode="&#xa6;" horiz-adv-x="166" 
d="M65 401v314h36v-314h-36zM101 201v-314h-36v314h36z" />
    <glyph glyph-name="section" unicode="&#xa7;" horiz-adv-x="414" 
d="M256 363q55 -52 82.5 -94t30.5 -59.5t2 -39.5q-5 -89 -56.5 -133.5t-118.5 -44.5q-75 0 -110 32.5t-35 72.5q0 22 10 36.5t27 14.5q14 0 23.5 -9.5t9.5 -21.5q0 -9 -8 -19.5t-8 -20.5q0 -57 92 -57q39 0 63.5 20.5t27.5 53.5q3 30 -20 69.5t-100 116.5q-60 60 -81 83.5
t-33 52t-11 66.5q4 88 56 132t114 44q60 0 95 -32t35 -72q0 -51 -36 -51q-12 0 -22 9t-10 21q0 10 7.5 19.5t7.5 18.5q0 13 -4.5 24.5t-24.5 23t-53 11.5q-32 0 -55 -20t-28 -55q-6 -40 14.5 -70.5t83.5 -90.5zM329 127q39 84 -97 216q-102 100 -119 122q-20 26 -24 57h-7
q-4 -20 -4.5 -37t-0.5 -30t7.5 -28t11 -23t18 -24l20.5 -22.5t27 -26.5l30 -29q108 -104 131 -175h7z" />
    <glyph glyph-name="dieresis" unicode="&#xa8;" horiz-adv-x="243" 
d="M71 748q12 0 20.5 -8.5t8.5 -20.5t-7.5 -19.5t-20.5 -7.5q-12 0 -20.5 8t-8.5 21q0 12 7.5 19.5t20.5 7.5zM170 748q12 0 20.5 -8.5t8.5 -20.5q0 -27 -28 -27q-12 0 -20.5 8.5t-8.5 20.5q0 11 8 19t20 8z" />
    <glyph glyph-name="copyright" unicode="&#xa9;" horiz-adv-x="730" 
d="M365 -8q-133 0 -226.5 97.5t-93.5 235.5t93.5 235.5t226.5 97.5t226.5 -97.5t93.5 -235.5t-93.5 -235.5t-226.5 -97.5zM365 26q115 0 196.5 87.5t81.5 211.5t-81.5 211.5t-196.5 87.5t-196.5 -87.5t-81.5 -211.5t81.5 -211.5t196.5 -87.5zM515 204l6 -21
q-52 -73 -148 -73q-86 0 -140 60.5t-54 152.5q0 93 54.5 155t143.5 62q66 0 101.5 -31.5t35.5 -64.5q0 -16 -10.5 -27t-24.5 -11q-15 0 -26.5 11t-11.5 29q0 10 3.5 17t3.5 13q0 15 -22.5 25.5t-54.5 10.5q-121 0 -121 -166q0 -89 35 -148.5t105 -59.5q73 0 125 66z" />
    <glyph glyph-name="ordfeminine" unicode="&#xaa;" horiz-adv-x="285" 
d="M186 419q-34 -28 -77 -28q-32 0 -60.5 17.5t-28.5 56.5q0 49 42 69.5t120 23.5v28q0 54 -54 54q-49 0 -49 -20q0 -4 7 -11.5t7 -16.5q0 -11 -8 -17.5t-18 -6.5q-28 0 -28 33q0 24 23.5 41.5t71.5 17.5q95 0 95 -92v-143q0 -10 13 -10q9 0 19 5l4 -11q-36 -18 -60 -18
q-13 0 -19 28zM71 473q0 -26 13 -42t35 -16q31 0 63 21v105q-60 -8 -85.5 -21t-25.5 -47zM53 303l8 28h170l-8 -28h-170z" />
    <glyph glyph-name="guillemotleft" unicode="&#xab;" horiz-adv-x="466" 
d="M45 223l173 -178l17 27l-126 156l126 156l-17 27l-173 -178v-10zM211 223l173 -178l17 27l-126 156l126 156l-17 27l-173 -178v-10z" />
    <glyph glyph-name="logicalnot" unicode="&#xac;" horiz-adv-x="387" 
d="M45 264h297v-144h-33v113h-264v31z" />
    <glyph glyph-name="uni00AD" unicode="&#xad;" horiz-adv-x="245" 
d="M41 217l179 69l-15 -37l-180 -69z" />
    <glyph glyph-name="registered" unicode="&#xae;" horiz-adv-x="548" 
d="M274 769q95 0 162 -70t67 -169q0 -98 -67 -168t-162 -70t-162 70t-67 168q0 99 67 169t162 70zM274 325q79 0 135 60t56 144t-55.5 145.5t-135.5 61.5q-79 0 -134.5 -60.5t-55.5 -145.5q0 -84 55.5 -144.5t134.5 -60.5zM361 452q22 -29 49 -29v-9h-81q9 12 -1 25l-53 76
q-18 -5 -35 -5v-63q0 -24 38 -24v-9h-105v9q29 0 29 24v190q0 23 -33 23v10h104q37 0 61 -16.5t24 -50.5q0 -51 -50 -76zM240 651v-120q76 6 76 70q0 51 -57 51q-13 0 -19 -1z" />
    <glyph glyph-name="macron" unicode="&#xaf;" horiz-adv-x="254" 
d="M49 729h161l-6 -28h-161z" />
    <glyph glyph-name="degree" unicode="&#xb0;" horiz-adv-x="228" 
d="M115 553q-30 0 -50 20.5t-20 50.5t20 51t50 21q29 0 48.5 -21t19.5 -51t-19.5 -50.5t-48.5 -20.5zM115 580q17 0 28 13t11 31t-11 31.5t-28 13.5t-29 -13.5t-12 -31.5t11.5 -31t29.5 -13z" />
    <glyph glyph-name="plusminus" unicode="&#xb1;" horiz-adv-x="347" 
d="M190 264h112v-31h-112v-113h-33v113h-112v31h112v113h33v-113zM45 53v31h257v-31h-257z" />
    <glyph glyph-name="uni00B2" unicode="&#xb2;" horiz-adv-x="249" 
d="M199 462q26 0 26 -29q0 -23 -16.5 -38.5t-48.5 -15.5q-17 0 -40 8t-36 8q-30 0 -52 -11l-8 11l34.5 46l29.5 39l22.5 31t18.5 28l12.5 22t9.5 22.5t4 21t2 24.5q0 57 -46 57q-13 0 -24 -5.5t-11 -12.5q0 -3 5 -9.5t5 -13.5q0 -9 -6.5 -15t-16.5 -6q-11 0 -17 8t-6 19
q0 21 20 37t57 16q36 0 61 -18.5t25 -58.5q0 -11 -3 -23.5t-6.5 -22.5t-12.5 -25l-15 -24.5t-19.5 -27.5l-21 -27.5l-25.5 -32l-26 -32.5q6 1 18 1q14 -1 37.5 -8t31.5 -7q26 0 26 15q0 4 -5.5 11t-5.5 16q0 10 7 16t16 6z" />
    <glyph glyph-name="uni00B3" unicode="&#xb3;" horiz-adv-x="239" 
d="M106 397q61 0 61 63q0 36 -18 55.5t-60 30.5v9q65 14 65 74q0 31 -12 44t-38 13q-34 0 -34 -18q0 -5 5.5 -12.5t5.5 -12.5q0 -22 -24 -22q-10 0 -17.5 8t-7.5 19q0 22 21 39t55 17q36 0 63 -17t27 -51q0 -50 -54 -79q70 -27 70 -85q0 -38 -26.5 -65.5t-78.5 -27.5
q-40 0 -62.5 16t-22.5 39q0 13 7.5 21.5t17.5 8.5t17 -7.5t7 -18.5q0 -8 -5.5 -14t-5.5 -9q0 -7 12 -12.5t32 -5.5z" />
    <glyph glyph-name="acute" unicode="&#xb4;" horiz-adv-x="186" 
d="M83 781l-40 -75l12 -22l87 97h-59z" />
    <glyph glyph-name="uni00B5" unicode="&#xb5;" horiz-adv-x="504" 
d="M473 35l6 -15q-73 -28 -88 -28q-13 0 -21.5 19.5t-10.5 50.5q-55 -70 -145 -70q-36 0 -62 15v-187h-112v15q49 0 49 30v483q0 24 -15.5 30.5t-35.5 -3.5l-7 -3l-6 14l59 27q21 9 40 9q28 0 28 -33v-264q0 -43 24.5 -71t66.5 -28q58 0 115 74v314h62v-361q0 -25 26 -25
q9 0 27 7z" />
    <glyph glyph-name="paragraph" unicode="&#xb6;" horiz-adv-x="435" 
d="M410 650v-15q-26 0 -52 -11.5t-26 -26.5v-597h-47v622h-73v-622h-47v391h-2q-50 0 -84 36.5t-34 89.5q0 58 34 95.5t85 37.5h246z" />
    <glyph glyph-name="periodcentered" unicode="&#xb7;" horiz-adv-x="255" 
d="M127 293q19 0 31 -13.5t12 -30.5q0 -20 -12 -30.5t-29 -10.5q-20 0 -32 13t-12 30q0 20 12.5 31t29.5 11z" />
    <glyph glyph-name="cedilla" unicode="&#xb8;" horiz-adv-x="185" 
d="M101 -30q15 0 27.5 -8t12.5 -25q0 -25 -21.5 -40.5t-49.5 -15.5q-9 0 -15 2l6 14q15 0 24.5 9.5t9.5 23.5q0 23 -15 23t-29 -17l-8 13l25 55h31l-17 -37q8 3 19 3z" />
    <glyph glyph-name="uni00B9" unicode="&#xb9;" horiz-adv-x="173" 
d="M110 417q0 -23 39 -23v-10h-124v10q45 0 45 23v224q0 7 -9 5q-24 -10 -34 -13l-3 7q38 22 59 60h32q-5 -25 -5 -36v-247z" />
    <glyph glyph-name="ordmasculine" unicode="&#xba;" horiz-adv-x="295" 
d="M143 391q-49 0 -86 36.5t-37 92.5q0 67 37.5 103.5t94.5 36.5q49 0 86 -36t37 -92q0 -67 -37 -104t-95 -37zM158 414q31 0 48 26.5t17 72.5q0 56 -22.5 90t-62.5 34q-31 0 -48.5 -25.5t-17.5 -71.5q0 -56 23 -91t63 -35zM58 332h186l-8 -29h-186z" />
    <glyph glyph-name="guillemotright" unicode="&#xbb;" horiz-adv-x="466" 
d="M255 223v10l-173 178l-17 -27l126 -156l-126 -156l17 -27zM421 223v10l-173 178l-17 -27l126 -156l-126 -156l17 -27z" />
    <glyph glyph-name="onequarter" unicode="&#xbc;" horiz-adv-x="450" 
d="M110 367q0 -23 39 -23v-10h-124v10q45 0 45 23v224q0 7 -9 5q-24 -10 -34 -13l-3 7q38 22 59 60h32q-5 -25 -5 -36v-247zM330 650h33l-277 -650h-33zM410 121h10v-65h-10q0 22 -19 22h-21v-42q0 -26 35 -26v-10h-109v10q35 0 35 26v42h-128v7l136 231h31v-218h21
q19 0 19 23zM241 98h90v159z" />
    <glyph glyph-name="onehalf" unicode="&#xbd;" horiz-adv-x="469" 
d="M110 367q0 -23 39 -23v-10h-124v10q45 0 45 23v224q0 7 -9 5q-24 -10 -34 -13l-3 7q38 22 59 60h32q-5 -25 -5 -36v-247zM330 650h33l-277 -650h-33zM414 78q26 0 26 -29q0 -23 -16.5 -38.5t-48.5 -15.5q-17 0 -40 8t-36 8q-30 0 -52 -11l-8 11l34.5 46l29.5 39l22.5 31
t18.5 28l12.5 22t9.5 22.5t4 21t2 24.5q0 57 -46 57q-13 0 -24 -5.5t-11 -12.5q0 -3 5 -9.5t5 -13.5q0 -9 -6.5 -15t-16.5 -6q-11 0 -17 8t-6 19q0 21 20 37t57 16q36 0 61 -18.5t25 -58.5q0 -11 -3 -23.5t-6.5 -22.5t-12.5 -25l-15 -24.5t-19.5 -27.5l-21 -27.5l-25.5 -32
l-26 -32.5q6 1 18 1q14 -1 37.5 -8t31.5 -7q26 0 26 15q0 4 -5.5 11t-5.5 16q0 10 7 16t16 6z" />
    <glyph glyph-name="threequarters" unicode="&#xbe;" horiz-adv-x="500" 
d="M111 347q61 0 61 63q0 36 -18 55.5t-60 30.5v9q65 14 65 74q0 31 -12 44t-38 13q-34 0 -34 -18q0 -5 5.5 -12.5t5.5 -12.5q0 -22 -24 -22q-10 0 -17.5 8t-7.5 19q0 22 21 39t55 17q36 0 63 -17t27 -51q0 -50 -54 -79q70 -27 70 -85q0 -38 -26.5 -65.5t-78.5 -27.5
q-40 0 -62.5 16t-22.5 39q0 13 7.5 21.5t17.5 8.5t17 -7.5t7 -18.5q0 -8 -5.5 -14t-5.5 -9q0 -7 12 -12.5t32 -5.5zM385 650h33l-277 -650h-33zM460 121h10v-65h-10q0 22 -19 22h-21v-42q0 -26 35 -26v-10h-109v10q35 0 35 26v42h-128v7l136 231h31v-218h21q19 0 19 23z
M291 98h90v159z" />
    <glyph glyph-name="questiondown" unicode="&#xbf;" horiz-adv-x="360" 
d="M233 387q-21 0 -33 14t-12 33q0 18 12.5 29t30.5 11q20 0 32 -14t12 -32q0 -19 -12.5 -30t-29.5 -11zM189 293l16 34q62 0 71 -39.5t-48 -104.5l-35.5 -37t-40 -45.5t-22 -46.5t-12.5 -70q0 -62 28.5 -101t83.5 -40q31 -1 54 9.5t23 25.5q0 8 -11.5 19.5t-11.5 25.5
q0 16 9.5 27.5t26.5 11.5q18 0 29 -13t11 -33q0 -14 -5.5 -29.5t-19 -33.5t-42 -29.5t-68.5 -11.5q-81 0 -130.5 45.5t-49.5 113.5q0 38 18.5 76t36 59t51.5 54l41 40q38 44 34.5 67.5t-37.5 25.5z" />
    <glyph glyph-name="Agrave" unicode="&#xc0;" horiz-adv-x="596" 
d="M282 760h-67l107 -76l12 22zM534 40q13 -25 51 -25v-15h-161v15q17 0 28 6.5t10 16.5l-66 180h-230l-61 -180q-2 -8 7.5 -13t24 -7.5t32.5 -2.5v-15h-158v15q47 0 54 20l214 622l22 8zM177 251h207l-107 291z" />
    <glyph glyph-name="Aacute" unicode="&#xc1;" horiz-adv-x="596" 
d="M283 760l-52 -54l12 -22l107 76h-67zM534 40q13 -25 51 -25v-15h-161v15q17 0 28 6.5t10 16.5l-66 180h-230l-61 -180q-2 -8 7.5 -13t24 -7.5t32.5 -2.5v-15h-158v15q47 0 54 20l214 622l22 8zM177 251h207l-107 291z" />
    <glyph glyph-name="Acircumflex" unicode="&#xc2;" horiz-adv-x="596" 
d="M206 691l65 89h36l65 -89h-27l-56 60l-56 -60h-27zM534 40q13 -25 51 -25v-15h-161v15q17 0 28 6.5t10 16.5l-66 180h-230l-61 -180q-2 -8 7.5 -13t24 -7.5t32.5 -2.5v-15h-158v15q47 0 54 20l214 622l22 8zM177 251h207l-107 291z" />
    <glyph glyph-name="Atilde" unicode="&#xc3;" horiz-adv-x="596" 
d="M186 712q13 54 58 54q27 0 55 -23t44 -23q3 0 6 0.5t5.5 2t4.5 2.5t4 3.5t3 4t3 5t2.5 4.5l2.5 5t2 5l15 -7q-13 -54 -58 -54q-28 0 -55.5 23t-42.5 23q-12 0 -19 -7t-15 -25zM534 40q13 -25 51 -25v-15h-161v15q17 0 28 6.5t10 16.5l-66 180h-230l-61 -180
q-2 -8 7.5 -13t24 -7.5t32.5 -2.5v-15h-158v15q47 0 54 20l214 622l22 8zM177 251h207l-107 291z" />
    <glyph glyph-name="Adieresis" unicode="&#xc4;" horiz-adv-x="596" 
d="M237 748q12 0 20.5 -8.5t8.5 -20.5t-7.5 -19.5t-20.5 -7.5q-12 0 -20.5 8t-8.5 21q0 12 7.5 19.5t20.5 7.5zM336 748q12 0 20.5 -8.5t8.5 -20.5q0 -27 -28 -27q-12 0 -20.5 8.5t-8.5 20.5q0 11 8 19t20 8zM534 40q13 -25 51 -25v-15h-161v15q17 0 28 6.5t10 16.5l-66 180
h-230l-61 -180q-2 -8 7.5 -13t24 -7.5t32.5 -2.5v-15h-158v15q47 0 54 20l214 622l22 8zM177 251h207l-107 291z" />
    <glyph glyph-name="Aring" unicode="&#xc5;" horiz-adv-x="596" 
d="M289 684q-21 0 -36 15t-15 35q0 21 15 36t36 15q20 0 35 -15t15 -36q0 -20 -15 -35t-35 -15zM289 707q11 0 19 8t8 19q0 12 -8 20t-19 8q-12 0 -20 -8t-8 -20q0 -11 8 -19t20 -8zM534 40q13 -25 51 -25v-15h-161v15q17 0 28 6.5t10 16.5l-66 180h-230l-61 -180
q-2 -8 7.5 -13t24 -7.5t32.5 -2.5v-15h-158v15q47 0 54 20l214 622l22 8zM177 251h207l-107 291z" />
    <glyph glyph-name="AE" unicode="&#xc6;" horiz-adv-x="832" 
d="M778 97l16 -5l-29 -92h-336v186h-221l-85 -145q-10 -14 10 -20t51 -6v-15h-174v15q52 0 68 23l360 612h323l28 -92l-16 -5q-11 34 -26.5 49.5t-40.5 15.5h-208v-265h166q31 0 31 69h14v-169h-14q0 68 -31 68h-166v-289h212q47 0 68 65zM227 219h202v344z" />
    <glyph glyph-name="Ccedilla" unicode="&#xc7;" horiz-adv-x="624" 
d="M363 -8h-1l-11 -25q8 3 19 3q15 0 27.5 -8t12.5 -25q0 -25 -21.5 -40.5t-49.5 -15.5q-9 0 -15 2l6 14q15 0 24.5 9.5t9.5 23.5q0 23 -15 23t-29 -17l-8 13l20 44q-130 11 -211.5 101.5t-81.5 228.5q0 79 28.5 144t75.5 106t106 63t122 22q58 0 123 -23q16 -5 23.5 -7
t17.5 0t14 12l13 -6l-41 -137l-13 6q7 33 2 58t-31 38q-43 23 -113 23q-112 0 -181 -75.5t-69 -203.5q0 -133 73.5 -224t192.5 -91q56 0 105.5 22t79.5 61l14 -21q-67 -98 -218 -98z" />
    <glyph glyph-name="Egrave" unicode="&#xc8;" horiz-adv-x="515" 
d="M264 760h-67l107 -76l12 22zM461 97l16 -5l-28 -92h-397v15q22 0 41 7.5t19 22.5v560q0 15 -19 22.5t-41 7.5v15h393l27 -92l-16 -5q-21 65 -66 65h-209v-265h167q30 0 30 69h15v-169h-15q0 68 -30 68h-167v-289h213q46 0 67 65z" />
    <glyph glyph-name="Eacute" unicode="&#xc9;" horiz-adv-x="515" 
d="M265 760l-52 -54l12 -22l107 76h-67zM461 97l16 -5l-28 -92h-397v15q22 0 41 7.5t19 22.5v560q0 15 -19 22.5t-41 7.5v15h393l27 -92l-16 -5q-21 65 -66 65h-209v-265h167q30 0 30 69h15v-169h-15q0 68 -30 68h-167v-289h213q46 0 67 65z" />
    <glyph glyph-name="Ecircumflex" unicode="&#xca;" horiz-adv-x="515" 
d="M188 691l65 89h36l65 -89h-27l-56 60l-56 -60h-27zM461 97l16 -5l-28 -92h-397v15q22 0 41 7.5t19 22.5v560q0 15 -19 22.5t-41 7.5v15h393l27 -92l-16 -5q-21 65 -66 65h-209v-265h167q30 0 30 69h15v-169h-15q0 68 -30 68h-167v-289h213q46 0 67 65z" />
    <glyph glyph-name="Edieresis" unicode="&#xcb;" horiz-adv-x="515" 
d="M219 748q12 0 20.5 -8.5t8.5 -20.5t-7.5 -19.5t-20.5 -7.5q-12 0 -20.5 8t-8.5 21q0 12 7.5 19.5t20.5 7.5zM318 748q12 0 20.5 -8.5t8.5 -20.5q0 -27 -28 -27q-12 0 -20.5 8.5t-8.5 20.5q0 11 8 19t20 8zM461 97l16 -5l-28 -92h-397v15q22 0 41 7.5t19 22.5v560
q0 15 -19 22.5t-41 7.5v15h393l27 -92l-16 -5q-21 65 -66 65h-209v-265h167q30 0 30 69h15v-169h-15q0 68 -30 68h-167v-289h213q46 0 67 65z" />
    <glyph glyph-name="Igrave" unicode="&#xcc;" horiz-adv-x="288" 
d="M137 760h-67l107 -76l12 22zM235 636q-21 0 -39 -7t-18 -23v-561q0 -16 18 -23t39 -7v-15h-183v15q21 0 39 7t18 23v561q0 16 -18 23t-39 7v14h183v-14z" />
    <glyph glyph-name="Iacute" unicode="&#xcd;" horiz-adv-x="288" 
d="M138 760l-52 -54l12 -22l107 76h-67zM235 636q-21 0 -39 -7t-18 -23v-561q0 -16 18 -23t39 -7v-15h-183v15q21 0 39 7t18 23v561q0 16 -18 23t-39 7v14h183v-14z" />
    <glyph glyph-name="Icircumflex" unicode="&#xce;" horiz-adv-x="288" 
d="M61 691l65 89h36l65 -89h-27l-56 60l-56 -60h-27zM235 636q-21 0 -39 -7t-18 -23v-561q0 -16 18 -23t39 -7v-15h-183v15q21 0 39 7t18 23v561q0 16 -18 23t-39 7v14h183v-14z" />
    <glyph glyph-name="Idieresis" unicode="&#xcf;" horiz-adv-x="288" 
d="M92 748q12 0 20.5 -8.5t8.5 -20.5t-7.5 -19.5t-20.5 -7.5q-12 0 -20.5 8t-8.5 21q0 12 7.5 19.5t20.5 7.5zM191 748q12 0 20.5 -8.5t8.5 -20.5q0 -27 -28 -27q-12 0 -20.5 8.5t-8.5 20.5q0 11 8 19t20 8zM235 636q-21 0 -39 -7t-18 -23v-561q0 -16 18 -23t39 -7v-15h-183
v15q21 0 39 7t18 23v561q0 16 -18 23t-39 7v14h183v-14z" />
    <glyph glyph-name="Eth" unicode="&#xd0;" horiz-adv-x="663" 
d="M325 650q54 0 104.5 -17.5t95.5 -52.5t72 -97t27 -142q0 -90 -30.5 -165.5t-96.5 -125.5t-157 -50h-288v15q22 0 40.5 7.5t18.5 22.5v283h-100l13 32h87v245q0 15 -18.5 22.5t-40.5 7.5v15h273zM307 28q56 0 99 16t69 42.5t43 64t23 75.5t6 83q0 146 -67 229.5t-197 83.5
q-62 0 -103 -8v-254h143l-14 -32h-129v-291q63 -9 127 -9z" />
    <glyph glyph-name="Ntilde" unicode="&#xd1;" horiz-adv-x="710" 
d="M256 712q13 54 58 54q27 0 55 -23t44 -23q3 0 6 0.5t5.5 2t4.5 2.5t4 3.5t3 4t3 5t2.5 4.5l2.5 5t2 5l15 -7q-13 -54 -58 -54q-28 0 -55.5 23t-42.5 23q-12 0 -19 -7t-15 -25zM668 650v-15q-19 0 -37 -8t-18 -22v-609h-14l-451 536v-487q0 -30 79 -30v-15h-175v15
q21 0 40 8t19 22v560q0 14 -19 22t-40 8v15h90l433 -517v472q0 30 -78 30v15h171z" />
    <glyph glyph-name="Ograve" unicode="&#xd2;" horiz-adv-x="713" 
d="M350 760h-67l107 -76l12 22zM349 -8q-133 0 -221.5 97t-88.5 241q0 79 28.5 143t76 103.5t104 60.5t116.5 21q133 0 221.5 -97t88.5 -241q0 -79 -29 -143t-76 -103.5t-104 -60.5t-116 -21zM369 28q45 0 84 14.5t72 44.5t52.5 85t19.5 128q0 140 -67 231t-186 91
q-45 0 -84 -14.5t-72 -44.5t-52.5 -85t-19.5 -128q0 -139 67 -230.5t186 -91.5z" />
    <glyph glyph-name="Oacute" unicode="&#xd3;" horiz-adv-x="713" 
d="M351 760l-52 -54l12 -22l107 76h-67zM349 -8q-133 0 -221.5 97t-88.5 241q0 79 28.5 143t76 103.5t104 60.5t116.5 21q133 0 221.5 -97t88.5 -241q0 -79 -29 -143t-76 -103.5t-104 -60.5t-116 -21zM369 28q45 0 84 14.5t72 44.5t52.5 85t19.5 128q0 140 -67 231t-186 91
q-45 0 -84 -14.5t-72 -44.5t-52.5 -85t-19.5 -128q0 -139 67 -230.5t186 -91.5z" />
    <glyph glyph-name="Ocircumflex" unicode="&#xd4;" horiz-adv-x="713" 
d="M274 691l65 89h36l65 -89h-27l-56 60l-56 -60h-27zM349 -8q-133 0 -221.5 97t-88.5 241q0 79 28.5 143t76 103.5t104 60.5t116.5 21q133 0 221.5 -97t88.5 -241q0 -79 -29 -143t-76 -103.5t-104 -60.5t-116 -21zM369 28q45 0 84 14.5t72 44.5t52.5 85t19.5 128
q0 140 -67 231t-186 91q-45 0 -84 -14.5t-72 -44.5t-52.5 -85t-19.5 -128q0 -139 67 -230.5t186 -91.5z" />
    <glyph glyph-name="Otilde" unicode="&#xd5;" horiz-adv-x="713" 
d="M254 712q13 54 58 54q27 0 55 -23t44 -23q3 0 6 0.5t5.5 2t4.5 2.5t4 3.5t3 4t3 5t2.5 4.5l2.5 5t2 5l15 -7q-13 -54 -58 -54q-28 0 -55.5 23t-42.5 23q-12 0 -19 -7t-15 -25zM349 -8q-133 0 -221.5 97t-88.5 241q0 79 28.5 143t76 103.5t104 60.5t116.5 21
q133 0 221.5 -97t88.5 -241q0 -79 -29 -143t-76 -103.5t-104 -60.5t-116 -21zM369 28q45 0 84 14.5t72 44.5t52.5 85t19.5 128q0 140 -67 231t-186 91q-45 0 -84 -14.5t-72 -44.5t-52.5 -85t-19.5 -128q0 -139 67 -230.5t186 -91.5z" />
    <glyph glyph-name="Odieresis" unicode="&#xd6;" horiz-adv-x="713" 
d="M305 748q12 0 20.5 -8.5t8.5 -20.5t-7.5 -19.5t-20.5 -7.5q-12 0 -20.5 8t-8.5 21q0 12 7.5 19.5t20.5 7.5zM404 748q12 0 20.5 -8.5t8.5 -20.5q0 -27 -28 -27q-12 0 -20.5 8.5t-8.5 20.5q0 11 8 19t20 8zM349 -8q-133 0 -221.5 97t-88.5 241q0 79 28.5 143t76 103.5
t104 60.5t116.5 21q133 0 221.5 -97t88.5 -241q0 -79 -29 -143t-76 -103.5t-104 -60.5t-116 -21zM369 28q45 0 84 14.5t72 44.5t52.5 85t19.5 128q0 140 -67 231t-186 91q-45 0 -84 -14.5t-72 -44.5t-52.5 -85t-19.5 -128q0 -139 67 -230.5t186 -91.5z" />
    <glyph glyph-name="multiply" unicode="&#xd7;" horiz-adv-x="286" 
d="M242 337l-80 -88l80 -89l-20 -21l-78 87l-79 -87l-21 21l80 89l-80 88l21 21l79 -87l78 87z" />
    <glyph glyph-name="Oslash" unicode="&#xd8;" horiz-adv-x="713" 
d="M586 560q88 -96 88 -240q0 -79 -29 -143t-76 -103.5t-104 -60.5t-116 -21q-115 0 -201 76l-62 -70h-38l80 90q-89 97 -89 242q0 79 28.5 143t76 103.5t104 60.5t116.5 21q118 0 202 -78l62 70h38zM116 350q0 -127 55 -214l355 400q-68 86 -182 86q-45 0 -84 -14.5
t-72 -44.5t-52.5 -85t-19.5 -128zM369 28q45 0 84 14.5t72 44.5t52.5 85t19.5 128q0 126 -54 212l-355 -399q67 -85 181 -85z" />
    <glyph glyph-name="Ugrave" unicode="&#xd9;" horiz-adv-x="673" 
d="M333 760h-67l107 -76l12 22zM631 650v-15q-22 0 -40.5 -7.5t-18.5 -22.5v-423q0 -94 -67.5 -142t-169.5 -48q-104 0 -168.5 51.5t-64.5 148.5v413q0 15 -18.5 22.5t-40.5 7.5v15h186v-15q-22 0 -40 -7t-18 -23v-397q0 -90 49.5 -135t127.5 -45q77 0 129.5 40t52.5 100
v437q0 16 -18 23t-40 7v15h159z" />
    <glyph glyph-name="Uacute" unicode="&#xda;" horiz-adv-x="673" 
d="M334 760l-52 -54l12 -22l107 76h-67zM631 650v-15q-22 0 -40.5 -7.5t-18.5 -22.5v-423q0 -94 -67.5 -142t-169.5 -48q-104 0 -168.5 51.5t-64.5 148.5v413q0 15 -18.5 22.5t-40.5 7.5v15h186v-15q-22 0 -40 -7t-18 -23v-397q0 -90 49.5 -135t127.5 -45q77 0 129.5 40
t52.5 100v437q0 16 -18 23t-40 7v15h159z" />
    <glyph glyph-name="Ucircumflex" unicode="&#xdb;" horiz-adv-x="673" 
d="M257 691l65 89h36l65 -89h-27l-56 60l-56 -60h-27zM631 650v-15q-22 0 -40.5 -7.5t-18.5 -22.5v-423q0 -94 -67.5 -142t-169.5 -48q-104 0 -168.5 51.5t-64.5 148.5v413q0 15 -18.5 22.5t-40.5 7.5v15h186v-15q-22 0 -40 -7t-18 -23v-397q0 -90 49.5 -135t127.5 -45
q77 0 129.5 40t52.5 100v437q0 16 -18 23t-40 7v15h159z" />
    <glyph glyph-name="Udieresis" unicode="&#xdc;" horiz-adv-x="673" 
d="M288 748q12 0 20.5 -8.5t8.5 -20.5t-7.5 -19.5t-20.5 -7.5q-12 0 -20.5 8t-8.5 21q0 12 7.5 19.5t20.5 7.5zM387 748q12 0 20.5 -8.5t8.5 -20.5q0 -27 -28 -27q-12 0 -20.5 8.5t-8.5 20.5q0 11 8 19t20 8zM631 650v-15q-22 0 -40.5 -7.5t-18.5 -22.5v-423
q0 -94 -67.5 -142t-169.5 -48q-104 0 -168.5 51.5t-64.5 148.5v413q0 15 -18.5 22.5t-40.5 7.5v15h186v-15q-22 0 -40 -7t-18 -23v-397q0 -90 49.5 -135t127.5 -45q77 0 129.5 40t52.5 100v437q0 16 -18 23t-40 7v15h159z" />
    <glyph glyph-name="Yacute" unicode="&#xdd;" horiz-adv-x="578" 
d="M289 760l-52 -54l12 -22l107 76h-67zM549 650v-15q-35 0 -51 -27l-172 -300v-263q0 -30 79 -30v-15h-226v15q78 0 78 30v256l-182 315q-14 19 -46 19v15h100l179 -309l152 268q3 6 -1.5 12t-16 10t-27.5 4v15h134z" />
    <glyph glyph-name="Thorn" unicode="&#xde;" horiz-adv-x="551" 
d="M488 365q0 -92 -83 -161t-228 -73v-86q0 -30 51 -30v-15h-176v15q22 0 40.5 7.5t18.5 22.5v560q0 15 -18.5 22.5t-40.5 7.5v15h174v-15q-49 0 -49 -30v-55h94q90 0 153.5 -51t63.5 -134zM249 522q-46 0 -72 -11v-348q70 1 118.5 17.5t72.5 46t33.5 60.5t9.5 71
q0 77 -41.5 120.5t-120.5 43.5z" />
    <glyph glyph-name="germandbls" unicode="&#xdf;" horiz-adv-x="448" 
d="M273 343q156 -62 156 -191q0 -61 -37 -110.5t-103 -49.5q-45 0 -74.5 20.5t-29.5 51.5q0 18 11.5 29.5t25.5 11.5q33 0 33 -35q0 -9 -5.5 -17.5t-5.5 -14.5q0 -19 38 -19q79 0 79 109q0 76 -36.5 121.5t-129.5 81.5v12q79 21 103 55.5t24 90.5q0 74 -25.5 107.5
t-82.5 33.5q-78 0 -78 -72v-513q0 -30 36 -30v-15h-148v15q46 0 46 30v475q0 62 44.5 100t112.5 38q65 0 111.5 -35.5t46.5 -111.5q0 -68 -31 -105.5t-81 -62.5z" />
    <glyph glyph-name="agrave" unicode="&#xe0;" horiz-adv-x="444" 
d="M232 565h-59l87 -97l12 22zM419 35l6 -15q-69 -28 -85 -28q-22 0 -37 50q-57 -50 -125 -50q-54 0 -96.5 29.5t-42.5 92.5q0 40 19.5 68t58 43.5t81 23t103.5 11.5v49q0 86 -103 86q-73 0 -73 -35q0 -7 10.5 -16.5t10.5 -25.5t-10.5 -25t-23.5 -9q-17 0 -28 12.5t-11 35.5
q0 34 36 62t110 28q78 0 113 -35.5t35 -103.5v-230q0 -25 23 -25q10 0 29 7zM196 20q46 0 105 46v170q-44 -5 -68 -9t-51.5 -12t-41 -19t-22.5 -28.5t-9 -42.5q0 -44 24 -74.5t63 -30.5z" />
    <glyph glyph-name="aacute" unicode="&#xe1;" horiz-adv-x="444" 
d="M218 565l-40 -75l12 -22l87 97h-59zM419 35l6 -15q-69 -28 -85 -28q-22 0 -37 50q-57 -50 -125 -50q-54 0 -96.5 29.5t-42.5 92.5q0 40 19.5 68t58 43.5t81 23t103.5 11.5v49q0 86 -103 86q-73 0 -73 -35q0 -7 10.5 -16.5t10.5 -25.5t-10.5 -25t-23.5 -9q-17 0 -28 12.5
t-11 35.5q0 34 36 62t110 28q78 0 113 -35.5t35 -103.5v-230q0 -25 23 -25q10 0 29 7zM196 20q46 0 105 46v170q-44 -5 -68 -9t-51.5 -12t-41 -19t-22.5 -28.5t-9 -42.5q0 -44 24 -74.5t63 -30.5z" />
    <glyph glyph-name="acircumflex" unicode="&#xe2;" horiz-adv-x="444" 
d="M144 475l65 89h36l65 -89h-27l-56 60l-56 -60h-27zM419 35l6 -15q-69 -28 -85 -28q-22 0 -37 50q-57 -50 -125 -50q-54 0 -96.5 29.5t-42.5 92.5q0 40 19.5 68t58 43.5t81 23t103.5 11.5v49q0 86 -103 86q-73 0 -73 -35q0 -7 10.5 -16.5t10.5 -25.5t-10.5 -25t-23.5 -9
q-17 0 -28 12.5t-11 35.5q0 34 36 62t110 28q78 0 113 -35.5t35 -103.5v-230q0 -25 23 -25q10 0 29 7zM196 20q46 0 105 46v170q-44 -5 -68 -9t-51.5 -12t-41 -19t-22.5 -28.5t-9 -42.5q0 -44 24 -74.5t63 -30.5z" />
    <glyph glyph-name="atilde" unicode="&#xe3;" horiz-adv-x="444" 
d="M124 496q13 54 58 54q27 0 55 -23t44 -23q3 0 6 0.5t5.5 2t4.5 2.5t4 3.5t3 4t3 5t2.5 4.5l2.5 5t2 5l15 -7q-13 -54 -58 -54q-28 0 -55.5 23t-42.5 23q-12 0 -19 -7t-15 -25zM419 35l6 -15q-69 -28 -85 -28q-22 0 -37 50q-57 -50 -125 -50q-54 0 -96.5 29.5t-42.5 92.5
q0 40 19.5 68t58 43.5t81 23t103.5 11.5v49q0 86 -103 86q-73 0 -73 -35q0 -7 10.5 -16.5t10.5 -25.5t-10.5 -25t-23.5 -9q-17 0 -28 12.5t-11 35.5q0 34 36 62t110 28q78 0 113 -35.5t35 -103.5v-230q0 -25 23 -25q10 0 29 7zM196 20q46 0 105 46v170q-44 -5 -68 -9
t-51.5 -12t-41 -19t-22.5 -28.5t-9 -42.5q0 -44 24 -74.5t63 -30.5z" />
    <glyph glyph-name="adieresis" unicode="&#xe4;" horiz-adv-x="444" 
d="M175 532q12 0 20.5 -8.5t8.5 -20.5t-7.5 -19.5t-20.5 -7.5q-12 0 -20.5 8t-8.5 21q0 12 7.5 19.5t20.5 7.5zM274 532q12 0 20.5 -8.5t8.5 -20.5q0 -27 -28 -27q-12 0 -20.5 8.5t-8.5 20.5q0 11 8 19t20 8zM419 35l6 -15q-69 -28 -85 -28q-22 0 -37 50q-57 -50 -125 -50
q-54 0 -96.5 29.5t-42.5 92.5q0 40 19.5 68t58 43.5t81 23t103.5 11.5v49q0 86 -103 86q-73 0 -73 -35q0 -7 10.5 -16.5t10.5 -25.5t-10.5 -25t-23.5 -9q-17 0 -28 12.5t-11 35.5q0 34 36 62t110 28q78 0 113 -35.5t35 -103.5v-230q0 -25 23 -25q10 0 29 7zM196 20
q46 0 105 46v170q-44 -5 -68 -9t-51.5 -12t-41 -19t-22.5 -28.5t-9 -42.5q0 -44 24 -74.5t63 -30.5z" />
    <glyph glyph-name="aring" unicode="&#xe5;" horiz-adv-x="444" 
d="M227 468q-21 0 -36 15t-15 35q0 21 15 36t36 15q20 0 35 -15t15 -36q0 -20 -15 -35t-35 -15zM227 491q11 0 19 8t8 19q0 12 -8 20t-19 8q-12 0 -20 -8t-8 -20q0 -11 8 -19t20 -8zM419 35l6 -15q-69 -28 -85 -28q-22 0 -37 50q-57 -50 -125 -50q-54 0 -96.5 29.5
t-42.5 92.5q0 40 19.5 68t58 43.5t81 23t103.5 11.5v49q0 86 -103 86q-73 0 -73 -35q0 -7 10.5 -16.5t10.5 -25.5t-10.5 -25t-23.5 -9q-17 0 -28 12.5t-11 35.5q0 34 36 62t110 28q78 0 113 -35.5t35 -103.5v-230q0 -25 23 -25q10 0 29 7zM196 20q46 0 105 46v170
q-44 -5 -68 -9t-51.5 -12t-41 -19t-22.5 -28.5t-9 -42.5q0 -44 24 -74.5t63 -30.5z" />
    <glyph glyph-name="ae" unicode="&#xe6;" horiz-adv-x="686" 
d="M517 20q59 0 114 45l6 -21q-55 -52 -138 -52q-93 0 -149 69q-66 -69 -165 -69q-57 0 -101.5 29.5t-44.5 92.5q0 40 20.5 67.5t59 41t81.5 19.5t101 6v61q0 86 -103 86q-73 0 -73 -35q0 -7 10.5 -16.5t10.5 -25.5t-10.5 -25t-23.5 -9q-17 0 -28 12.5t-11 35.5q0 34 36 62
t109 28q103 0 134 -68q55 68 142 68q77 0 117.5 -56.5t40.5 -144.5h-280q1 -87 38.5 -144t106.5 -57zM478 394q-48 0 -74.5 -40t-30.5 -106h209q1 55 -25 100.5t-79 45.5zM204 20q71 0 133 58q-36 55 -36 127v2v15q-40 -2 -62.5 -4t-51 -8t-43.5 -15.5t-25.5 -26.5
t-10.5 -41q0 -44 27.5 -75.5t68.5 -31.5z" />
    <glyph glyph-name="ccedilla" unicode="&#xe7;" horiz-adv-x="411" 
d="M376 65q-48 -68 -135 -73l-12 -25q7 3 19 3q15 0 27.5 -8t12.5 -25q0 -25 -21.5 -40.5t-49.5 -15.5q-9 0 -15 2l6 14q15 0 24.5 9.5t9.5 23.5q0 23 -15 23t-29 -17l-8 13l20 44q-79 7 -127.5 66t-48.5 146q0 93 54.5 155t143.5 62q66 0 101.5 -31.5t35.5 -64.5
q0 -16 -10.5 -27t-24.5 -11q-15 0 -26.5 11t-11.5 29q0 10 3.5 17t3.5 13q0 15 -22.5 25.5t-54.5 10.5q-121 0 -121 -166q0 -89 35 -148.5t105 -59.5q73 0 125 66z" />
    <glyph glyph-name="egrave" unicode="&#xe8;" horiz-adv-x="419" 
d="M219 565h-59l87 -97l12 22zM250 20q59 0 114 45l6 -21q-55 -52 -138 -52q-87 0 -142.5 61t-55.5 152t54.5 154t138.5 63q77 0 117.5 -56.5t40.5 -144.5h-280q1 -87 39 -144t106 -57zM211 394q-48 0 -74.5 -40t-30.5 -106h209q1 55 -25 100.5t-79 45.5z" />
    <glyph glyph-name="eacute" unicode="&#xe9;" horiz-adv-x="419" 
d="M205 565l-40 -75l12 -22l87 97h-59zM250 20q59 0 114 45l6 -21q-55 -52 -138 -52q-87 0 -142.5 61t-55.5 152t54.5 154t138.5 63q77 0 117.5 -56.5t40.5 -144.5h-280q1 -87 39 -144t106 -57zM211 394q-48 0 -74.5 -40t-30.5 -106h209q1 55 -25 100.5t-79 45.5z" />
    <glyph glyph-name="ecircumflex" unicode="&#xea;" horiz-adv-x="419" 
d="M131 475l65 89h36l65 -89h-27l-56 60l-56 -60h-27zM250 20q59 0 114 45l6 -21q-55 -52 -138 -52q-87 0 -142.5 61t-55.5 152t54.5 154t138.5 63q77 0 117.5 -56.5t40.5 -144.5h-280q1 -87 39 -144t106 -57zM211 394q-48 0 -74.5 -40t-30.5 -106h209q1 55 -25 100.5
t-79 45.5z" />
    <glyph glyph-name="edieresis" unicode="&#xeb;" horiz-adv-x="419" 
d="M162 532q12 0 20.5 -8.5t8.5 -20.5t-7.5 -19.5t-20.5 -7.5q-12 0 -20.5 8t-8.5 21q0 12 7.5 19.5t20.5 7.5zM261 532q12 0 20.5 -8.5t8.5 -20.5q0 -27 -28 -27q-12 0 -20.5 8.5t-8.5 20.5q0 11 8 19t20 8zM250 20q59 0 114 45l6 -21q-55 -52 -138 -52q-87 0 -142.5 61
t-55.5 152t54.5 154t138.5 63q77 0 117.5 -56.5t40.5 -144.5h-280q1 -87 39 -144t106 -57zM211 394q-48 0 -74.5 -40t-30.5 -106h209q1 55 -25 100.5t-79 45.5z" />
    <glyph glyph-name="igrave" unicode="&#xec;" horiz-adv-x="239" 
d="M117 576h-59l87 -97l12 22zM160 45q0 -30 51 -30v-15h-168v15q52 0 52 30v295q0 23 -16 30.5t-36 -2.5l-8 -4l-7 15l68 29q12 6 29 6q35 0 35 -35v-334z" />
    <glyph glyph-name="iacute" unicode="&#xed;" horiz-adv-x="239" 
d="M110 576l-40 -75l12 -22l87 97h-59zM160 45q0 -30 51 -30v-15h-168v15q52 0 52 30v295q0 23 -16 30.5t-36 -2.5l-8 -4l-7 15l68 29q12 6 29 6q35 0 35 -35v-334z" />
    <glyph glyph-name="icircumflex" unicode="&#xee;" horiz-adv-x="239" 
d="M35 486l65 89h36l65 -89h-27l-56 60l-56 -60h-27zM160 45q0 -30 51 -30v-15h-168v15q52 0 52 30v295q0 23 -16 30.5t-36 -2.5l-8 -4l-7 15l68 29q12 6 29 6q35 0 35 -35v-334z" />
    <glyph glyph-name="idieresis" unicode="&#xef;" horiz-adv-x="239" 
d="M65 562q12 0 20.5 -8.5t8.5 -20.5t-7.5 -19.5t-20.5 -7.5q-12 0 -20.5 8t-8.5 21q0 12 7.5 19.5t20.5 7.5zM164 562q12 0 20.5 -8.5t8.5 -20.5q0 -27 -28 -27q-12 0 -20.5 8.5t-8.5 20.5q0 11 8 19t20 8zM160 45q0 -30 51 -30v-15h-168v15q52 0 52 30v295q0 23 -16 30.5
t-36 -2.5l-8 -4l-7 15l68 29q12 6 29 6q35 0 35 -35v-334z" />
    <glyph glyph-name="eth" unicode="&#xf0;" horiz-adv-x="477" 
d="M321 588q117 -105 117 -358q0 -108 -56.5 -173t-145.5 -65q-86 0 -144 60.5t-58 149.5q0 94 63 157t150 63q67 0 115 -48q-18 125 -70 184l-33 -34l-20 18l33 34q-31 29 -79 47l12 28q55 -17 95 -46l34 36l20 -19zM249 20q59 0 91 52t32 132q0 31 -5.5 60.5t-19 60.5
t-41.5 50t-68 19q-66 0 -99.5 -49t-33.5 -122q0 -81 39.5 -142t104.5 -61z" />
    <glyph glyph-name="ntilde" unicode="&#xf1;" horiz-adv-x="496" 
d="M159 496q13 54 58 54q27 0 55 -23t44 -23q3 0 6 0.5t5.5 2t4.5 2.5t4 3.5t3 4t3 5t2.5 4.5l2.5 5t2 5l15 -7q-14 -54 -58 -54q-28 0 -55.5 23t-42.5 23q-12 0 -19 -7t-15 -25zM427 45q0 -30 45 -30v-15h-151v15q41 0 41 30v241q0 98 -72 98q-71 0 -136 -78v-261
q0 -16 18 -23t39 -7v-15h-167v15q44 0 44 30v295q0 24 -15.5 30.5t-35.5 -2.5l-7 -3l-6 14l56 24q28 11 43 11q29 0 30 -31v-39q78 78 167 78q54 0 80.5 -32t26.5 -83v-262z" />
    <glyph glyph-name="ograve" unicode="&#xf2;" horiz-adv-x="472" 
d="M241 565h-59l87 -97l12 22zM235 -8q-85 0 -143 60.5t-58 152.5q0 93 59 155t145 62q85 0 142.5 -60.5t57.5 -152.5q0 -93 -58.5 -155t-144.5 -62zM251 20q59 0 87.5 46t28.5 119q0 89 -38.5 149t-107.5 60q-59 0 -87.5 -46.5t-28.5 -119.5q0 -89 38.5 -148.5t107.5 -59.5
z" />
    <glyph glyph-name="oacute" unicode="&#xf3;" horiz-adv-x="472" 
d="M227 565l-40 -75l12 -22l87 97h-59zM235 -8q-85 0 -143 60.5t-58 152.5q0 93 59 155t145 62q85 0 142.5 -60.5t57.5 -152.5q0 -93 -58.5 -155t-144.5 -62zM251 20q59 0 87.5 46t28.5 119q0 89 -38.5 149t-107.5 60q-59 0 -87.5 -46.5t-28.5 -119.5q0 -89 38.5 -148.5
t107.5 -59.5z" />
    <glyph glyph-name="ocircumflex" unicode="&#xf4;" horiz-adv-x="472" 
d="M153 475l65 89h36l65 -89h-27l-56 60l-56 -60h-27zM235 -8q-85 0 -143 60.5t-58 152.5q0 93 59 155t145 62q85 0 142.5 -60.5t57.5 -152.5q0 -93 -58.5 -155t-144.5 -62zM251 20q59 0 87.5 46t28.5 119q0 89 -38.5 149t-107.5 60q-59 0 -87.5 -46.5t-28.5 -119.5
q0 -89 38.5 -148.5t107.5 -59.5z" />
    <glyph glyph-name="otilde" unicode="&#xf5;" horiz-adv-x="472" 
d="M133 496q13 54 58 54q27 0 55 -23t44 -23q3 0 6 0.5t5.5 2t4.5 2.5t4 3.5t3 4t3 5t2.5 4.5l2.5 5t2 5l15 -7q-14 -54 -58 -54q-28 0 -55.5 23t-42.5 23q-12 0 -19 -7t-15 -25zM235 -8q-85 0 -143 60.5t-58 152.5q0 93 59 155t145 62q85 0 142.5 -60.5t57.5 -152.5
q0 -93 -58.5 -155t-144.5 -62zM251 20q59 0 87.5 46t28.5 119q0 89 -38.5 149t-107.5 60q-59 0 -87.5 -46.5t-28.5 -119.5q0 -89 38.5 -148.5t107.5 -59.5z" />
    <glyph glyph-name="odieresis" unicode="&#xf6;" horiz-adv-x="472" 
d="M184 532q12 0 20.5 -8.5t8.5 -20.5t-7.5 -19.5t-20.5 -7.5q-12 0 -20.5 8t-8.5 21q0 12 7.5 19.5t20.5 7.5zM283 532q12 0 20.5 -8.5t8.5 -20.5q0 -27 -28 -27q-12 0 -20.5 8.5t-8.5 20.5q0 11 8 19t20 8zM235 -8q-85 0 -143 60.5t-58 152.5q0 93 59 155t145 62
q85 0 142.5 -60.5t57.5 -152.5q0 -93 -58.5 -155t-144.5 -62zM251 20q59 0 87.5 46t28.5 119q0 89 -38.5 149t-107.5 60q-59 0 -87.5 -46.5t-28.5 -119.5q0 -89 38.5 -148.5t107.5 -59.5z" />
    <glyph glyph-name="divide" unicode="&#xf7;" horiz-adv-x="290" 
d="M145 307q-8 0 -14.5 6.5t-6.5 14.5t6.5 14.5t14.5 6.5t14.5 -6.5t6.5 -14.5t-6.5 -14.5t-14.5 -6.5zM45 264h200v-31h-200v31zM145 148q-8 0 -14.5 6.5t-6.5 14.5t6.5 14.5t14.5 6.5t14.5 -6.5t6.5 -14.5t-6.5 -14.5t-14.5 -6.5z" />
    <glyph glyph-name="oslash" unicode="&#xf8;" horiz-adv-x="472" 
d="M383 359q55 -61 55 -150q0 -93 -58.5 -155t-144.5 -62q-74 0 -128 46l-33 -38h-35l49 57q-54 59 -54 148q0 93 59 155t145 62q71 0 126 -45l32 37h35zM105 228q0 -72 25 -123l198 230q-41 59 -107 59q-59 0 -87.5 -46.5t-28.5 -119.5zM251 20q59 0 87.5 46t28.5 119
t-25 126l-199 -231q41 -60 108 -60z" />
    <glyph glyph-name="ugrave" unicode="&#xf9;" horiz-adv-x="491" 
d="M257 565h-59l87 -97l12 22zM470 35l6 -15q-68 -28 -85 -28q-13 0 -23.5 19t-13.5 43q-52 -62 -136 -62q-62 0 -95.5 33t-33.5 83v232q0 23 -16.5 29.5t-35.5 -3.5l-7 -3l-6 15l67 30q15 6 30 6q33 0 33 -35v-259q0 -45 21 -72.5t62 -27.5q60 0 116 65v274q0 31 -37 21
l-11 -3l-6 14l55 17q20 6 34 6q30 0 30 -29v-332q0 -25 23 -25q12 0 29 7z" />
    <glyph glyph-name="uacute" unicode="&#xfa;" horiz-adv-x="491" 
d="M243 565l-40 -75l12 -22l87 97h-59zM470 35l6 -15q-68 -28 -85 -28q-13 0 -23.5 19t-13.5 43q-52 -62 -136 -62q-62 0 -95.5 33t-33.5 83v232q0 23 -16.5 29.5t-35.5 -3.5l-7 -3l-6 15l67 30q15 6 30 6q33 0 33 -35v-259q0 -45 21 -72.5t62 -27.5q60 0 116 65v274
q0 31 -37 21l-11 -3l-6 14l55 17q20 6 34 6q30 0 30 -29v-332q0 -25 23 -25q12 0 29 7z" />
    <glyph glyph-name="ucircumflex" unicode="&#xfb;" horiz-adv-x="491" 
d="M169 475l65 89h36l65 -89h-27l-56 60l-56 -60h-27zM470 35l6 -15q-68 -28 -85 -28q-13 0 -23.5 19t-13.5 43q-52 -62 -136 -62q-62 0 -95.5 33t-33.5 83v232q0 23 -16.5 29.5t-35.5 -3.5l-7 -3l-6 15l67 30q15 6 30 6q33 0 33 -35v-259q0 -45 21 -72.5t62 -27.5
q60 0 116 65v274q0 31 -37 21l-11 -3l-6 14l55 17q20 6 34 6q30 0 30 -29v-332q0 -25 23 -25q12 0 29 7z" />
    <glyph glyph-name="udieresis" unicode="&#xfc;" horiz-adv-x="491" 
d="M200 532q12 0 20.5 -8.5t8.5 -20.5t-7.5 -19.5t-20.5 -7.5q-12 0 -20.5 8t-8.5 21q0 12 7.5 19.5t20.5 7.5zM299 532q12 0 20.5 -8.5t8.5 -20.5q0 -27 -28 -27q-12 0 -20.5 8.5t-8.5 20.5q0 11 8 19t20 8zM470 35l6 -15q-68 -28 -85 -28q-13 0 -23.5 19t-13.5 43
q-52 -62 -136 -62q-62 0 -95.5 33t-33.5 83v232q0 23 -16.5 29.5t-35.5 -3.5l-7 -3l-6 15l67 30q15 6 30 6q33 0 33 -35v-259q0 -45 21 -72.5t62 -27.5q60 0 116 65v274q0 31 -37 21l-11 -3l-6 14l55 17q20 6 34 6q30 0 30 -29v-332q0 -25 23 -25q12 0 29 7z" />
    <glyph glyph-name="yacute" unicode="&#xfd;" horiz-adv-x="411" 
d="M203 565l-40 -75l12 -22l87 97h-59zM324 422q24 0 37.5 -19.5t13.5 -53.5q0 -54 -28 -111l-144 -295q-31 -65 -58 -86.5t-56 -21.5q-53 0 -53 38q0 31 27 31q7 0 14 -3t11 -5.5t9.5 -7.5t6.5 -6q8 -4 17.5 -2.5t25 22.5t33.5 60l27 54l-132 328q-7 16 -11 22.5
t-13.5 11.5t-21.5 -3l-5 -2l-6 15l40 17q23 9 37 9q24 0 37 -31l113 -291l71 149q25 50 25 78q0 15 -8 23t-18 9.5t-18 9.5t-8 24q0 37 35 37z" />
    <glyph glyph-name="thorn" unicode="&#xfe;" horiz-adv-x="446" 
d="M244 422q69 0 118 -60t49 -151q0 -94 -52 -156.5t-132 -62.5q-50 0 -88 24v-155q0 -15 19.5 -22.5t46.5 -7.5v-11h-178v11q19 0 33 7.5t14 22.5v674q0 16 -11.5 22.5t-24.5 2.5l-10 -3l-4 12l52 15q16 6 32 6q31 0 31 -29v-189q51 50 105 50zM218 20q60 0 91.5 47
t31.5 128q0 91 -29 145t-83 54q-40 0 -90 -57v-290q37 -27 79 -27z" />
    <glyph glyph-name="ydieresis" unicode="&#xff;" horiz-adv-x="411" 
d="M160 532q12 0 20.5 -8.5t8.5 -20.5t-7.5 -19.5t-20.5 -7.5q-12 0 -20.5 8t-8.5 21q0 12 7.5 19.5t20.5 7.5zM259 532q12 0 20.5 -8.5t8.5 -20.5q0 -27 -28 -27q-12 0 -20.5 8.5t-8.5 20.5q0 11 8 19t20 8zM324 422q24 0 37.5 -19.5t13.5 -53.5q0 -54 -28 -111l-144 -295
q-31 -65 -58 -86.5t-56 -21.5q-53 0 -53 38q0 31 27 31q7 0 14 -3t11 -5.5t9.5 -7.5t6.5 -6q8 -4 17.5 -2.5t25 22.5t33.5 60l27 54l-132 328q-7 16 -11 22.5t-13.5 11.5t-21.5 -3l-5 -2l-6 15l40 17q23 9 37 9q24 0 37 -31l113 -291l71 149q25 50 25 78q0 15 -8 23t-18 9.5
t-18 9.5t-8 24q0 37 35 37z" />
    <glyph glyph-name="Amacron" unicode="&#x100;" horiz-adv-x="596" 
d="M211 729h161l-6 -28h-161zM534 40q13 -25 51 -25v-15h-161v15q17 0 28 6.5t10 16.5l-66 180h-230l-61 -180q-2 -8 7.5 -13t24 -7.5t32.5 -2.5v-15h-158v15q47 0 54 20l214 622l22 8zM177 251h207l-107 291z" />
    <glyph glyph-name="amacron" unicode="&#x101;" horiz-adv-x="444" 
d="M149 513h161l-6 -28h-161zM419 35l6 -15q-69 -28 -85 -28q-22 0 -37 50q-57 -50 -125 -50q-54 0 -96.5 29.5t-42.5 92.5q0 40 19.5 68t58 43.5t81 23t103.5 11.5v49q0 86 -103 86q-73 0 -73 -35q0 -7 10.5 -16.5t10.5 -25.5t-10.5 -25t-23.5 -9q-17 0 -28 12.5t-11 35.5
q0 34 36 62t110 28q78 0 113 -35.5t35 -103.5v-230q0 -25 23 -25q10 0 29 7zM196 20q46 0 105 46v170q-44 -5 -68 -9t-51.5 -12t-41 -19t-22.5 -28.5t-9 -42.5q0 -44 24 -74.5t63 -30.5z" />
    <glyph glyph-name="Abreve" unicode="&#x102;" horiz-adv-x="596" 
d="M289 691q-52 0 -75 53l25 7q19 -31 50 -31q32 0 51 31l25 -7q-23 -53 -76 -53zM534 40q13 -25 51 -25v-15h-161v15q17 0 28 6.5t10 16.5l-66 180h-230l-61 -180q-2 -8 7.5 -13t24 -7.5t32.5 -2.5v-15h-158v15q47 0 54 20l214 622l22 8zM177 251h207l-107 291z" />
    <glyph glyph-name="abreve" unicode="&#x103;" horiz-adv-x="444" 
d="M227 475q-52 0 -75 53l25 7q19 -31 50 -31q32 0 51 31l25 -7q-23 -53 -76 -53zM419 35l6 -15q-69 -28 -85 -28q-22 0 -37 50q-57 -50 -125 -50q-54 0 -96.5 29.5t-42.5 92.5q0 40 19.5 68t58 43.5t81 23t103.5 11.5v49q0 86 -103 86q-73 0 -73 -35q0 -7 10.5 -16.5
t10.5 -25.5t-10.5 -25t-23.5 -9q-17 0 -28 12.5t-11 35.5q0 34 36 62t110 28q78 0 113 -35.5t35 -103.5v-230q0 -25 23 -25q10 0 29 7zM196 20q46 0 105 46v170q-44 -5 -68 -9t-51.5 -12t-41 -19t-22.5 -28.5t-9 -42.5q0 -44 24 -74.5t63 -30.5z" />
    <glyph glyph-name="Aogonek" unicode="&#x104;" horiz-adv-x="596" 
d="M556 0q-45 -26 -45 -62q0 -14 7 -23.5t17 -9.5t19 6l6 -14q-16 -14 -44 -14q-27 0 -44 12t-17 34q0 45 58 71h-89v15q17 0 28 6.5t10 16.5l-66 180h-230l-61 -180q-2 -8 7.5 -13t24 -7.5t32.5 -2.5v-15h-158v15q47 0 54 20l214 622l22 8l233 -625q13 -25 51 -25v-15h-29z
M177 251h207l-107 291z" />
    <glyph glyph-name="aogonek" unicode="&#x105;" horiz-adv-x="444" 
d="M360 -91q10 0 19 6l6 -14q-16 -14 -44 -14q-27 0 -44 12t-17 34q0 38 46 65q-15 14 -23 44q-57 -50 -125 -50q-54 0 -96.5 29.5t-42.5 92.5q0 40 19.5 68t58 43.5t81 23t103.5 11.5v49q0 86 -103 86q-73 0 -73 -35q0 -7 10.5 -16.5t10.5 -25.5t-10.5 -25t-23.5 -9
q-17 0 -28 12.5t-11 35.5q0 34 36 62t110 28q78 0 113 -35.5t35 -103.5v-230q0 -25 23 -25q10 0 29 7l6 -15q-28 -12 -49 -19q-40 -26 -40 -59q0 -14 7 -23.5t17 -9.5zM301 66v170q-44 -5 -68 -9t-51.5 -12t-41 -19t-22.5 -28.5t-9 -42.5q0 -44 24 -74.5t63 -30.5
q46 0 105 46z" />
    <glyph glyph-name="Cacute" unicode="&#x106;" horiz-adv-x="624" 
d="M353 760l-52 -54l12 -22l107 76h-67zM567 111l14 -21q-67 -98 -218 -98q-142 0 -233 92.5t-91 238.5q0 79 28.5 144t75.5 106t106 63t122 22q58 0 123 -23q16 -5 23.5 -7t17.5 0t14 12l13 -6l-41 -137l-13 6q7 33 2 58t-31 38q-43 23 -113 23q-112 0 -181 -75.5
t-69 -203.5q0 -133 73.5 -224t192.5 -91q56 0 105.5 22t79.5 61z" />
    <glyph glyph-name="cacute" unicode="&#x107;" horiz-adv-x="411" 
d="M216 565l-40 -75l12 -22l87 97h-59zM370 86l6 -21q-52 -73 -148 -73q-86 0 -140 60.5t-54 152.5q0 93 54.5 155t143.5 62q66 0 101.5 -31.5t35.5 -64.5q0 -16 -10.5 -27t-24.5 -11q-15 0 -26.5 11t-11.5 29q0 10 3.5 17t3.5 13q0 15 -22.5 25.5t-54.5 10.5
q-121 0 -121 -166q0 -89 35 -148.5t105 -59.5q73 0 125 66z" />
    <glyph glyph-name="Cdotaccent" unicode="&#x10a;" horiz-adv-x="624" 
d="M358 754q15 0 25 -10.5t10 -24.5t-10 -23t-23 -9q-15 0 -25 10.5t-10 24.5q0 15 10 23.5t23 8.5zM567 111l14 -21q-67 -98 -218 -98q-142 0 -233 92.5t-91 238.5q0 79 28.5 144t75.5 106t106 63t122 22q58 0 123 -23q16 -5 23.5 -7t17.5 0t14 12l13 -6l-41 -137l-13 6
q7 33 2 58t-31 38q-43 23 -113 23q-112 0 -181 -75.5t-69 -203.5q0 -133 73.5 -224t192.5 -91q56 0 105.5 22t79.5 61z" />
    <glyph glyph-name="cdotaccent" unicode="&#x10b;" horiz-adv-x="411" 
d="M224 538q15 0 25 -10.5t10 -24.5t-10 -23t-23 -9q-15 0 -25 10.5t-10 24.5q0 15 10 23.5t23 8.5zM370 86l6 -21q-52 -73 -148 -73q-86 0 -140 60.5t-54 152.5q0 93 54.5 155t143.5 62q66 0 101.5 -31.5t35.5 -64.5q0 -16 -10.5 -27t-24.5 -11q-15 0 -26.5 11t-11.5 29
q0 10 3.5 17t3.5 13q0 15 -22.5 25.5t-54.5 10.5q-121 0 -121 -166q0 -89 35 -148.5t105 -59.5q73 0 125 66z" />
    <glyph glyph-name="Ccaron" unicode="&#x10c;" horiz-adv-x="624" 
d="M276 780l71 -89h24l71 89h-36l-47 -60l-47 60h-36zM567 111l14 -21q-67 -98 -218 -98q-142 0 -233 92.5t-91 238.5q0 79 28.5 144t75.5 106t106 63t122 22q58 0 123 -23q16 -5 23.5 -7t17.5 0t14 12l13 -6l-41 -137l-13 6q7 33 2 58t-31 38q-43 23 -113 23
q-112 0 -181 -75.5t-69 -203.5q0 -133 73.5 -224t192.5 -91q56 0 105.5 22t79.5 61z" />
    <glyph glyph-name="ccaron" unicode="&#x10d;" horiz-adv-x="411" 
d="M142 564l71 -89h24l71 89h-36l-47 -60l-47 60h-36zM370 86l6 -21q-52 -73 -148 -73q-86 0 -140 60.5t-54 152.5q0 93 54.5 155t143.5 62q66 0 101.5 -31.5t35.5 -64.5q0 -16 -10.5 -27t-24.5 -11q-15 0 -26.5 11t-11.5 29q0 10 3.5 17t3.5 13q0 15 -22.5 25.5t-54.5 10.5
q-121 0 -121 -166q0 -89 35 -148.5t105 -59.5q73 0 125 66z" />
    <glyph glyph-name="Dcaron" unicode="&#x10e;" horiz-adv-x="663" 
d="M239 780l71 -89h24l71 89h-36l-47 -60l-47 60h-36zM325 650q54 0 104.5 -17.5t95.5 -52.5t72 -97t27 -142q0 -90 -30.5 -165.5t-96.5 -125.5t-157 -50h-288v15q22 0 40.5 7.5t18.5 22.5v560q0 15 -18.5 22.5t-40.5 7.5v15h273zM307 28q56 0 99 16t69 42.5t43 64t23 75.5
t6 83q0 146 -67 229.5t-197 83.5q-62 0 -103 -8v-577q63 -9 127 -9z" />
    <glyph glyph-name="dcaron" unicode="&#x10f;" horiz-adv-x="524" 
d="M474 675q4 16 20 16q20 0 30 -9t5 -22l-57 -151q-2 -8 -10 -8t-8 9zM447 35l6 -15q-70 -28 -86 -28q-20 0 -32 37q-42 -37 -105 -37q-86 0 -141 60.5t-55 154.5q0 96 56.5 155.5t138.5 59.5q68 0 100 -35v216q0 34 -43 19l-11 -3l-4 15l59 18q19 6 39 6q25 0 25 -29v-576
q0 -25 23 -25q11 0 30 7zM105 230q0 -88 37 -149t106 -61q45 0 81 34v285q-26 55 -94 55q-63 0 -96.5 -43.5t-33.5 -120.5z" />
    <glyph glyph-name="Dcroat" unicode="&#x110;" horiz-adv-x="663" 
d="M325 650q54 0 104.5 -17.5t95.5 -52.5t72 -97t27 -142q0 -90 -30.5 -165.5t-96.5 -125.5t-157 -50h-288v15q22 0 40.5 7.5t18.5 22.5v283h-100l13 32h87v245q0 15 -18.5 22.5t-40.5 7.5v15h273zM307 28q56 0 99 16t69 42.5t43 64t23 75.5t6 83q0 146 -67 229.5t-197 83.5
q-62 0 -103 -8v-254h143l-14 -32h-129v-291q63 -9 127 -9z" />
    <glyph glyph-name="dcroat" unicode="&#x111;" horiz-adv-x="474" 
d="M417 28q11 0 30 7l6 -15q-70 -28 -86 -28q-20 0 -32 37q-42 -37 -105 -37q-86 0 -141 60.5t-55 154.5q0 96 56.5 155.5t138.5 59.5q68 0 100 -35v139h-58l13 32h45v45q0 34 -43 19l-11 -3l-4 15l59 18q19 6 39 6q25 0 25 -29v-71h62l-14 -32h-48v-473q0 -25 23 -25z
M329 54v285q-26 55 -94 55q-63 0 -96.5 -43.5t-33.5 -120.5q0 -88 37 -149t106 -61q45 0 81 34z" />
    <glyph glyph-name="Emacron" unicode="&#x112;" horiz-adv-x="515" 
d="M193 729h161l-6 -28h-161zM461 97l16 -5l-28 -92h-397v15q22 0 41 7.5t19 22.5v560q0 15 -19 22.5t-41 7.5v15h393l27 -92l-16 -5q-21 65 -66 65h-209v-265h167q30 0 30 69h15v-169h-15q0 68 -30 68h-167v-289h213q46 0 67 65z" />
    <glyph glyph-name="emacron" unicode="&#x113;" horiz-adv-x="419" 
d="M136 513h161l-6 -28h-161zM250 20q59 0 114 45l6 -21q-55 -52 -138 -52q-87 0 -142.5 61t-55.5 152t54.5 154t138.5 63q77 0 117.5 -56.5t40.5 -144.5h-280q1 -87 39 -144t106 -57zM211 394q-48 0 -74.5 -40t-30.5 -106h209q1 55 -25 100.5t-79 45.5z" />
    <glyph glyph-name="Edotaccent" unicode="&#x116;" horiz-adv-x="515" 
d="M270 754q15 0 25 -10.5t10 -24.5t-10 -23t-23 -9q-15 0 -25 10.5t-10 24.5q0 15 10 23.5t23 8.5zM461 97l16 -5l-28 -92h-397v15q22 0 41 7.5t19 22.5v560q0 15 -19 22.5t-41 7.5v15h393l27 -92l-16 -5q-21 65 -66 65h-209v-265h167q30 0 30 69h15v-169h-15q0 68 -30 68
h-167v-289h213q46 0 67 65z" />
    <glyph glyph-name="edotaccent" unicode="&#x117;" horiz-adv-x="419" 
d="M213 538q15 0 25 -10.5t10 -24.5t-10 -23t-23 -9q-15 0 -25 10.5t-10 24.5q0 15 10 23.5t23 8.5zM250 20q59 0 114 45l6 -21q-55 -52 -138 -52q-87 0 -142.5 61t-55.5 152t54.5 154t138.5 63q77 0 117.5 -56.5t40.5 -144.5h-280q1 -87 39 -144t106 -57zM211 394
q-48 0 -74.5 -40t-30.5 -106h209q1 55 -25 100.5t-79 45.5z" />
    <glyph glyph-name="Eogonek" unicode="&#x118;" horiz-adv-x="515" 
d="M410 0q-45 -26 -45 -62q0 -14 7 -23.5t17 -9.5t19 6l6 -14q-16 -14 -44 -14q-27 0 -44 12t-17 34q0 45 58 71h-315v15q22 0 41 7.5t19 22.5v560q0 15 -19 22.5t-41 7.5v15h393l27 -92l-16 -5q-21 65 -66 65h-209v-265h167q30 0 30 69h15v-169h-15q0 68 -30 68h-167v-289
h213q46 0 67 65l16 -5l-28 -92h-39z" />
    <glyph glyph-name="eogonek" unicode="&#x119;" horiz-adv-x="419" 
d="M310 6q-35 -24 -35 -55q0 -14 7 -23.5t17 -9.5t19 6l6 -14q-16 -14 -44 -14q-27 0 -44 12t-17 34q0 27 25 50h-12q-87 0 -142.5 61t-55.5 152t54.5 154t138.5 63q77 0 117.5 -56.5t40.5 -144.5h-280q1 -87 39 -144t106 -57q59 0 114 45l6 -21q-26 -25 -60 -38zM211 394
q-48 0 -74.5 -40t-30.5 -106h209q1 55 -25 100.5t-79 45.5z" />
    <glyph glyph-name="Ecaron" unicode="&#x11a;" horiz-adv-x="515" 
d="M188 780l71 -89h24l71 89h-36l-47 -60l-47 60h-36zM461 97l16 -5l-28 -92h-397v15q22 0 41 7.5t19 22.5v560q0 15 -19 22.5t-41 7.5v15h393l27 -92l-16 -5q-21 65 -66 65h-209v-265h167q30 0 30 69h15v-169h-15q0 68 -30 68h-167v-289h213q46 0 67 65z" />
    <glyph glyph-name="ecaron" unicode="&#x11b;" horiz-adv-x="419" 
d="M131 564l71 -89h24l71 89h-36l-47 -60l-47 60h-36zM250 20q59 0 114 45l6 -21q-55 -52 -138 -52q-87 0 -142.5 61t-55.5 152t54.5 154t138.5 63q77 0 117.5 -56.5t40.5 -144.5h-280q1 -87 39 -144t106 -57zM211 394q-48 0 -74.5 -40t-30.5 -106h209q1 55 -25 100.5
t-79 45.5z" />
    <glyph glyph-name="Gbreve" unicode="&#x11e;" horiz-adv-x="674" 
d="M362 691q-52 0 -75 53l25 7q19 -31 50 -31q32 0 51 31l25 -7q-23 -53 -76 -53zM639 293q-38 0 -38 -30v-141q1 -27 10 -45q-92 -85 -252 -85q-139 0 -229.5 94t-90.5 243q0 157 99.5 243t239.5 86q70 0 139 -30q22 -10 33 14h15v-136l-17 7q-6 58 -56.5 83.5t-120.5 25.5
q-111 0 -183 -66.5t-72 -205.5q0 -140 73.5 -231t189.5 -91q89 0 158 42v171q0 44 -87 52v14h189v-14z" />
    <glyph glyph-name="gbreve" unicode="&#x11f;" horiz-adv-x="422" 
d="M200 475q-52 0 -75 53l25 7q19 -31 50 -31q32 0 51 31l25 -7q-23 -53 -76 -53zM206 422q52 0 88 -25q23 46 66 46q21 0 32 -10.5t11 -26.5t-9.5 -25t-23.5 -9q-15 0 -24 9.5t-9 24.5q0 9 6 18q-21 -8 -27 -45q42 -39 42 -100q0 -63 -46 -104t-115 -41q-35 0 -63 11
l-25 -25q-5 -7 -3.5 -12t8.5 -7q17 -5 53.5 -14.5l61.5 -16t56.5 -19.5t51.5 -26.5t34 -35t14 -47.5q0 -54 -52.5 -88t-135.5 -34q-73 0 -118.5 27.5t-45.5 74.5q0 37 27 62t67 32l4 -14q-45 -20 -45 -69q0 -38 36.5 -61.5t88.5 -23.5q49 0 77 22t28 54q0 28 -21.5 51
t-56.5 38t-66.5 25t-64.5 17.5t-38 9.5q-18 7 -19.5 22t12.5 27l48 43q-64 40 -64 120q0 62 45 103.5t115 41.5zM211 161q81 0 81 100q0 55 -25.5 94t-75.5 39q-79 0 -79 -104q0 -54 24 -91.5t75 -37.5z" />
    <glyph glyph-name="Gdotaccent" unicode="&#x120;" horiz-adv-x="674" 
d="M361 754q15 0 25 -10.5t10 -24.5t-10 -23t-23 -9q-15 0 -25 10.5t-10 24.5q0 15 10 23.5t23 8.5zM639 293q-38 0 -38 -30v-141q1 -27 10 -45q-92 -85 -252 -85q-139 0 -229.5 94t-90.5 243q0 157 99.5 243t239.5 86q70 0 139 -30q22 -10 33 14h15v-136l-17 7
q-6 58 -56.5 83.5t-120.5 25.5q-111 0 -183 -66.5t-72 -205.5q0 -140 73.5 -231t189.5 -91q89 0 158 42v171q0 44 -87 52v14h189v-14z" />
    <glyph glyph-name="gdotaccent" unicode="&#x121;" horiz-adv-x="422" 
d="M199 538q15 0 25 -10.5t10 -24.5t-10 -23t-23 -9q-15 0 -25 10.5t-10 24.5q0 15 10 23.5t23 8.5zM206 422q52 0 88 -25q23 46 66 46q21 0 32 -10.5t11 -26.5t-9.5 -25t-23.5 -9q-15 0 -24 9.5t-9 24.5q0 9 6 18q-21 -8 -27 -45q42 -39 42 -100q0 -63 -46 -104t-115 -41
q-35 0 -63 11l-25 -25q-5 -7 -3.5 -12t8.5 -7q17 -5 53.5 -14.5l61.5 -16t56.5 -19.5t51.5 -26.5t34 -35t14 -47.5q0 -54 -52.5 -88t-135.5 -34q-73 0 -118.5 27.5t-45.5 74.5q0 37 27 62t67 32l4 -14q-45 -20 -45 -69q0 -38 36.5 -61.5t88.5 -23.5q49 0 77 22t28 54
q0 28 -21.5 51t-56.5 38t-66.5 25t-64.5 17.5t-38 9.5q-18 7 -19.5 22t12.5 27l48 43q-64 40 -64 120q0 62 45 103.5t115 41.5zM211 161q81 0 81 100q0 55 -25.5 94t-75.5 39q-79 0 -79 -104q0 -54 24 -91.5t75 -37.5z" />
    <glyph glyph-name="Gcommaaccent" unicode="&#x122;" horiz-adv-x="674" 
d="M639 293q-38 0 -38 -30v-141q1 -27 10 -45q-92 -85 -252 -85q-139 0 -229.5 94t-90.5 243q0 157 99.5 243t239.5 86q70 0 139 -30q22 -10 33 14h15v-136l-17 7q-6 58 -56.5 83.5t-120.5 25.5q-111 0 -183 -66.5t-72 -205.5q0 -140 73.5 -231t189.5 -91q89 0 158 42v171
q0 44 -87 52v14h189v-14zM351 -31l-4 -21l-27 -59l11 -18l61 77v21h-41z" />
    <glyph glyph-name="gcommaaccent" unicode="&#x123;" horiz-adv-x="422" 
d="M206 422q52 0 88 -25q23 46 66 46q21 0 32 -10.5t11 -26.5t-9.5 -25t-23.5 -9q-15 0 -24 9.5t-9 24.5q0 9 6 18q-21 -8 -27 -45q42 -39 42 -100q0 -63 -46 -104t-115 -41q-35 0 -63 11l-25 -25q-5 -7 -3.5 -12t8.5 -7q17 -5 53.5 -14.5l61.5 -16t56.5 -19.5t51.5 -26.5
t34 -35t14 -47.5q0 -54 -52.5 -88t-135.5 -34q-73 0 -118.5 27.5t-45.5 74.5q0 37 27 62t67 32l4 -14q-45 -20 -45 -69q0 -38 36.5 -61.5t88.5 -23.5q49 0 77 22t28 54q0 28 -21.5 51t-56.5 38t-66.5 25t-64.5 17.5t-38 9.5q-18 7 -19.5 22t12.5 27l48 43q-64 40 -64 120
q0 62 45 103.5t115 41.5zM211 161q81 0 81 100q0 55 -25.5 94t-75.5 39q-79 0 -79 -104q0 -54 24 -91.5t75 -37.5zM191 -195l-4 -21l-27 -59l11 -18l61 77v21h-41z" />
    <glyph glyph-name="Hbar" unicode="&#x126;" horiz-adv-x="706" 
d="M654 635q-22 0 -41 -7.5t-19 -22.5v-560q0 -15 19 -22.5t41 -7.5v-15h-178v15q49 0 49 30v229h-344v-229q0 -30 49 -30v-15h-178v15q22 0 41 7.5t19 22.5v560q0 15 -19 22.5t-41 7.5v15h178v-15q-49 0 -49 -30v-198h344v198q0 30 -49 30v15h178v-15zM181 307h344v67h-344
v-67z" />
    <glyph glyph-name="hbar" unicode="&#x127;" horiz-adv-x="484" 
d="M413 45q0 -30 47 -30v-15h-151v15q39 0 39 30v232q0 50 -24 78.5t-64 28.5q-61 0 -119 -77v-262q0 -16 18 -23t40 -7v-15h-172v15q49 0 49 30v481h-52l13 32h39v45q0 31 -38 21l-10 -3l-4 14l42 13q33 10 47 10q28 0 28 -29v-71h68l-14 -32h-54v-180q70 76 148 76
q54 0 89 -35t35 -89v-253z" />
    <glyph glyph-name="Itilde" unicode="&#x128;" horiz-adv-x="288" 
d="M41 712q13 54 58 54q27 0 55 -23t44 -23q3 0 6 0.5t5.5 2t4.5 2.5t4 3.5t3 4t3 5t2.5 4.5l2.5 5t2 5l15 -7q-14 -54 -58 -54q-28 0 -55.5 23t-42.5 23q-12 0 -19 -7t-15 -25zM235 636q-21 0 -39 -7t-18 -23v-561q0 -16 18 -23t39 -7v-15h-183v15q21 0 39 7t18 23v561
q0 16 -18 23t-39 7v14h183v-14z" />
    <glyph glyph-name="itilde" unicode="&#x129;" horiz-adv-x="239" 
d="M14 526q13 54 58 54q27 0 55 -23t44 -23q3 0 6 0.5t5.5 2t4.5 2.5t4 3.5t3 4t3 5t2.5 4.5l2.5 5t2 5l15 -7q-13 -54 -58 -54q-28 0 -55.5 23t-42.5 23q-12 0 -19 -7t-15 -25zM160 45q0 -30 51 -30v-15h-168v15q52 0 52 30v295q0 23 -16 30.5t-36 -2.5l-8 -4l-7 15l68 29
q12 6 29 6q35 0 35 -35v-334z" />
    <glyph glyph-name="Imacron" unicode="&#x12a;" horiz-adv-x="288" 
d="M66 729h161l-6 -28h-161zM235 636q-21 0 -39 -7t-18 -23v-561q0 -16 18 -23t39 -7v-15h-183v15q21 0 39 7t18 23v561q0 16 -18 23t-39 7v14h183v-14z" />
    <glyph glyph-name="imacron" unicode="&#x12b;" horiz-adv-x="239" 
d="M39 543h161l-6 -28h-161zM160 45q0 -30 51 -30v-15h-168v15q52 0 52 30v295q0 23 -16 30.5t-36 -2.5l-8 -4l-7 15l68 29q12 6 29 6q35 0 35 -35v-334z" />
    <glyph glyph-name="Iogonek" unicode="&#x12e;" horiz-adv-x="288" 
d="M235 636q-21 0 -39 -7t-18 -23v-561q0 -16 18 -23t39 -7v-15h-27q-45 -26 -45 -62q0 -14 7 -23.5t17 -9.5t19 6l6 -14q-16 -14 -44 -14q-27 0 -44 12t-17 34q0 45 58 71h-113v15q21 0 39 7t18 23v561q0 16 -18 23t-39 7v14h183v-14z" />
    <glyph glyph-name="iogonek" unicode="&#x12f;" horiz-adv-x="239" 
d="M120 495q-19 0 -31.5 13t-12.5 32q0 17 11 28.5t29 11.5t31 -13t13 -32q0 -17 -11 -28.5t-29 -11.5zM197 0q-45 -26 -45 -62q0 -14 7 -23.5t17 -9.5t19 6l6 -14q-16 -14 -44 -14q-27 0 -44 12t-17 34q0 45 58 71h-111v15q52 0 52 30v295q0 23 -16 30.5t-36 -2.5l-8 -4
l-7 15l68 29q12 6 29 6q35 0 35 -35v-334q0 -30 51 -30v-15h-14z" />
    <glyph glyph-name="Idotaccent" unicode="&#x130;" horiz-adv-x="288" 
d="M143 754q15 0 25 -10.5t10 -24.5t-10 -23t-23 -9q-15 0 -25 10.5t-10 24.5q0 15 10 23.5t23 8.5zM235 636q-21 0 -39 -7t-18 -23v-561q0 -16 18 -23t39 -7v-15h-183v15q21 0 39 7t18 23v561q0 16 -18 23t-39 7v14h183v-14z" />
    <glyph glyph-name="dotlessi" unicode="&#x131;" horiz-adv-x="239" 
d="M160 45q0 -30 51 -30v-15h-168v15q52 0 52 30v295q0 23 -16 30.5t-36 -2.5l-8 -4l-7 15l68 29q12 6 29 6q35 0 35 -35v-334z" />
    <glyph glyph-name="Kcommaaccent" unicode="&#x136;" horiz-adv-x="653" 
d="M540 61q41 -46 112 -46v-15h-171q9 19 -2 33l-272 288l-26 -27v-249q0 -30 71 -30v-15h-200v15q22 0 41 7.5t19 22.5v560q0 15 -19 22.5t-41 7.5v15h178v-15q-49 0 -49 -30v-266l276 269q9 12 2.5 19.5t-21.5 7.5v15h160v-15q-62 0 -95 -32l-248 -242zM331 -31l-4 -21
l-27 -59l11 -18l61 77v21h-41z" />
    <glyph glyph-name="kcommaaccent" unicode="&#x137;" horiz-adv-x="464" 
d="M382 47q26 -32 68 -32v-15h-130q9 20 -3 38l-134 191l-42 -39v-145q0 -30 43 -30v-15h-157v15q49 0 49 30v558q0 32 -38 21l-10 -3l-4 14l42 13q33 10 49 10q26 0 26 -29v-401l157 145q9 8 4 17.5t-16 9.5v14h147v-15q-57 0 -100 -35l-107 -97zM237 -31l-4 -21l-27 -59
l11 -18l61 77v21h-41z" />
    <glyph glyph-name="Lacute" unicode="&#x139;" horiz-adv-x="500" 
d="M246 760l-52 -54l12 -22l107 76h-67zM451 96l16 -5l-28 -91h-387v15q22 0 41 7.5t19 22.5v560q0 15 -19 22.5t-41 7.5v15h199v-15q-70 0 -70 -30v-572h205q25 0 39.5 15t25.5 48z" />
    <glyph glyph-name="lacute" unicode="&#x13a;" horiz-adv-x="214" 
d="M105 760l-52 -54l12 -22l107 76h-67zM141 45q0 -30 49 -30v-15h-163v15q49 0 49 30v558q0 32 -38 21l-10 -3l-4 14l42 13q33 10 48 10q27 0 27 -29v-584z" />
    <glyph glyph-name="Lcommaaccent" unicode="&#x13b;" horiz-adv-x="500" 
d="M451 96l16 -5l-28 -91h-387v15q22 0 41 7.5t19 22.5v560q0 15 -19 22.5t-41 7.5v15h199v-15q-70 0 -70 -30v-572h205q25 0 39.5 15t25.5 48zM241 -31l-4 -21l-27 -59l11 -18l61 77v21h-41z" />
    <glyph glyph-name="lcommaaccent" unicode="&#x13c;" horiz-adv-x="214" 
d="M141 45q0 -30 49 -30v-15h-163v15q49 0 49 30v558q0 32 -38 21l-10 -3l-4 14l42 13q33 10 48 10q27 0 27 -29v-584zM98 -31l-4 -21l-27 -59l11 -18l61 77v21h-41z" />
    <glyph glyph-name="Lcaron" unicode="&#x13d;" horiz-adv-x="500" 
d="M347 675q4 16 20 16q20 0 30 -9t5 -22l-57 -151q-2 -8 -10 -8t-8 9zM451 96l16 -5l-28 -91h-387v15q22 0 41 7.5t19 22.5v560q0 15 -19 22.5t-41 7.5v15h199v-15q-70 0 -70 -30v-572h205q25 0 39.5 15t25.5 48z" />
    <glyph glyph-name="lcaron" unicode="&#x13e;" horiz-adv-x="263" 
d="M201 675q4 16 20 16q20 0 30 -9t5 -22l-57 -151q-2 -8 -10 -8t-8 9zM141 45q0 -30 49 -30v-15h-163v15q49 0 49 30v558q0 32 -38 21l-10 -3l-4 14l42 13q33 10 48 10q27 0 27 -29v-584z" />
    <glyph glyph-name="Ldot" unicode="&#x13f;" horiz-adv-x="500" 
d="M451 96l16 -5l-28 -91h-387v15q22 0 41 7.5t19 22.5v560q0 15 -19 22.5t-41 7.5v15h199v-15q-70 0 -70 -30v-572h205q25 0 39.5 15t25.5 48zM309 369q15 0 25 -10.5t10 -24.5t-10 -23t-23 -9q-15 0 -25 10.5t-10 24.5q0 15 10 23.5t23 8.5z" />
    <glyph glyph-name="ldot" unicode="&#x140;" horiz-adv-x="259" 
d="M141 45q0 -30 49 -30v-15h-163v15q49 0 49 30v558q0 32 -38 21l-10 -3l-4 14l42 13q33 10 48 10q27 0 27 -29v-584zM215 369q15 0 25 -10.5t10 -24.5t-10 -23t-23 -9q-15 0 -25 10.5t-10 24.5q0 15 10 23.5t23 8.5z" />
    <glyph glyph-name="Lslash" unicode="&#x141;" horiz-adv-x="500" 
d="M451 96l16 -5l-28 -91h-387v15q22 0 41 7.5t19 22.5v255l-44 -19l-1 34l45 19v271q0 15 -19 22.5t-41 7.5v15h199v-15q-70 0 -70 -30v-241l45 19l-1 -35l-44 -19v-296h205q25 0 39.5 15t25.5 48z" />
    <glyph glyph-name="lslash" unicode="&#x142;" horiz-adv-x="214" 
d="M141 45q0 -30 49 -30v-15h-163v15q49 0 49 30v256l-47 -20l-1 34l48 21v267q0 32 -38 21l-10 -3l-4 14l42 13q33 10 48 10q27 0 27 -29v-266l46 20l-1 -35l-45 -19v-284z" />
    <glyph glyph-name="Nacute" unicode="&#x143;" horiz-adv-x="710" 
d="M353 760l-52 -54l12 -22l107 76h-67zM668 650v-15q-19 0 -37 -8t-18 -22v-609h-14l-451 536v-487q0 -30 79 -30v-15h-175v15q21 0 40 8t19 22v560q0 14 -19 22t-40 8v15h90l433 -517v472q0 30 -78 30v15h171z" />
    <glyph glyph-name="nacute" unicode="&#x144;" horiz-adv-x="496" 
d="M253 565l-40 -75l12 -22l87 97h-59zM427 45q0 -30 45 -30v-15h-151v15q41 0 41 30v241q0 98 -72 98q-71 0 -136 -78v-261q0 -16 18 -23t39 -7v-15h-167v15q44 0 44 30v295q0 24 -15.5 30.5t-35.5 -2.5l-7 -3l-6 14l56 24q28 11 43 11q29 0 30 -31v-39q78 78 167 78
q54 0 80.5 -32t26.5 -83v-262z" />
    <glyph glyph-name="Ncommaaccent" unicode="&#x145;" horiz-adv-x="710" 
d="M668 650v-15q-19 0 -37 -8t-18 -22v-609h-14l-451 536v-487q0 -30 79 -30v-15h-175v15q21 0 40 8t19 22v560q0 14 -19 22t-40 8v15h90l433 -517v472q0 30 -78 30v15h171zM354 -31l-4 -21l-27 -59l11 -18l61 77v21h-41z" />
    <glyph glyph-name="ncommaaccent" unicode="&#x146;" horiz-adv-x="496" 
d="M427 45q0 -30 45 -30v-15h-151v15q41 0 41 30v241q0 98 -72 98q-71 0 -136 -78v-261q0 -16 18 -23t39 -7v-15h-167v15q44 0 44 30v295q0 24 -15.5 30.5t-35.5 -2.5l-7 -3l-6 14l56 24q28 11 43 11q29 0 30 -31v-39q78 78 167 78q54 0 80.5 -32t26.5 -83v-262zM248 -31
l-4 -21l-27 -59l11 -18l61 77v21h-41z" />
    <glyph glyph-name="Ncaron" unicode="&#x147;" horiz-adv-x="710" 
d="M276 780l71 -89h24l71 89h-36l-47 -60l-47 60h-36zM668 650v-15q-19 0 -37 -8t-18 -22v-609h-14l-451 536v-487q0 -30 79 -30v-15h-175v15q21 0 40 8t19 22v560q0 14 -19 22t-40 8v15h90l433 -517v472q0 30 -78 30v15h171z" />
    <glyph glyph-name="ncaron" unicode="&#x148;" horiz-adv-x="496" 
d="M179 564l71 -89h24l71 89h-36l-47 -60l-47 60h-36zM427 45q0 -30 45 -30v-15h-151v15q41 0 41 30v241q0 98 -72 98q-71 0 -136 -78v-261q0 -16 18 -23t39 -7v-15h-167v15q44 0 44 30v295q0 24 -15.5 30.5t-35.5 -2.5l-7 -3l-6 14l56 24q28 11 43 11q29 0 30 -31v-39
q78 78 167 78q54 0 80.5 -32t26.5 -83v-262z" />
    <glyph glyph-name="Eng" unicode="&#x14a;" horiz-adv-x="710" 
d="M497 650h171v-15q-19 0 -37 -8t-18 -22v-609q0 -57 -72 -88l-6 13q42 22 42 70q0 31 -29 65h1l-401 476v-487q0 -30 79 -30v-15h-175v15q21 0 40 8t19 22v560q0 14 -19 22t-40 8v15h90l433 -517v472q0 30 -78 30v15z" />
    <glyph glyph-name="eng" unicode="&#x14b;" horiz-adv-x="482" 
d="M310 422q51 0 76.5 -32t25.5 -83v-272q0 -68 -104 -108l-5 10q49 26 49 85v264q0 101 -73 101q-30 0 -67 -21.5t-65 -53.5v-271q0 -14 17.5 -22t37.5 -8v-11h-162v11q19 0 33 7.5t14 22.5v299q0 24 -16 32t-37 -2l-6 -2l-4 11l65 28q16 7 28 7q29 0 30 -31v-39
q35 34 79 56t84 22z" />
    <glyph glyph-name="Omacron" unicode="&#x14c;" horiz-adv-x="713" 
d="M279 729h161l-6 -28h-161zM349 -8q-133 0 -221.5 97t-88.5 241q0 79 28.5 143t76 103.5t104 60.5t116.5 21q133 0 221.5 -97t88.5 -241q0 -79 -29 -143t-76 -103.5t-104 -60.5t-116 -21zM369 28q45 0 84 14.5t72 44.5t52.5 85t19.5 128q0 140 -67 231t-186 91
q-45 0 -84 -14.5t-72 -44.5t-52.5 -85t-19.5 -128q0 -139 67 -230.5t186 -91.5z" />
    <glyph glyph-name="omacron" unicode="&#x14d;" horiz-adv-x="472" 
d="M158 513h161l-6 -28h-161zM235 -8q-85 0 -143 60.5t-58 152.5q0 93 59 155t145 62q85 0 142.5 -60.5t57.5 -152.5q0 -93 -58.5 -155t-144.5 -62zM251 20q59 0 87.5 46t28.5 119q0 89 -38.5 149t-107.5 60q-59 0 -87.5 -46.5t-28.5 -119.5q0 -89 38.5 -148.5t107.5 -59.5z
" />
    <glyph glyph-name="Ohungarumlaut" unicode="&#x150;" horiz-adv-x="713" 
d="M316 781l-20 -75l12 -22l58 97h-50zM396 781l-20 -75l12 -22l57 97h-49zM349 -8q-133 0 -221.5 97t-88.5 241q0 79 28.5 143t76 103.5t104 60.5t116.5 21q133 0 221.5 -97t88.5 -241q0 -79 -29 -143t-76 -103.5t-104 -60.5t-116 -21zM369 28q45 0 84 14.5t72 44.5
t52.5 85t19.5 128q0 140 -67 231t-186 91q-45 0 -84 -14.5t-72 -44.5t-52.5 -85t-19.5 -128q0 -139 67 -230.5t186 -91.5z" />
    <glyph glyph-name="ohungarumlaut" unicode="&#x151;" horiz-adv-x="472" 
d="M195 565l-20 -75l12 -22l58 97h-50zM275 565l-20 -75l12 -22l57 97h-49zM235 -8q-85 0 -143 60.5t-58 152.5q0 93 59 155t145 62q85 0 142.5 -60.5t57.5 -152.5q0 -93 -58.5 -155t-144.5 -62zM251 20q59 0 87.5 46t28.5 119q0 89 -38.5 149t-107.5 60q-59 0 -87.5 -46.5
t-28.5 -119.5q0 -89 38.5 -148.5t107.5 -59.5z" />
    <glyph glyph-name="OE" unicode="&#x152;" horiz-adv-x="849" 
d="M811 92l-28 -92h-362q-38 -8 -72 -8q-133 0 -221.5 97.5t-88.5 241.5q0 79 28.5 143t76 103t104 60t115.5 21q35 0 70 -8h346l27 -92l-16 -5q-21 65 -66 65h-209v-265h167q30 0 30 69h15v-169h-15q0 68 -30 68h-167v-289h213q46 0 67 65zM116 355q0 -139 70 -233t185 -94
q39 0 74 12q1 1 1 5v555q-44 22 -104 22q-94 0 -160 -65.5t-66 -201.5z" />
    <glyph glyph-name="oe" unicode="&#x153;" horiz-adv-x="754" 
d="M584 20q59 0 114 45l6 -21q-55 -52 -138 -52q-108 0 -165 90q-59 -90 -166 -90q-85 0 -143 60.5t-58 152.5q0 93 59 155t145 62q52 0 95.5 -24t69.5 -66q56 90 158 90q77 0 117.5 -56.5t40.5 -144.5h-280q1 -87 39 -144t106 -57zM251 20q59 0 87.5 46t28.5 119
q0 89 -38.5 149t-107.5 60q-59 0 -87.5 -46.5t-28.5 -119.5q0 -89 38.5 -148.5t107.5 -59.5zM545 394q-48 0 -74.5 -40t-30.5 -106h209q1 55 -25 100.5t-79 45.5z" />
    <glyph glyph-name="Racute" unicode="&#x154;" horiz-adv-x="611" 
d="M288 760l-52 -54l12 -22l107 76h-67zM511 61q40 -46 99 -46v-15h-160q13 18 -1 37l-175 225q-42 -8 -93 -10v-207q0 -30 68 -30v-15h-197v15q22 0 41 7.5t19 22.5v560q0 15 -19 22.5t-41 7.5v15h214q90 0 151.5 -43t61.5 -121q0 -67 -43 -121.5t-97 -83.5zM181 615v-331
q221 6 221 192q0 146 -159 146q-37 0 -62 -7z" />
    <glyph glyph-name="racute" unicode="&#x155;" horiz-adv-x="368" 
d="M187 565l-40 -75l12 -22l87 97h-59zM267 422q35 0 55.5 -21.5t20.5 -50.5q0 -20 -10.5 -30.5t-25.5 -10.5q-17 0 -28.5 10.5t-11.5 26.5q0 12 8 22.5t8 15.5q0 13 -20 13q-34 0 -61 -35t-38.5 -74t-11.5 -67v-176q0 -30 74 -30v-15h-187v15q49 0 49 30v295
q0 24 -15.5 30.5t-35.5 -2.5l-7 -3l-6 14l52 22q30 13 47 13q29 0 29 -35v-57q38 100 115 100z" />
    <glyph glyph-name="Rcommaaccent" unicode="&#x156;" horiz-adv-x="611" 
d="M511 61q40 -46 99 -46v-15h-160q13 18 -1 37l-175 225q-42 -8 -93 -10v-207q0 -30 68 -30v-15h-197v15q22 0 41 7.5t19 22.5v560q0 15 -19 22.5t-41 7.5v15h214q90 0 151.5 -43t61.5 -121q0 -67 -43 -121.5t-97 -83.5zM181 615v-331q221 6 221 192q0 146 -159 146
q-37 0 -62 -7zM305 -31l-4 -21l-27 -59l11 -18l61 77v21h-41z" />
    <glyph glyph-name="rcommaaccent" unicode="&#x157;" horiz-adv-x="368" 
d="M267 422q35 0 55.5 -21.5t20.5 -50.5q0 -20 -10.5 -30.5t-25.5 -10.5q-17 0 -28.5 10.5t-11.5 26.5q0 12 8 22.5t8 15.5q0 13 -20 13q-34 0 -61 -35t-38.5 -74t-11.5 -67v-176q0 -30 74 -30v-15h-187v15q49 0 49 30v295q0 24 -15.5 30.5t-35.5 -2.5l-7 -3l-6 14l52 22
q30 13 47 13q29 0 29 -35v-57q38 100 115 100zM171 -31l-4 -21l-27 -59l11 -18l61 77v21h-41z" />
    <glyph glyph-name="Rcaron" unicode="&#x158;" horiz-adv-x="611" 
d="M211 780l71 -89h24l71 89h-36l-47 -60l-47 60h-36zM511 61q40 -46 99 -46v-15h-160q13 18 -1 37l-175 225q-42 -8 -93 -10v-207q0 -30 68 -30v-15h-197v15q22 0 41 7.5t19 22.5v560q0 15 -19 22.5t-41 7.5v15h214q90 0 151.5 -43t61.5 -121q0 -67 -43 -121.5t-97 -83.5z
M181 615v-331q221 6 221 192q0 146 -159 146q-37 0 -62 -7z" />
    <glyph glyph-name="rcaron" unicode="&#x159;" horiz-adv-x="368" 
d="M113 564l71 -89h24l71 89h-36l-47 -60l-47 60h-36zM267 422q35 0 55.5 -21.5t20.5 -50.5q0 -20 -10.5 -30.5t-25.5 -10.5q-17 0 -28.5 10.5t-11.5 26.5q0 12 8 22.5t8 15.5q0 13 -20 13q-34 0 -61 -35t-38.5 -74t-11.5 -67v-176q0 -30 74 -30v-15h-187v15q49 0 49 30v295
q0 24 -15.5 30.5t-35.5 -2.5l-7 -3l-6 14l52 22q30 13 47 13q29 0 29 -35v-57q38 100 115 100z" />
    <glyph glyph-name="Sacute" unicode="&#x15a;" horiz-adv-x="501" 
d="M243 760l-52 -54l12 -22l107 76h-67zM243 -8q-31 0 -59.5 7t-45.5 15.5t-32 15t-25.5 5t-18.5 -13.5l-13 5l46 150l12 -5q-12 -61 27 -102.5t109 -41.5q41 0 70 11.5t43 30.5t20 38t6 40q0 26 -10.5 50.5t-22 40t-37.5 35.5t-38 27.5t-44.5 25.5t-37.5 21
q-55 32 -83.5 67t-29.5 89q-1 74 50 114.5t124 40.5q30 0 59 -7.5t43.5 -14t26.5 -5.5t18 15l12 -5l-38 -124l-11 5q10 47 -22.5 74t-88.5 27q-107 0 -107 -102q0 -15 3 -27t6 -21.5t12.5 -19.5l15 -16t22 -16.5t25 -15.5l31.5 -18l34 -19q78 -46 118 -88t40 -106
q0 -77 -59 -129.5t-150 -52.5z" />
    <glyph glyph-name="sacute" unicode="&#x15b;" horiz-adv-x="368" 
d="M177 570l-40 -75l12 -22l87 97h-59zM179 -8q-76 0 -140 53l22 73l11 -5q-7 -43 28 -68.5t83 -25.5q45 0 66 23.5t21 57.5q0 16 -6.5 29.5t-13 22t-23.5 19t-25 14.5t-31 13.5t-29 12.5q-88 38 -88 103q0 44 35 76t98 32q60 0 127 -44l-35 -75l-10 4q12 31 -2 52t-36 28.5
t-46 7.5q-31 0 -52.5 -16t-21.5 -48q0 -20 15.5 -36t32.5 -24.5t58 -25.5q53 -23 85 -52.5t32 -77.5q0 -56 -44 -89.5t-111 -33.5z" />
    <glyph glyph-name="Scedilla" unicode="&#x15e;" horiz-adv-x="501" 
d="M452 174q0 -77 -58.5 -129t-149.5 -53l-11 -25q8 3 19 3q15 0 27.5 -8t12.5 -25q0 -25 -21.5 -40.5t-49.5 -15.5q-9 0 -15 2l6 14q15 0 24.5 9.5t9.5 23.5q0 23 -15 23t-29 -17l-8 13l20 45q-30 3 -58.5 13.5t-43 18.5t-28 8.5t-22.5 -13.5l-13 5l46 150l12 -5
q-12 -61 27 -102.5t109 -41.5q41 0 70 11.5t43 30.5t20 38t6 40q0 26 -10.5 50.5t-22 40t-37.5 35.5t-38 27.5t-44.5 25.5t-37.5 21q-55 32 -83.5 67t-29.5 89q-1 74 50 114.5t124 40.5q30 0 59 -7.5t43.5 -14t26.5 -5.5t18 15l12 -5l-38 -124l-11 5q10 47 -22.5 74
t-88.5 27q-107 0 -107 -102q0 -15 3 -27t6 -21.5t12.5 -19.5l15 -16t22 -16.5t25 -15.5l31.5 -18l34 -19q78 -46 118 -88t40 -106z" />
    <glyph glyph-name="scedilla" unicode="&#x15f;" horiz-adv-x="368" 
d="M334 115q0 -55 -41.5 -88t-105.5 -35l-12 -25q7 3 19 3q15 0 27.5 -8t12.5 -25q0 -25 -21.5 -40.5t-49.5 -15.5q-9 0 -15 2l6 14q15 0 24.5 9.5t9.5 23.5q0 23 -15 23t-29 -17l-8 13l20 44q-61 7 -117 52l22 73l11 -5q-7 -43 28 -68.5t83 -25.5q45 0 66 23.5t21 57.5
q0 16 -6.5 29.5t-13 22t-23.5 19t-25 14.5t-31 13.5t-29 12.5q-88 38 -88 103q0 44 35 76t98 32q60 0 127 -44l-35 -75l-10 4q12 31 -2 52t-36 28.5t-46 7.5q-31 0 -52.5 -16t-21.5 -48q0 -20 15.5 -36t32.5 -24.5t58 -25.5q53 -23 85 -52.5t32 -77.5z" />
    <glyph glyph-name="Scaron" unicode="&#x160;" horiz-adv-x="501" 
d="M166 780l71 -89h24l71 89h-36l-47 -60l-47 60h-36zM243 -8q-31 0 -59.5 7t-45.5 15.5t-32 15t-25.5 5t-18.5 -13.5l-13 5l46 150l12 -5q-12 -61 27 -102.5t109 -41.5q41 0 70 11.5t43 30.5t20 38t6 40q0 26 -10.5 50.5t-22 40t-37.5 35.5t-38 27.5t-44.5 25.5t-37.5 21
q-55 32 -83.5 67t-29.5 89q-1 74 50 114.5t124 40.5q30 0 59 -7.5t43.5 -14t26.5 -5.5t18 15l12 -5l-38 -124l-11 5q10 47 -22.5 74t-88.5 27q-107 0 -107 -102q0 -15 3 -27t6 -21.5t12.5 -19.5l15 -16t22 -16.5t25 -15.5l31.5 -18l34 -19q78 -46 118 -88t40 -106
q0 -77 -59 -129.5t-150 -52.5z" />
    <glyph glyph-name="scaron" unicode="&#x161;" horiz-adv-x="368" 
d="M103 569l71 -89h24l71 89h-36l-47 -60l-47 60h-36zM179 -8q-76 0 -140 53l22 73l11 -5q-7 -43 28 -68.5t83 -25.5q45 0 66 23.5t21 57.5q0 16 -6.5 29.5t-13 22t-23.5 19t-25 14.5t-31 13.5t-29 12.5q-88 38 -88 103q0 44 35 76t98 32q60 0 127 -44l-35 -75l-10 4
q12 31 -2 52t-36 28.5t-46 7.5q-31 0 -52.5 -16t-21.5 -48q0 -20 15.5 -36t32.5 -24.5t58 -25.5q53 -23 85 -52.5t32 -77.5q0 -56 -44 -89.5t-111 -33.5z" />
    <glyph glyph-name="uni0162" unicode="&#x162;" horiz-adv-x="606" 
d="M545 657l32 -102l-14 -4q-21 66 -68 66h-158v-572q0 -30 79 -30v-15h-106l-15 -33q7 3 19 3q15 0 27.5 -8t12.5 -25q0 -25 -21.5 -40.5t-49.5 -15.5q-9 0 -15 2l6 14q15 0 24.5 9.5t9.5 23.5q0 23 -15 23t-29 -17l-8 13l23 51h-90v15q79 0 79 30v572h-158q-47 0 -68 -66
l-13 4l31 102q9 -7 23 -7h439q14 0 23 7z" />
    <glyph glyph-name="uni0163" unicode="&#x163;" horiz-adv-x="295" 
d="M272 41q-31 -44 -87 -49l-12 -25q8 3 19 3q15 0 27.5 -8t12.5 -25q0 -25 -21.5 -40.5t-49.5 -15.5q-9 0 -15 2l6 14q15 0 24.5 9.5t9.5 23.5q0 23 -15 23t-29 -17l-8 13l20 44q-76 12 -76 93v300h-50v15q73 16 98 123h18v-110h118l-8 -28h-110v-271q0 -47 11 -71t40 -24
q42 0 71 40z" />
    <glyph glyph-name="Tcaron" unicode="&#x164;" horiz-adv-x="606" 
d="M220 780l71 -89h24l71 89h-36l-47 -60l-47 60h-36zM577 555l-14 -4q-21 66 -68 66h-158v-572q0 -30 79 -30v-15h-227v15q79 0 79 30v572h-158q-47 0 -68 -66l-13 4l31 102q9 -7 23 -7h439q14 0 23 7z" />
    <glyph glyph-name="tcaron" unicode="&#x165;" horiz-adv-x="297" 
d="M213 641q4 16 20 16q20 0 30 -9t5 -22l-57 -151q-2 -8 -10 -8t-8 9zM266 60l6 -19q-35 -49 -99 -49q-40 0 -67.5 22t-27.5 72v300h-50v15q73 16 98 123h18v-110h118l-8 -28h-110v-271q0 -47 11 -71t40 -24q42 0 71 40z" />
    <glyph glyph-name="Tbar" unicode="&#x166;" horiz-adv-x="606" 
d="M545 657l32 -102l-14 -4q-21 66 -68 66h-158v-257h58l-14 -32h-44v-283q0 -30 79 -30v-15h-227v15q79 0 79 30v283h-58l13 32h45v257h-158q-47 0 -68 -66l-13 4l31 102q9 -7 23 -7h439q14 0 23 7z" />
    <glyph glyph-name="tbar" unicode="&#x167;" horiz-adv-x="305" 
d="M266 60l6 -19q-35 -49 -99 -49q-40 0 -67.5 22t-27.5 72v199h-45v24h45v77h-50v15q73 16 98 123h18v-110h118l-8 -28h-110v-77h85l-8 -24h-77v-170q0 -47 11 -71t40 -24q42 0 71 40z" />
    <glyph glyph-name="Umacron" unicode="&#x16a;" horiz-adv-x="673" 
d="M262 729h161l-6 -28h-161zM631 650v-15q-22 0 -40.5 -7.5t-18.5 -22.5v-423q0 -94 -67.5 -142t-169.5 -48q-104 0 -168.5 51.5t-64.5 148.5v413q0 15 -18.5 22.5t-40.5 7.5v15h186v-15q-22 0 -40 -7t-18 -23v-397q0 -90 49.5 -135t127.5 -45q77 0 129.5 40t52.5 100v437
q0 16 -18 23t-40 7v15h159z" />
    <glyph glyph-name="umacron" unicode="&#x16b;" horiz-adv-x="491" 
d="M174 513h161l-6 -28h-161zM470 35l6 -15q-68 -28 -85 -28q-13 0 -23.5 19t-13.5 43q-52 -62 -136 -62q-62 0 -95.5 33t-33.5 83v232q0 23 -16.5 29.5t-35.5 -3.5l-7 -3l-6 15l67 30q15 6 30 6q33 0 33 -35v-259q0 -45 21 -72.5t62 -27.5q60 0 116 65v274q0 31 -37 21
l-11 -3l-6 14l55 17q20 6 34 6q30 0 30 -29v-332q0 -25 23 -25q12 0 29 7z" />
    <glyph glyph-name="ubreve" unicode="&#x16d;" horiz-adv-x="491" 
d="M252 475q-52 0 -75 53l25 7q19 -31 50 -31q32 0 51 31l25 -7q-23 -53 -76 -53zM470 35l6 -15q-68 -28 -85 -28q-13 0 -23.5 19t-13.5 43q-52 -62 -136 -62q-62 0 -95.5 33t-33.5 83v232q0 23 -16.5 29.5t-35.5 -3.5l-7 -3l-6 15l67 30q15 6 30 6q33 0 33 -35v-259
q0 -45 21 -72.5t62 -27.5q60 0 116 65v274q0 31 -37 21l-11 -3l-6 14l55 17q20 6 34 6q30 0 30 -29v-332q0 -25 23 -25q12 0 29 7z" />
    <glyph glyph-name="Uring" unicode="&#x16e;" horiz-adv-x="673" 
d="M340 684q-21 0 -36 15t-15 35q0 21 15 36t36 15q20 0 35 -15t15 -36q0 -20 -15 -35t-35 -15zM340 707q11 0 19 8t8 19q0 12 -8 20t-19 8q-12 0 -20 -8t-8 -20q0 -11 8 -19t20 -8zM631 650v-15q-22 0 -40.5 -7.5t-18.5 -22.5v-423q0 -94 -67.5 -142t-169.5 -48
q-104 0 -168.5 51.5t-64.5 148.5v413q0 15 -18.5 22.5t-40.5 7.5v15h186v-15q-22 0 -40 -7t-18 -23v-397q0 -90 49.5 -135t127.5 -45q77 0 129.5 40t52.5 100v437q0 16 -18 23t-40 7v15h159z" />
    <glyph glyph-name="uring" unicode="&#x16f;" horiz-adv-x="491" 
d="M252 468q-21 0 -36 15t-15 35q0 21 15 36t36 15q20 0 35 -15t15 -36q0 -20 -15 -35t-35 -15zM252 491q11 0 19 8t8 19q0 12 -8 20t-19 8q-12 0 -20 -8t-8 -20q0 -11 8 -19t20 -8zM470 35l6 -15q-68 -28 -85 -28q-13 0 -23.5 19t-13.5 43q-52 -62 -136 -62q-62 0 -95.5 33
t-33.5 83v232q0 23 -16.5 29.5t-35.5 -3.5l-7 -3l-6 15l67 30q15 6 30 6q33 0 33 -35v-259q0 -45 21 -72.5t62 -27.5q60 0 116 65v274q0 31 -37 21l-11 -3l-6 14l55 17q20 6 34 6q30 0 30 -29v-332q0 -25 23 -25q12 0 29 7z" />
    <glyph glyph-name="Uhungarumlaut" unicode="&#x170;" horiz-adv-x="673" 
d="M299 781l-20 -75l12 -22l58 97h-50zM379 781l-20 -75l12 -22l57 97h-49zM631 650v-15q-22 0 -40.5 -7.5t-18.5 -22.5v-423q0 -94 -67.5 -142t-169.5 -48q-104 0 -168.5 51.5t-64.5 148.5v413q0 15 -18.5 22.5t-40.5 7.5v15h186v-15q-22 0 -40 -7t-18 -23v-397
q0 -90 49.5 -135t127.5 -45q77 0 129.5 40t52.5 100v437q0 16 -18 23t-40 7v15h159z" />
    <glyph glyph-name="uhungarumlaut" unicode="&#x171;" horiz-adv-x="491" 
d="M211 565l-20 -75l12 -22l58 97h-50zM291 565l-20 -75l12 -22l57 97h-49zM470 35l6 -15q-68 -28 -85 -28q-13 0 -23.5 19t-13.5 43q-52 -62 -136 -62q-62 0 -95.5 33t-33.5 83v232q0 23 -16.5 29.5t-35.5 -3.5l-7 -3l-6 15l67 30q15 6 30 6q33 0 33 -35v-259
q0 -45 21 -72.5t62 -27.5q60 0 116 65v274q0 31 -37 21l-11 -3l-6 14l55 17q20 6 34 6q30 0 30 -29v-332q0 -25 23 -25q12 0 29 7z" />
    <glyph glyph-name="Uogonek" unicode="&#x172;" horiz-adv-x="673" 
d="M472 650h159v-15q-22 0 -40.5 -7.5t-18.5 -22.5v-423q0 -123 -117 -169q-43 -25 -43 -61q0 -14 7 -23.5t17 -9.5t19 6l6 -14q-16 -14 -44 -14q-27 0 -44 12t-17 34q0 29 27 52q-23 -3 -48 -3q-104 0 -168.5 51.5t-64.5 148.5v413q0 15 -18.5 22.5t-40.5 7.5v15h186v-15
q-22 0 -40 -7t-18 -23v-397q0 -90 49.5 -135t127.5 -45q77 0 129.5 40t52.5 100v437q0 16 -18 23t-40 7v15z" />
    <glyph glyph-name="uogonek" unicode="&#x173;" horiz-adv-x="491" 
d="M422 -88q10 0 19 6l6 -14q-16 -14 -44 -14q-27 0 -44 12t-17 34q0 35 38 60q-20 16 -26 58q-52 -62 -136 -62q-62 0 -95.5 33t-33.5 83v232q0 23 -16.5 29.5t-35.5 -3.5l-7 -3l-6 15l67 30q15 6 30 6q33 0 33 -35v-259q0 -45 21 -72.5t62 -27.5q60 0 116 65v274
q0 31 -37 21l-11 -3l-6 14l55 17q20 6 34 6q30 0 30 -29v-332q0 -25 23 -25q12 0 29 7l6 -15q-19 -7 -34 -14q-44 -25 -44 -61q0 -14 7 -23.5t17 -9.5z" />
    <glyph glyph-name="Wcircumflex" unicode="&#x174;" horiz-adv-x="887" 
d="M368 691l65 89h36l65 -89h-27l-56 60l-56 -60h-27zM858 650v-15q-43 0 -55 -28l-186 -611h-19l-153 443l-137 -443h-19l-209 614q-11 25 -51 25v15h109l173 -528l113 378l-38 109q-11 26 -70 26v15h127l176 -528l142 483q4 13 -16.5 21.5t-53.5 8.5v15h167z" />
    <glyph glyph-name="wcircumflex" unicode="&#x175;" horiz-adv-x="608" 
d="M227 475l65 89h36l65 -89h-27l-56 60l-56 -60h-27zM521 422q24 0 38 -20t14 -52q0 -47 -29 -111l-109 -239h-35l-76 231l-103 -231h-34l-115 344q-9 25 -17 31t-31 -1l-5 -3l-5 15l51 22q13 6 28 6q23 0 34 -31l97 -305l86 194l-24 72q-9 25 -17.5 31.5t-30.5 -1.5l-4 -2
l-5 14l50 22q12 6 28 6q21 0 34 -31l96 -306l76 163q25 56 25 80q0 15 -8 22.5t-17.5 9t-17.5 9.5t-8 24q0 37 34 37z" />
    <glyph glyph-name="Ycircumflex" unicode="&#x176;" horiz-adv-x="578" 
d="M212 691l65 89h36l65 -89h-27l-56 60l-56 -60h-27zM549 650v-15q-35 0 -51 -27l-172 -300v-263q0 -30 79 -30v-15h-226v15q78 0 78 30v256l-182 315q-14 19 -46 19v15h100l179 -309l152 268q3 6 -1.5 12t-16 10t-27.5 4v15h134z" />
    <glyph glyph-name="ycircumflex" unicode="&#x177;" horiz-adv-x="411" 
d="M129 475l65 89h36l65 -89h-27l-56 60l-56 -60h-27zM324 422q24 0 37.5 -19.5t13.5 -53.5q0 -54 -28 -111l-144 -295q-31 -65 -58 -86.5t-56 -21.5q-53 0 -53 38q0 31 27 31q7 0 14 -3t11 -5.5t9.5 -7.5t6.5 -6q8 -4 17.5 -2.5t25 22.5t33.5 60l27 54l-132 328
q-7 16 -11 22.5t-13.5 11.5t-21.5 -3l-5 -2l-6 15l40 17q23 9 37 9q24 0 37 -31l113 -291l71 149q25 50 25 78q0 15 -8 23t-18 9.5t-18 9.5t-8 24q0 37 35 37z" />
    <glyph glyph-name="Ydieresis" unicode="&#x178;" horiz-adv-x="578" 
d="M243 748q12 0 20.5 -8.5t8.5 -20.5t-7.5 -19.5t-20.5 -7.5q-12 0 -20.5 8t-8.5 21q0 12 7.5 19.5t20.5 7.5zM342 748q12 0 20.5 -8.5t8.5 -20.5q0 -27 -28 -27q-12 0 -20.5 8.5t-8.5 20.5q0 11 8 19t20 8zM549 650v-15q-35 0 -51 -27l-172 -300v-263q0 -30 79 -30v-15
h-226v15q78 0 78 30v256l-182 315q-14 19 -46 19v15h100l179 -309l152 268q3 6 -1.5 12t-16 10t-27.5 4v15h134z" />
    <glyph glyph-name="Zacute" unicode="&#x179;" horiz-adv-x="503" 
d="M244 760l-52 -54l12 -22l107 76h-67zM454 97l14 -5l-28 -92h-406v8l333 609h-231q-46 0 -67 -64l-15 5l28 92h371v-8l-333 -609h267q46 0 67 64z" />
    <glyph glyph-name="zacute" unicode="&#x17a;" horiz-adv-x="347" 
d="M169 565l-40 -75l12 -22l87 97h-59zM309 65l13 -4l-18 -61h-278v5l205 381h-139q-22 0 -35 -38l-16 5l17 61h253v-5l-206 -381h166q26 0 38 37z" />
    <glyph glyph-name="Zdotaccent" unicode="&#x17b;" horiz-adv-x="503" 
d="M249 754q15 0 25 -10.5t10 -24.5t-10 -23t-23 -9q-15 0 -25 10.5t-10 24.5q0 15 10 23.5t23 8.5zM454 97l14 -5l-28 -92h-406v8l333 609h-231q-46 0 -67 -64l-15 5l28 92h371v-8l-333 -609h267q46 0 67 64z" />
    <glyph glyph-name="zdotaccent" unicode="&#x17c;" horiz-adv-x="347" 
d="M177 538q15 0 25 -10.5t10 -24.5t-10 -23t-23 -9q-15 0 -25 10.5t-10 24.5q0 15 10 23.5t23 8.5zM309 65l13 -4l-18 -61h-278v5l205 381h-139q-22 0 -35 -38l-16 5l17 61h253v-5l-206 -381h166q26 0 38 37z" />
    <glyph glyph-name="Zcaron" unicode="&#x17d;" horiz-adv-x="503" 
d="M167 780l71 -89h24l71 89h-36l-47 -60l-47 60h-36zM454 97l14 -5l-28 -92h-406v8l333 609h-231q-46 0 -67 -64l-15 5l28 92h371v-8l-333 -609h267q46 0 67 64z" />
    <glyph glyph-name="zcaron" unicode="&#x17e;" horiz-adv-x="347" 
d="M95 564l71 -89h24l71 89h-36l-47 -60l-47 60h-36zM309 65l13 -4l-18 -61h-278v5l205 381h-139q-22 0 -35 -38l-16 5l17 61h253v-5l-206 -381h166q26 0 38 37z" />
    <glyph glyph-name="florin" unicode="&#x192;" horiz-adv-x="409" 
d="M317 658q42 0 62 -24t20 -47q0 -19 -10.5 -32t-26.5 -13q-13 0 -22 8t-9 20q0 14 7.5 26.5t7.5 20.5q0 14 -29 14t-41.5 -18t-20.5 -65l-25 -149h92l-15 -33h-82l-49 -287q-14 -84 -53.5 -142t-101.5 -58q-43 0 -61 24.5t-18 49.5q0 19 10 31t25 12q33 0 33 -30
q0 -13 -7.5 -23t-7.5 -19q0 -15 25 -15q59 0 73 87l62 370h-61l16 33h51l11 66q14 85 50 139t95 54z" />
    <glyph glyph-name="Scommaaccent" unicode="&#x218;" horiz-adv-x="501" 
d="M243 -8q-31 0 -59.5 7t-45.5 15.5t-32 15t-25.5 5t-18.5 -13.5l-13 5l46 150l12 -5q-12 -61 27 -102.5t109 -41.5q41 0 70 11.5t43 30.5t20 38t6 40q0 26 -10.5 50.5t-22 40t-37.5 35.5t-38 27.5t-44.5 25.5t-37.5 21q-55 32 -83.5 67t-29.5 89q-1 74 50 114.5t124 40.5
q30 0 59 -7.5t43.5 -14t26.5 -5.5t18 15l12 -5l-38 -124l-11 5q10 47 -22.5 74t-88.5 27q-107 0 -107 -102q0 -15 3 -27t6 -21.5t12.5 -19.5l15 -16t22 -16.5t25 -15.5l31.5 -18l34 -19q78 -46 118 -88t40 -106q0 -77 -59 -129.5t-150 -52.5zM231 -31l-4 -21l-27 -59l11 -18
l61 77v21h-41z" />
    <glyph glyph-name="scommaaccent" unicode="&#x219;" horiz-adv-x="368" 
d="M179 -8q-76 0 -140 53l22 73l11 -5q-7 -43 28 -68.5t83 -25.5q45 0 66 23.5t21 57.5q0 16 -6.5 29.5t-13 22t-23.5 19t-25 14.5t-31 13.5t-29 12.5q-88 38 -88 103q0 44 35 76t98 32q60 0 127 -44l-35 -75l-10 4q12 31 -2 52t-36 28.5t-46 7.5q-31 0 -52.5 -16t-21.5 -48
q0 -20 15.5 -36t32.5 -24.5t58 -25.5q53 -23 85 -52.5t32 -77.5q0 -56 -44 -89.5t-111 -33.5zM173 -31l-4 -21l-27 -59l11 -18l61 77v21h-41z" />
    <glyph glyph-name="uni021A" unicode="&#x21a;" horiz-adv-x="606" 
d="M577 555l-14 -4q-21 66 -68 66h-158v-572q0 -30 79 -30v-15h-227v15q79 0 79 30v572h-158q-47 0 -68 -66l-13 4l31 102q9 -7 23 -7h439q14 0 23 7zM293 -31l-4 -21l-27 -59l11 -18l61 77v21h-41z" />
    <glyph glyph-name="uni021B" unicode="&#x21b;" horiz-adv-x="295" 
d="M266 60l6 -19q-35 -49 -99 -49q-40 0 -67.5 22t-27.5 72v300h-50v15q73 16 98 123h18v-110h118l-8 -28h-110v-271q0 -47 11 -71t40 -24q42 0 71 40zM171 -31l-4 -21l-27 -59l11 -18l61 77v21h-41z" />
    <glyph glyph-name="circumflex" unicode="&#x2c6;" horiz-adv-x="253" 
d="M43 691l65 89h36l65 -89h-27l-56 60l-56 -60h-27z" />
    <glyph glyph-name="caron" unicode="&#x2c7;" horiz-adv-x="253" 
d="M43 780l71 -89h24l71 89h-36l-47 -60l-47 60h-36z" />
    <glyph glyph-name="breve" unicode="&#x2d8;" horiz-adv-x="238" 
d="M118 691q-52 0 -75 53l25 7q19 -31 50 -31q32 0 51 31l25 -7q-23 -53 -76 -53z" />
    <glyph glyph-name="dotaccent" unicode="&#x2d9;" horiz-adv-x="155" 
d="M76 754q15 0 25 -10.5t10 -24.5t-10 -23t-23 -9q-15 0 -25 10.5t-10 24.5q0 15 10 23.5t23 8.5z" />
    <glyph glyph-name="ring" unicode="&#x2da;" horiz-adv-x="188" 
d="M94 684q-21 0 -36 15t-15 35q0 21 15 36t36 15q20 0 35 -15t15 -36q0 -20 -15 -35t-35 -15zM94 707q11 0 19 8t8 19q0 12 -8 20t-19 8q-12 0 -20 -8t-8 -20q0 -11 8 -19t20 -8z" />
    <glyph glyph-name="ogonek" unicode="&#x2db;" horiz-adv-x="192" 
d="M148 -103q-16 -14 -44 -14q-27 0 -44 12t-17 34q0 28 23 48.5t52 28.5l26 -6q-45 -26 -45 -62q0 -14 7 -23.5t17 -9.5t19 6z" />
    <glyph glyph-name="tilde" unicode="&#x2dc;" horiz-adv-x="292" 
d="M43 712q13 54 58 54q27 0 55 -23t44 -23q3 0 6 0.5t5.5 2t4.5 2.5t4 3.5t3 4t3 5t2.5 4.5l2.5 5t2 5l15 -7q-14 -54 -58 -54q-28 0 -55.5 23t-42.5 23q-12 0 -19 -7t-15 -25z" />
    <glyph glyph-name="hungarumlaut" unicode="&#x2dd;" horiz-adv-x="236" 
d="M63 781l-20 -75l12 -22l58 97h-50zM143 781l-20 -75l12 -22l57 97h-49z" />
    <glyph glyph-name="gravecomb" unicode="&#x300;" 
d="M-40 781h-59l87 -97l12 22z" />
    <glyph glyph-name="acutecomb" unicode="&#x301;" 
d="M-59 781l-40 -75l12 -22l87 97h-59z" />
    <glyph glyph-name="uni0302" unicode="&#x302;" 
d="M-166 691l65 89h36l65 -89h-27l-56 60l-56 -60h-27z" />
    <glyph glyph-name="tildecomb" unicode="&#x303;" 
d="M-205 712q13 54 58 54q27 0 55 -23t44 -23q3 0 6 0.5t5.5 2t4.5 2.5t4 3.5t3 4t3 5t2.5 4.5l2.5 5t2 5l15 -7q-14 -54 -58 -54q-28 0 -55.5 23t-42.5 23q-12 0 -19 -7t-15 -25z" />
    <glyph glyph-name="uni0304" unicode="&#x304;" 
d="M-161 729h161l-6 -28h-161z" />
    <glyph glyph-name="uni0306" unicode="&#x306;" 
d="M-76 691q-52 0 -75 53l25 7q19 -31 50 -31q32 0 51 31l25 -7q-23 -53 -76 -53z" />
    <glyph glyph-name="uni0307" unicode="&#x307;" 
d="M-35 754q15 0 25 -10.5t10 -24.5t-10 -23t-23 -9q-15 0 -25 10.5t-10 24.5q0 15 10 23.5t23 8.5z" />
    <glyph glyph-name="uni0308" unicode="&#x308;" 
d="M-128 748q12 0 20.5 -8.5t8.5 -20.5t-7.5 -19.5t-20.5 -7.5q-12 0 -20.5 8t-8.5 21q0 12 7.5 19.5t20.5 7.5zM-29 748q12 0 20.5 -8.5t8.5 -20.5q0 -27 -28 -27q-12 0 -20.5 8.5t-8.5 20.5q0 11 8 19t20 8z" />
    <glyph glyph-name="uni030A" unicode="&#x30a;" 
d="M-50 684q-21 0 -36 15t-15 35q0 21 15 36t36 15q20 0 35 -15t15 -36q0 -20 -15 -35t-35 -15zM-50 707q11 0 19 8t8 19q0 12 -8 20t-19 8q-12 0 -20 -8t-8 -20q0 -11 8 -19t20 -8z" />
    <glyph glyph-name="uni030B" unicode="&#x30b;" 
d="M-129 781l-20 -75l12 -22l58 97h-50zM-49 781l-20 -75l12 -22l57 97h-49z" />
    <glyph glyph-name="uni030C" unicode="&#x30c;" 
d="M-166 780l71 -89h24l71 89h-36l-47 -60l-47 60h-36z" />
    <glyph glyph-name="uni0312" unicode="&#x312;" 
d="M-60 711q0 21 11.5 41t35.5 25l3 -10q-15 -5 -22 -16t-7 -20q0 -7 10 -9q29 -5 29 -29q0 -13 -8.5 -20.5t-19.5 -7.5q-32 0 -32 46z" />
    <glyph glyph-name="uni0326" unicode="&#x326;" 
d="M-41 -31l-4 -21l-27 -59l11 -18l61 77v21h-41z" />
    <glyph glyph-name="uni0327" unicode="&#x327;" 
d="M-40 -30q15 0 27.5 -8t12.5 -25q0 -25 -21.5 -40.5t-49.5 -15.5q-9 0 -15 2l6 14q15 0 24.5 9.5t9.5 23.5q0 23 -15 23t-29 -17l-8 13l25 55h31l-17 -37q7 3 19 3z" />
    <glyph glyph-name="uni0328" unicode="&#x328;" 
d="M0 -103q-16 -14 -44 -14q-27 0 -44 12t-17 34q0 28 23 48.5t52 28.5l26 -6q-45 -26 -45 -62q0 -14 7 -23.5t17 -9.5t19 6z" />
    <glyph glyph-name="uni0335" unicode="&#x335;" 
d="M-172 360h172l-14 -32h-171z" />
    <glyph glyph-name="uni0336" unicode="&#x336;" 
d="M-299 360h299l-14 -32h-298z" />
    <glyph glyph-name="uni0337" unicode="&#x337;" 
d="M-35 414h35l-357 -414h-35z" />
    <glyph glyph-name="uni0338" unicode="&#x338;" 
d="M-38 650h38l-580 -652h-38z" />
    <glyph glyph-name="uni0394" unicode="&#x394;" horiz-adv-x="633" 
d="M610 0h-587l260 629l-8 21h65zM524 30l-221 551l-225 -551h446z" />
    <glyph glyph-name="uni03A9" unicode="&#x3a9;" horiz-adv-x="716" 
d="M589 32q45 0 65 62l16 -3l-28 -91h-233v33q80 11 134 85.5t54 205.5q0 141 -67 219.5t-191 78.5q-42 0 -78 -11t-69.5 -37t-53 -77t-19.5 -124q0 -76 19 -145.5t62.5 -125t104.5 -70.5v-32h-233l-27 91l15 3q20 -62 65 -62h101q-85 46 -134.5 132.5t-49.5 192.5
q0 79 28.5 139.5t76 94.5t101.5 50.5t113 16.5q139 0 225.5 -85.5t86.5 -227.5q0 -107 -48.5 -188.5t-126.5 -124.5h91z" />
    <glyph glyph-name="uni03BC" unicode="&#x3bc;" horiz-adv-x="487" 
d="M467 35l6 -15q-73 -28 -88 -28q-13 0 -21.5 19.5t-10.5 50.5q-55 -70 -145 -70q-36 0 -62 15v-187h-112v15q49 0 49 30v483q0 24 -15.5 30.5t-35.5 -3.5l-7 -3l-6 14l59 27q21 9 40 9q28 0 28 -33v-264q0 -43 24.5 -71t66.5 -28q58 0 115 74v314h62v-361q0 -25 26 -25
q9 0 27 7z" />
    <glyph glyph-name="pi" unicode="&#x3c0;" horiz-adv-x="523" 
d="M492 61l8 -22q-34 -47 -92 -47q-39 0 -66.5 22.5t-27.5 71.5v300h-141v-394h-65v394h-80l9 28h458l-8 -28h-109v-271q0 -95 47 -95q36 0 67 41z" />
    <glyph glyph-name="Wgrave" unicode="&#x1e80;" horiz-adv-x="887" 
d="M444 760h-67l107 -76l12 22zM858 650v-15q-43 0 -55 -28l-186 -611h-19l-153 443l-137 -443h-19l-209 614q-11 25 -51 25v15h109l173 -528l113 378l-38 109q-11 26 -70 26v15h127l176 -528l142 483q4 13 -16.5 21.5t-53.5 8.5v15h167z" />
    <glyph glyph-name="wgrave" unicode="&#x1e81;" horiz-adv-x="608" 
d="M315 565h-59l87 -97l12 22zM521 422q24 0 38 -20t14 -52q0 -47 -29 -111l-109 -239h-35l-76 231l-103 -231h-34l-115 344q-9 25 -17 31t-31 -1l-5 -3l-5 15l51 22q13 6 28 6q23 0 34 -31l97 -305l86 194l-24 72q-9 25 -17.5 31.5t-30.5 -1.5l-4 -2l-5 14l50 22q12 6 28 6
q21 0 34 -31l96 -306l76 163q25 56 25 80q0 15 -8 22.5t-17.5 9t-17.5 9.5t-8 24q0 37 34 37z" />
    <glyph glyph-name="Wacute" unicode="&#x1e82;" horiz-adv-x="887" 
d="M445 760l-52 -54l12 -22l107 76h-67zM858 650v-15q-43 0 -55 -28l-186 -611h-19l-153 443l-137 -443h-19l-209 614q-11 25 -51 25v15h109l173 -528l113 378l-38 109q-11 26 -70 26v15h127l176 -528l142 483q4 13 -16.5 21.5t-53.5 8.5v15h167z" />
    <glyph glyph-name="wacute" unicode="&#x1e83;" horiz-adv-x="608" 
d="M301 565l-40 -75l12 -22l87 97h-59zM521 422q24 0 38 -20t14 -52q0 -47 -29 -111l-109 -239h-35l-76 231l-103 -231h-34l-115 344q-9 25 -17 31t-31 -1l-5 -3l-5 15l51 22q13 6 28 6q23 0 34 -31l97 -305l86 194l-24 72q-9 25 -17.5 31.5t-30.5 -1.5l-4 -2l-5 14l50 22
q12 6 28 6q21 0 34 -31l96 -306l76 163q25 56 25 80q0 15 -8 22.5t-17.5 9t-17.5 9.5t-8 24q0 37 34 37z" />
    <glyph glyph-name="Wdieresis" unicode="&#x1e84;" horiz-adv-x="887" 
d="M399 748q12 0 20.5 -8.5t8.5 -20.5t-7.5 -19.5t-20.5 -7.5q-12 0 -20.5 8t-8.5 21q0 12 7.5 19.5t20.5 7.5zM498 748q12 0 20.5 -8.5t8.5 -20.5q0 -27 -28 -27q-12 0 -20.5 8.5t-8.5 20.5q0 11 8 19t20 8zM858 650v-15q-43 0 -55 -28l-186 -611h-19l-153 443l-137 -443
h-19l-209 614q-11 25 -51 25v15h109l173 -528l113 378l-38 109q-11 26 -70 26v15h127l176 -528l142 483q4 13 -16.5 21.5t-53.5 8.5v15h167z" />
    <glyph glyph-name="wdieresis" unicode="&#x1e85;" horiz-adv-x="608" 
d="M258 532q12 0 20.5 -8.5t8.5 -20.5t-7.5 -19.5t-20.5 -7.5q-12 0 -20.5 8t-8.5 21q0 12 7.5 19.5t20.5 7.5zM357 532q12 0 20.5 -8.5t8.5 -20.5q0 -27 -28 -27q-12 0 -20.5 8.5t-8.5 20.5q0 11 8 19t20 8zM521 422q24 0 38 -20t14 -52q0 -47 -29 -111l-109 -239h-35
l-76 231l-103 -231h-34l-115 344q-9 25 -17 31t-31 -1l-5 -3l-5 15l51 22q13 6 28 6q23 0 34 -31l97 -305l86 194l-24 72q-9 25 -17.5 31.5t-30.5 -1.5l-4 -2l-5 14l50 22q12 6 28 6q21 0 34 -31l96 -306l76 163q25 56 25 80q0 15 -8 22.5t-17.5 9t-17.5 9.5t-8 24
q0 37 34 37z" />
    <glyph glyph-name="Ygrave" unicode="&#x1ef2;" horiz-adv-x="578" 
d="M288 760h-67l107 -76l12 22zM549 650v-15q-35 0 -51 -27l-172 -300v-263q0 -30 79 -30v-15h-226v15q78 0 78 30v256l-182 315q-14 19 -46 19v15h100l179 -309l152 268q3 6 -1.5 12t-16 10t-27.5 4v15h134z" />
    <glyph glyph-name="ygrave" unicode="&#x1ef3;" horiz-adv-x="411" 
d="M217 565h-59l87 -97l12 22zM324 422q24 0 37.5 -19.5t13.5 -53.5q0 -54 -28 -111l-144 -295q-31 -65 -58 -86.5t-56 -21.5q-53 0 -53 38q0 31 27 31q7 0 14 -3t11 -5.5t9.5 -7.5t6.5 -6q8 -4 17.5 -2.5t25 22.5t33.5 60l27 54l-132 328q-7 16 -11 22.5t-13.5 11.5
t-21.5 -3l-5 -2l-6 15l40 17q23 9 37 9q24 0 37 -31l113 -291l71 149q25 50 25 78q0 15 -8 23t-18 9.5t-18 9.5t-8 24q0 37 35 37z" />
    <glyph glyph-name="endash" unicode="&#x2013;" horiz-adv-x="490" 
d="M46 251h409l-11 -29h-409z" />
    <glyph glyph-name="emdash" unicode="&#x2014;" horiz-adv-x="773" 
d="M71 251h643l-12 -29h-643z" />
    <glyph glyph-name="quoteleft" unicode="&#x2018;" horiz-adv-x="187" 
d="M45 557q0 88 87 115l4 -14q-55 -21 -55 -59q0 -20 22 -29q9 -3 12.5 -4.5t11.5 -7t11.5 -13.5t3.5 -19q0 -20 -12 -32.5t-32 -12.5q-25 0 -39 20t-14 56z" />
    <glyph glyph-name="quoteright" unicode="&#x2019;" horiz-adv-x="187" 
d="M142 597q0 -88 -87 -115l-4 14q55 21 55 59q0 20 -22 29q-9 3 -12.5 4.5t-11.5 7t-11.5 13.5t-3.5 19q0 20 12 32.5t32 12.5q25 0 39 -20t14 -56z" />
    <glyph glyph-name="quotesinglbase" unicode="&#x201a;" horiz-adv-x="187" 
d="M142 -23q0 -88 -87 -115l-4 14q55 21 55 59q0 20 -22 29q-9 3 -12.5 4.5t-11.5 7t-11.5 13.5t-3.5 19q0 20 12 32.5t32 12.5q25 0 39 -20t14 -56z" />
    <glyph glyph-name="quotedblleft" unicode="&#x201c;" horiz-adv-x="331" 
d="M45 557q0 88 87 115l4 -14q-55 -21 -55 -59q0 -20 22 -29q9 -3 12.5 -4.5t11.5 -7t11.5 -13.5t3.5 -19q0 -20 -12 -32.5t-32 -12.5q-25 0 -39 20t-14 56zM189 557q0 88 87 115l4 -14q-55 -21 -55 -59q0 -20 22 -29q9 -3 12.5 -4.5t11.5 -7t11.5 -13.5t3.5 -19
q0 -20 -12 -32.5t-32 -12.5q-25 0 -39 20t-14 56z" />
    <glyph glyph-name="quotedblright" unicode="&#x201d;" horiz-adv-x="331" 
d="M142 597q0 -88 -87 -115l-4 14q55 21 55 59q0 20 -22 29q-9 3 -12.5 4.5t-11.5 7t-11.5 13.5t-3.5 19q0 20 12 32.5t32 12.5q25 0 39 -20t14 -56zM286 597q0 -88 -87 -115l-4 14q55 21 55 59q0 20 -22 29q-9 3 -12.5 4.5t-11.5 7t-11.5 13.5t-3.5 19q0 20 12 32.5
t32 12.5q25 0 39 -20t14 -56z" />
    <glyph glyph-name="quotedblbase" unicode="&#x201e;" horiz-adv-x="331" 
d="M142 -23q0 -88 -87 -115l-4 14q55 21 55 59q0 20 -22 29q-9 3 -12.5 4.5t-11.5 7t-11.5 13.5t-3.5 19q0 20 12 32.5t32 12.5q25 0 39 -20t14 -56zM286 -23q0 -88 -87 -115l-4 14q55 21 55 59q0 20 -22 29q-9 3 -12.5 4.5t-11.5 7t-11.5 13.5t-3.5 19q0 20 12 32.5
t32 12.5q25 0 39 -20t14 -56z" />
    <glyph glyph-name="dagger" unicode="&#x2020;" horiz-adv-x="337" 
d="M273 589q0 -15 19 -26v-8q-19 -11 -19 -27h-9q-28 19 -82 19q2 -220 19 -319q-5 -2 -9.5 -6.5t-7.5 -12.5t-4.5 -14t-3.5 -16t-3 -13h-9q-1 3 -3 13t-3.5 16t-4.5 14t-7.5 12.5t-9.5 6.5q17 99 19 319q-54 0 -82 -19h-9q0 16 -19 27v8q19 11 19 26h9q28 -17 82 -17
q0 69 -15 97v9q13 0 24 37h9q11 -37 24 -37v-9q-15 -28 -15 -97q54 0 82 17h9z" />
    <glyph glyph-name="daggerdbl" unicode="&#x2021;" horiz-adv-x="337" 
d="M273 528h-9q-28 19 -82 19q0 -7 -1 -25t-0.5 -28t4 -25.5t10.5 -27.5q-7 -12 -10.5 -27.5t-4 -25.5t0.5 -28.5t1 -25.5q54 0 82 19h9q0 -16 19 -27v-8q-19 -11 -19 -26h-9q-28 17 -82 17q0 -69 15 -97v-9q-13 0 -24 -37h-9q-11 37 -24 37v9q15 28 15 97q-54 0 -82 -17h-9
q0 15 -19 26v8q19 11 19 27h9q28 -19 82 -19q0 7 1 25.5t0.5 28.5t-4 25.5t-10.5 27.5q7 12 10.5 27.5t4 25.5t-0.5 28t-1 25q-54 0 -82 -19h-9q0 16 -19 27v8q19 11 19 26h9q28 -17 82 -17q0 69 -15 97v9q13 0 24 37h9q11 -37 24 -37v-9q-15 -28 -15 -97q54 0 82 17h9
q0 -15 19 -26v-8q-19 -11 -19 -27z" />
    <glyph glyph-name="bullet" unicode="&#x2022;" horiz-adv-x="265" 
d="M130 315q32 0 51 -21.5t19 -47.5q0 -32 -19.5 -48.5t-45.5 -16.5q-32 0 -51 21.5t-19 47.5q0 32 19.5 48.5t45.5 16.5z" />
    <glyph glyph-name="ellipsis" unicode="&#x2026;" horiz-adv-x="527" 
d="M87 81q19 0 31 -13.5t12 -30.5q0 -20 -12 -30.5t-29 -10.5q-20 0 -32 13t-12 30q0 20 12.5 31t29.5 11zM263 81q19 0 31 -13.5t12 -30.5q0 -20 -12 -30.5t-29 -10.5q-20 0 -32 13t-12 30q0 20 12.5 31t29.5 11zM439 81q19 0 31 -13.5t12 -30.5q0 -20 -12 -30.5t-29 -10.5
q-20 0 -32 13t-12 30q0 20 12.5 31t29.5 11z" />
    <glyph glyph-name="perthousand" unicode="&#x2030;" horiz-adv-x="849" 
d="M144 329q-49 0 -79.5 41t-30.5 118q0 84 35.5 125t79.5 41q49 0 79 -41t30 -117q0 -85 -35 -126t-79 -41zM411 650h33l-277 -650h-33zM152 348q30 0 43.5 29.5t13.5 107.5q0 150 -68 150q-29 0 -43.5 -28.5t-14.5 -98.5q0 -160 69 -160zM436 -4q-49 0 -79.5 41t-30.5 118
q0 84 35.5 125t79.5 41q49 0 79 -41t30 -117q0 -85 -35 -126t-79 -41zM701 -4q-49 0 -79.5 41t-30.5 118q0 84 35.5 125t79.5 41q49 0 79 -41t30 -117q0 -85 -35 -126t-79 -41zM444 15q30 0 43.5 29.5t13.5 107.5q0 150 -68 150q-29 0 -43.5 -28.5t-14.5 -98.5
q0 -160 69 -160zM709 15q30 0 43.5 29.5t13.5 107.5q0 150 -68 150q-29 0 -43.5 -28.5t-14.5 -98.5q0 -160 69 -160z" />
    <glyph glyph-name="guilsinglleft" unicode="&#x2039;" horiz-adv-x="300" 
d="M45 223l173 -178l17 27l-126 156l126 156l-17 27l-173 -178v-10z" />
    <glyph glyph-name="guilsinglright" unicode="&#x203a;" horiz-adv-x="300" 
d="M255 223v10l-173 178l-17 -27l126 -156l-126 -156l17 -27z" />
    <glyph glyph-name="fraction" unicode="&#x2044;" horiz-adv-x="70" 
d="M157 650h33l-277 -650h-33z" />
    <glyph glyph-name="uni2070" unicode="&#x2070;" horiz-adv-x="272" 
d="M134 379q-49 0 -79.5 41t-30.5 118q0 84 35.5 125t79.5 41q49 0 79 -41t30 -117q0 -85 -35 -126t-79 -41zM142 398q30 0 43.5 29.5t13.5 107.5q0 150 -68 150q-29 0 -43.5 -28.5t-14.5 -98.5q0 -160 69 -160z" />
    <glyph glyph-name="uni2074" unicode="&#x2074;" horiz-adv-x="266" 
d="M231 505h10v-65h-10q0 22 -19 22h-21v-42q0 -26 35 -26v-10h-109v10q35 0 35 26v42h-128v7l136 231h31v-218h21q19 0 19 23zM62 482h90v159z" />
    <glyph glyph-name="uni2075" unicode="&#x2075;" horiz-adv-x="239" 
d="M121 591q45 0 69.5 -27.5t24.5 -73.5q0 -44 -25.5 -77.5t-82.5 -33.5q-41 0 -62 16t-21 40q0 13 7.5 20t16.5 7q22 0 22 -26q0 -7 -4 -13t-4 -8q0 -7 11.5 -12.5t30.5 -5.5q36 0 50 22t14 62q0 91 -54 91q-39 0 -57 -38l-27 8l22 158h149l-3 -12q-38 -11 -119 -11
l-13 -104q19 18 55 18z" />
    <glyph glyph-name="uni2076" unicode="&#x2076;" horiz-adv-x="246" 
d="M128 582q40 0 67 -27t27 -72q0 -43 -25.5 -73.5t-72.5 -30.5q-52 0 -76 38t-24 90q0 66 37 120.5t112 77.5l5 -13q-46 -20 -71.5 -50.5t-33.5 -81.5q24 22 55 22zM128 397q49 0 49 77q0 89 -55 89q-31 0 -51 -26q-2 -20 -2 -30q0 -110 59 -110z" />
    <glyph glyph-name="uni2077" unicode="&#x2077;" horiz-adv-x="214" 
d="M196 700l3 -8q-105 -159 -103 -308h-40q0 138 93 295h-75q-35 -3 -60 -20l12 41h170z" />
    <glyph glyph-name="uni2078" unicode="&#x2078;" horiz-adv-x="245" 
d="M152 562q25 -15 35.5 -22t22 -24t11.5 -39q0 -42 -29.5 -70t-74.5 -28q-40 0 -66.5 22t-26.5 61q0 29 16.5 56t47.5 44q-44 24 -44 66q0 36 26 56t59 20q30 0 51.5 -17t21.5 -48q0 -50 -50 -77zM118 686q-37 0 -37 -45t57 -71q27 23 27 58q0 29 -13.5 43.5t-33.5 14.5z
M131 397q48 0 48 65q0 33 -14.5 50t-60.5 41q-37 -27 -37 -78q0 -34 16.5 -56t47.5 -22z" />
    <glyph glyph-name="uni2079" unicode="&#x2079;" horiz-adv-x="245" 
d="M121 705q52 0 76 -37.5t24 -90.5q0 -66 -40.5 -123t-117.5 -75l-6 13q92 31 113 120q-17 -11 -44 -11q-42 0 -72 28.5t-30 72.5q0 42 25.5 72.5t71.5 30.5zM132 520q23 0 42 14q2 26 2 43q0 110 -58 110q-49 0 -49 -77q0 -33 15 -61.5t48 -28.5z" />
    <glyph glyph-name="uni2080" unicode="&#x2080;" horiz-adv-x="272" 
d="M134 -188q-49 0 -79.5 41t-30.5 118q0 84 35.5 125t79.5 41q49 0 79 -41t30 -117q0 -85 -35 -126t-79 -41zM142 -169q30 0 43.5 29.5t13.5 107.5q0 150 -68 150q-29 0 -43.5 -28.5t-14.5 -98.5q0 -160 69 -160z" />
    <glyph glyph-name="uni2081" unicode="&#x2081;" horiz-adv-x="173" 
d="M110 -147q0 -23 39 -23v-10h-124v10q45 0 45 23v224q0 7 -9 5q-24 -10 -34 -13l-3 7q38 22 59 60h32q-5 -25 -5 -36v-247z" />
    <glyph glyph-name="uni2082" unicode="&#x2082;" horiz-adv-x="249" 
d="M199 -105q26 0 26 -29q0 -23 -16.5 -38.5t-48.5 -15.5q-17 0 -40 8t-36 8q-30 0 -52 -11l-8 11l34.5 46l29.5 39l22.5 31t18.5 28l12.5 22t9.5 22.5t4 21t2 24.5q0 57 -46 57q-13 0 -24 -5.5t-11 -12.5q0 -3 5 -9.5t5 -13.5q0 -9 -6.5 -15t-16.5 -6q-11 0 -17 8t-6 19
q0 21 20 37t57 16q36 0 61 -18.5t25 -58.5q0 -11 -3 -23.5t-6.5 -22.5t-12.5 -25l-15 -24.5t-19.5 -27.5l-21 -27.5l-25.5 -32l-26 -32.5q6 1 18 1q14 -1 37.5 -8t31.5 -7q26 0 26 15q0 4 -5.5 11t-5.5 16q0 10 7 16t16 6z" />
    <glyph glyph-name="uni2083" unicode="&#x2083;" horiz-adv-x="239" 
d="M106 -170q61 0 61 63q0 36 -18 55.5t-60 30.5v9q65 14 65 74q0 31 -12 44t-38 13q-34 0 -34 -18q0 -5 5.5 -12.5t5.5 -12.5q0 -22 -24 -22q-10 0 -17.5 8t-7.5 19q0 22 21 39t55 17q36 0 63 -17t27 -51q0 -50 -54 -79q70 -27 70 -85q0 -38 -26.5 -65.5t-78.5 -27.5
q-40 0 -62.5 16t-22.5 39q0 13 7.5 21.5t17.5 8.5t17 -7.5t7 -18.5q0 -9 -5.5 -15t-5.5 -8q0 -7 12 -12.5t32 -5.5z" />
    <glyph glyph-name="uni2084" unicode="&#x2084;" horiz-adv-x="266" 
d="M231 -59h10v-65h-10q0 22 -19 22h-21v-42q0 -26 35 -26v-10h-109v10q35 0 35 26v42h-128v7l136 231h31v-218h21q19 0 19 23zM62 -82h90v159z" />
    <glyph glyph-name="uni2085" unicode="&#x2085;" horiz-adv-x="239" 
d="M121 24q45 0 69.5 -27.5t24.5 -73.5q0 -44 -25.5 -77.5t-82.5 -33.5q-41 0 -62 16t-21 40q0 13 7.5 20t16.5 7q22 0 22 -26q0 -7 -4 -13t-4 -8q0 -7 11.5 -12.5t30.5 -5.5q36 0 50 22t14 62q0 91 -54 91q-39 0 -57 -38l-27 8l22 158h149l-3 -12q-38 -11 -119 -11
l-13 -104q19 18 55 18z" />
    <glyph glyph-name="uni2086" unicode="&#x2086;" horiz-adv-x="246" 
d="M128 15q40 0 67 -27t27 -72q0 -43 -25.5 -73.5t-72.5 -30.5q-52 0 -76 38t-24 90q0 66 37 120.5t112 77.5l5 -13q-46 -20 -71.5 -50.5t-33.5 -81.5q24 22 55 22zM128 -170q49 0 49 77q0 89 -55 89q-31 0 -51 -26q-2 -20 -2 -30q0 -110 59 -110z" />
    <glyph glyph-name="uni2087" unicode="&#x2087;" horiz-adv-x="214" 
d="M196 136l3 -8q-105 -159 -103 -308h-40q0 138 93 295h-75q-35 -3 -60 -20l12 41h170z" />
    <glyph glyph-name="uni2088" unicode="&#x2088;" horiz-adv-x="245" 
d="M152 -5q25 -15 35.5 -22t22 -24t11.5 -39q0 -42 -29.5 -70t-74.5 -28q-40 0 -66.5 22t-26.5 61q0 29 16.5 56t47.5 44q-44 24 -44 66q0 36 26 56t59 20q30 0 51.5 -17t21.5 -48q0 -50 -50 -77zM118 119q-37 0 -37 -45t57 -71q27 23 27 58q0 29 -13.5 43.5t-33.5 14.5z
M131 -170q48 0 48 65q0 33 -14.5 50t-60.5 41q-37 -27 -37 -78q0 -34 16.5 -56t47.5 -22z" />
    <glyph glyph-name="uni2089" unicode="&#x2089;" horiz-adv-x="245" 
d="M121 138q52 0 76 -37.5t24 -90.5q0 -66 -40.5 -123t-117.5 -75l-6 13q92 31 113 120q-17 -11 -44 -11q-42 0 -72 28.5t-30 72.5q0 42 25.5 72.5t71.5 30.5zM132 -47q23 0 42 14q2 26 2 43q0 110 -58 110q-49 0 -49 -77q0 -33 15 -61.5t48 -28.5z" />
    <glyph glyph-name="Euro" unicode="&#x20ac;" horiz-adv-x="513" 
d="M472 111l16 -22q-24 -44 -69.5 -70.5t-99.5 -26.5q-94 0 -158.5 72.5t-75.5 212.5h-50l12 33h36v15q0 25 1 37h-49l12 33h39q15 133 81 198t148 65q29 0 74 -14q46 -14 54 9l14 -5l-30 -138l-14 6q5 44 -1 62t-32 31q-32 16 -67 16q-140 0 -152 -230h212l-14 -33h-199
v-18v-34h176l-13 -33h-161q19 -249 170 -249q50 0 85.5 24.5t54.5 58.5z" />
    <glyph glyph-name="trademark" unicode="&#x2122;" horiz-adv-x="570" 
d="M221 675l18 -60l-11 -3q-8 23 -15.5 29.5t-26.5 6.5h-35v-200q0 -24 36 -24v-10h-111v10q37 0 37 24v200h-35q-19 0 -27.5 -6.5t-15.5 -27.5l-10 3l18 58q3 -3 17 -5h144q12 2 17 5zM512 442q2 -18 33 -18v-10h-99v10q28 0 29 14l-15 160l-71 -185h-7l-75 175l-11 -145
q-1 -11 6.5 -15t21.5 -4v-10h-83v10q31 0 32 13l14 198q1 12 -7 19t-21 7v9h51l82 -188l70 188h61v-9q-26 0 -28 -25z" />
    <glyph glyph-name="uni2153" unicode="&#x2153;" horiz-adv-x="473" 
d="M110 367q0 -23 39 -23v-10h-124v10q45 0 45 23v224q0 7 -9 5q-24 -10 -34 -13l-3 7q38 22 59 60h32q-5 -25 -5 -36v-247zM330 650h33l-277 -650h-33zM335 14q61 0 61 63q0 36 -18 55.5t-60 30.5v9q65 14 65 74q0 31 -12 44t-38 13q-34 0 -34 -18q0 -5 5.5 -12.5
t5.5 -12.5q0 -22 -24 -22q-10 0 -17.5 8t-7.5 19q0 22 21 39t55 17q36 0 63 -17t27 -51q0 -50 -54 -79q70 -27 70 -85q0 -38 -26.5 -65.5t-78.5 -27.5q-40 0 -62.5 16t-22.5 39q0 13 7.5 21.5t17.5 8.5t17 -7.5t7 -18.5q0 -9 -5.5 -15t-5.5 -8q0 -7 12 -12.5t32 -5.5z" />
    <glyph glyph-name="uni2154" unicode="&#x2154;" horiz-adv-x="536" 
d="M204 412q26 0 26 -29q0 -23 -16.5 -38.5t-48.5 -15.5q-17 0 -40 8t-36 8q-30 0 -52 -11l-8 11l34.5 46l29.5 39l22.5 31t18.5 28l12.5 22t9.5 22.5t4 21t2 24.5q0 57 -46 57q-13 0 -24 -5.5t-11 -12.5q0 -3 5 -9.5t5 -13.5q0 -9 -6.5 -15t-16.5 -6q-11 0 -17 8t-6 19
q0 21 20 37t57 16q36 0 61 -18.5t25 -58.5q0 -11 -3 -23.5t-6.5 -22.5t-12.5 -25l-15 -24.5t-19.5 -27.5l-21 -27.5l-25.5 -32l-26 -32.5q6 1 18 1q14 -1 37.5 -8t31.5 -7q26 0 26 15q0 4 -5.5 11t-5.5 16q0 10 7 16t16 6zM398 650h33l-277 -650h-33zM398 14q61 0 61 63
q0 36 -18 55.5t-60 30.5v9q65 14 65 74q0 31 -12 44t-38 13q-34 0 -34 -18q0 -5 5.5 -12.5t5.5 -12.5q0 -22 -24 -22q-10 0 -17.5 8t-7.5 19q0 22 21 39t55 17q36 0 63 -17t27 -51q0 -50 -54 -79q70 -27 70 -85q0 -38 -26.5 -65.5t-78.5 -27.5q-40 0 -62.5 16t-22.5 39
q0 13 7.5 21.5t17.5 8.5t17 -7.5t7 -18.5q0 -9 -5.5 -15t-5.5 -8q0 -7 12 -12.5t32 -5.5z" />
    <glyph glyph-name="oneeighth" unicode="&#x215b;" horiz-adv-x="461" 
d="M110 367q0 -23 39 -23v-10h-124v10q45 0 45 23v224q0 7 -9 5q-24 -10 -34 -13l-3 7q38 22 59 60h32q-5 -25 -5 -36v-247zM330 650h33l-277 -650h-33zM363 179q25 -15 35.5 -22t22 -24t11.5 -39q0 -42 -29.5 -70t-74.5 -28q-40 0 -66.5 22t-26.5 61q0 29 16.5 56t47.5 44
q-44 24 -44 66q0 36 26 56t59 20q30 0 51.5 -17t21.5 -48q0 -50 -50 -77zM329 303q-37 0 -37 -45t57 -71q27 23 27 58q0 29 -13.5 43.5t-33.5 14.5zM342 14q48 0 48 65q0 33 -14.5 50t-60.5 41q-37 -27 -37 -78q0 -34 16.5 -56t47.5 -22z" />
    <glyph glyph-name="threeeighths" unicode="&#x215c;" horiz-adv-x="519" 
d="M115 347q61 0 61 63q0 36 -18 55.5t-60 30.5v9q65 14 65 74q0 31 -12 44t-38 13q-34 0 -34 -18q0 -5 5.5 -12.5t5.5 -12.5q0 -22 -24 -22q-10 0 -17.5 8t-7.5 19q0 22 21 39t55 17q36 0 63 -17t27 -51q0 -50 -54 -79q70 -27 70 -85q0 -38 -26.5 -65.5t-78.5 -27.5
q-40 0 -62.5 16t-22.5 39q0 13 7.5 21.5t17.5 8.5t17 -7.5t7 -18.5q0 -8 -5.5 -14t-5.5 -9q0 -7 12 -12.5t32 -5.5zM389 650h33l-277 -650h-33zM421 179q25 -15 35.5 -22t22 -24t11.5 -39q0 -42 -29.5 -70t-74.5 -28q-40 0 -66.5 22t-26.5 61q0 29 16.5 56t47.5 44
q-44 24 -44 66q0 36 26 56t59 20q30 0 51.5 -17t21.5 -48q0 -50 -50 -77zM387 303q-37 0 -37 -45t57 -71q27 23 27 58q0 29 -13.5 43.5t-33.5 14.5zM400 14q48 0 48 65q0 33 -14.5 50t-60.5 41q-37 -27 -37 -78q0 -34 16.5 -56t47.5 -22z" />
    <glyph glyph-name="fiveeighths" unicode="&#x215d;" horiz-adv-x="519" 
d="M126 541q45 0 69.5 -27.5t24.5 -73.5q0 -44 -25.5 -77.5t-82.5 -33.5q-41 0 -62 16t-21 40q0 13 7.5 20t16.5 7q22 0 22 -26q0 -7 -4 -13t-4 -8q0 -7 11.5 -12.5t30.5 -5.5q36 0 50 22t14 62q0 91 -54 91q-39 0 -57 -38l-27 8l22 158h149l-3 -12q-38 -11 -119 -11
l-13 -104q19 18 55 18zM389 650h33l-277 -650h-33zM421 179q25 -15 35.5 -22t22 -24t11.5 -39q0 -42 -29.5 -70t-74.5 -28q-40 0 -66.5 22t-26.5 61q0 29 16.5 56t47.5 44q-44 24 -44 66q0 36 26 56t59 20q30 0 51.5 -17t21.5 -48q0 -50 -50 -77zM387 303q-37 0 -37 -45
t57 -71q27 23 27 58q0 29 -13.5 43.5t-33.5 14.5zM400 14q48 0 48 65q0 33 -14.5 50t-60.5 41q-37 -27 -37 -78q0 -34 16.5 -56t47.5 -22z" />
    <glyph glyph-name="seveneighths" unicode="&#x215e;" horiz-adv-x="459" 
d="M210 650l3 -8q-105 -159 -103 -308h-40q0 138 93 295h-75q-35 -3 -60 -20l12 41h170zM328 650h33l-277 -650h-33zM360 179q25 -15 35.5 -22t22 -24t11.5 -39q0 -42 -29.5 -70t-74.5 -28q-40 0 -66.5 22t-26.5 61q0 29 16.5 56t47.5 44q-44 24 -44 66q0 36 26 56t59 20
q30 0 51.5 -17t21.5 -48q0 -50 -50 -77zM326 303q-37 0 -37 -45t57 -71q27 23 27 58q0 29 -13.5 43.5t-33.5 14.5zM339 14q48 0 48 65q0 33 -14.5 50t-60.5 41q-37 -27 -37 -78q0 -34 16.5 -56t47.5 -22z" />
    <glyph glyph-name="partialdiff" unicode="&#x2202;" horiz-adv-x="443" 
d="M240 650q49 0 83.5 -25.5t51.5 -65.5t24 -94.5t4.5 -107t-10.5 -108.5q-19 -129 -72.5 -193t-135.5 -64q-76 0 -113.5 48t-37.5 116q0 91 62 158t152 67q63 0 93 -40q15 277 -114 277q-62 0 -115 -42l-9 23q58 51 137 51zM191 23q49 0 83 41.5t49 118.5q34 166 -84 166
q-68 0 -101 -52t-33 -143q0 -131 86 -131z" />
    <glyph glyph-name="emptyset" unicode="&#x2205;" horiz-adv-x="521" 
d="M425 347q51 -59 51 -140q0 -90 -62.5 -152.5t-152.5 -62.5q-81 0 -140 51l-31 -30l-23 23l30 31q-52 60 -52 140q0 90 63 152.5t153 62.5q81 0 140 -51l31 30l23 -23zM84 207q0 -64 40 -114l252 252q-54 44 -115 44q-69 0 -123 -52.5t-54 -129.5zM261 25q69 0 122.5 52.5
t53.5 129.5q0 64 -39 114l-252 -252q54 -44 115 -44z" />
    <glyph glyph-name="product" unicode="&#x220f;" horiz-adv-x="638" 
d="M566 650l27 -93l-14 -4q-11 34 -25.5 49t-39.5 15h-49v-730h-59v730h-174v-730h-59v730h-49q-25 0 -40 -15.5t-26 -48.5l-13 4l27 93h494z" />
    <glyph glyph-name="summation" unicode="&#x2211;" horiz-adv-x="506" 
d="M444 -17l17 -6l-28 -90h-388v15q16 0 32.5 9t23.5 23l144 335l-146 334q-17 32 -54 32v15h384l27 -91l-16 -5q-21 64 -68 64h-214l148 -342v-14l-146 -343h216q47 0 68 64z" />
    <glyph glyph-name="minus" unicode="&#x2212;" horiz-adv-x="310" 
d="M45 264h220v-31h-220v31z" />
    <glyph glyph-name="radical" unicode="&#x221a;" horiz-adv-x="552" 
d="M537 650v-33h-83l-223 -730h-22l-128 300q-18 43 -61 43l-5 18h104l107 -256l199 658h112z" />
    <glyph glyph-name="infinity" unicode="&#x221e;" horiz-adv-x="645" 
d="M459 368q53 0 97.5 -39t44.5 -97q0 -52 -34.5 -93t-90.5 -41q-74 0 -148 96q-74 -96 -147 -96q-54 0 -95.5 41.5t-41.5 94.5q0 48 32 91t93 43q47 0 81 -26.5t67 -70.5q37 48 69.5 72.5t72.5 24.5zM171 147q34 0 61 23.5t61 69.5q-37 49 -62.5 69.5t-63.5 20.5
q-46 0 -71.5 -27.5t-25.5 -62.5q0 -39 32 -66t69 -27zM476 136q44 0 71.5 28t27.5 63q0 37 -30.5 64.5t-71.5 27.5q-25 0 -48.5 -15t-36.5 -31t-37 -48q38 -49 65.5 -69t59.5 -20z" />
    <glyph glyph-name="integral" unicode="&#x222b;" horiz-adv-x="342" 
d="M176 463q17 100 54 148.5t97 46.5l-10 -31q-34 1 -49 -15.5t-23 -65.5l-79 -465q-8 -45 -18 -78t-27 -63.5t-43.5 -46t-62.5 -14.5l9 34q33 -1 49 17.5t24 67.5z" />
    <glyph glyph-name="approxequal" unicode="&#x2248;" horiz-adv-x="389" 
d="M42 274q5 36 28 58t57 22q35 0 78 -31t67 -31q38 0 55 42h20q-5 -36 -28 -58t-57 -22q-35 0 -78 31t-67 31q-38 0 -55 -42h-20zM42 162q5 36 28 58t57 22q35 0 78 -31t67 -31q38 0 55 42h20q-5 -36 -28 -58t-57 -22q-35 0 -78 31t-67 31q-38 0 -55 -42h-20z" />
    <glyph glyph-name="notequal" unicode="&#x2260;" horiz-adv-x="345" 
d="M300 283h-95l-30 -69h125v-31h-138l-28 -66h-35l28 66h-82v31h95l30 69h-125v31h138l28 65h35l-28 -65h82v-31z" />
    <glyph glyph-name="lessequal" unicode="&#x2264;" horiz-adv-x="340" 
d="M295 371v-40l-209 -84l209 -85v-40l-250 108v33zM295 84v-31h-250v31h250z" />
    <glyph glyph-name="greaterequal" unicode="&#x2265;" horiz-adv-x="340" 
d="M45 371l250 -108v-33l-250 -108v40l209 85l-209 84v40zM45 84h250v-31h-250v31z" />
    <glyph glyph-name="lozenge" unicode="&#x25ca;" horiz-adv-x="470" 
d="M243 650l192 -318v-14l-189 -318h-19l-192 318v14l189 318h19zM80 337l165 -279l145 254l-164 280z" />
    <glyph glyph-name="A.ss01" horiz-adv-x="596" 
d="M534 40q13 -25 51 -25v-15h-161v15q17 0 28 6.5t10 16.5l-47 126l-242 74l-68 -200q-2 -8 7.5 -13t24 -7.5t32.5 -2.5v-15h-158v15q47 0 54 20l214 622l22 8zM183 270l218 -66l-124 338z" />
    <glyph glyph-name="Aacute.ss01" horiz-adv-x="596" 
d="M287 760l-52 -54l12 -22l107 76h-67zM534 40q13 -25 51 -25v-15h-161v15q17 0 28 6.5t10 16.5l-47 126l-242 74l-68 -200q-2 -8 7.5 -13t24 -7.5t32.5 -2.5v-15h-158v15q47 0 54 20l214 622l22 8zM183 270l218 -66l-124 338z" />
    <glyph glyph-name="Abreve.ss01" horiz-adv-x="596" 
d="M293 691q-52 0 -75 53l25 7q19 -31 50 -31q32 0 51 31l25 -7q-23 -53 -76 -53zM534 40q13 -25 51 -25v-15h-161v15q17 0 28 6.5t10 16.5l-47 126l-242 74l-68 -200q-2 -8 7.5 -13t24 -7.5t32.5 -2.5v-15h-158v15q47 0 54 20l214 622l22 8zM183 270l218 -66l-124 338z" />
    <glyph glyph-name="Acircumflex.ss01" horiz-adv-x="596" 
d="M210 691l65 89h36l65 -89h-27l-56 60l-56 -60h-27zM534 40q13 -25 51 -25v-15h-161v15q17 0 28 6.5t10 16.5l-47 126l-242 74l-68 -200q-2 -8 7.5 -13t24 -7.5t32.5 -2.5v-15h-158v15q47 0 54 20l214 622l22 8zM183 270l218 -66l-124 338z" />
    <glyph glyph-name="Adieresis.ss01" horiz-adv-x="596" 
d="M241 748q12 0 20.5 -8.5t8.5 -20.5t-7.5 -19.5t-20.5 -7.5q-12 0 -20.5 8t-8.5 21q0 12 7.5 19.5t20.5 7.5zM340 748q12 0 20.5 -8.5t8.5 -20.5q0 -27 -28 -27q-12 0 -20.5 8.5t-8.5 20.5q0 11 8 19t20 8zM534 40q13 -25 51 -25v-15h-161v15q17 0 28 6.5t10 16.5l-47 126
l-242 74l-68 -200q-2 -8 7.5 -13t24 -7.5t32.5 -2.5v-15h-158v15q47 0 54 20l214 622l22 8zM183 270l218 -66l-124 338z" />
    <glyph glyph-name="Agrave.ss01" horiz-adv-x="596" 
d="M286 760h-67l107 -76l12 22zM534 40q13 -25 51 -25v-15h-161v15q17 0 28 6.5t10 16.5l-47 126l-242 74l-68 -200q-2 -8 7.5 -13t24 -7.5t32.5 -2.5v-15h-158v15q47 0 54 20l214 622l22 8zM183 270l218 -66l-124 338z" />
    <glyph glyph-name="Amacron.ss01" horiz-adv-x="596" 
d="M215 729h161l-6 -28h-161zM534 40q13 -25 51 -25v-15h-161v15q17 0 28 6.5t10 16.5l-47 126l-242 74l-68 -200q-2 -8 7.5 -13t24 -7.5t32.5 -2.5v-15h-158v15q47 0 54 20l214 622l22 8zM183 270l218 -66l-124 338z" />
    <glyph glyph-name="Aogonek.ss01" horiz-adv-x="596" 
d="M556 0q-45 -26 -45 -62q0 -14 7 -23.5t17 -9.5t19 6l6 -14q-16 -14 -44 -14q-27 0 -44 12t-17 34q0 45 58 71h-89v15q17 0 28 6.5t10 16.5l-47 126l-242 74l-68 -200q-2 -8 7.5 -13t24 -7.5t32.5 -2.5v-15h-158v15q47 0 54 20l214 622l22 8l233 -625q13 -25 51 -25v-15
h-29zM183 270l218 -66l-124 338z" />
    <glyph glyph-name="Aring.ss01" horiz-adv-x="596" 
d="M293 684q-21 0 -36 15t-15 35q0 21 15 36t36 15q20 0 35 -15t15 -36q0 -20 -15 -35t-35 -15zM293 707q11 0 19 8t8 19q0 12 -8 20t-19 8q-12 0 -20 -8t-8 -20q0 -11 8 -19t20 -8zM534 40q13 -25 51 -25v-15h-161v15q17 0 28 6.5t10 16.5l-47 126l-242 74l-68 -200
q-2 -8 7.5 -13t24 -7.5t32.5 -2.5v-15h-158v15q47 0 54 20l214 622l22 8zM183 270l218 -66l-124 338z" />
    <glyph glyph-name="Atilde.ss01" horiz-adv-x="596" 
d="M190 712q13 54 58 54q27 0 55 -23t44 -23q3 0 6 0.5t5.5 2t4.5 2.5t4 3.5t3 4t3 5t2.5 4.5l2.5 5t2 5l15 -7q-13 -54 -58 -54q-28 0 -55.5 23t-42.5 23q-12 0 -19 -7t-15 -25zM534 40q13 -25 51 -25v-15h-161v15q17 0 28 6.5t10 16.5l-47 126l-242 74l-68 -200
q-2 -8 7.5 -13t24 -7.5t32.5 -2.5v-15h-158v15q47 0 54 20l214 622l22 8zM183 270l218 -66l-124 338z" />
    <glyph glyph-name="AE.ss01" horiz-adv-x="832" 
d="M778 97l16 -5l-29 -92h-336v155l-203 62l-103 -176q-10 -14 10 -20t51 -6v-15h-174v15q52 0 68 23l360 612h323l28 -92l-16 -5q-11 34 -26.5 49.5t-40.5 15.5h-208v-265h166q31 0 31 69h14v-169h-14q0 68 -31 68h-166v-289h212q47 0 68 65zM243 247l186 -56v372z" />
    <glyph glyph-name="K.ss01" horiz-adv-x="603" 
d="M696 -58q91 -49 187 -69.5t176.5 -13.5t141.5 36v-15q-98 -57 -255 -53t-287 71q-69 37 -147.5 100.5t-136.5 135.5l-159 196l-35 -36v-249q0 -30 71 -30v-15h-200v15q22 0 41 7.5t19 22.5v560q0 15 -19 22.5t-41 7.5v15h178v-15q-49 0 -49 -30v-266l276 269
q9 12 2.5 19.5t-21.5 7.5v15h160v-15q-62 0 -95 -32l-238 -233l119 -148q76 -94 146.5 -161.5t165.5 -118.5z" />
    <glyph glyph-name="Kcommaaccent.ss01" horiz-adv-x="603" 
d="M696 -58q91 -49 187 -69.5t176.5 -13.5t141.5 36v-15q-98 -57 -255 -53t-287 71q-69 37 -147.5 100.5t-136.5 135.5l-159 196l-35 -36v-249q0 -30 71 -30v-15h-200v15q22 0 41 7.5t19 22.5v560q0 15 -19 22.5t-41 7.5v15h178v-15q-49 0 -49 -30v-266l276 269
q9 12 2.5 19.5t-21.5 7.5v15h160v-15q-62 0 -95 -32l-238 -233l119 -148q76 -94 146.5 -161.5t165.5 -118.5zM329 -31l-4 -21l-27 -59l11 -18l61 77v21h-41z" />
    <glyph glyph-name="M.ss01" horiz-adv-x="836" 
d="M783 635q-21 0 -39.5 -8t-18.5 -22v-560q0 -16 18 -23t40 -7v-15h-185v15q22 0 40 7t18 23v487l-247 -536h-11l-252 519v-470q0 -30 68 -30v-15h-162v15q22 0 40 7t18 23v564q0 26 -58 26v15h101l266 -550l252 550h112v-15z" />
    <glyph glyph-name="Q.ss01" horiz-adv-x="731" 
d="M651 -38q50 -24 99 -23.5t74 11.5t37 23v-11q-12 -13 -33.5 -26t-52.5 -23.5t-72 -9t-81 18.5q-55 23 -135 99q-67 -29 -138 -29q-133 0 -221.5 97t-88.5 241q0 79 28.5 143t76 103.5t104 60.5t116.5 21q133 0 221.5 -97t88.5 -241q0 -183 -144 -276q75 -59 121 -82z
M369 28q51 0 93 17q-23 22 -39.5 34.5t-36 22t-37.5 7t-36 -16.5v11q18 21 39.5 27t47.5 -3.5t47.5 -22.5t53.5 -37q96 67 96 233q0 140 -67 231t-186 91q-45 0 -84 -14.5t-72 -44.5t-52.5 -85t-19.5 -128q0 -139 67 -230.5t186 -91.5z" />
    <glyph glyph-name="R.ss01" horiz-adv-x="594" 
d="M683 -58q139 -70 276 -81.5t229 34.5v-15q-105 -58 -259 -52t-285 71q-143 73 -245 197l-134 164q-32 -6 -84 -8v-207q0 -30 68 -30v-15h-197v15q22 0 41 7.5t19 22.5v560q0 15 -19 22.5t-41 7.5v15h215q90 0 151 -42.5t61 -121.5q0 -62 -48.5 -127.5t-100.5 -80.5
l79 -97l56 -66.5t52 -55t77 -65t89 -52.5zM181 615v-331q221 6 221 191q0 73 -38.5 110t-120.5 37q-37 0 -62 -7z" />
    <glyph glyph-name="Racute.ss01" horiz-adv-x="594" 
d="M278 760l-52 -54l12 -22l107 76h-67zM683 -58q139 -70 276 -81.5t229 34.5v-15q-105 -58 -259 -52t-285 71q-143 73 -245 197l-134 164q-32 -6 -84 -8v-207q0 -30 68 -30v-15h-197v15q22 0 41 7.5t19 22.5v560q0 15 -19 22.5t-41 7.5v15h215q90 0 151 -42.5t61 -121.5
q0 -62 -48.5 -127.5t-100.5 -80.5l79 -97l56 -66.5t52 -55t77 -65t89 -52.5zM181 615v-331q221 6 221 191q0 73 -38.5 110t-120.5 37q-37 0 -62 -7z" />
    <glyph glyph-name="Rcaron.ss01" horiz-adv-x="594" 
d="M201 780l71 -89h24l71 89h-36l-47 -60l-47 60h-36zM683 -58q139 -70 276 -81.5t229 34.5v-15q-105 -58 -259 -52t-285 71q-143 73 -245 197l-134 164q-32 -6 -84 -8v-207q0 -30 68 -30v-15h-197v15q22 0 41 7.5t19 22.5v560q0 15 -19 22.5t-41 7.5v15h215q90 0 151 -42.5
t61 -121.5q0 -62 -48.5 -127.5t-100.5 -80.5l79 -97l56 -66.5t52 -55t77 -65t89 -52.5zM181 615v-331q221 6 221 191q0 73 -38.5 110t-120.5 37q-37 0 -62 -7z" />
    <glyph glyph-name="Rcommaaccent.ss01" horiz-adv-x="594" 
d="M683 -58q139 -70 276 -81.5t229 34.5v-15q-105 -58 -259 -52t-285 71q-143 73 -245 197l-134 164q-32 -6 -84 -8v-207q0 -30 68 -30v-15h-197v15q22 0 41 7.5t19 22.5v560q0 15 -19 22.5t-41 7.5v15h215q90 0 151 -42.5t61 -121.5q0 -62 -48.5 -127.5t-100.5 -80.5
l79 -97l56 -66.5t52 -55t77 -65t89 -52.5zM181 615v-331q221 6 221 191q0 73 -38.5 110t-120.5 37q-37 0 -62 -7zM297 -31l-4 -21l-27 -59l11 -18l61 77v21h-41z" />
    <glyph glyph-name="S.ss01" horiz-adv-x="500" 
d="M-4 -37q33 -43 94 -73.5t130 -30.5q95 0 145.5 56t50.5 131q0 91 -93 169q-26 22 -108 79q-34 23 -55 40t-44.5 42t-35 54t-12.5 63q-2 74 47.5 119.5t126.5 45.5q29 0 57.5 -7.5t43 -14t26.5 -5.5t18 15l11 -5l-37 -123l-12 5q11 44 -20.5 72t-90.5 28q-105 0 -105 -104
q0 -20 3 -36.5t13.5 -33.5l16.5 -26t28 -27t30 -24t40.5 -28t43.5 -30q40 -28 68 -51.5t56 -55t42 -68t14 -76.5q0 -96 -74.5 -165.5t-184.5 -69.5q-79 0 -145 36.5t-94 85.5z" />
    <glyph glyph-name="Sacute.ss01" horiz-adv-x="500" 
d="M233 760l-52 -54l12 -22l107 76h-67zM-4 -37q33 -43 94 -73.5t130 -30.5q95 0 145.5 56t50.5 131q0 91 -93 169q-26 22 -108 79q-34 23 -55 40t-44.5 42t-35 54t-12.5 63q-2 74 47.5 119.5t126.5 45.5q29 0 57.5 -7.5t43 -14t26.5 -5.5t18 15l11 -5l-37 -123l-12 5
q11 44 -20.5 72t-90.5 28q-105 0 -105 -104q0 -20 3 -36.5t13.5 -33.5l16.5 -26t28 -27t30 -24t40.5 -28t43.5 -30q40 -28 68 -51.5t56 -55t42 -68t14 -76.5q0 -96 -74.5 -165.5t-184.5 -69.5q-79 0 -145 36.5t-94 85.5z" />
    <glyph glyph-name="Scaron.ss01" horiz-adv-x="500" 
d="M156 780l71 -89h24l71 89h-36l-47 -60l-47 60h-36zM-4 -37q33 -43 94 -73.5t130 -30.5q95 0 145.5 56t50.5 131q0 91 -93 169q-26 22 -108 79q-34 23 -55 40t-44.5 42t-35 54t-12.5 63q-2 74 47.5 119.5t126.5 45.5q29 0 57.5 -7.5t43 -14t26.5 -5.5t18 15l11 -5
l-37 -123l-12 5q11 44 -20.5 72t-90.5 28q-105 0 -105 -104q0 -20 3 -36.5t13.5 -33.5l16.5 -26t28 -27t30 -24t40.5 -28t43.5 -30q40 -28 68 -51.5t56 -55t42 -68t14 -76.5q0 -96 -74.5 -165.5t-184.5 -69.5q-79 0 -145 36.5t-94 85.5z" />
    <glyph glyph-name="Scedilla.ss01" horiz-adv-x="500" 
d="M229 -172h-8l-4 -9q7 3 19 3q15 0 27.5 -8t12.5 -25q0 -25 -21.5 -40.5t-49.5 -15.5q-9 0 -15 2l6 14q15 0 24.5 9.5t9.5 23.5q0 23 -15 23t-29 -17l-8 13l13 29q-67 9 -121.5 43t-79.5 77l6 13q33 -43 94 -73.5t130 -30.5q95 0 145.5 56t50.5 131q0 91 -93 169
q-26 22 -108 79q-34 23 -55 40t-44.5 42t-35 54t-12.5 63q-2 74 47.5 119.5t126.5 45.5q29 0 57.5 -7.5t43 -14t26.5 -5.5t18 15l11 -5l-37 -123l-12 5q11 44 -20.5 72t-90.5 28q-105 0 -105 -104q0 -20 3 -36.5t13.5 -33.5l16.5 -26t28 -27t30 -24t40.5 -28t43.5 -30
q40 -28 68 -51.5t56 -55t42 -68t14 -76.5q0 -96 -74.5 -165.5t-184.5 -69.5z" />
    <glyph glyph-name="Scommaaccent.ss01" horiz-adv-x="500" 
d="M-4 -37q33 -43 94 -73.5t130 -30.5q95 0 145.5 56t50.5 131q0 91 -93 169q-26 22 -108 79q-34 23 -55 40t-44.5 42t-35 54t-12.5 63q-2 74 47.5 119.5t126.5 45.5q29 0 57.5 -7.5t43 -14t26.5 -5.5t18 15l11 -5l-37 -123l-12 5q11 44 -20.5 72t-90.5 28q-105 0 -105 -104
q0 -20 3 -36.5t13.5 -33.5l16.5 -26t28 -27t30 -24t40.5 -28t43.5 -30q40 -28 68 -51.5t56 -55t42 -68t14 -76.5q0 -96 -74.5 -165.5t-184.5 -69.5q-79 0 -145 36.5t-94 85.5zM215 -179l-4 -21l-27 -59l11 -18l61 77v21h-41z" />
    <glyph glyph-name="U.ss01" horiz-adv-x="688" 
d="M636 635q-20 0 -37.5 -8t-17.5 -22v-561q0 -14 17.5 -22t37.5 -8v-14h-124v47q-67 -55 -184 -55q-101 0 -165 47t-64 140v426q0 14 -18 22t-38 8v15h125v-455q0 -92 49.5 -132t131.5 -40q102 0 163 57v525q0 30 -65 30v15h189v-15z" />
    <glyph glyph-name="Uacute.ss01" horiz-adv-x="688" 
d="M335 760l-52 -54l12 -22l107 76h-67zM636 635q-20 0 -37.5 -8t-17.5 -22v-561q0 -14 17.5 -22t37.5 -8v-14h-124v47q-67 -55 -184 -55q-101 0 -165 47t-64 140v426q0 14 -18 22t-38 8v15h125v-455q0 -92 49.5 -132t131.5 -40q102 0 163 57v525q0 30 -65 30v15h189v-15z
" />
    <glyph glyph-name="Ucircumflex.ss01" horiz-adv-x="688" 
d="M258 691l65 89h36l65 -89h-27l-56 60l-56 -60h-27zM636 635q-20 0 -37.5 -8t-17.5 -22v-561q0 -14 17.5 -22t37.5 -8v-14h-124v47q-67 -55 -184 -55q-101 0 -165 47t-64 140v426q0 14 -18 22t-38 8v15h125v-455q0 -92 49.5 -132t131.5 -40q102 0 163 57v525q0 30 -65 30
v15h189v-15z" />
    <glyph glyph-name="Udieresis.ss01" horiz-adv-x="688" 
d="M289 748q12 0 20.5 -8.5t8.5 -20.5t-7.5 -19.5t-20.5 -7.5q-12 0 -20.5 8t-8.5 21q0 12 7.5 19.5t20.5 7.5zM388 748q12 0 20.5 -8.5t8.5 -20.5q0 -27 -28 -27q-12 0 -20.5 8.5t-8.5 20.5q0 11 8 19t20 8zM636 635q-20 0 -37.5 -8t-17.5 -22v-561q0 -14 17.5 -22t37.5 -8
v-14h-124v47q-67 -55 -184 -55q-101 0 -165 47t-64 140v426q0 14 -18 22t-38 8v15h125v-455q0 -92 49.5 -132t131.5 -40q102 0 163 57v525q0 30 -65 30v15h189v-15z" />
    <glyph glyph-name="Ugrave.ss01" horiz-adv-x="688" 
d="M334 760h-67l107 -76l12 22zM636 635q-20 0 -37.5 -8t-17.5 -22v-561q0 -14 17.5 -22t37.5 -8v-14h-124v47q-67 -55 -184 -55q-101 0 -165 47t-64 140v426q0 14 -18 22t-38 8v15h125v-455q0 -92 49.5 -132t131.5 -40q102 0 163 57v525q0 30 -65 30v15h189v-15z" />
    <glyph glyph-name="Uhungarumlaut.ss01" horiz-adv-x="688" 
d="M300 781l-20 -75l12 -22l58 97h-50zM380 781l-20 -75l12 -22l57 97h-49zM636 635q-20 0 -37.5 -8t-17.5 -22v-561q0 -14 17.5 -22t37.5 -8v-14h-124v47q-67 -55 -184 -55q-101 0 -165 47t-64 140v426q0 14 -18 22t-38 8v15h125v-455q0 -92 49.5 -132t131.5 -40
q102 0 163 57v525q0 30 -65 30v15h189v-15z" />
    <glyph glyph-name="Umacron.ss01" horiz-adv-x="688" 
d="M263 729h161l-6 -28h-161zM636 635q-20 0 -37.5 -8t-17.5 -22v-561q0 -14 17.5 -22t37.5 -8v-14h-124v47q-67 -55 -184 -55q-101 0 -165 47t-64 140v426q0 14 -18 22t-38 8v15h125v-455q0 -92 49.5 -132t131.5 -40q102 0 163 57v525q0 30 -65 30v15h189v-15z" />
    <glyph glyph-name="Uogonek.ss01" horiz-adv-x="688" 
d="M636 635q-20 0 -37.5 -8t-17.5 -22v-561q0 -14 17.5 -22t37.5 -8v-14h-124v47q-28 -23 -70 -37q-45 -26 -45 -62q0 -14 7 -23.5t17 -9.5t19 6l6 -14q-16 -14 -44 -14q-27 0 -44 12t-17 34q0 31 32 56q-24 -3 -45 -3q-101 0 -165 47t-64 140v426q0 14 -18 22t-38 8v15h125
v-455q0 -92 49.5 -132t131.5 -40q102 0 163 57v525q0 30 -65 30v15h189v-15z" />
    <glyph glyph-name="Uring.ss01" horiz-adv-x="688" 
d="M341 684q-21 0 -36 15t-15 35q0 21 15 36t36 15q20 0 35 -15t15 -36q0 -20 -15 -35t-35 -15zM341 707q11 0 19 8t8 19q0 12 -8 20t-19 8q-12 0 -20 -8t-8 -20q0 -11 8 -19t20 -8zM636 635q-20 0 -37.5 -8t-17.5 -22v-561q0 -14 17.5 -22t37.5 -8v-14h-124v47
q-67 -55 -184 -55q-101 0 -165 47t-64 140v426q0 14 -18 22t-38 8v15h125v-455q0 -92 49.5 -132t131.5 -40q102 0 163 57v525q0 30 -65 30v15h189v-15z" />
    <glyph glyph-name="e.ss01" horiz-adv-x="407" 
d="M248 20q61 0 116 45l8 -20q-56 -53 -140 -53q-87 0 -142.5 61t-55.5 155q0 90 50 152t131 62q64 0 106 -39.5t56 -108.5l-270 -82q7 -75 42.5 -123.5t98.5 -48.5zM207 394q-49 0 -75.5 -47t-26.5 -120v-2l203 63q-10 46 -35.5 76t-65.5 30z" />
    <glyph glyph-name="eacute.ss01" horiz-adv-x="407" 
d="M201 565l-40 -75l12 -22l87 97h-59zM248 20q61 0 116 45l8 -20q-56 -53 -140 -53q-87 0 -142.5 61t-55.5 155q0 90 50 152t131 62q64 0 106 -39.5t56 -108.5l-270 -82q7 -75 42.5 -123.5t98.5 -48.5zM207 394q-49 0 -75.5 -47t-26.5 -120v-2l203 63q-10 46 -35.5 76
t-65.5 30z" />
    <glyph glyph-name="ecaron.ss01" horiz-adv-x="407" 
d="M127 564l71 -89h24l71 89h-36l-47 -60l-47 60h-36zM248 20q61 0 116 45l8 -20q-56 -53 -140 -53q-87 0 -142.5 61t-55.5 155q0 90 50 152t131 62q64 0 106 -39.5t56 -108.5l-270 -82q7 -75 42.5 -123.5t98.5 -48.5zM207 394q-49 0 -75.5 -47t-26.5 -120v-2l203 63
q-10 46 -35.5 76t-65.5 30z" />
    <glyph glyph-name="ecircumflex.ss01" horiz-adv-x="407" 
d="M127 475l65 89h36l65 -89h-27l-56 60l-56 -60h-27zM248 20q61 0 116 45l8 -20q-56 -53 -140 -53q-87 0 -142.5 61t-55.5 155q0 90 50 152t131 62q64 0 106 -39.5t56 -108.5l-270 -82q7 -75 42.5 -123.5t98.5 -48.5zM207 394q-49 0 -75.5 -47t-26.5 -120v-2l203 63
q-10 46 -35.5 76t-65.5 30z" />
    <glyph glyph-name="edieresis.ss01" horiz-adv-x="407" 
d="M158 532q12 0 20.5 -8.5t8.5 -20.5t-7.5 -19.5t-20.5 -7.5q-12 0 -20.5 8t-8.5 21q0 12 7.5 19.5t20.5 7.5zM257 532q12 0 20.5 -8.5t8.5 -20.5q0 -27 -28 -27q-12 0 -20.5 8.5t-8.5 20.5q0 11 8 19t20 8zM248 20q61 0 116 45l8 -20q-56 -53 -140 -53q-87 0 -142.5 61
t-55.5 155q0 90 50 152t131 62q64 0 106 -39.5t56 -108.5l-270 -82q7 -75 42.5 -123.5t98.5 -48.5zM207 394q-49 0 -75.5 -47t-26.5 -120v-2l203 63q-10 46 -35.5 76t-65.5 30z" />
    <glyph glyph-name="edotaccent.ss01" horiz-adv-x="407" 
d="M209 538q15 0 25 -10.5t10 -24.5t-10 -23t-23 -9q-15 0 -25 10.5t-10 24.5q0 15 10 23.5t23 8.5zM248 20q61 0 116 45l8 -20q-56 -53 -140 -53q-87 0 -142.5 61t-55.5 155q0 90 50 152t131 62q64 0 106 -39.5t56 -108.5l-270 -82q7 -75 42.5 -123.5t98.5 -48.5zM207 394
q-49 0 -75.5 -47t-26.5 -120v-2l203 63q-10 46 -35.5 76t-65.5 30z" />
    <glyph glyph-name="egrave.ss01" horiz-adv-x="407" 
d="M215 565h-59l87 -97l12 22zM248 20q61 0 116 45l8 -20q-56 -53 -140 -53q-87 0 -142.5 61t-55.5 155q0 90 50 152t131 62q64 0 106 -39.5t56 -108.5l-270 -82q7 -75 42.5 -123.5t98.5 -48.5zM207 394q-49 0 -75.5 -47t-26.5 -120v-2l203 63q-10 46 -35.5 76t-65.5 30z
" />
    <glyph glyph-name="emacron.ss01" horiz-adv-x="407" 
d="M132 513h161l-6 -28h-161zM248 20q61 0 116 45l8 -20q-56 -53 -140 -53q-87 0 -142.5 61t-55.5 155q0 90 50 152t131 62q64 0 106 -39.5t56 -108.5l-270 -82q7 -75 42.5 -123.5t98.5 -48.5zM207 394q-49 0 -75.5 -47t-26.5 -120v-2l203 63q-10 46 -35.5 76t-65.5 30z" />
    <glyph glyph-name="eogonek.ss01" horiz-adv-x="407" 
d="M308 6q-34 -25 -34 -55q0 -14 7 -23.5t17 -9.5t19 6l6 -14q-16 -14 -44 -14q-27 0 -44 12t-17 34q0 27 25 50h-11q-87 0 -142.5 61t-55.5 155q0 90 50 152t131 62q64 0 106 -39.5t56 -108.5l-270 -82q7 -75 42.5 -123.5t98.5 -48.5q61 0 116 45l8 -20q-28 -26 -64 -39z
M105 227v-2l203 63q-10 46 -35.5 76t-65.5 30q-49 0 -75.5 -47t-26.5 -120z" />
    <glyph glyph-name="i.loclTRK" horiz-adv-x="239" 
d="M116 568q15 0 25 -10.5t10 -24.5t-10 -23t-23 -9q-15 0 -25 10.5t-10 24.5q0 15 10 23.5t23 8.5zM160 45q0 -30 51 -30v-15h-168v15q52 0 52 30v295q0 23 -16 30.5t-36 -2.5l-8 -4l-7 15l68 29q12 6 29 6q35 0 35 -35v-334z" />
    <glyph glyph-name="oe.ss01" horiz-adv-x="744" 
d="M581 20q61 0 116 45l8 -20q-56 -53 -140 -53q-108 0 -164 90q-27 -42 -71 -66t-95 -24q-85 0 -143 60.5t-58 152.5q0 93 59 155t145 62q104 0 163 -85q52 85 147 85q64 0 106 -39.5t56 -108.5l-270 -82q7 -75 42.5 -123.5t98.5 -48.5zM251 20q59 0 87.5 46t28.5 119
q0 89 -38.5 149t-107.5 60q-59 0 -87.5 -46.5t-28.5 -119.5q0 -89 38.5 -148.5t107.5 -59.5zM438 227v-2l203 63q-10 46 -35.5 76t-65.5 30q-49 0 -75.5 -47t-26.5 -120z" />
    <glyph glyph-name="C_H" horiz-adv-x="896" 
d="M567 111l14 -21q-67 -98 -218 -98q-142 0 -233 92.5t-91 238.5q0 79 28.5 144t75.5 106t106 63t122 22q58 0 123 -23q16 -5 23.5 -7t17.5 0t14 12l13 -6l-41 -137l-13 6q7 33 2 58t-31 38q-43 23 -113 23q-112 0 -181 -75.5t-69 -203.5q0 -133 73.5 -224t192.5 -91
q56 0 105.5 22t79.5 61zM844 635q-22 0 -40.5 -7.5t-18.5 -22.5v-560q0 -15 18.5 -22.5t40.5 -7.5v-15h-177v15q49 0 49 30v283h-341v-153q0 -30 48 -30v-15h-164v15q47 0 47 30v300q0 30 -47 30v15h164v-15q-48 0 -48 -30v-115h341v245q0 30 -49 30v15h177v-15z" />
    <glyph glyph-name="K_A" horiz-adv-x="1094" 
d="M1034 119q9 -22 49 -22v-14h-161v14q45 0 41 18l-59 161h-193l-40 -118q-3 -11 4.5 -15.5t20.5 -4.5v-14h-100v14q25 0 34 16l177 503l22 6zM554 94q131 -67 275.5 -77.5t232.5 31.5v-15q-65 -34 -157.5 -46t-196.5 3.5t-190 58.5q-69 35 -147 100.5t-136 137.5l-26 30
l-28 -27v-245q0 -30 71 -30v-15h-200v15q22 0 41 7.5t19 22.5v560q0 15 -19 22.5t-41 7.5v15h178v-15q-49 0 -49 -30v-266l276 269q9 12 2.5 19.5t-21.5 7.5v15h160v-15q-62 0 -95 -32l-250 -243q84 -102 152 -164t149 -102zM721 304h173l-89 241z" />
    <glyph glyph-name="K_E" horiz-adv-x="1109" 
d="M540 89q124 -63 270.5 -73t235.5 32v-15q-64 -33 -157 -45t-197 2.5t-186 55.5q-126 62 -271 241l-26 30l-28 -27v-245q0 -30 71 -30v-15h-200v15q22 0 41 7.5t19 22.5v560q0 15 -19 22.5t-41 7.5v15h178v-15q-49 0 -49 -30v-266l276 269q9 12 2.5 19.5t-21.5 7.5v15h160
v-15q-62 0 -95 -32l-250 -243l61.5 -75t51.5 -58.5t56 -56.5t53 -41.5t65 -39.5zM1054 178l16 -4l-27 -91h-354v15q21 0 39 7t18 23v477q0 16 -18 23t-39 7v15h349l27 -92l-16 -4q-11 33 -25 48t-38 15h-175v-223h134q28 0 28 67h14v-164h-14q0 66 -28 66h-134v-247h179
q24 0 38.5 14.5t25.5 47.5z" />
    <glyph glyph-name="K_I" horiz-adv-x="921" 
d="M482 114q75 -62 140.5 -85.5t120 -17t126.5 36.5v-15q-69 -35 -133 -46t-139 8.5t-150 75.5q-17 12 -34.5 27l-31 27.5t-30.5 30l-27.5 28t-26.5 29.5l-22.5 26.5l-22 26t-17.5 21.5l-26 30l-28 -26v-246q0 -30 71 -30v-15h-200v15q22 0 41 7.5t19 22.5v560
q0 15 -19 22.5t-41 7.5v15h178v-15q-49 0 -49 -30v-266l276 269q9 12 2.5 19.5t-21.5 7.5v15h160v-15q-62 0 -95 -32l-250 -243q134 -165 229 -246zM869 636q-21 0 -39 -7t-18 -23v-478q0 -16 18 -23t39 -7v-15h-180v15q21 0 39 7t18 23v478q0 16 -18 23t-39 7v14h180v-14z
" />
    <glyph glyph-name="K_O" horiz-adv-x="1213" 
d="M905 658q116 0 192.5 -78t76.5 -209q0 -73 -25.5 -131t-67.5 -93t-93 -53.5t-105 -18.5q-116 0 -192.5 78t-76.5 209q0 73 25.5 131t67.5 93t93 53.5t105 18.5zM554 94q128 -67 262 -77.5t223 31.5v-15q-67 -34 -155.5 -45.5t-186 4t-179.5 57.5q-71 37 -147 100.5
t-136 137.5l-26 30l-28 -26v-246q0 -30 71 -30v-15h-200v15q22 0 41 7.5t19 22.5v560q0 15 -19 22.5t-41 7.5v15h178v-15q-49 0 -49 -30v-266l276 269q9 12 2.5 19.5t-21.5 7.5v15h160v-15q-62 0 -95 -32l-250 -243q85 -103 152 -163.5t149 -102.5zM899 110q87 0 143 60
t56 189q0 124 -55.5 194t-151.5 70q-87 0 -144 -60t-57 -189q0 -124 56 -194t153 -70z" />
    <glyph glyph-name="K_S" horiz-adv-x="1059" 
d="M868 407q37 -22 55.5 -34.5t42.5 -34t34.5 -46.5t10.5 -57q0 -69 -51.5 -114.5t-129.5 -45.5q-33 0 -64.5 9t-48.5 18t-32.5 9t-25.5 -15l-10 6l43 138l11 -6q-6 -54 27.5 -89t100.5 -35q35 0 58.5 10t34.5 27t15 32t4 32q0 24 -9 45.5t-19 35.5t-33 31t-34.5 24t-41 23
l-36.5 20q-42 23 -67.5 54t-25.5 82q0 36 14.5 63t38 41.5t49 21t52.5 6.5q25 0 51 -6t39.5 -11.5t25 -3t17.5 16.5l12 -5l-37 -124l-11 5q9 44 -17.5 68.5t-78.5 24.5q-90 0 -90 -82q0 -42 23.5 -65t90.5 -62q8 -5 12 -7zM540 94q77 -45 162.5 -64t156 -13.5t120.5 31.5
v-15q-56 -33 -135 -45t-171 3t-169 58q-65 37 -137 100.5t-132 137.5l-23 28l-31 -30v-240q0 -30 71 -30v-15h-200v15q22 0 41 7.5t19 22.5v560q0 15 -19 22.5t-41 7.5v15h178v-15q-49 0 -49 -30v-272l282 275q9 12 2.5 19.5t-21.5 7.5v15h154v-15q-44 0 -75 -17l-267 -262
q158 -189 284 -262z" />
    <glyph glyph-name="K_U" horiz-adv-x="1235" 
d="M543 94q78 -45 171 -64t174 -13t141 31v-15q-66 -32 -157 -44t-190 3t-176 57q-64 36 -137.5 100.5t-133.5 137.5l-23 28l-31 -30v-240q0 -30 71 -30v-15h-200v15q22 0 41 7.5t19 22.5v560q0 15 -19 22.5t-41 7.5v15h178v-15q-49 0 -49 -30v-272l282 275q9 12 2.5 19.5
t-21.5 7.5v15h154v-15q-44 0 -75 -17l-267 -262q157 -189 287 -262zM1192 650v-15q-40 0 -40 -30v-345q0 -90 -60 -137.5t-157 -47.5q-100 0 -154.5 50.5t-54.5 142.5v337q0 16 -18 23t-40 7v15h184v-15q-22 0 -40 -7t-18 -23v-321q0 -87 41.5 -130.5t113.5 -43.5
q70 0 116.5 37.5t46.5 98.5v359q0 16 -18 23t-40 7v15h138z" />
    <glyph glyph-name="L_A" horiz-adv-x="882" 
d="M821 40q13 -25 51 -25v-15h-163v15q17 0 28.5 6.5t10.5 16.5l-80 217h-207l-18 -51q-4 -11 7 -17t30 -6v-15h-131v15q46 0 53 18l163 458l22 6zM452 33q26 0 40.5 15t25.5 48l15 -5l-27 -91h-454v15q22 0 41 7.5t19 22.5v560q0 15 -19 22.5t-41 7.5v15h199v-15
q-70 0 -70 -30v-572h271zM472 288h184l-94 258z" />
    <glyph glyph-name="L_E" horiz-adv-x="683" 
d="M441 33q25 0 40 15t26 48l15 -5l-27 -91h-443v15q22 0 41 7.5t19 22.5v560q0 15 -19 22.5t-41 7.5v15h197v-15q-68 0 -68 -30v-572h260zM629 261l16 -4l-28 -91h-312v15q21 0 38.5 7t17.5 23v394q0 16 -17.5 23t-38.5 7v15h309l27 -92l-16 -4q-11 34 -25 49t-38 15h-135
v-184h91q30 0 30 60h15v-151h-15q0 59 -30 59h-91v-204h138q24 0 38.5 15t25.5 48z" />
    <glyph glyph-name="L_I" horiz-adv-x="578" 
d="M442 33q25 0 40 15t26 48l15 -5l-28 -91h-443v15q22 0 41 7.5t19 22.5v560q0 15 -19 22.5t-41 7.5v15h197v-15q-68 0 -68 -30v-572h261zM526 636q-21 0 -38.5 -7t-17.5 -23v-395q0 -16 17.5 -23t38.5 -7v-15h-177v15q55 0 55 30v395q0 30 -55 30v14h177v-14z" />
    <glyph glyph-name="L_O" horiz-adv-x="864" 
d="M592 658q103 0 168 -65.5t65 -179.5q0 -85 -38.5 -144.5t-94.5 -85.5t-122 -26q-103 0 -169 66.5t-66 180.5q0 64 22.5 114.5t60 80t82 44.5t92.5 15zM504 33q25 0 40 15t26 48l15 -5l-27 -91h-506v15q22 0 41 7.5t19 22.5v560q0 15 -19 22.5t-41 7.5v15h197v-15
q-68 0 -68 -30v-572h323zM586 192q71 0 117.5 48t46.5 162q0 109 -45.5 165t-127.5 56q-33 0 -60.5 -9.5t-52.5 -31.5t-39.5 -64t-14.5 -102q0 -110 47 -167t129 -57z" />
    <glyph glyph-name="L_U" horiz-adv-x="838" 
d="M489 33q25 0 40 15t26 48l15 -5l-28 -91h-490v15q22 0 41 7.5t19 22.5v560q0 15 -19 22.5t-41 7.5v15h197v-15q-68 0 -68 -30v-572h308zM795 650v-15q-49 0 -49 -30v-287q0 -77 -48.5 -118.5t-138.5 -41.5q-95 0 -141.5 45t-46.5 121v281q0 30 -49 30v15h166v-15
q-49 0 -49 -30v-265q0 -147 130 -147q64 0 100.5 32.5t36.5 78.5v301q0 30 -49 30v15h138z" />
    <glyph glyph-name="R_A" horiz-adv-x="1049" 
d="M989 119q9 -22 49 -22v-14h-161v14q45 0 41 18l-59 161h-193l-40 -118q-3 -11 4.5 -15.5t20.5 -4.5v-14h-100v14q25 0 34 16l177 503l22 6zM517 95q205 -133 455 -47v-15q-128 -54 -261.5 -50.5t-230.5 67.5q-43 28 -107 87t-118 121q-33 -4 -74 -6v-207q0 -30 68 -30
v-15h-197v15q22 0 41 7.5t19 22.5v560q0 15 -19 22.5t-41 7.5v15h214q90 0 151 -42.5t61 -121.5q0 -64 -49 -129t-106 -82q111 -125 194 -180zM181 615v-331q220 6 220 192q0 146 -159 146q-36 0 -61 -7zM676 304h173l-89 242z" />
    <glyph glyph-name="R_C" horiz-adv-x="1100" 
d="M1041 185l16 -23q-65 -87 -195 -87q-121 0 -205.5 82.5t-84.5 212.5q0 71 27.5 128t72 91t94.5 51.5t100 17.5q61 0 104 -18q2 -1 5 -2q39 -16 47 4l15 -7l-40 -128l-13 5q9 42 4 62.5t-31 33.5q-35 19 -91 19q-95 0 -156.5 -61.5t-61.5 -178.5q0 -121 64 -201t162 -80
q50 0 96.5 21.5t70.5 57.5zM522 101q109 -70 221.5 -83.5t250.5 30.5v-15q-143 -56 -275 -49.5t-235 72.5q-46 30 -112.5 87.5t-116.5 114.5q-33 -4 -74 -6v-207q0 -30 68 -30v-15h-197v15q22 0 41 7.5t19 22.5v560q0 15 -19 22.5t-41 7.5v15h214q90 0 151 -42.5t61 -121.5
q0 -65 -47.5 -127t-106.5 -84q98 -111 198 -174zM181 615v-331q220 5 220 191q0 73 -38.5 110t-120.5 37q-36 0 -61 -7z" />
    <glyph glyph-name="R_E" horiz-adv-x="1015" 
d="M499 95q90 -64 210.5 -75.5t223.5 28.5v-15q-75 -32 -156 -44.5t-166.5 2t-148.5 60.5q-79 55 -208 207q-31 -4 -73 -6v-207q0 -30 68 -30v-15h-197v15q22 0 41 7.5t19 22.5v560q0 15 -19 22.5t-41 7.5v15h214q90 0 151 -42.5t61 -121.5q0 -69 -47.5 -130.5t-107.5 -80.5
q119 -140 176 -180zM961 178l16 -4l-28 -91h-353v15q21 0 38.5 7t17.5 23v477q0 16 -17.5 23t-38.5 7v15h349l27 -92l-16 -4q-11 33 -25 48t-38 15h-175v-223h133q28 0 28 67h15v-164h-15q0 66 -28 66h-133v-247h179q24 0 38.5 14.5t25.5 47.5zM181 615v-331q220 6 220 192
q0 146 -159 146q-36 0 -61 -7z" />
    <glyph glyph-name="R_I" horiz-adv-x="860" 
d="M520 78q145 -100 287 -30v-15q-76 -51 -163.5 -50t-160.5 51q-77 53 -228 225q-30 -5 -74 -7v-207q0 -30 68 -30v-15h-197v15q22 0 41 7.5t19 22.5v560q0 15 -19 22.5t-41 7.5v15h214q90 0 151 -42.5t61 -121.5q0 -64 -49 -129t-106 -82q142 -159 197 -197zM806 636
q-21 0 -38.5 -7t-17.5 -23v-478q0 -16 17.5 -23t38.5 -7v-15h-179v15q21 0 39 7t18 23v478q0 16 -18 23t-39 7v14h179v-14zM181 615v-331q220 6 220 191q0 74 -38.5 110.5t-120.5 36.5q-36 0 -61 -7z" />
    <glyph glyph-name="R_O" horiz-adv-x="1171" 
d="M863 658q116 0 192.5 -78t76.5 -209q0 -73 -25.5 -131t-67.5 -93t-93 -53.5t-105 -18.5q-116 0 -192.5 78t-76.5 209q0 73 25.5 131t67.5 93t93 53.5t105 18.5zM522 101q216 -139 476 -53v-15q-144 -56 -277.5 -49.5t-236.5 72.5q-46 30 -112.5 87.5t-116.5 114.5
q-33 -4 -74 -6v-207q0 -30 68 -30v-15h-197v15q22 0 41 7.5t19 22.5v560q0 15 -19 22.5t-41 7.5v15h214q90 0 151 -42.5t61 -121.5q0 -64 -47.5 -127.5t-106.5 -83.5q98 -111 198 -174zM856 110q87 0 143.5 60t56.5 188q0 125 -55.5 195t-151.5 70q-87 0 -144 -60t-57 -188
q0 -125 56 -195t152 -70zM181 615v-331q220 6 220 192q0 146 -159 146q-36 0 -61 -7z" />
    <glyph glyph-name="R_S" horiz-adv-x="985" 
d="M793 407q37 -21 56 -34t42.5 -34.5t34 -46.5t10.5 -57q0 -69 -51 -114.5t-129 -45.5q-34 0 -65.5 9t-48 18t-32 9t-25.5 -15l-11 6l51 124l11 -6q-7 -52 23.5 -81t92.5 -29q36 0 61 10t36 26.5t15.5 31t4.5 31.5q0 21 -5 39.5t-16.5 34t-22.5 27t-30.5 24t-31.5 19.5
t-34.5 19t-32.5 18q-94 51 -94 136q0 47 26 78.5t58.5 42.5t69.5 11q26 0 52 -6t39.5 -11.5t25 -3t17.5 16.5l12 -5l-38 -124l-10 5q9 44 -17.5 68.5t-78.5 24.5q-91 0 -91 -82q0 -41 23 -64t88 -61zM497 95q83 -65 205.5 -76t221.5 29v-15q-73 -32 -153 -44.5t-164.5 2
t-146.5 60.5q-76 54 -206 207q-31 -4 -73 -6v-207q0 -30 68 -30v-15h-197v15q22 0 41 7.5t19 22.5v560q0 15 -19 22.5t-41 7.5v15h214q90 0 151 -42.5t61 -121.5q0 -64 -49 -129t-106 -82q106 -127 174 -180zM181 615v-331q220 6 220 192q0 146 -159 146q-36 0 -61 -7z" />
    <glyph glyph-name="R_T" horiz-adv-x="1108" 
d="M1074 555l-13 -4q-21 66 -68 66h-149v-489q0 -30 79 -30v-15h-224v15q79 0 79 30v489h-148q-47 0 -68 -66l-13 4l31 102q9 -7 23 -7h417q14 0 23 7zM499 95q89 -65 204 -76t220 29v-15q-76 -32 -154.5 -44.5t-161 2t-145.5 60.5q-81 58 -208 207q-31 -4 -73 -6v-207
q0 -30 68 -30v-15h-197v15q22 0 41 7.5t19 22.5v560q0 15 -19 22.5t-41 7.5v15h214q90 0 151 -42.5t61 -121.5q0 -64 -49 -128.5t-106 -82.5q116 -136 176 -180zM181 615v-331q220 6 220 191q0 73 -38.5 110t-120.5 37q-36 0 -61 -7z" />
    <glyph glyph-name="R_U" horiz-adv-x="1160" 
d="M522 101q210 -139 470 -53v-15q-144 -56 -275 -49.5t-233 72.5q-46 31 -113 88.5t-116 113.5q-33 -4 -74 -6v-207q0 -30 68 -30v-15h-197v15q22 0 41 7.5t19 22.5v560q0 15 -19 22.5t-41 7.5v15h214q90 0 151 -42.5t61 -121.5q0 -64 -47.5 -127.5t-106.5 -83.5
q98 -109 198 -174zM1117 650v-15q-22 0 -40 -7t-18 -23v-345q0 -90 -60.5 -137.5t-157.5 -47.5q-99 0 -153.5 50.5t-54.5 142.5v337q0 16 -18 23t-40 7v15h184v-15q-22 0 -40 -7t-18 -23v-321q0 -87 41.5 -130.5t113.5 -43.5q70 0 116.5 37.5t46.5 98.5v359q0 16 -18 23
t-40 7v15h156zM181 615v-331q220 6 220 191q0 74 -38.5 110.5t-120.5 36.5q-36 0 -61 -7z" />
    <glyph glyph-name="T_h" horiz-adv-x="979" 
d="M908 45q0 -30 47 -30v-15h-151v15q39 0 39 30v241q0 45 -20 71.5t-59 26.5q-66 0 -128 -78v-261q0 -16 18 -23t40 -7v-15h-172v15q49 0 49 30v536q0 36 -37 36h-190v-572q0 -30 79 -30v-15h-227v15q79 0 79 30v572h-163q-49 0 -70 -66l-13 4l31 102q7 -6 23 -7h477
q11 0 26 4t24 4q26 0 26 -29v-284q79 77 157 77q53 0 84 -33t31 -82v-262z" />
    <glyph glyph-name="c_b" horiz-adv-x="864" 
d="M639 422q82 0 136.5 -57.5t54.5 -151.5q0 -98 -58.5 -159.5t-139.5 -61.5q-55 0 -99 28q-13 -20 -47 -20h-12v570q0 30 -21 50.5t-64 20.5q-59 0 -95.5 -33.5t-36.5 -82.5q0 -35 17 -69t45 -56q50 -30 50 -74q0 -16 -10.5 -27t-24.5 -11q-15 0 -26.5 11t-11.5 29
q0 10 3.5 17t3.5 13q0 15 -22.5 25.5t-54.5 10.5q-121 0 -121 -166q0 -89 35 -148.5t105 -59.5q73 0 125 66l6 -21q-52 -73 -148 -73q-86 0 -140 60.5t-54 152.5q0 93 54.5 155t143.5 62q22 0 44 -5q-42 44 -42 103q0 60 42.5 99t113.5 39q66 0 107.5 -29t41.5 -72v-169
q37 34 100 34zM626 20q66 0 99.5 45.5t33.5 129.5q0 86 -33.5 142.5t-95.5 56.5q-57 0 -91 -47v-296q36 -31 87 -31z" />
    <glyph glyph-name="c_h" horiz-adv-x="892" 
d="M821 45q0 -30 47 -30v-15h-151v15q39 0 39 30v241q0 45 -20 71.5t-58 26.5q-67 0 -129 -78v-261q0 -16 18 -23t40 -7v-15h-172v15q49 0 49 30v525q0 30 -24 50.5t-68 20.5q-60 0 -97.5 -33.5t-37.5 -82.5q0 -33 17 -67.5t45 -57.5q50 -30 50 -74q0 -16 -10.5 -27
t-24.5 -11q-15 0 -26.5 11t-11.5 29q0 10 3.5 17t3.5 13q0 15 -22.5 25.5t-54.5 10.5q-121 0 -121 -166q0 -89 35 -148.5t105 -59.5q73 0 125 66l6 -21q-52 -73 -148 -73q-86 0 -140 60.5t-54 152.5q0 93 54.5 155t143.5 62q22 0 44 -5q-42 44 -42 103q0 60 43.5 99
t115.5 39q67 0 111.5 -29.5t44.5 -71.5v-212q79 77 158 77q52 0 83 -33t31 -82v-262z" />
    <glyph glyph-name="c_k" horiz-adv-x="872" 
d="M790 47q26 -32 68 -32v-15h-130q9 20 -3 38l-134 191l-42 -39v-145q0 -30 43 -30v-15h-157v15q49 0 49 30v525q0 30 -24 50.5t-68 20.5q-60 0 -97.5 -33.5t-37.5 -82.5q0 -33 17 -67.5t45 -57.5q50 -30 50 -74q0 -16 -10.5 -27t-24.5 -11q-15 0 -26.5 11t-11.5 29
q0 10 3.5 17t3.5 13q0 15 -22.5 25.5t-54.5 10.5q-121 0 -121 -166q0 -89 35 -148.5t105 -59.5q73 0 125 66l6 -21q-52 -73 -148 -73q-86 0 -140 60.5t-54 152.5q0 93 54.5 155t143.5 62q22 0 44 -5q-42 44 -42 103q0 60 43.5 99t115.5 39q67 0 111.5 -29.5t44.5 -71.5v-329
l157 145q9 8 4 17.5t-16 9.5v14h139v-15q-49 0 -91 -35l-108 -97z" />
    <glyph glyph-name="c_l" horiz-adv-x="622" 
d="M549 45q0 -30 49 -30v-15h-162v15q48 0 48 30v525q0 30 -24 50.5t-68 20.5q-60 0 -97.5 -33.5t-37.5 -82.5q0 -33 17 -67.5t45 -57.5q50 -30 50 -74q0 -16 -10.5 -27t-24.5 -11q-15 0 -26.5 11t-11.5 29q0 10 3.5 17t3.5 13q0 15 -22.5 25.5t-54.5 10.5q-121 0 -121 -166
q0 -89 35 -148.5t105 -59.5q73 0 125 66l6 -21q-52 -73 -148 -73q-86 0 -140 60.5t-54 152.5q0 93 54.5 155t143.5 62q22 0 44 -5q-42 44 -42 103q0 60 43.5 99t115.5 39q67 0 111.5 -29.5t44.5 -71.5v-512z" />
    <glyph glyph-name="c_t" horiz-adv-x="702" 
d="M672 60l6 -19q-35 -49 -99 -49q-40 0 -67.5 22t-27.5 72v300h-50v15q14 3 21 7q35 18 57 58q8 17 15 40q3 12 3 23q0 48 -40.5 80t-100.5 32t-98 -33.5t-38 -82.5q0 -33 19 -67.5t48 -57.5q49 -30 49 -74q0 -16 -10.5 -27t-24.5 -11q-15 0 -26.5 11t-11.5 29q0 10 3.5 17
t3.5 13q0 15 -22.5 25.5t-54.5 10.5q-121 0 -121 -166q0 -89 35 -148.5t105 -59.5q73 0 125 66l6 -21q-52 -73 -148 -73q-86 0 -140 60.5t-54 152.5q0 93 54.5 155t143.5 62q22 0 45 -5q-47 47 -47 103q0 60 44 99t116 39q71 0 117.5 -38t46.5 -97q0 -16 -4 -29v-80h118
l-8 -28h-110v-271q0 -47 11 -71t40 -24q42 0 71 40z" />
    <glyph glyph-name="f_b" horiz-adv-x="735" 
d="M509 422q83 0 137 -57.5t54 -151.5q0 -97 -58.5 -159t-138.5 -62q-56 0 -100 28q-12 -24 -46 -24h-13v566q0 27 -19 50t-69 23q-41 0 -71 -26t-30 -68v-127h103v-28h-103v-341q0 -30 49 -30v-15h-163v15q49 0 49 30v341h-57l9 28h48v51q0 82 46.5 137.5t121.5 55.5
q58 0 88 -27q24 6 38 6q26 0 26 -29v-220q36 34 99 34zM496 20q66 0 100 46t34 130q0 83 -33.5 140.5t-96.5 57.5q-56 0 -90 -47v-296q35 -31 86 -31z" />
    <glyph glyph-name="f_f.ss01" horiz-adv-x="582" 
d="M471 658q49 0 73 -25t24 -51q0 -17 -10.5 -27t-26.5 -10t-26.5 10.5t-10.5 28.5q0 9 4 19t4 13q0 19 -32 19q-31 0 -43.5 -20.5t-12.5 -71.5v-129h93l-8 -28h-85v-341q0 -15 19.5 -22.5t41.5 -7.5v-15h-176v15q49 0 49 30v341h-189v-341q0 -16 18 -23t40 -7v-15h-173v15
q49 0 49 30v341h-60l9 28h51v33q0 191 123 191q49 0 73 -25t24 -51q0 -17 -10.5 -27t-26.5 -10t-26.5 10.5t-10.5 28.5q0 9 4 19t4 13q0 19 -32 19q-31 0 -43.5 -20.5t-12.5 -71.5v-109h189v51q0 193 123 193z" />
    <glyph glyph-name="f_f_b" horiz-adv-x="989" 
d="M764 422q83 0 137 -57.5t54 -151.5q0 -97 -58.5 -159t-138.5 -62q-56 0 -100 28q-14 -24 -47 -24h-12v566q-3 73 -88 73q-41 0 -71 -26t-30 -68v-127h103v-28h-103v-341q0 -30 49 -30v-15h-159v15q44 0 44 30v341h-189v-341q0 -30 45 -30v-15h-159v15q49 0 49 30v341h-57
l9 28h48v31q0 83 45 138t119 55q81 0 118 -59q20 36 57.5 57.5t83.5 21.5q58 0 88 -27q18 6 37 6q26 0 26 -29v-220q37 34 100 34zM344 414v122q1 16 -4.5 32t-27.5 31.5t-59 15.5q-41 0 -69.5 -26t-28.5 -68v-107h189zM751 20q66 0 99.5 46t33.5 130t-33 141t-96 57
q-57 0 -91 -47v-296q35 -31 87 -31z" />
    <glyph glyph-name="f_f_h" horiz-adv-x="1007" 
d="M936 45q0 -30 47 -30v-15h-151v15q39 0 39 30v241q0 45 -20 71.5t-58 26.5q-67 0 -129 -78v-261q0 -16 18 -23t40 -7v-15h-167v15q44 0 44 30v517q-3 73 -88 73q-41 0 -71 -26t-30 -68v-127h103v-28h-103v-341q0 -30 44 -30v-15h-154v15q44 0 44 30v341h-189v-341
q0 -30 45 -30v-15h-159v15q49 0 49 30v341h-57l9 28h48v31q0 83 45 138t119 55q81 0 118 -59q20 36 57.5 57.5t83.5 21.5q58 0 88 -27q19 6 38 6q25 0 25 -29v-263q79 77 158 77q52 0 83 -33t31 -82v-262zM344 414v122q1 16 -4.5 32t-27.5 31.5t-59 15.5q-41 0 -69.5 -26
t-28.5 -68v-107h189z" />
    <glyph glyph-name="f_f_k" horiz-adv-x="981" 
d="M899 47q26 -32 68 -32v-15h-130q9 20 -3 38l-134 191l-42 -39v-145q0 -30 43 -30v-15h-157v15q49 0 49 30v514q-1 27 -21.5 51.5t-69.5 24.5q-41 0 -70 -26t-29 -68v-127h104v-28h-104v-341q0 -30 45 -30v-15h-159v15q49 0 49 30v341h-189v-341q0 -30 44 -30v-15h-158v15
q49 0 49 30v341h-51l9 28h42v31q0 83 45 138t119 55q82 0 117 -59q19 36 57 57.5t82 21.5q57 0 89 -27q23 6 40 6q11 0 18 -8t7 -21v-380l157 145q9 8 4 17.5t-16 9.5v14h138v-15q-48 0 -91 -35l-107 -97zM338 414v122q1 27 -19 53t-72 26q-41 0 -69.5 -26t-28.5 -68v-107
h189z" />
    <glyph glyph-name="f_h" horiz-adv-x="753" 
d="M682 45q0 -30 47 -30v-15h-151v15q38 0 38 30v241q0 45 -20 71.5t-58 26.5q-66 0 -128 -78v-261q0 -16 18 -23t40 -7v-15h-168v15q44 0 44 30v517q0 27 -19 50t-69 23q-41 0 -71 -26t-30 -68v-127h103v-28h-103v-341q0 -30 45 -30v-15h-155v15q45 0 45 30v341h-57l9 28
h48v51q0 82 46.5 137.5t121.5 55.5q58 0 88 -27q19 6 38 6q26 0 26 -29v-263q79 77 157 77q52 0 83.5 -33t31.5 -82v-262z" />
    <glyph glyph-name="f_j" horiz-adv-x="480" 
d="M379 414q31 0 31 -34v-382q0 -77 -28 -114q-29 -40 -95 -64l-4 10q32 24 49 60q12 29 12 82v378q0 36 -32 36h-157v-341q0 -30 54 -30v-15h-168v15q49 0 49 30v341h-57l9 28h48v66q0 81 43.5 129.5t110.5 48.5q66 0 104 -38.5t38 -67.5q0 -16 -10 -27.5t-25 -11.5
q-16 0 -27.5 10.5t-11.5 26.5q0 9 5 21t5 16q0 9 -5 18.5t-24 19.5t-50 10q-37 0 -62.5 -19t-25.5 -57v-145h224z" />
    <glyph glyph-name="f_k" horiz-adv-x="733" 
d="M651 47q26 -32 68 -32v-15h-131q9 20 -3 38l-133 191l-42 -39v-145q0 -16 13 -23t29 -7v-15h-157v15q49 0 49 30v514q0 27 -20.5 51.5t-69.5 24.5q-41 0 -70 -26t-29 -68v-127h103v-28h-103v-341q0 -30 45 -30v-15h-160v15q50 0 50 30v341h-57l9 28h48v51
q0 82 46.5 137.5t118.5 55.5q56 0 90 -27q23 6 39 6q26 0 26 -29v-380l157 145q9 8 4 17.5t-16 9.5v14h138v-15q-49 0 -91 -35l-107 -97z" />
    <glyph glyph-name="s_b" horiz-adv-x="821" 
d="M596 422q83 0 137 -57.5t54 -151.5q0 -98 -58.5 -159.5t-139.5 -61.5q-53 0 -99 28q-13 -20 -47 -20h-12v570q0 30 -21 50.5t-64 20.5q-59 0 -95.5 -33.5t-36.5 -82.5q0 -37 17.5 -71.5t50.5 -56.5q15 -8 32 -19l-35 -75l-10 4q12 31 -2 52t-36 28.5t-46 7.5
q-31 0 -52.5 -16t-21.5 -48q0 -20 15.5 -36t32.5 -24.5t58 -25.5q53 -23 85 -52.5t32 -77.5q0 -56 -44 -89.5t-111 -33.5q-76 0 -140 53l22 73l11 -5q-7 -43 28 -68.5t83 -25.5q45 0 66 23.5t21 57.5q0 16 -6.5 29.5t-13 22t-23.5 19t-25 14.5t-31 13.5t-29 12.5
q-88 38 -88 103q0 44 35 76t98 32q26 0 47 -6q-43 40 -43 104q0 60 42.5 99t113.5 39q66 0 108 -29t42 -72v-169q36 34 99 34zM583 20q66 0 99.5 45.5t33.5 129.5q0 86 -33.5 142.5t-95.5 56.5q-56 0 -90 -47v-296q35 -31 86 -31z" />
    <glyph glyph-name="s_h" horiz-adv-x="849" 
d="M779 45q0 -30 46 -30v-15h-150v15q38 0 38 30v241q0 45 -20 71.5t-58 26.5q-66 0 -128 -78v-261q0 -16 18 -23t40 -7v-15h-173v15q49 0 49 30v525q0 30 -24 50.5t-68 20.5q-60 0 -97.5 -33.5t-37.5 -82.5q0 -36 17.5 -71t50.5 -57q22 -12 32 -19l-35 -75l-10 4
q12 31 -2 52t-36 28.5t-46 7.5q-31 0 -52.5 -16t-21.5 -48q0 -20 15.5 -36t32.5 -24.5t58 -25.5q53 -23 85 -52.5t32 -77.5q0 -56 -44 -89.5t-111 -33.5q-76 0 -140 53l22 73l11 -5q-7 -43 28 -68.5t83 -25.5q45 0 66 23.5t21 57.5q0 16 -6.5 29.5t-13 22t-23.5 19t-25 14.5
t-31 13.5t-29 12.5q-88 38 -88 103q0 44 35 76t98 32q26 0 47 -6q-43 40 -43 104q0 60 43.5 99t115.5 39q67 0 112 -29.5t45 -71.5v-212q79 77 157 77q52 0 83.5 -33t31.5 -82v-262z" />
    <glyph glyph-name="s_k" horiz-adv-x="829" 
d="M748 47q26 -32 67 -32v-15h-130q9 20 -3 38l-133 191l-42 -39v-145q0 -30 42 -30v-15h-157v15q49 0 49 30v525q0 30 -24 50.5t-68 20.5q-60 0 -97.5 -33.5t-37.5 -82.5q0 -36 17.5 -71t50.5 -57q22 -12 32 -19l-35 -75l-10 4q12 31 -2 52t-36 28.5t-46 7.5
q-31 0 -52.5 -16t-21.5 -48q0 -20 15.5 -36t32.5 -24.5t58 -25.5q53 -23 85 -52.5t32 -77.5q0 -56 -44 -89.5t-111 -33.5q-76 0 -140 53l22 73l11 -5q-7 -43 28 -68.5t83 -25.5q45 0 66 23.5t21 57.5q0 16 -6.5 29.5t-13 22t-23.5 19t-25 14.5t-31 13.5t-29 12.5
q-88 38 -88 103q0 44 35 76t98 32q26 0 47 -6q-43 40 -43 104q0 60 43.5 99t115.5 39q67 0 112 -29.5t45 -71.5v-329l156 145q9 8 4 17.5t-16 9.5v14h139v-15q-49 0 -91 -35l-107 -97z" />
    <glyph glyph-name="s_l" horiz-adv-x="579" 
d="M507 45q0 -30 48 -30v-15h-162v15q48 0 48 30v525q0 30 -24 50.5t-68 20.5q-60 0 -97.5 -33.5t-37.5 -82.5q0 -36 17.5 -71t50.5 -57q22 -12 32 -19l-35 -75l-10 4q12 31 -2 52t-36 28.5t-46 7.5q-31 0 -52.5 -16t-21.5 -48q0 -20 15.5 -36t32.5 -24.5t58 -25.5
q53 -23 85 -52.5t32 -77.5q0 -56 -44 -89.5t-111 -33.5q-76 0 -140 53l22 73l11 -5q-7 -43 28 -68.5t83 -25.5q45 0 66 23.5t21 57.5q0 16 -6.5 29.5t-13 22t-23.5 19t-25 14.5t-31 13.5t-29 12.5q-88 38 -88 103q0 44 35 76t98 32q26 0 47 -6q-43 40 -43 104q0 60 43.5 99
t115.5 39q67 0 112 -29.5t45 -71.5v-512z" />
    <glyph glyph-name="s_t" horiz-adv-x="656" 
d="M627 60l6 -19q-35 -49 -99 -49q-40 0 -67.5 22t-27.5 72v300h-50v15q63 14 90 93q9 68 -33.5 107.5t-104.5 39.5q-59 0 -98 -33.5t-39 -82.5q0 -35 19.5 -69t52.5 -55l38 -23l-35 -75l-10 4q12 31 -2 52t-36 28.5t-46 7.5q-31 0 -52.5 -16t-21.5 -48q0 -20 15.5 -36
t32.5 -24.5t58 -25.5q53 -23 85 -52.5t32 -77.5q0 -56 -44 -89.5t-111 -33.5q-76 0 -140 53l22 73l11 -5q-7 -43 28 -68.5t83 -25.5q45 0 66 23.5t21 57.5q0 16 -6.5 29.5t-13 22t-23.5 19t-25 14.5t-31 13.5t-29 12.5q-88 38 -88 103q0 44 35 76t98 32q21 0 43 -5
q-49 44 -49 103t45 98.5t116 39.5q69 0 115.5 -37.5t47.5 -96.5v-110h118l-8 -28h-110v-271q0 -47 11 -71t40 -24q42 0 71 40z" />
    <glyph glyph-name="a.sc" horiz-adv-x="505" 
d="M455 31q9 -16 45 -16v-15h-151v15q39 0 36 17l-55 147h-185l-51 -147q-1 -4 3.5 -7.5t13.5 -5.5t19.5 -3t21.5 -1v-15h-147v15q41 0 52 18l180 509l19 5zM155 210h164l-84 228z" />
    <glyph glyph-name="a.sc.ss01" horiz-adv-x="505" 
d="M455 31q9 -16 45 -16v-15h-151v15q39 0 36 17l-41 111l-192 58l-58 -169q-1 -4 3.5 -7.5t13.5 -5.5t19.5 -3t21.5 -1v-15h-147v15q41 0 52 18l180 509l19 5zM162 229l169 -51l-96 260z" />
    <glyph glyph-name="aacute.sc" horiz-adv-x="505" 
d="M240 691l-40 -75l12 -22l87 97h-59zM455 31q9 -16 45 -16v-15h-151v15q39 0 36 17l-55 147h-185l-51 -147q-1 -4 3.5 -7.5t13.5 -5.5t19.5 -3t21.5 -1v-15h-147v15q41 0 52 18l180 509l19 5zM155 210h164l-84 228z" />
    <glyph glyph-name="aacute.sc.ss01" horiz-adv-x="505" 
d="M240 691l-40 -75l12 -22l87 97h-59zM455 31q9 -16 45 -16v-15h-151v15q39 0 36 17l-41 111l-192 58l-58 -169q-1 -4 3.5 -7.5t13.5 -5.5t19.5 -3t21.5 -1v-15h-147v15q41 0 52 18l180 509l19 5zM162 229l169 -51l-96 260z" />
    <glyph glyph-name="abreve.sc" horiz-adv-x="505" 
d="M249 601q-52 0 -75 53l25 7q19 -31 50 -31q32 0 51 31l25 -7q-23 -53 -76 -53zM455 31q9 -16 45 -16v-15h-151v15q39 0 36 17l-55 147h-185l-51 -147q-1 -4 3.5 -7.5t13.5 -5.5t19.5 -3t21.5 -1v-15h-147v15q41 0 52 18l180 509l19 5zM155 210h164l-84 228z" />
    <glyph glyph-name="abreve.sc.ss01" horiz-adv-x="505" 
d="M249 601q-52 0 -75 53l25 7q19 -31 50 -31q32 0 51 31l25 -7q-23 -53 -76 -53zM455 31q9 -16 45 -16v-15h-151v15q39 0 36 17l-41 111l-192 58l-58 -169q-1 -4 3.5 -7.5t13.5 -5.5t19.5 -3t21.5 -1v-15h-147v15q41 0 52 18l180 509l19 5zM162 229l169 -51l-96 260z" />
    <glyph glyph-name="acircumflex.sc" horiz-adv-x="505" 
d="M166 601l65 89h36l65 -89h-27l-56 60l-56 -60h-27zM455 31q9 -16 45 -16v-15h-151v15q39 0 36 17l-55 147h-185l-51 -147q-1 -4 3.5 -7.5t13.5 -5.5t19.5 -3t21.5 -1v-15h-147v15q41 0 52 18l180 509l19 5zM155 210h164l-84 228z" />
    <glyph glyph-name="acircumflex.sc.ss01" horiz-adv-x="505" 
d="M166 601l65 89h36l65 -89h-27l-56 60l-56 -60h-27zM455 31q9 -16 45 -16v-15h-151v15q39 0 36 17l-41 111l-192 58l-58 -169q-1 -4 3.5 -7.5t13.5 -5.5t19.5 -3t21.5 -1v-15h-147v15q41 0 52 18l180 509l19 5zM162 229l169 -51l-96 260z" />
    <glyph glyph-name="adieresis.sc" horiz-adv-x="505" 
d="M197 658q12 0 20.5 -8.5t8.5 -20.5t-7.5 -19.5t-20.5 -7.5q-12 0 -20.5 8t-8.5 21q0 12 7.5 19.5t20.5 7.5zM296 658q12 0 20.5 -8.5t8.5 -20.5q0 -27 -28 -27q-12 0 -20.5 8.5t-8.5 20.5q0 11 8 19t20 8zM455 31q9 -16 45 -16v-15h-151v15q39 0 36 17l-55 147h-185
l-51 -147q-1 -4 3.5 -7.5t13.5 -5.5t19.5 -3t21.5 -1v-15h-147v15q41 0 52 18l180 509l19 5zM155 210h164l-84 228z" />
    <glyph glyph-name="adieresis.sc.ss01" horiz-adv-x="505" 
d="M197 658q12 0 20.5 -8.5t8.5 -20.5t-7.5 -19.5t-20.5 -7.5q-12 0 -20.5 8t-8.5 21q0 12 7.5 19.5t20.5 7.5zM296 658q12 0 20.5 -8.5t8.5 -20.5q0 -27 -28 -27q-12 0 -20.5 8.5t-8.5 20.5q0 11 8 19t20 8zM455 31q9 -16 45 -16v-15h-151v15q39 0 36 17l-55 147h-185
l-51 -147q-1 -4 3.5 -7.5t13.5 -5.5t19.5 -3t21.5 -1v-15h-147v15q41 0 52 18l180 509l19 5zM155 210h164l-84 228z" />
    <glyph glyph-name="agrave.sc" horiz-adv-x="505" 
d="M254 691h-59l87 -97l12 22zM455 31q9 -16 45 -16v-15h-151v15q39 0 36 17l-55 147h-185l-51 -147q-1 -4 3.5 -7.5t13.5 -5.5t19.5 -3t21.5 -1v-15h-147v15q41 0 52 18l180 509l19 5zM155 210h164l-84 228z" />
    <glyph glyph-name="agrave.sc.ss01" horiz-adv-x="505" 
d="M254 691h-59l87 -97l12 22zM455 31q9 -16 45 -16v-15h-151v15q39 0 36 17l-41 111l-192 58l-58 -169q-1 -4 3.5 -7.5t13.5 -5.5t19.5 -3t21.5 -1v-15h-147v15q41 0 52 18l180 509l19 5zM162 229l169 -51l-96 260z" />
    <glyph glyph-name="amacron.sc" horiz-adv-x="505" 
d="M171 639h161l-6 -28h-161zM455 31q9 -16 45 -16v-15h-151v15q39 0 36 17l-55 147h-185l-51 -147q-1 -4 3.5 -7.5t13.5 -5.5t19.5 -3t21.5 -1v-15h-147v15q41 0 52 18l180 509l19 5zM155 210h164l-84 228z" />
    <glyph glyph-name="amacron.sc.ss01" horiz-adv-x="505" 
d="M171 639h161l-6 -28h-161zM455 31q9 -16 45 -16v-15h-151v15q39 0 36 17l-41 111l-192 58l-58 -169q-1 -4 3.5 -7.5t13.5 -5.5t19.5 -3t21.5 -1v-15h-147v15q41 0 52 18l180 509l19 5zM162 229l169 -51l-96 260z" />
    <glyph glyph-name="aogonek.sc" horiz-adv-x="505" 
d="M471 0q-45 -26 -45 -62q0 -14 7 -23.5t17 -9.5t19 6l6 -14q-16 -14 -44 -14q-27 0 -44 12t-17 34q0 45 58 71h-79v15q39 0 36 17l-55 147h-185l-51 -147q-1 -4 3.5 -7.5t13.5 -5.5t19.5 -3t21.5 -1v-15h-147v15q41 0 52 18l180 509l19 5l199 -516q9 -16 45 -16v-15h-29z
M155 210h164l-84 228z" />
    <glyph glyph-name="aogonek.sc.ss01" horiz-adv-x="505" 
d="M470 0q-45 -26 -45 -62q0 -14 7 -23.5t17 -9.5t19 6l6 -14q-16 -14 -44 -14q-27 0 -44 12t-17 34q0 45 58 71h-78v15q39 0 36 17l-41 111l-192 58l-58 -169q-1 -4 3.5 -7.5t13.5 -5.5t19.5 -3t21.5 -1v-15h-147v15q41 0 52 18l180 509l19 5l199 -516q9 -16 45 -16v-15
h-30zM162 229l169 -51l-96 260z" />
    <glyph glyph-name="aring.sc" horiz-adv-x="505" 
d="M249 594q-21 0 -36 15t-15 35q0 21 15 36t36 15q20 0 35 -15t15 -36q0 -20 -15 -35t-35 -15zM249 617q11 0 19 8t8 19q0 12 -8 20t-19 8q-12 0 -20 -8t-8 -20q0 -11 8 -19t20 -8zM455 31q9 -16 45 -16v-15h-151v15q39 0 36 17l-55 147h-185l-51 -147q-1 -4 3.5 -7.5
t13.5 -5.5t19.5 -3t21.5 -1v-15h-147v15q41 0 52 18l180 509l19 5zM155 210h164l-84 228z" />
    <glyph glyph-name="aring.sc.ss01" horiz-adv-x="505" 
d="M249 594q-21 0 -36 15t-15 35q0 21 15 36t36 15q20 0 35 -15t15 -36q0 -20 -15 -35t-35 -15zM249 617q11 0 19 8t8 19q0 12 -8 20t-19 8q-12 0 -20 -8t-8 -20q0 -11 8 -19t20 -8zM455 31q9 -16 45 -16v-15h-151v15q39 0 36 17l-41 111l-192 58l-58 -169q-1 -4 3.5 -7.5
t13.5 -5.5t19.5 -3t21.5 -1v-15h-147v15q41 0 52 18l180 509l19 5zM162 229l169 -51l-96 260z" />
    <glyph glyph-name="atilde.sc" horiz-adv-x="505" 
d="M146 622q13 54 58 54q27 0 55 -23t44 -23q3 0 6 0.5t5.5 2t4.5 2.5t4 3.5t3 4t3 5t2.5 4.5l2.5 5t2 5l15 -7q-13 -54 -58 -54q-28 0 -55.5 23t-42.5 23q-12 0 -19 -7t-15 -25zM455 31q9 -16 45 -16v-15h-151v15q39 0 36 17l-55 147h-185l-51 -147q-1 -4 3.5 -7.5
t13.5 -5.5t19.5 -3t21.5 -1v-15h-147v15q41 0 52 18l180 509l19 5zM155 210h164l-84 228z" />
    <glyph glyph-name="atilde.sc.ss01" horiz-adv-x="505" 
d="M146 622q13 54 58 54q27 0 55 -23t44 -23q3 0 6 0.5t5.5 2t4.5 2.5t4 3.5t3 4t3 5t2.5 4.5l2.5 5t2 5l15 -7q-13 -54 -58 -54q-28 0 -55.5 23t-42.5 23q-12 0 -19 -7t-15 -25zM455 31q9 -16 45 -16v-15h-151v15q39 0 36 17l-41 111l-192 58l-58 -169q-1 -4 3.5 -7.5
t13.5 -5.5t19.5 -3t21.5 -1v-15h-147v15q41 0 52 18l180 509l19 5zM162 229l169 -51l-96 260z" />
    <glyph glyph-name="ae.sc" horiz-adv-x="696" 
d="M651 83l15 -4l-25 -79h-281v158h-176l-69 -117q-8 -14 10 -20t45 -6v-15h-165v15q49 0 67 24l293 500h273l24 -79l-15 -4q-11 29 -24.5 41.5t-37.5 12.5h-159v-215h126q30 0 30 57h14v-144h-14q0 57 -30 57h-126v-236h161q43 0 64 54zM201 188h159v271z" />
    <glyph glyph-name="ae.sc.ss01" horiz-adv-x="696" 
d="M651 83l15 -4l-25 -79h-281v134l-162 48l-83 -141q-8 -14 10 -20t45 -6v-15h-165v15q49 0 67 24l293 500h273l24 -79l-15 -4q-11 29 -24.5 41.5t-37.5 12.5h-159v-215h126q30 0 30 57h14v-144h-14q0 57 -30 57h-126v-236h161q43 0 64 54zM213 207l147 -45v297z" />
    <glyph glyph-name="b.sc" horiz-adv-x="444" 
d="M319 290q101 -29 101 -133q0 -70 -44 -113.5t-120 -43.5h-212v15q53 0 53 30v449q0 30 -53 30v15h206q57 0 97.5 -30t40.5 -93q0 -89 -69 -126zM229 511q-52 0 -69 -3v-213h85q77 0 77 113q0 103 -93 103zM251 28q100 0 100 117q0 59 -25.5 90t-64.5 31h-101v-234
q22 -4 91 -4z" />
    <glyph glyph-name="c.sc" horiz-adv-x="523" 
d="M479 97l15 -22q-63 -83 -186 -83q-115 0 -195 78.5t-80 201.5q0 68 26 122.5t68 86.5t89.5 49t94.5 17q54 0 99 -18q1 0 10.5 -3.5t13 -4.5t10.5 -1.5t10.5 2.5t6.5 9l14 -7l-37 -120l-13 5q9 41 4.5 59.5t-30.5 31.5q-35 17 -86 17q-90 0 -148 -58t-58 -170
q0 -116 60.5 -191.5t153.5 -75.5q47 0 91 20t67 55z" />
    <glyph glyph-name="cacute.sc" horiz-adv-x="523" 
d="M299 691l-40 -75l12 -22l87 97h-59zM479 97l15 -22q-63 -83 -186 -83q-115 0 -195 78.5t-80 201.5q0 68 26 122.5t68 86.5t89.5 49t94.5 17q54 0 99 -18q1 0 10.5 -3.5t13 -4.5t10.5 -1.5t10.5 2.5t6.5 9l14 -7l-37 -120l-13 5q9 41 4.5 59.5t-30.5 31.5q-35 17 -86 17
q-90 0 -148 -58t-58 -170q0 -116 60.5 -191.5t153.5 -75.5q47 0 91 20t67 55z" />
    <glyph glyph-name="ccaron.sc" horiz-adv-x="523" 
d="M225 690l71 -89h24l71 89h-36l-47 -60l-47 60h-36zM479 97l15 -22q-63 -83 -186 -83q-115 0 -195 78.5t-80 201.5q0 68 26 122.5t68 86.5t89.5 49t94.5 17q54 0 99 -18q1 0 10.5 -3.5t13 -4.5t10.5 -1.5t10.5 2.5t6.5 9l14 -7l-37 -120l-13 5q9 41 4.5 59.5t-30.5 31.5
q-35 17 -86 17q-90 0 -148 -58t-58 -170q0 -116 60.5 -191.5t153.5 -75.5q47 0 91 20t67 55z" />
    <glyph glyph-name="ccedilla.sc" horiz-adv-x="523" 
d="M308 -8h-4l-12 -25q8 3 19 3q15 0 27.5 -8t12.5 -25q0 -25 -21.5 -40.5t-49.5 -15.5q-9 0 -15 2l6 14q15 0 24.5 9.5t9.5 23.5q0 23 -15 23t-29 -17l-8 13l20 45q-103 12 -171.5 88.5t-68.5 189.5q0 68 26 122.5t68 86.5t89.5 49t94.5 17q54 0 99 -18q1 0 10.5 -3.5
t13 -4.5t10.5 -1.5t10.5 2.5t6.5 9l14 -7l-37 -120l-13 5q9 41 4.5 59.5t-30.5 31.5q-35 17 -86 17q-90 0 -148 -58t-58 -170q0 -116 60.5 -191.5t153.5 -75.5q47 0 91 20t67 55l15 -22q-63 -83 -186 -83z" />
    <glyph glyph-name="cdotaccent.sc" horiz-adv-x="523" 
d="M307 664q15 0 25 -10.5t10 -24.5t-10 -23t-23 -9q-15 0 -25 10.5t-10 24.5q0 15 10 23.5t23 8.5zM479 97l15 -22q-63 -83 -186 -83q-115 0 -195 78.5t-80 201.5q0 68 26 122.5t68 86.5t89.5 49t94.5 17q54 0 99 -18q1 0 10.5 -3.5t13 -4.5t10.5 -1.5t10.5 2.5t6.5 9
l14 -7l-37 -120l-13 5q9 41 4.5 59.5t-30.5 31.5q-35 17 -86 17q-90 0 -148 -58t-58 -170q0 -116 60.5 -191.5t153.5 -75.5q47 0 91 20t67 55z" />
    <glyph glyph-name="d.sc" horiz-adv-x="569" 
d="M287 539q118 0 183.5 -72.5t65.5 -184.5q0 -117 -67 -199.5t-175 -82.5h-250v15q21 0 38.5 7t17.5 23v449q0 16 -17.5 23t-38.5 7v15h243zM282 28q88 0 134 60t46 170q0 118 -49 185.5t-145 67.5q-75 0 -101 -3v-476q32 -4 115 -4z" />
    <glyph glyph-name="eth.sc" horiz-adv-x="569" 
d="M287 539q118 0 183.5 -72.5t65.5 -184.5q0 -117 -67 -199.5t-175 -82.5h-250v15q21 0 38.5 7t17.5 23v220h-56l13 32h43v197q0 16 -17.5 23t-38.5 7v15h243zM282 28q88 0 134 60t46 170q0 118 -49 185.5t-145 67.5q-75 0 -101 -3v-211h62l-14 -32h-48v-233q32 -4 115 -4z
" />
    <glyph glyph-name="dcaron.sc" horiz-adv-x="569" 
d="M196 690l71 -89h24l71 89h-36l-47 -60l-47 60h-36zM287 539q118 0 183.5 -72.5t65.5 -184.5q0 -117 -67 -199.5t-175 -82.5h-250v15q21 0 38.5 7t17.5 23v449q0 16 -17.5 23t-38.5 7v15h243zM282 28q88 0 134 60t46 170q0 118 -49 185.5t-145 67.5q-75 0 -101 -3v-476
q32 -4 115 -4z" />
    <glyph glyph-name="dcroat.sc" horiz-adv-x="569" 
d="M287 539q118 0 183.5 -72.5t65.5 -184.5q0 -117 -67 -199.5t-175 -82.5h-250v15q21 0 38.5 7t17.5 23v220h-56l13 32h43v197q0 16 -17.5 23t-38.5 7v15h243zM282 28q88 0 134 60t46 170q0 118 -49 185.5t-145 67.5q-75 0 -101 -3v-211h62l-14 -32h-48v-233q32 -4 115 -4z
" />
    <glyph glyph-name="e.sc" horiz-adv-x="433" 
d="M388 84l16 -4l-26 -80h-334v15q53 0 53 30v449q0 30 -53 30v15h331l24 -80l-15 -4q-10 28 -23.5 41t-37.5 13h-159v-214h125q31 0 31 57h13v-144h-13q0 57 -31 57h-125v-235h161q24 0 38.5 13t24.5 41z" />
    <glyph glyph-name="eacute.sc" horiz-adv-x="433" 
d="M229 691l-40 -75l12 -22l87 97h-59zM388 84l16 -4l-26 -80h-334v15q53 0 53 30v449q0 30 -53 30v15h331l24 -80l-15 -4q-10 28 -23.5 41t-37.5 13h-159v-214h125q31 0 31 57h13v-144h-13q0 57 -31 57h-125v-235h161q24 0 38.5 13t24.5 41z" />
    <glyph glyph-name="ecaron.sc" horiz-adv-x="433" 
d="M155 690l71 -89h24l71 89h-36l-47 -60l-47 60h-36zM388 84l16 -4l-26 -80h-334v15q53 0 53 30v449q0 30 -53 30v15h331l24 -80l-15 -4q-10 28 -23.5 41t-37.5 13h-159v-214h125q31 0 31 57h13v-144h-13q0 57 -31 57h-125v-235h161q24 0 38.5 13t24.5 41z" />
    <glyph glyph-name="ecircumflex.sc" horiz-adv-x="433" 
d="M155 601l65 89h36l65 -89h-27l-56 60l-56 -60h-27zM388 84l16 -4l-26 -80h-334v15q53 0 53 30v449q0 30 -53 30v15h331l24 -80l-15 -4q-10 28 -23.5 41t-37.5 13h-159v-214h125q31 0 31 57h13v-144h-13q0 57 -31 57h-125v-235h161q24 0 38.5 13t24.5 41z" />
    <glyph glyph-name="edieresis.sc" horiz-adv-x="433" 
d="M186 658q12 0 20.5 -8.5t8.5 -20.5t-7.5 -19.5t-20.5 -7.5q-12 0 -20.5 8t-8.5 21q0 12 7.5 19.5t20.5 7.5zM285 658q12 0 20.5 -8.5t8.5 -20.5q0 -27 -28 -27q-12 0 -20.5 8.5t-8.5 20.5q0 11 8 19t20 8zM388 84l16 -4l-26 -80h-334v15q53 0 53 30v449q0 30 -53 30v15
h331l24 -80l-15 -4q-10 28 -23.5 41t-37.5 13h-159v-214h125q31 0 31 57h13v-144h-13q0 57 -31 57h-125v-235h161q24 0 38.5 13t24.5 41z" />
    <glyph glyph-name="edotaccent.sc" horiz-adv-x="433" 
d="M237 664q15 0 25 -10.5t10 -24.5t-10 -23t-23 -9q-15 0 -25 10.5t-10 24.5q0 15 10 23.5t23 8.5zM388 84l16 -4l-26 -80h-334v15q53 0 53 30v449q0 30 -53 30v15h331l24 -80l-15 -4q-10 28 -23.5 41t-37.5 13h-159v-214h125q31 0 31 57h13v-144h-13q0 57 -31 57h-125
v-235h161q24 0 38.5 13t24.5 41z" />
    <glyph glyph-name="egrave.sc" horiz-adv-x="433" 
d="M243 691h-59l87 -97l12 22zM388 84l16 -4l-26 -80h-334v15q53 0 53 30v449q0 30 -53 30v15h331l24 -80l-15 -4q-10 28 -23.5 41t-37.5 13h-159v-214h125q31 0 31 57h13v-144h-13q0 57 -31 57h-125v-235h161q24 0 38.5 13t24.5 41z" />
    <glyph glyph-name="emacron.sc" horiz-adv-x="433" 
d="M160 639h161l-6 -28h-161zM388 84l16 -4l-26 -80h-334v15q53 0 53 30v449q0 30 -53 30v15h331l24 -80l-15 -4q-10 28 -23.5 41t-37.5 13h-159v-214h125q31 0 31 57h13v-144h-13q0 57 -31 57h-125v-235h161q24 0 38.5 13t24.5 41z" />
    <glyph glyph-name="eogonek.sc" horiz-adv-x="433" 
d="M348 0q-45 -26 -45 -62q0 -14 7 -23.5t17 -9.5t19 6l6 -14q-16 -14 -44 -14q-27 0 -44 12t-17 34q0 45 58 71h-261v15q53 0 53 30v449q0 30 -53 30v15h331l24 -80l-15 -4q-10 28 -23.5 41t-37.5 13h-159v-214h125q31 0 31 57h13v-144h-13q0 57 -31 57h-125v-235h161
q24 0 38.5 13t24.5 41l16 -4l-26 -80h-30z" />
    <glyph glyph-name="f.sc" horiz-adv-x="421" 
d="M373 539l25 -80l-16 -4q-10 28 -23 41t-37 13h-158v-229h106q31 0 31 57h13v-144h-13q0 57 -31 57h-106v-205q0 -30 66 -30v-15h-186v15q53 0 53 30v450q0 14 -16.5 22t-36.5 8v14h329z" />
    <glyph glyph-name="g.sc" horiz-adv-x="564" 
d="M544 243q-16 0 -26.5 -8t-10.5 -22v-104q1 -28 10 -46q-89 -71 -209 -71q-123 0 -199 72.5t-76 200.5q0 135 83 208.5t203 73.5q60 0 116 -25q21 -9 32 13h14v-130l-15 9q-5 55 -47 80t-102 25q-94 0 -152 -59t-58 -179q0 -122 60 -190.5t163 -68.5q72 0 119 28v140
q0 45 -85 53v15h180v-15z" />
    <glyph glyph-name="gbreve.sc" horiz-adv-x="564" 
d="M306 601q-52 0 -75 53l25 7q19 -31 50 -31q32 0 51 31l25 -7q-23 -53 -76 -53zM544 243q-16 0 -26.5 -8t-10.5 -22v-104q1 -28 10 -46q-89 -71 -209 -71q-123 0 -199 72.5t-76 200.5q0 135 83 208.5t203 73.5q60 0 116 -25q21 -9 32 13h14v-130l-15 9q-5 55 -47 80
t-102 25q-94 0 -152 -59t-58 -179q0 -122 60 -190.5t163 -68.5q72 0 119 28v140q0 45 -85 53v15h180v-15z" />
    <glyph glyph-name="gcommaaccent.sc" horiz-adv-x="564" 
d="M544 243q-16 0 -26.5 -8t-10.5 -22v-104q1 -28 10 -46q-89 -71 -209 -71q-123 0 -199 72.5t-76 200.5q0 135 83 208.5t203 73.5q60 0 116 -25q21 -9 32 13h14v-130l-15 9q-5 55 -47 80t-102 25q-94 0 -152 -59t-58 -179q0 -122 60 -190.5t163 -68.5q72 0 119 28v140
q0 45 -85 53v15h180v-15zM304 -31l-4 -21l-27 -59l11 -18l61 77v21h-41z" />
    <glyph glyph-name="gdotaccent.sc" horiz-adv-x="564" 
d="M305 664q15 0 25 -10.5t10 -24.5t-10 -23t-23 -9q-15 0 -25 10.5t-10 24.5q0 15 10 23.5t23 8.5zM544 243q-16 0 -26.5 -8t-10.5 -22v-104q1 -28 10 -46q-89 -71 -209 -71q-123 0 -199 72.5t-76 200.5q0 135 83 208.5t203 73.5q60 0 116 -25q21 -9 32 13h14v-130l-15 9
q-5 55 -47 80t-102 25q-94 0 -152 -59t-58 -179q0 -122 60 -190.5t163 -68.5q72 0 119 28v140q0 45 -85 53v15h180v-15z" />
    <glyph glyph-name="h.sc" horiz-adv-x="604" 
d="M560 524q-20 0 -38 -8t-18 -22v-449q0 -14 18 -22t38 -8v-15h-172v15q19 0 34 7.5t15 22.5v226h-270v-226q0 -15 15 -22.5t34 -7.5v-15h-172v15q20 0 38 8t18 22v449q0 14 -18 22t-38 8v15h172v-15q-19 0 -34 -7.5t-15 -22.5v-194h270v194q0 15 -15 22.5t-34 7.5v15h172
v-15z" />
    <glyph glyph-name="hbar.sc" horiz-adv-x="604" 
d="M560 524q-20 0 -38 -8t-18 -22v-449q0 -14 18 -22t38 -8v-15h-172v15q19 0 34 7.5t15 22.5v180h-270v-180q0 -15 15 -22.5t34 -7.5v-15h-172v15q20 0 38 8t18 22v449q0 14 -18 22t-38 8v15h172v-15q-19 0 -34 -7.5t-15 -22.5v-154h270v154q0 15 -15 22.5t-34 7.5v15h172
v-15zM167 255h270v55h-270v-55z" />
    <glyph glyph-name="i.sc" horiz-adv-x="262" 
d="M218 524q-53 0 -53 -30v-449q0 -30 53 -30v-15h-174v15q54 0 54 30v449q0 30 -54 30v15h174v-15z" />
    <glyph glyph-name="iacute.sc" horiz-adv-x="262" 
d="M122 691l-40 -75l12 -22l87 97h-59zM218 524q-53 0 -53 -30v-449q0 -30 53 -30v-15h-174v15q54 0 54 30v449q0 30 -54 30v15h174v-15z" />
    <glyph glyph-name="icircumflex.sc" horiz-adv-x="262" 
d="M48 601l65 89h36l65 -89h-27l-56 60l-56 -60h-27zM218 524q-53 0 -53 -30v-449q0 -30 53 -30v-15h-174v15q54 0 54 30v449q0 30 -54 30v15h174v-15z" />
    <glyph glyph-name="idieresis.sc" horiz-adv-x="262" 
d="M79 658q12 0 20.5 -8.5t8.5 -20.5t-7.5 -19.5t-20.5 -7.5q-12 0 -20.5 8t-8.5 21q0 12 7.5 19.5t20.5 7.5zM178 658q12 0 20.5 -8.5t8.5 -20.5q0 -27 -28 -27q-12 0 -20.5 8.5t-8.5 20.5q0 11 8 19t20 8zM218 524q-53 0 -53 -30v-449q0 -30 53 -30v-15h-174v15
q54 0 54 30v449q0 30 -54 30v15h174v-15z" />
    <glyph glyph-name="i.sc.loclTRK" horiz-adv-x="262" 
d="M130 664q15 0 25 -10.5t10 -24.5t-10 -23t-23 -9q-15 0 -25 10.5t-10 24.5q0 15 10 23.5t23 8.5zM218 524q-53 0 -53 -30v-449q0 -30 53 -30v-15h-174v15q54 0 54 30v449q0 30 -54 30v15h174v-15z" />
    <glyph glyph-name="igrave.sc" horiz-adv-x="262" 
d="M136 691h-59l87 -97l12 22zM218 524q-53 0 -53 -30v-449q0 -30 53 -30v-15h-174v15q54 0 54 30v449q0 30 -54 30v15h174v-15z" />
    <glyph glyph-name="imacron.sc" horiz-adv-x="262" 
d="M53 639h161l-6 -28h-161zM218 524q-53 0 -53 -30v-449q0 -30 53 -30v-15h-174v15q54 0 54 30v449q0 30 -54 30v15h174v-15z" />
    <glyph glyph-name="iogonek.sc" horiz-adv-x="262" 
d="M218 524q-53 0 -53 -30v-449q0 -30 53 -30v-15h-30q-45 -26 -45 -62q0 -14 7 -23.5t17 -9.5t19 6l6 -14q-16 -14 -44 -14q-27 0 -44 12t-17 34q0 45 58 71h-101v15q54 0 54 30v449q0 30 -54 30v15h174v-15z" />
    <glyph glyph-name="itilde.sc" horiz-adv-x="262" 
d="M28 622q13 54 58 54q27 0 55 -23t44 -23q3 0 6 0.5t5.5 2t4.5 2.5t4 3.5t3 4t3 5t2.5 4.5l2.5 5t2 5l15 -7q-13 -54 -58 -54q-28 0 -55.5 23t-42.5 23q-12 0 -19 -7t-15 -25zM218 524q-53 0 -53 -30v-449q0 -30 53 -30v-15h-174v15q54 0 54 30v449q0 30 -54 30v15h174
v-15z" />
    <glyph glyph-name="j.sc" horiz-adv-x="259" 
d="M224 539v-15q-54 0 -54 -30v-421q0 -43 -7.5 -72t-29.5 -52.5t-42.5 -38t-65.5 -39.5l-5 15q48 32 66 66.5t18 89.5v452q0 30 -54 30v15h174z" />
    <glyph glyph-name="k.sc" horiz-adv-x="558" 
d="M466 52q15 -15 44 -26t48 -11v-15h-152q10 21 -7 41l-212 227l-18 -18v-205q0 -30 70 -30v-15h-195v15q22 0 40.5 7.5t18.5 22.5v449q0 15 -18.5 22.5t-40.5 7.5v15h174v-15q-49 0 -49 -30v-204l212 207q9 10 3.5 19t-19.5 9v14h148v-14q-51 0 -84 -27l-195 -192z" />
    <glyph glyph-name="k.sc.ss01" horiz-adv-x="549" 
d="M596 -50q70 -37 144 -53t128 -13t90.5 11.5t50.5 18.5v-15q-20 -16 -63.5 -28t-103 -17t-135.5 9.5t-146 48.5q-126 62 -247 211l-121 149l-24 -23v-204q0 -30 70 -30v-15h-195v15q22 0 40.5 7.5t18.5 22.5v449q0 15 -18.5 22.5t-40.5 7.5v15h174v-15q-49 0 -49 -30v-205
l213 208q9 10 3.5 19t-19.5 9v14h149v-14q-52 0 -85 -27l-195 -192l87 -107q77 -94 138.5 -152t135.5 -97z" />
    <glyph glyph-name="kcommaaccent.sc" horiz-adv-x="558" 
d="M466 52q15 -15 44 -26t48 -11v-15h-152q10 21 -7 41l-212 227l-18 -18v-205q0 -30 70 -30v-15h-195v15q22 0 40.5 7.5t18.5 22.5v449q0 15 -18.5 22.5t-40.5 7.5v15h174v-15q-49 0 -49 -30v-204l212 207q9 10 3.5 19t-19.5 9v14h148v-14q-51 0 -84 -27l-195 -192z
M296 -31l-4 -21l-27 -59l11 -18l61 77v21h-41z" />
    <glyph glyph-name="kcommaaccent.sc.ss01" horiz-adv-x="549" 
d="M596 -50q70 -37 144 -53t128 -13t90.5 11.5t50.5 18.5v-15q-20 -16 -63.5 -28t-103 -17t-135.5 9.5t-146 48.5q-126 62 -247 211l-121 149l-24 -23v-204q0 -30 70 -30v-15h-195v15q22 0 40.5 7.5t18.5 22.5v449q0 15 -18.5 22.5t-40.5 7.5v15h174v-15q-49 0 -49 -30v-205
l213 208q9 10 3.5 19t-19.5 9v14h149v-14q-52 0 -85 -27l-195 -192l87 -107q77 -94 138.5 -152t135.5 -97zM296 -31l-4 -21l-27 -59l11 -18l61 77v21h-41z" />
    <glyph glyph-name="l.sc" horiz-adv-x="421" 
d="M387 83l15 -4l-24 -79h-334v15q21 0 38.5 7t17.5 23v449q0 16 -17.5 23t-38.5 7v15h192v-15q-70 0 -70 -30v-464h157q46 0 64 53z" />
    <glyph glyph-name="lacute.sc" horiz-adv-x="421" 
d="M226 691l-40 -75l12 -22l87 97h-59zM387 83l15 -4l-24 -79h-334v15q21 0 38.5 7t17.5 23v449q0 16 -17.5 23t-38.5 7v15h192v-15q-70 0 -70 -30v-464h157q46 0 64 53z" />
    <glyph glyph-name="lcaron.sc" horiz-adv-x="421" 
d="M315 565q4 16 20 16q20 0 30 -9t5 -22l-57 -151q-2 -8 -10 -8t-8 9zM387 83l15 -4l-24 -79h-334v15q21 0 38.5 7t17.5 23v449q0 16 -17.5 23t-38.5 7v15h192v-15q-70 0 -70 -30v-464h157q46 0 64 53z" />
    <glyph glyph-name="lcommaaccent.sc" horiz-adv-x="421" 
d="M387 83l15 -4l-24 -79h-334v15q21 0 38.5 7t17.5 23v449q0 16 -17.5 23t-38.5 7v15h192v-15q-70 0 -70 -30v-464h157q46 0 64 53zM225 -31l-4 -21l-27 -59l11 -18l61 77v21h-41z" />
    <glyph glyph-name="ldot.sc" horiz-adv-x="421" 
d="M387 83l15 -4l-24 -79h-334v15q21 0 38.5 7t17.5 23v449q0 16 -17.5 23t-38.5 7v15h192v-15q-70 0 -70 -30v-464h157q46 0 64 53zM265 329q15 0 25 -10.5t10 -24.5t-10 -23t-23 -9q-15 0 -25 10.5t-10 24.5q0 15 10 23.5t23 8.5z" />
    <glyph glyph-name="lslash.sc" horiz-adv-x="421" 
d="M387 83l15 -4l-24 -79h-334v15q21 0 38.5 7t17.5 23v186l-46 -20l-1 34l47 20v229q0 16 -17.5 23t-38.5 7v15h192v-15q-70 0 -70 -30v-201l46 20l-1 -35l-45 -19v-229h157q46 0 64 53z" />
    <glyph glyph-name="m.sc" horiz-adv-x="676" 
d="M597 35q1 -9 18 -14.5t36 -5.5v-15h-171v15q20 0 37 5.5t16 14.5l-27 386l-174 -423h-17l-172 408l-24 -358q-1 -16 19 -24.5t47 -8.5v-15h-160v15q19 0 37 7t19 20l32 456q1 13 -17.5 19.5t-47.5 6.5v15h105l182 -435l178 435h116v-15q-27 0 -46 -7t-18 -20z" />
    <glyph glyph-name="m.sc.ss01" horiz-adv-x="708" 
d="M664 524q-20 0 -37.5 -8t-17.5 -22v-449q0 -14 17.5 -22t37.5 -8v-15h-177v15q21 0 39.5 8t18.5 22v384l-198 -431h-10l-202 414v-367q0 -15 20 -22.5t48 -7.5v-15h-159v15q20 0 37.5 8t17.5 22v449q0 14 -17.5 22t-37.5 8v15h96l215 -447l203 447h106v-15z" />
    <glyph glyph-name="n.sc" horiz-adv-x="602" 
d="M573 539v-15q-20 0 -37.5 -8t-17.5 -22v-496h-11l-372 433v-386q0 -30 63 -30v-15h-154v15q20 0 37.5 8t17.5 22v449q0 14 -17.5 22t-37.5 8v15h82l356 -416v371q0 30 -68 30v15h159z" />
    <glyph glyph-name="nacute.sc" horiz-adv-x="602" 
d="M294 691l-40 -75l12 -22l87 97h-59zM573 539v-15q-20 0 -37.5 -8t-17.5 -22v-496h-11l-372 433v-386q0 -30 63 -30v-15h-154v15q20 0 37.5 8t17.5 22v449q0 14 -17.5 22t-37.5 8v15h82l356 -416v371q0 30 -68 30v15h159z" />
    <glyph glyph-name="ncaron.sc" horiz-adv-x="602" 
d="M220 690l71 -89h24l71 89h-36l-47 -60l-47 60h-36zM573 539v-15q-20 0 -37.5 -8t-17.5 -22v-496h-11l-372 433v-386q0 -30 63 -30v-15h-154v15q20 0 37.5 8t17.5 22v449q0 14 -17.5 22t-37.5 8v15h82l356 -416v371q0 30 -68 30v15h159z" />
    <glyph glyph-name="ncommaaccent.sc" horiz-adv-x="602" 
d="M573 539v-15q-20 0 -37.5 -8t-17.5 -22v-496h-11l-372 433v-386q0 -30 63 -30v-15h-154v15q20 0 37.5 8t17.5 22v449q0 14 -17.5 22t-37.5 8v15h82l356 -416v371q0 30 -68 30v15h159zM303 -31l-4 -21l-27 -59l11 -18l61 77v21h-41z" />
    <glyph glyph-name="eng.sc" horiz-adv-x="602" 
d="M414 539h159v-15q-20 0 -37.5 -8t-17.5 -22v-496q0 -57 -71 -88l-6 13q41 21 41 70q0 30 -25 63l-322 375v-386q0 -30 63 -30v-15h-154v15q20 0 37.5 8t17.5 22v449q0 14 -17.5 22t-37.5 8v15h82l356 -416v371q0 30 -68 30v15z" />
    <glyph glyph-name="ntilde.sc" horiz-adv-x="602" 
d="M200 622q13 54 58 54q27 0 55 -23t44 -23q3 0 6 0.5t5.5 2t4.5 2.5t4 3.5t3 4t3 5t2.5 4.5l2.5 5t2 5l15 -7q-13 -54 -58 -54q-28 0 -55.5 23t-42.5 23q-12 0 -19 -7t-15 -25zM573 539v-15q-20 0 -37.5 -8t-17.5 -22v-496h-11l-372 433v-386q0 -30 63 -30v-15h-154v15
q20 0 37.5 8t17.5 22v449q0 14 -17.5 22t-37.5 8v15h82l356 -416v371q0 30 -68 30v15h159z" />
    <glyph glyph-name="o.sc" horiz-adv-x="599" 
d="M288 -8q-111 0 -183 74.5t-72 198.5q0 134 83 208t194 74t183.5 -74.5t72.5 -198.5q0 -134 -83.5 -208t-194.5 -74zM304 22q81 0 134.5 57t53.5 181q0 122 -53 189.5t-144 67.5q-82 0 -135 -57.5t-53 -180.5q0 -122 53 -189.5t144 -67.5z" />
    <glyph glyph-name="oacute.sc" horiz-adv-x="599" 
d="M288 691l-40 -75l12 -22l87 97h-59zM288 -8q-111 0 -183 74.5t-72 198.5q0 134 83 208t194 74t183.5 -74.5t72.5 -198.5q0 -134 -83.5 -208t-194.5 -74zM304 22q81 0 134.5 57t53.5 181q0 122 -53 189.5t-144 67.5q-82 0 -135 -57.5t-53 -180.5q0 -122 53 -189.5
t144 -67.5z" />
    <glyph glyph-name="ocircumflex.sc" horiz-adv-x="599" 
d="M214 601l65 89h36l65 -89h-27l-56 60l-56 -60h-27zM288 -8q-111 0 -183 74.5t-72 198.5q0 134 83 208t194 74t183.5 -74.5t72.5 -198.5q0 -134 -83.5 -208t-194.5 -74zM304 22q81 0 134.5 57t53.5 181q0 122 -53 189.5t-144 67.5q-82 0 -135 -57.5t-53 -180.5
q0 -122 53 -189.5t144 -67.5z" />
    <glyph glyph-name="odieresis.sc" horiz-adv-x="599" 
d="M245 658q12 0 20.5 -8.5t8.5 -20.5t-7.5 -19.5t-20.5 -7.5q-12 0 -20.5 8t-8.5 21q0 12 7.5 19.5t20.5 7.5zM344 658q12 0 20.5 -8.5t8.5 -20.5q0 -27 -28 -27q-12 0 -20.5 8.5t-8.5 20.5q0 11 8 19t20 8zM288 -8q-111 0 -183 74.5t-72 198.5q0 134 83 208t194 74
t183.5 -74.5t72.5 -198.5q0 -134 -83.5 -208t-194.5 -74zM304 22q81 0 134.5 57t53.5 181q0 122 -53 189.5t-144 67.5q-82 0 -135 -57.5t-53 -180.5q0 -122 53 -189.5t144 -67.5z" />
    <glyph glyph-name="ograve.sc" horiz-adv-x="599" 
d="M302 691h-59l87 -97l12 22zM288 -8q-111 0 -183 74.5t-72 198.5q0 134 83 208t194 74t183.5 -74.5t72.5 -198.5q0 -134 -83.5 -208t-194.5 -74zM304 22q81 0 134.5 57t53.5 181q0 122 -53 189.5t-144 67.5q-82 0 -135 -57.5t-53 -180.5q0 -122 53 -189.5t144 -67.5z" />
    <glyph glyph-name="ohungarumlaut.sc" horiz-adv-x="599" 
d="M256 691l-20 -75l12 -22l58 97h-50zM336 691l-20 -75l12 -22l57 97h-49zM288 -8q-111 0 -183 74.5t-72 198.5q0 134 83 208t194 74t183.5 -74.5t72.5 -198.5q0 -134 -83.5 -208t-194.5 -74zM304 22q81 0 134.5 57t53.5 181q0 122 -53 189.5t-144 67.5q-82 0 -135 -57.5
t-53 -180.5q0 -122 53 -189.5t144 -67.5z" />
    <glyph glyph-name="omacron.sc" horiz-adv-x="599" 
d="M219 639h161l-6 -28h-161zM288 -8q-111 0 -183 74.5t-72 198.5q0 134 83 208t194 74t183.5 -74.5t72.5 -198.5q0 -134 -83.5 -208t-194.5 -74zM304 22q81 0 134.5 57t53.5 181q0 122 -53 189.5t-144 67.5q-82 0 -135 -57.5t-53 -180.5q0 -122 53 -189.5t144 -67.5z" />
    <glyph glyph-name="oslash.sc" horiz-adv-x="599" 
d="M495 471q71 -77 71 -197q0 -134 -83.5 -208t-194.5 -74q-98 0 -166 59l-47 -53h-32l62 69q-72 75 -72 198q0 134 83 208t194 74q99 0 168 -60l46 52h32zM107 279q0 -103 38 -167l296 334q-52 71 -146 71q-82 0 -135 -57.5t-53 -180.5zM304 22q81 0 134.5 57t53.5 181
q0 100 -37 165l-297 -333q53 -70 146 -70z" />
    </font>
</defs>
</svg>
