<?xml version="1.0" standalone="no"?>
<!DOCTYPE svg PUBLIC "-//W3C//DTD SVG 1.1//EN" "http://www.w3.org/Graphics/SVG/1.1/DTD/svg11.dtd" >
<svg>
<metadata>
Created by FontForge 20090622 at Sat Jul  4 05:54:47 2020
 By deploy user
&#194;&#169; 2016 Paulo Goode
</metadata>
<defs>
<font id="Fnord-Twenty-ThreeItalic" horiz-adv-x="0" >
  <font-face 
    font-family="Fnord Twenty-Three"
    font-weight="400"
    font-style="italic"
    font-stretch="normal"
    units-per-em="1000"
    panose-1="0 0 5 0 0 0 0 0 0 0"
    ascent="800"
    descent="-200"
    x-height="414"
    cap-height="650"
    bbox="-580 -294 1210 782"
    underline-thickness="50"
    underline-position="-50"
    slope="-5"
    unicode-range="U+0020-U+FB02"
  />
<missing-glyph horiz-adv-x="716" 
d="M358 -8q-138 0 -235.5 97.5t-97.5 235.5t97.5 235.5t235.5 97.5t235.5 -97.5t97.5 -235.5t-97.5 -235.5t-235.5 -97.5zM234 50q106 -43 167 49q36 58 22 113.5t-74 102.5q-23 18 -34 28t-28 31t-23.5 46.5t-4.5 57.5q4 61 38 97.5t79 48.5v3q-139 4 -230 -86t-91 -218
q0 -98 54 -171t125 -102zM340 22q140 -4 230 87t90 217q0 96 -54 170.5t-126 103.5q-107 41 -167 -50q-21 -31 -25 -64t15 -73t65 -77q29 -23 44.5 -38.5t31.5 -50t13 -75.5q-4 -58 -37.5 -96.5t-79.5 -50.5v-3zM375 567q-14 -22 -13 -39q1 -13 21 -33q7 5 10 10
q12 17 -2 43q-8 16 -16 19zM355 419q5 -20 17.5 -33.5t23 -19.5t28.5 -13q20 -8 37 -9q30 -2 45 9q7 6 9 19q2 18 7 23q4 4 19 8q7 2 16 11q14 17 0 56q-14 37 -41 61q-25 22 -51 22q-24 0 -41 -18q-8 -8 -13 -21q-1 -2 -2.5 -6.5t-3 -8.5t-2.5 -6q-1 -1 -6.5 -3.5
t-10.5 -5.5q-14 -8 -20 -16q-10 -12 -12 -29q-2 -11 1 -20zM507 449q8 2 13 9l5 -4l-17 -21q-2 5 -7 5l-47 -3v-3l24 -20q3 -2 10 7l4 -4l-20 -24l-4 4q4 6 2 8l-55 46q-2 2 -7 -4l-5 4l18 21l5 -4q-6 -6 -3 -8l22 -18l-3 39q0 6 -4 2l-5 4l18 21l5 -4q-6 -6 -6 -14l3 -42z
M223 95l-57 119l88 92l115 -56l-13 -132zM237 121l98 18l9 96l-84 42l-65 -68z" />
    <glyph glyph-name="fi" unicode="fi" horiz-adv-x="482" 
d="M387 44q-1 -10 9 -14.5t24 -3t26 7.5l-2 -12q-48 -30 -84 -30q-21 0 -31 14.5t-8 36.5l27 309q3 37 -29 37h-138l-34 -386q-15 -164 -117 -164q-41 0 -59 21t-15 45q2 29 28 29q14 0 23.5 -7t8.5 -23q-1 -9 -6.5 -17.5t-5.5 -11.5q0 -16 26 -16q22 0 31.5 16t13.5 58
l41 456h-51l8 25h45l5 63q7 83 53 132t112 49q59 0 90.5 -38t29.5 -70q-2 -15 -12.5 -25.5t-25.5 -10.5q-16 0 -26 10.5t-8 27.5q1 11 6 21.5t6 15.5q0 6 -2 12t-7.5 14.5t-19 14t-34.5 5.5q-37 0 -61 -19.5t-28 -58.5l-13 -143h202q34 0 31 -37z" />
    <glyph glyph-name="fl" unicode="fl" horiz-adv-x="478" 
d="M387 44q-1 -10 9 -14.5t24 -3t26 7.5l-2 -12q-48 -30 -84 -30q-21 0 -31 14.5t-8 36.5l46 525q2 25 -15.5 45.5t-57.5 20.5t-67.5 -25t-31.5 -68l-11 -127h92l-2 -25h-92l-35 -386q-15 -164 -117 -164q-41 0 -59 21t-15 45q2 29 28 29q14 0 23.5 -7t8.5 -23
q-1 -9 -6.5 -17.5t-5.5 -11.5q0 -16 26 -16q22 0 31.5 16t13.5 58l41 456h-51l8 25h45l4 51q8 84 56 138.5t119 54.5q49 0 79 -28q20 7 35 7q27 0 25 -31z" />
    <glyph glyph-name="f_f" unicode="ff" horiz-adv-x="566" 
d="M499 658q42 0 62.5 -23.5t20.5 -50.5q-1 -18 -11 -29t-26 -11q-14 0 -24 9t-10 26q1 13 8 25t7 16q0 18 -26 18q-28 0 -42.5 -22.5t-19.5 -74.5l-11 -127h82l-8 -25h-76l-34 -386q-15 -164 -117 -164q-41 0 -59 21t-15 45q2 29 28 29q14 0 23.5 -7t8.5 -23
q-1 -9 -6.5 -17.5t-5.5 -11.5q0 -16 26 -16q22 0 31.5 16t13.5 58l40 456h-177l-35 -386q-15 -164 -117 -164q-41 0 -59 21t-15 45q2 29 28 29q14 0 23.5 -7t8.5 -23q-1 -9 -6.5 -17.5t-5.5 -11.5q0 -16 26 -16q22 0 31.5 16t13.5 58l40 456h-50l8 25h44l3 31q8 84 56 138.5
t119 54.5q69 0 98 -54q35 74 106 74zM353 414l12 122q1 16 -2 31.5t-21 31t-50 15.5q-40 0 -67.5 -25t-31.5 -68l-9 -107h169z" />
    <glyph glyph-name="f_f_i" unicode="ffi" horiz-adv-x="718" 
d="M65 389l8 25h44l3 31q8 84 56 138.5t119 54.5q67 0 98 -51q49 71 130 71q59 0 91 -38t30 -70q-2 -15 -13 -25.5t-25 -10.5q-17 0 -26.5 10.5t-8.5 27.5q1 11 6.5 21.5t6.5 15.5q0 8 -3 17t-18.5 19t-41.5 10q-37 0 -61.5 -19.5t-28.5 -58.5l-12 -143h202q34 0 30 -37
l-29 -333q-1 -10 9.5 -14.5t24.5 -3t25 7.5l-1 -12q-48 -30 -85 -30q-20 0 -30.5 14t-8.5 37l27 310q3 36 -29 36h-137l-34 -386q-15 -164 -118 -164q-40 0 -58 21t-16 45q3 29 29 29q14 0 23.5 -7t7.5 -23q-1 -9 -6.5 -17.5t-5.5 -11.5q0 -16 27 -16q21 0 31 16t14 58
l40 456h-169l-35 -386q-15 -164 -117 -164q-41 0 -59 21t-15 45q2 29 28 29q14 0 23.5 -7t8.5 -23q-1 -9 -6.5 -17.5t-5.5 -11.5q0 -16 26 -16q22 0 31.5 16t13.5 58l40 456h-50zM184 414h169l10 114q2 16 -1 33.5t-20.5 35t-49.5 17.5q-40 0 -67.5 -25t-31.5 -68z" />
    <glyph glyph-name="f_f_l" unicode="ffl" horiz-adv-x="714" 
d="M623 44q-1 -10 9 -14.5t24 -3t25 7.5l-1 -12q-48 -30 -85 -30q-21 0 -30.5 14t-7.5 37l45 525q2 25 -15 45.5t-57 20.5t-67.5 -25t-31.5 -68l-12 -127h93l-3 -25h-92l-34 -386q-15 -164 -118 -164q-40 0 -58 21t-16 45q3 29 29 29q14 0 23.5 -7t7.5 -23q-1 -9 -6.5 -17.5
t-5.5 -11.5q0 -16 27 -16q21 0 31 16t14 58l40 456h-169l-35 -386q-15 -164 -117 -164q-41 0 -59 21t-15 45q2 29 28 29q14 0 23.5 -7t8.5 -23q-1 -9 -6.5 -17.5t-5.5 -11.5q0 -16 26 -16q22 0 31.5 16t13.5 58l40 456h-50l8 25h44l3 31q8 84 56 138.5t119 54.5t101 -58
q53 78 137 78q49 0 79 -28q18 7 35 7q27 0 25 -31zM184 414h169l11 122q2 16 -1 31.5t-21 31t-50 15.5q-40 0 -67.5 -25t-31.5 -68z" />
    <glyph glyph-name=".notdef" horiz-adv-x="716" 
d="M358 -8q-138 0 -235.5 97.5t-97.5 235.5t97.5 235.5t235.5 97.5t235.5 -97.5t97.5 -235.5t-97.5 -235.5t-235.5 -97.5zM234 50q106 -43 167 49q36 58 22 113.5t-74 102.5q-23 18 -34 28t-28 31t-23.5 46.5t-4.5 57.5q4 61 38 97.5t79 48.5v3q-139 4 -230 -86t-91 -218
q0 -98 54 -171t125 -102zM340 22q140 -4 230 87t90 217q0 96 -54 170.5t-126 103.5q-107 41 -167 -50q-21 -31 -25 -64t15 -73t65 -77q29 -23 44.5 -38.5t31.5 -50t13 -75.5q-4 -58 -37.5 -96.5t-79.5 -50.5v-3zM375 567q-14 -22 -13 -39q1 -13 21 -33q7 5 10 10
q12 17 -2 43q-8 16 -16 19zM355 419q5 -20 17.5 -33.5t23 -19.5t28.5 -13q20 -8 37 -9q30 -2 45 9q7 6 9 19q2 18 7 23q4 4 19 8q7 2 16 11q14 17 0 56q-14 37 -41 61q-25 22 -51 22q-24 0 -41 -18q-8 -8 -13 -21q-1 -2 -2.5 -6.5t-3 -8.5t-2.5 -6q-1 -1 -6.5 -3.5
t-10.5 -5.5q-14 -8 -20 -16q-10 -12 -12 -29q-2 -11 1 -20zM507 449q8 2 13 9l5 -4l-17 -21q-2 5 -7 5l-47 -3v-3l24 -20q3 -2 10 7l4 -4l-20 -24l-4 4q4 6 2 8l-55 46q-2 2 -7 -4l-5 4l18 21l5 -4q-6 -6 -3 -8l22 -18l-3 39q0 6 -4 2l-5 4l18 21l5 -4q-6 -6 -6 -14l3 -42z
M223 95l-57 119l88 92l115 -56l-13 -132zM237 121l98 18l9 96l-84 42l-65 -68z" />
    <glyph glyph-name=".null" 
 />
    <glyph glyph-name="nonmarkingreturn" horiz-adv-x="333" 
 />
    <glyph glyph-name="space" unicode=" " horiz-adv-x="234" 
 />
    <glyph glyph-name="exclam" unicode="!" horiz-adv-x="211" 
d="M83 141l32 2l72 535l-75 -31zM92 75q18 0 28.5 -13t8.5 -29q-2 -17 -14 -27.5t-28 -10.5q-18 0 -28.5 13t-8.5 29q1 17 13.5 27.5t28.5 10.5z" />
    <glyph glyph-name="quotedbl" unicode="&#x22;" horiz-adv-x="239" 
d="M104 675q5 14 21 14q14 0 22 -9.5t3 -18.5l-64 -155q-3 -6 -8 -6q-10 0 -6 9zM197 675q5 14 21 14q14 0 22 -9.5t3 -18.5l-64 -155q-3 -6 -8 -6q-10 0 -6 9z" />
    <glyph glyph-name="numbersign" unicode="#" horiz-adv-x="485" 
d="M448 367h-70l-56 -177h70l-7 -25h-71l-52 -165h-33l52 165h-148l-52 -165h-33l52 165h-69l7 25h70l56 177h-70l7 25h71l52 165h33l-52 -165h148l52 165h33l-52 -165h70zM289 190l56 177h-148l-56 -177h148z" />
    <glyph glyph-name="dollar" unicode="$" horiz-adv-x="454" 
d="M287 363q33 -19 51 -31.5t41 -35t32 -50t6 -61.5q-5 -63 -49 -115.5t-113 -69.5l-4 -50h-28l4 44q-22 -2 -33 -2h-9l-4 -42h-28l4 45q-61 9 -97.5 42.5t-33.5 71.5q2 21 14 34t29 13q15 0 24.5 -11.5t8.5 -28.5q-1 -12 -10 -19t-9 -14q-2 -17 19 -34t58 -24l27 314l-10 6
q-56 34 -80 69.5t-20 86.5q3 58 40 98.5t98 53.5l4 47h28l-4 -43q7 1 21 1t21 -1l4 43h28l-4 -47q49 -11 75.5 -39.5t24.5 -60.5q-2 -21 -13 -34.5t-28 -13.5q-16 0 -25.5 10.5t-8.5 26.5q2 11 10.5 20t9.5 16q3 28 -48 43zM254 628h-13l-20 -225q15 -10 40 -25l22 248
q-20 2 -29 2zM139 525q-2 -32 9.5 -55t45.5 -49l18 202q-65 -15 -73 -98zM199 22q11 0 31 2l24 277q-4 2 -18 10t-22 12l-27 -301h12zM353 158q3 44 -15.5 73t-57.5 54l-22 -254q86 27 95 127z" />
    <glyph glyph-name="percent" unicode="%" horiz-adv-x="606" 
d="M168 329q-49 0 -75.5 40.5t-19.5 118.5q7 85 45.5 125.5t82.5 40.5q49 0 75 -40.5t20 -117.5q-6 -85 -44.5 -126t-83.5 -41zM435 650h31l-277 -650h-31zM177 348q32 0 48 29.5t23 107.5q13 150 -56 150q-31 0 -48 -28.5t-23 -98.5q-13 -160 56 -160zM426 -4
q-49 0 -75.5 40.5t-19.5 118.5q7 85 45.5 125.5t82.5 40.5q49 0 75 -40.5t20 -117.5q-6 -85 -44.5 -126t-83.5 -41zM435 15q32 0 48 29.5t23 107.5q13 150 -56 150q-31 0 -48 -28.5t-23 -98.5q-13 -160 56 -160z" />
    <glyph glyph-name="ampersand" unicode="&#x26;" horiz-adv-x="547" 
d="M470 461q36 0 58.5 -21t18.5 -58q-7 -78 -131 -95q73 -33 65 -117q-6 -75 -72.5 -126.5t-161.5 -51.5q-94 0 -153.5 51.5t-51.5 137.5q6 68 51 116.5t105 66.5q-44 15 -65 54t-17 88q7 74 58.5 113t113.5 39q53 0 81 -29t24 -73q-2 -28 -15 -45.5t-34 -17.5q-32 0 -28 32
q2 17 18 30t17 25q1 17 -15 33.5t-51 16.5q-90 0 -102 -120q-11 -126 75 -129l-6 -25q-50 -4 -89 -45t-46 -116q-7 -77 28 -125.5t111 -48.5q67 0 108.5 38.5t47.5 107.5q4 45 -11 77t-55 32q-29 0 -44 -15.5t-17 -33.5q-1 -10 6.5 -24t6.5 -24q-1 -13 -10.5 -23.5
t-26.5 -10.5q-33 0 -30 47q5 46 37.5 76.5t84.5 30.5q77 0 110.5 20.5t36.5 62.5q4 56 -39 56q-20 0 -33 -10.5t-15 -24.5q0 -7 6 -17t5 -19q-2 -26 -29 -26q-28 0 -25 36q3 34 31.5 59t68.5 25z" />
    <glyph glyph-name="quotesingle" unicode="'" horiz-adv-x="146" 
d="M104 675q5 14 21 14q14 0 22 -9.5t3 -18.5l-64 -155q-3 -6 -8 -6q-10 0 -6 9z" />
    <glyph glyph-name="parenleft" unicode="(" horiz-adv-x="268" 
d="M274 659q-82 -72 -133 -178t-61 -221q-11 -123 21 -234.5t101 -183.5l10 21q-34 51 -55.5 177.5t-13.5 223.5q9 106 34.5 186t47 114t55.5 75z" />
    <glyph glyph-name="parenright" unicode=")" horiz-adv-x="268" 
d="M1 -160q82 72 133 178t61 221q11 123 -21 234.5t-101 183.5l-10 -21q34 -51 55.5 -177.5t13.5 -223.5q-9 -106 -34.5 -186t-47 -114t-55.5 -75z" />
    <glyph glyph-name="asterisk" unicode="*" horiz-adv-x="278" 
d="M265 615l10 -40l-7 -4q-12 6 -22 3t-44 -23q11 -33 16.5 -40.5t20.5 -10.5l2 -7l-37 -25l-5 5q3 15 -1.5 23t-31.5 31q-30 -23 -36 -31t-6 -23l-7 -5l-31 25l3 7q16 3 23 10.5t23 41.5q-29 21 -39 23.5t-24 -4.5l-5 4l16 40h8q5 -15 13.5 -18.5t45.5 -5.5q13 39 13.5 47
t-8.5 21l3 7h42l1 -7q-10 -11 -11.5 -21t3.5 -47q37 3 47 7t17 17h8zM177 571h-13l-5 -11l10 -7l11 7z" />
    <glyph glyph-name="plus" unicode="+" horiz-adv-x="325" 
d="M292 263l-3 -29h-111l-11 -124h-32l11 124h-112l3 29h111l11 124h32l-11 -124h112z" />
    <glyph glyph-name="comma" unicode="," horiz-adv-x="150" 
d="M96 34q5 -40 -13 -75t-59 -43l-1 10q23 8 35.5 27t9.5 33q-2 9 -14 9q-16 0 -25.5 12.5t-8.5 27.5q1 18 13 27.5t28 9.5q33 0 35 -38z" />
    <glyph glyph-name="hyphen" unicode="-" horiz-adv-x="297" 
d="M38 251h238l-12 -25h-237z" />
    <glyph glyph-name="period" unicode="." horiz-adv-x="146" 
d="M61 72q18 0 27.5 -12t7.5 -27q-1 -18 -13 -28t-27 -10q-18 0 -27.5 12t-8.5 28q1 18 13 27.5t28 9.5z" />
    <glyph glyph-name="slash" unicode="/" horiz-adv-x="334" 
d="M323 712h37l-329 -774h-37z" />
    <glyph glyph-name="zero" unicode="0" horiz-adv-x="504" 
d="M234 -8q-104 0 -154 88t-35 256q15 166 84 244t160 78q105 0 155 -88t35 -256q-15 -166 -84 -244t-161 -78zM252 23q55 0 97 60t55 211q15 173 -16.5 253t-115.5 80q-55 0 -97 -60t-55 -211q-15 -173 16.5 -253t115.5 -80z" />
    <glyph glyph-name="one" unicode="1" horiz-adv-x="277" 
d="M229 0h-216l1 11q78 0 81 28l44 504q1 7 -2.5 9.5t-9.5 0.5q-3 -1 -11.5 -5t-24 -12l-29.5 -15l-4 14q70 36 119 115h42q-8 -39 -11 -74l-47 -535q-3 -30 69 -30z" />
    <glyph glyph-name="two" unicode="2" horiz-adv-x="427" 
d="M367 142q18 0 27 -14t7 -30q-1 -12 -8 -27.5t-21 -34.5t-41.5 -31.5t-62.5 -12.5q-30 0 -62.5 10t-54.5 18.5t-59.5 5t-83.5 -26.5l-8 24q196 228 239 286q66 90 77 165l2 18q12 137 -93 137q-34 0 -61.5 -12.5t-29.5 -35.5q-1 -10 6 -21t7 -21q-1 -16 -12.5 -26
t-27.5 -10q-18 0 -27.5 13t-7.5 32q3 41 49.5 75.5t118.5 34.5q32 0 59 -8t49.5 -25t34 -49.5t7.5 -76.5q-2 -26 -8.5 -49.5t-22.5 -52.5t-28.5 -49t-44.5 -60l-52.5 -64.5l-70 -82.5l-80.5 -94q53 10 75.5 3.5t55.5 -20t59 -13.5q31 0 47.5 13.5t18.5 31.5q1 9 -5.5 21.5
t-5.5 23.5q1 17 12.5 26t26.5 9z" />
    <glyph glyph-name="three" unicode="3" horiz-adv-x="404" 
d="M163 21q62 0 98.5 38.5t42.5 104.5q6 73 -32 110.5t-122 62.5l1 11q82 23 116 51.5t40 94.5q10 135 -97 135q-38 0 -60.5 -14.5t-24.5 -34.5q0 -9 7 -19.5t6 -21.5q-1 -15 -12 -25.5t-27 -10.5q-19 0 -28.5 13.5t-7.5 31.5q4 40 50.5 75t111.5 35t111.5 -36t40.5 -108
q-10 -110 -136 -162q63 -20 102.5 -65t33.5 -110q-6 -72 -65.5 -128.5t-147.5 -56.5q-67 0 -110 31.5t-39 74.5q2 21 13.5 35t28.5 14q15 0 25 -10t9 -28q-1 -13 -10.5 -24t-9.5 -17q-2 -16 24.5 -31.5t67.5 -15.5z" />
    <glyph glyph-name="four" unicode="4" horiz-adv-x="434" 
d="M400 223l-7 -87h-11q2 29 -21 29h-46l-11 -124q-3 -30 55 -30l-2 -11h-176l1 11q54 0 57 26l12 128h-241l1 12l285 473h61l-40 -456h46q23 0 26 29h11zM60 194h193l35 384z" />
    <glyph glyph-name="five" unicode="5" horiz-adv-x="438" 
d="M241 422q80 0 126 -55.5t39 -139.5q-9 -98 -72.5 -166.5t-166.5 -68.5q-71 0 -112 35t-30 78q10 38 42 36q14 -1 23.5 -12t7.5 -28q-2 -11 -9 -19.5t-8 -10.5q-6 -10 4.5 -22t35.5 -20.5t56 -8.5q63 0 105.5 47t50.5 135q7 84 -23 137.5t-85 53.5q-43 0 -74.5 -23
t-48.5 -55l-42 13l70 322h282l-7 -16q-59 -22 -234 -22l-52 -239q44 49 122 49z" />
    <glyph glyph-name="six" unicode="6" horiz-adv-x="454" 
d="M252 422q74 0 125.5 -55t43.5 -150q-9 -97 -73 -161t-146 -64q-89 0 -131.5 75.5t-33.5 186.5q13 154 109 262.5t225 141.5l7 -19q-83 -29 -151.5 -94.5t-101.5 -174.5q55 52 127 52zM348 194q9 97 -24 148t-90 51q-66 0 -119 -67q-6 -26 -11 -72q-9 -101 18 -167t96 -66
q54 0 88.5 43.5t41.5 129.5z" />
    <glyph glyph-name="seven" unicode="7" horiz-adv-x="385" 
d="M401 650l4 -11q-44 -62 -80.5 -118.5t-62.5 -106l-45.5 -89t-33 -80.5l-22 -65t-13.5 -58.5t-7 -46t-4 -42.5t-2 -33h-67q9 103 25 163q51 191 233 455h-182q-57 -4 -93 -28l22 60h328z" />
    <glyph glyph-name="eight" unicode="8" horiz-adv-x="454" 
d="M294 370q68 -40 98.5 -79t25.5 -102q-7 -85 -70.5 -141t-148.5 -56q-79 0 -127.5 48.5t-41.5 126.5q5 66 48.5 121t105.5 82q-91 61 -84 141q6 65 57.5 106t117.5 41q64 0 100.5 -38.5t31.5 -93.5q-4 -46 -35.5 -87t-77.5 -69zM162 530q-4 -43 18 -74t77 -65l18 -10
q63 45 71 132q4 44 -18 80t-72 36q-43 0 -66.5 -27.5t-27.5 -71.5zM348 165q3 39 -3 66t-28 49.5t-44 37.5t-67 40q-98 -61 -106 -167q-7 -75 26.5 -122.5t94.5 -47.5q47 0 83.5 33t43.5 111z" />
    <glyph glyph-name="nine" unicode="9" horiz-adv-x="454" 
d="M268 658q93 0 135.5 -75.5t33.5 -186.5q-12 -152 -114.5 -262t-236.5 -142l-7 19q42 14 80 35.5t76 54t68.5 81.5t47.5 109q-51 -44 -117 -44q-79 0 -133.5 55t-45.5 151q8 93 70.5 149t142.5 56zM248 276q63 0 112 51q7 27 10 69q6 66 -1.5 115.5t-37 83.5t-80.5 34
q-109 0 -122 -155q-9 -97 26 -147.5t93 -50.5z" />
    <glyph glyph-name="colon" unicode=":" horiz-adv-x="163" 
d="M95 368q18 0 27.5 -12t7.5 -27q-1 -18 -13 -28t-27 -10q-18 0 -27.5 12t-8.5 28q1 18 13 27.5t28 9.5zM69 72q18 0 27.5 -12t7.5 -27q-1 -18 -13 -28t-27 -10q-18 0 -27.5 12t-8.5 28q1 18 13 27.5t28 9.5z" />
    <glyph glyph-name="semicolon" unicode=";" horiz-adv-x="167" 
d="M96 369q18 0 27.5 -12t7.5 -27q-1 -18 -13 -28t-27 -10q-18 0 -27.5 12t-8.5 28q1 18 13 27.5t28 9.5zM105 34q5 -40 -13 -75t-59 -43l-1 10q23 8 35.5 27t9.5 33q-2 9 -14 9q-16 0 -25.5 12.5t-8.5 27.5q1 18 13 27.5t28 9.5q33 0 35 -38z" />
    <glyph glyph-name="less" unicode="&#x3c;" horiz-adv-x="310" 
d="M285 371l-2 -36l-219 -88l203 -89l-4 -36l-240 108l3 33z" />
    <glyph glyph-name="equal" unicode="=" horiz-adv-x="325" 
d="M42 313h255l-3 -29h-255zM33 213h255l-3 -29h-255z" />
    <glyph glyph-name="greater" unicode="&#x3e;" horiz-adv-x="310" 
d="M47 371l240 -108l-3 -33l-259 -108l3 36l218 88l-203 89z" />
    <glyph glyph-name="question" unicode="?" horiz-adv-x="377" 
d="M193 177l-18 -33q-60 0 -67.5 38t54.5 102q14 14 45 41t43 41t25.5 44t16.5 69q7 77 -21.5 114.5t-76.5 39.5q-34 1 -57 -13t-25 -30q0 -8 10.5 -19t9.5 -27q-1 -17 -12 -27.5t-28 -10.5q-18 0 -28 14.5t-8 34.5q2 32 37.5 67.5t107.5 35.5q80 0 126.5 -44t39.5 -123
q-3 -33 -15 -61t-32 -50.5t-37 -37t-43 -34t-37 -28.5q-84 -70 -10 -103zM143 75q18 0 28.5 -13t8.5 -29q-1 -17 -13.5 -27.5t-28.5 -10.5q-18 0 -28.5 13t-8.5 29q1 17 13.5 27.5t28.5 10.5z" />
    <glyph glyph-name="at" unicode="@" horiz-adv-x="869" 
d="M509 595q59 0 110.5 -16t87.5 -43t64 -63.5t41 -77.5t18.5 -84.5t-3.5 -85.5q-17 -92 -80.5 -161.5t-158.5 -69.5q-66 0 -77 40q-42 -42 -108 -42q-83 0 -127 60.5t-28 154.5q16 97 81 156t143 59q68 0 100 -39l35 13h21l-51 -318q-5 -34 1.5 -44.5t24.5 -10.5
q58 0 100 41.5t60 120.5q8 36 8 76.5t-8 83.5t-29 82t-52.5 70.5t-81.5 50t-113 18.5q-143 0 -249 -93t-132 -237q-20 -107 14 -196.5t108.5 -140t170.5 -50.5q90 0 174 40l11 -25q-82 -44 -201 -44q-168 0 -268.5 106.5t-71.5 280.5q29 176 166.5 282t299.5 106zM423 20
q51 0 86 45q0 1 0.5 3t0.5 3l44 274q-5 22 -27.5 37.5t-57.5 15.5q-54 0 -94.5 -45.5t-54.5 -120.5q-15 -85 12 -148.5t91 -63.5z" />
    <glyph glyph-name="A" unicode="A" horiz-adv-x="581" 
d="M506 33q9 -22 45 -22l-1 -11h-159l1 11q18 0 30 6t10 16l-48 189h-219l-77 -188q-5 -11 13 -17t45 -6l-1 -11h-150l2 11q43 0 52 19l264 628l22 7zM177 251h199l-77 293z" />
    <glyph glyph-name="B" unicode="B" horiz-adv-x="492" 
d="M353 346q46 -13 78.5 -48.5t26.5 -101.5q-7 -86 -62 -141t-145 -55h-228l1 11q53 0 56 28l50 570q1 14 -15 22t-35 8l1 11h226q23 0 46 -5.5t48 -19t38.5 -43t9.5 -70.5q-4 -52 -27 -98.5t-69 -67.5zM278 625q-57 0 -78 -7l-23 -265h103q90 0 101 153q10 119 -103 119z
M243 25q130 0 142 163q6 72 -25.5 104t-74.5 32h-111l-25 -290q36 -9 94 -9z" />
    <glyph glyph-name="C" unicode="C" horiz-adv-x="593" 
d="M532 107l10 -19q-35 -49 -93 -72.5t-119 -23.5q-126 0 -210.5 91.5t-72.5 231.5q14 157 115.5 250t226.5 93q61 0 115 -22q42 -18 52 5l11 -5l-41 -136l-11 4q9 44 5 65t-23 32q-40 25 -116 25q-108 0 -176.5 -81t-82.5 -213q-14 -131 54.5 -219.5t174.5 -88.5
q52 0 101.5 22t79.5 61z" />
    <glyph glyph-name="D" unicode="D" horiz-adv-x="624" 
d="M341 650q51 0 98.5 -21t86 -59t58.5 -99.5t14 -135.5q-8 -89 -43.5 -163t-103.5 -123t-156 -49h-272l1 11q19 0 37 8t19 22l50 568q1 14 -15 22t-35 8l1 11h260zM266 25q56 0 99.5 17t71 43.5t46 66t27 78.5t12.5 86q12 139 -46.5 224t-178.5 85q-57 0 -97 -8l-51 -583
q58 -9 117 -9z" />
    <glyph glyph-name="E" unicode="E" horiz-adv-x="474" 
d="M421 93l12 -4l-28 -89h-381l1 11q19 0 37.5 8t19.5 22l49 568q1 14 -16 22t-36 8l1 11h360l28 -90l-12 -3q-24 64 -71 64h-184l-23 -270h159q14 0 23.5 19t11.5 48h11l-14 -162h-11q5 66 -23 66h-159l-26 -293h205q25 0 38.5 14.5t27.5 49.5z" />
    <glyph glyph-name="F" unicode="F" horiz-adv-x="452" 
d="M429 650l27 -90l-12 -3q-24 64 -70 64h-173l-24 -287h129q14 0 24.5 19t12.5 48h11l-14 -162h-11q3 29 -4 47.5t-22 18.5h-129l-23 -264q-1 -14 21 -22t48 -8l-1 -11h-196l1 11q19 0 38 8t20 22l49 568q1 14 -15.5 22t-35.5 8l1 11h348z" />
    <glyph glyph-name="G" unicode="G" horiz-adv-x="638" 
d="M617 296q-36 -2 -39 -30l-13 -144q-1 -28 6 -45q-104 -85 -243 -85q-132 0 -212 87.5t-70 234.5q10 154 109 249t244 95q68 0 138 -31q20 -10 31 12h12l-12 -131l-10 5q1 57 -48 85t-119 28q-116 0 -189 -75.5t-82 -226.5q-9 -145 56 -222.5t169 -77.5q86 0 150 40
l16 180q2 25 -20 38t-57 14l1 11h183z" />
    <glyph glyph-name="H" unicode="H" horiz-adv-x="656" 
d="M652 639q-20 0 -38.5 -8t-19.5 -22l-50 -568q-1 -14 15.5 -22t36.5 -8l-1 -11h-169l1 11q45 0 48 30l26 288h-324l-26 -288q-1 -15 11.5 -22.5t30.5 -7.5l-1 -11h-169l1 11q20 0 38.5 8t19.5 22l50 568q1 14 -16 22t-37 8l1 11h169l-1 -11q-44 0 -47 -30l-22 -251h324
l22 251q1 15 -11.5 22.5t-30.5 7.5l1 11h169z" />
    <glyph glyph-name="I" unicode="I" horiz-adv-x="245" 
d="M241 639q-16 0 -32 -8t-17 -22l-50 -568q-1 -14 12.5 -22t29.5 -8l-2 -11h-159l1 11q17 0 32.5 8t16.5 22l50 568q1 14 -12.5 22t-29.5 8l1 11h160z" />
    <glyph glyph-name="J" unicode="J" horiz-adv-x="251" 
d="M250 650l-1 -11q-17 0 -33 -8t-17 -22l-47 -535q-6 -73 -44.5 -120t-121.5 -100l-3 12q48 38 70 79t26 96l50 566q1 15 -13 23.5t-30 8.5l1 11h163z" />
    <glyph glyph-name="K" unicode="K" horiz-adv-x="627" 
d="M495 61q40 -50 107 -50l-1 -11h-166q10 18 1 33l-229 286l-34 -31l-22 -247q-1 -15 18.5 -22.5t45.5 -7.5l-2 -11h-190l1 11q20 0 38.5 8t19.5 22l50 568q1 14 -16 22t-37 8l1 11h169l-1 -11q-44 0 -47 -30l-24 -275l291 273q10 12 4 22t-19 10l1 11h150l-1 -11
q-50 0 -88 -31l-259 -245z" />
    <glyph glyph-name="L" unicode="L" horiz-adv-x="462" 
d="M411 93l11 -4l-28 -89h-371l1 11q20 0 38.5 8t19.5 22l49 568q1 14 -15 22t-36 8l1 11h189l-2 -11q-25 0 -46 -7.5t-22 -22.5l-50 -580h194q24 0 38.5 15t28.5 49z" />
    <glyph glyph-name="M" unicode="M" horiz-adv-x="773" 
d="M674 36q0 -10 18 -17.5t37 -7.5l-1 -11h-176l2 11q18 0 35.5 6.5t18.5 17.5l11 504l-259 -542h-13l-167 523l-75 -475q-3 -16 15.5 -25t44.5 -9l-1 -11h-155l1 11q20 0 38.5 8.5t21.5 23.5l92 566q2 14 -17.5 22t-46.5 8l1 11h111l171 -537l256 537h119l-1 -11
q-26 0 -46.5 -8.5t-21.5 -24.5z" />
    <glyph glyph-name="N" unicode="N" horiz-adv-x="669" 
d="M671 650l-1 -11q-19 0 -36.5 -8t-18.5 -22l-54 -613h-14l-387 540l-44 -495q-3 -30 71 -30l-1 -11h-163l1 11q20 0 38 8t19 22l50 568q1 14 -15.5 22t-36.5 8l2 11h84l372 -519l42 478q3 30 -70 30l1 11h161z" />
    <glyph glyph-name="O" unicode="O" horiz-adv-x="681" 
d="M315 -8q-125 0 -203 90t-66 233q13 158 112.5 250.5t228.5 92.5q126 0 203 -90t65 -232q-13 -159 -112.5 -251.5t-227.5 -92.5zM332 24q101 0 169.5 75t80.5 226q11 135 -46 218t-166 83q-98 0 -168 -73t-83 -227q-11 -136 46.5 -219t166.5 -83z" />
    <glyph glyph-name="P" unicode="P" horiz-adv-x="486" 
d="M286 650q75 0 131.5 -47t50.5 -126q-8 -95 -91.5 -170t-210.5 -75l-17 -191q-1 -15 17 -22.5t44 -7.5l-2 -11h-185l2 11q19 0 36.5 8t18.5 22l50 568q1 14 -15 22t-35 8l1 11h205zM393 464q5 59 -29 110t-107 51q-29 0 -57 -7l-32 -359q60 0 105 19t69 51.5t36 65.5
t15 69z" />
    <glyph glyph-name="Q" unicode="Q" horiz-adv-x="697" 
d="M709 -57q120 -66 251 -80.5t238 32.5l-1 -11q-111 -58 -256 -52t-265 68q-27 13 -57 33t-46 32l-51 40l-41 33q-78 -46 -166 -46q-125 0 -203 90t-66 233q13 158 112.5 250.5t228.5 92.5q126 0 203 -90t65 -232q-14 -175 -135 -272l85 -56t104 -65zM332 24q69 0 122 34
q-93 69 -148 41l2 12q55 46 179 -27q82 77 95 241q11 135 -46 218t-166 83q-98 0 -168 -73t-83 -227q-11 -136 46.5 -219t166.5 -83z" />
    <glyph glyph-name="R" unicode="R" horiz-adv-x="584" 
d="M468 61q36 -50 91 -50l-1 -11h-151q14 18 2 36l-146 226q-42 -8 -94 -10l-20 -211q-1 -15 16.5 -22.5t43.5 -7.5l-1 -11h-185l1 11q19 0 37 8t19 22l50 568q1 14 -15 22t-36 8l1 11h207q84 0 137.5 -43t47.5 -115q-6 -69 -46.5 -124t-101.5 -86zM200 618l-29 -337
q106 2 161.5 51.5t64.5 153.5q6 64 -28.5 101.5t-109.5 37.5q-33 0 -59 -7z" />
    <glyph glyph-name="S" unicode="S" horiz-adv-x="460" 
d="M201 -8q-30 0 -55 7t-39 15l-25.5 14.5t-20.5 5.5t-19 -12l-10 5l43 140l11 -5q-11 -64 18.5 -101.5t99.5 -37.5q130 0 140 128q3 32 -5 58t-29 47.5t-36 33t-48 31.5t-42 26q-49 32 -73.5 67.5t-19.5 88.5q7 72 57 113.5t122 41.5q29 0 56 -7.5t40 -14.5t24 -6t19 14
l10 -4l-37 -121l-9 4q9 50 -22.5 77t-87.5 27q-52 0 -78 -24.5t-31 -77.5q-2 -21 2.5 -37.5t10 -27.5t27.5 -29t35.5 -27l54.5 -36q43 -28 67.5 -49.5t44.5 -59t16 -80.5q-7 -79 -65 -133t-146 -54z" />
    <glyph glyph-name="T" unicode="T" horiz-adv-x="555" 
d="M565 560l-12 -3q-22 64 -71 64h-133l-54 -580q-1 -10 11 -17t28.5 -10t33.5 -3l-2 -11h-217l1 11q28 0 51.5 8t24.5 22l54 580h-144q-47 0 -72 -64l-12 3l30 97q5 -5 21 -7h409q16 1 23 7z" />
    <glyph glyph-name="U" unicode="U" horiz-adv-x="626" 
d="M629 650l-1 -11q-19 0 -37 -8t-19 -22l-37 -427q-8 -93 -77.5 -141.5t-163.5 -48.5q-96 0 -154.5 52t-49.5 149l37 416q1 14 -15.5 22t-36.5 8l1 11h177l-1 -11q-19 0 -37 -8t-19 -22l-36 -407q-8 -91 33.5 -134.5t113.5 -43.5q74 0 128 41.5t59 104.5l39 439
q1 14 -15 22t-36 8l2 11h145z" />
    <glyph glyph-name="V" unicode="V" horiz-adv-x="573" 
d="M585 650l-2 -11q-39 0 -60 -44l-253 -602h-14l-144 607q-5 17 -18.5 28t-28.5 11l1 11h105l121 -532l199 487q6 15 -12 24.5t-50 9.5l1 11h155z" />
    <glyph glyph-name="W" unicode="W" horiz-adv-x="854" 
d="M866 650l-1 -11q-39 0 -52 -30l-241 -616h-15l-108 450l-176 -450h-15l-149 618q-9 28 -44 28l1 11h102l123 -527l143 379l-26 109q-8 28 -62 28l1 11h120l122 -527l184 485q5 14 -13.5 22.5t-50.5 8.5l1 11h156z" />
    <glyph glyph-name="X" unicode="X" horiz-adv-x="588" 
d="M473 40q15 -29 66 -29l-1 -11h-167l1 11q17 0 25.5 7.5t2.5 21.5l-118 255l-165 -252q-9 -14 0.5 -23t27.5 -9l-2 -11h-129l1 11q40 0 60 27l191 288l-131 281q-18 32 -63 32l1 11h165l-1 -11q-19 0 -28 -9.5t-3 -19.5l110 -238l153 235q9 14 0 23t-27 9l1 11h145l-1 -11
q-55 0 -78 -31l-178 -268z" />
    <glyph glyph-name="Y" unicode="Y" horiz-adv-x="546" 
d="M558 650l-2 -11q-29 0 -50 -32l-191 -297l-23 -269q-1 -14 20.5 -22t49.5 -8l-1 -11h-214v11q28 0 51.5 8t24.5 22l23 261l-144 315q-12 22 -37 22l1 11h94l141 -312l173 271q7 12 -6 21t-32 9l1 11h121z" />
    <glyph glyph-name="Z" unicode="Z" horiz-adv-x="477" 
d="M470 650v-6l-371 -615h253q44 0 71 64l11 -3l-34 -90h-386l1 6l371 615h-216q-46 0 -71 -64l-12 3l34 90h349z" />
    <glyph glyph-name="bracketleft" unicode="[" horiz-adv-x="247" 
d="M240 639h-82l-63 -720h83l6 -28h-110q-16 0 -26 -7l68 789q10 -7 26 -7h110z" />
    <glyph glyph-name="backslash" unicode="\" horiz-adv-x="470" 
d="M99 712l329 -774h-37l-329 774h37z" />
    <glyph glyph-name="bracketright" unicode="]" horiz-adv-x="247" 
d="M83 639l-7 27h110q15 0 27 7l-70 -789q-11 7 -25 7h-110l11 28h83l63 720h-82z" />
    <glyph glyph-name="asciicircum" unicode="^" horiz-adv-x="321" 
d="M313 455h-47l-68 176l-99 -176h-47l131 212h35z" />
    <glyph glyph-name="underscore" unicode="_" horiz-adv-x="525" 
d="M13 -39h455l-2 -24h-455z" />
    <glyph glyph-name="grave" unicode="`" horiz-adv-x="179" 
d="M137 782h-55l95 -99l12 19z" />
    <glyph glyph-name="a" unicode="a" horiz-adv-x="436" 
d="M401 33l2 -12q-62 -29 -88 -29q-23 0 -29 35q-41 -35 -102 -35q-81 0 -126 62t-34 157q10 91 65 151t139 60q54 0 91 -28l24 20h39l-32 -359q-1 -15 3 -21.5t18 -6.5q15 0 30 6zM286 57l27 307q-31 34 -79 34q-63 0 -100.5 -55.5t-42.5 -142.5q-5 -83 27 -133.5t84 -50.5
t84 41z" />
    <glyph glyph-name="b" unicode="b" horiz-adv-x="434" 
d="M244 422q77 0 121.5 -54.5t36.5 -145.5q-9 -99 -62.5 -164.5t-147.5 -65.5q-69 0 -104 36t-30 92l42 483q1 16 -10.5 21.5t-31.5 -0.5l-3 12l53 16q21 6 32 6q30 0 28 -31l-21 -238q37 33 97 33zM194 17q69 0 100 49t39 140q7 88 -21 140t-82 52q-52 0 -86 -46l-26 -287
q5 -20 27 -34t49 -14z" />
    <glyph glyph-name="c" unicode="c" horiz-adv-x="384" 
d="M334 84l5 -17q-46 -75 -143 -75q-84 0 -127.5 59.5t-37.5 142.5q6 97 64.5 162.5t145.5 65.5q55 0 88 -27t33 -64q0 -22 -11.5 -32.5t-26.5 -10.5q-14 0 -23.5 9.5t-9.5 26.5q0 12 8 24q7 13 1 23q-10 27 -62 27q-125 0 -138 -194q-5 -81 25.5 -134t90.5 -53q70 0 118 67
z" />
    <glyph glyph-name="d" unicode="d" horiz-adv-x="446" 
d="M411 33l2 -12q-60 -29 -88 -29q-22 0 -29 35q-38 -35 -101 -35q-75 0 -119.5 55.5t-43.5 142.5q1 102 60.5 167t142.5 65q57 0 90 -33l18 213q3 35 -42 22l-3 11l50 16q23 7 38 7q28 0 26 -32l-50 -571q-2 -15 2 -21.5t19 -6.5q12 0 28 6zM101 206q-2 -80 28 -135t84 -55
q49 0 82 40l26 292q-8 21 -30 35.5t-51 14.5q-62 0 -100 -52t-39 -140z" />
    <glyph glyph-name="e" unicode="e" horiz-adv-x="395" 
d="M216 17q59 0 107 44l7 -17q-57 -52 -133 -52q-77 0 -125.5 61t-40.5 148q8 94 63 157.5t137 63.5q72 0 106 -55t26 -143h-261q-8 -91 21 -149t93 -58zM218 398q-46 0 -77 -45.5t-36 -104.5h193q8 60 -13 105t-67 45z" />
    <glyph glyph-name="f" unicode="f" horiz-adv-x="322" 
d="M255 658q42 0 62.5 -23.5t20.5 -50.5q-1 -18 -11 -29t-26 -11q-14 0 -24 9t-10 26q1 13 8 25t7 16q0 18 -26 18q-28 0 -42.5 -22.5t-19.5 -74.5l-11 -127h82l-8 -25h-76l-34 -386q-15 -164 -117 -164q-41 0 -59 21t-15 45q2 29 28 29q14 0 23.5 -7t8.5 -23
q-1 -9 -6.5 -17.5t-5.5 -11.5q0 -16 26 -16q22 0 31.5 16t13.5 58l40 456h-50l8 25h44l5 45q17 199 133 199z" />
    <glyph glyph-name="g" unicode="g" horiz-adv-x="395" 
d="M343 277q-4 -60 -48.5 -102t-113.5 -42q-34 0 -63 13l-26 -26q-13 -15 4 -22q18 -6 52 -15l57 -15t51 -17.5t44.5 -24t27.5 -32t9 -43.5q-5 -59 -57 -95t-134 -36q-65 0 -106.5 26.5t-37.5 70.5q3 35 29 61.5t64 35.5l3 -11q-46 -28 -49 -78q-3 -36 28.5 -58.5
t83.5 -22.5q51 0 77.5 25.5t29.5 59.5q2 25 -15.5 46t-47.5 35.5t-58 24.5t-57 17.5t-35 10.5q-21 10 -20.5 24.5t16.5 27.5l47 42q-57 45 -50 117q5 65 50 106.5t113 41.5q48 0 79 -26q25 48 69 48q15 0 25.5 -11t9.5 -25q-3 -34 -34 -34q-13 0 -21 8t-7 22q0 13 9 22
q-23 -7 -32 -46q40 -40 34 -103zM195 398q-72 0 -82 -110q-7 -60 15.5 -95t66.5 -35q74 0 84 108q5 60 -16.5 96t-67.5 36z" />
    <glyph glyph-name="h" unicode="h" horiz-adv-x="475" 
d="M48 0l53 602q1 16 -11 22t-32 0l-3 11l47 15q25 8 39 8q30 0 28 -33l-26 -286q77 83 158 83q54 0 80 -33t21 -92l-23 -253q-1 -10 9 -14.5t24 -3t26 7.5l-1 -12q-45 -30 -84 -30q-46 0 -39 52l20 232q5 51 -11 80.5t-53 29.5q-65 0 -130 -83l-26 -303h-66z" />
    <glyph glyph-name="i" unicode="i" horiz-adv-x="219" 
d="M128 494q-16 0 -24.5 10.5t-8.5 26.5q0 20 11.5 31t29.5 11q16 0 24.5 -10.5t8.5 -26.5q0 -20 -11.5 -31t-29.5 -11zM123 44q-1 -10 9.5 -14.5t24.5 -3t25 7.5l-1 -12q-15 -10 -40.5 -20t-44.5 -10q-23 0 -32 15.5t-7 35.5l27 295q3 26 -12.5 33.5t-38.5 -4.5l-5 12
l66 29q14 6 30 6q33 0 29 -37z" />
    <glyph glyph-name="j" unicode="j" horiz-adv-x="192" 
d="M123 494q-33 0 -33 38q0 19 11.5 30t27.5 11q34 0 34 -38q0 -19 -11.5 -30t-28.5 -11zM118 414q34 0 30 -37l-33 -376q-6 -64 -38 -105t-93 -76l-4 11q33 27 47 60.5t20 83.5l31 363q2 23 -8.5 31t-33.5 1l-5 12l59 26q16 6 28 6z" />
    <glyph glyph-name="k" unicode="k" horiz-adv-x="419" 
d="M361 19q21 0 39 15l-1 -12q-24 -30 -67 -30q-11 0 -22 3t-22 11.5l-19.5 15.5t-20 22.5t-18.5 26t-19.5 31.5t-19 33l-20.5 37.5l-21 37.5l2 22q74 0 112 24.5t43 65.5q4 30 -10.5 51.5t-35.5 21.5q-25 0 -59 -26.5t-61 -61.5l-27 -307h-66l53 602q1 16 -11 22t-32 0
l-3 11l54 17q19 6 33 6q30 0 27 -39l-24 -275q27 32 63.5 55t73.5 23q41 0 68.5 -25.5t23.5 -67.5q-6 -51 -54 -81.5t-102 -30.5l27 -48.5l25 -44l21 -35.5t20 -30.5t17 -21t17 -14.5t16 -4z" />
    <glyph glyph-name="l" unicode="l" horiz-adv-x="210" 
d="M118 45q-1 -10 9 -14.5t24 -3.5t26 7l-1 -12q-49 -30 -85 -30q-44 0 -38 51l48 559q1 16 -11 22.5t-32 -0.5l-3 11l48 15q24 8 41 8q12 0 19 -8.5t6 -22.5z" />
    <glyph glyph-name="m" unicode="m" horiz-adv-x="708" 
d="M301 0l25 285q4 43 -12.5 72t-53.5 29q-56 0 -106 -71l-28 -315h-65l30 338q2 27 -12.5 33.5t-36.5 -4.5l-5 12l62 28q19 7 31 7q27 0 29 -29l-3 -38q63 75 136 75q39 0 65.5 -21t35.5 -55q67 77 142 77q51 0 78 -32t23 -83l-24 -264q-1 -10 9.5 -14.5t24.5 -3t25 7.5
l-1 -12q-48 -30 -84 -30q-44 0 -40 52l22 242q3 43 -13 72t-54 29q-53 0 -106 -72l-28 -315h-66z" />
    <glyph glyph-name="n" unicode="n" horiz-adv-x="479" 
d="M61 0l30 338q2 27 -13 33.5t-36 -4.5l-5 12l63 28q19 7 32 7q28 0 28 -32l-4 -37q84 77 164 77q48 0 70 -32t17 -85l-23 -260q-1 -10 9 -14.5t24 -3.5t26 7l-2 -12q-46 -30 -84 -30q-44 0 -39 52l22 241q9 101 -54 101q-30 0 -67 -21t-65 -52l-28 -313h-65z" />
    <glyph glyph-name="o" unicode="o" horiz-adv-x="446" 
d="M201 -8q-81 0 -129 56.5t-41 146.5q7 95 67.5 161t146.5 66q78 0 128.5 -55t41.5 -150q-7 -87 -64 -156t-150 -69zM216 16q61 0 92 53t38 136q8 92 -25.5 142.5t-91.5 50.5q-32 0 -56.5 -16.5t-39 -45t-22.5 -60.5t-10 -69q-7 -86 24.5 -138.5t90.5 -52.5z" />
    <glyph glyph-name="p" unicode="p" horiz-adv-x="435" 
d="M267 422q58 0 101.5 -52t36.5 -134q-8 -95 -61.5 -169.5t-140.5 -74.5q-39 0 -73 24l-13 -150q-1 -18 16 -26.5t43 -8.5l-1 -11h-173l1 11q18 0 32.5 7.5t15.5 22.5l41 476q2 27 -13 34t-37 -4l-5 12l62 27q18 8 32 8q29 0 29 -33v-11q53 52 107 52zM207 16q54 0 87 55
t42 155q7 78 -17.5 125t-66.5 47q-24 0 -53 -20.5t-41 -40.5l-25 -289q35 -32 74 -32z" />
    <glyph glyph-name="q" unicode="q" horiz-adv-x="424" 
d="M330 -139q-1 -15 16 -22.5t42 -7.5l-1 -11h-164l1 11q37 0 40 30l14 157q-40 -26 -88 -26q-71 0 -118 58.5t-40 143.5q8 103 64.5 165.5t130.5 62.5q60 0 85 -44q8 16 23.5 27.5t28.5 11.5h15zM203 16q42 0 77 31l27 294q-22 57 -74 57q-113 0 -130 -195
q-7 -74 21.5 -130.5t78.5 -56.5z" />
    <glyph glyph-name="r" unicode="r" horiz-adv-x="346" 
d="M62 0l29 334q2 29 -9.5 36.5t-40.5 -4.5l-4 13l62 28q19 7 32 7q31 0 28 -37l-5 -62q17 44 46.5 75.5t71.5 31.5q30 0 47 -20.5t16 -47.5q-1 -20 -12 -33t-26 -13q-14 0 -24.5 9t-10.5 25q1 15 10 26t9 19q0 13 -21 13q-28 0 -55 -35.5t-42 -76t-18 -69.5l-19 -219h-64z
" />
    <glyph glyph-name="s" unicode="s" horiz-adv-x="337" 
d="M138 -8q-70 0 -120 48l24 77l11 -4q-10 -44 18 -70.5t72 -26.5t65.5 24.5t24.5 59.5q2 17 -3 31t-19.5 26t-23.5 18t-32.5 18l-29.5 15q-75 44 -71 102q4 46 39.5 79t98.5 33q56 0 107 -39l-33 -79l-10 5q14 45 -10 67t-59 22q-31 0 -52.5 -17t-23.5 -49q-1 -15 3.5 -26
t19.5 -22.5t27 -19t40 -22.5q32 -16 50 -28.5t33 -37t12 -54.5q-5 -61 -48.5 -95.5t-109.5 -34.5z" />
    <glyph glyph-name="t" unicode="t" horiz-adv-x="275" 
d="M231 59l5 -14q-34 -53 -99 -53q-84 0 -76 96l27 302h-46l1 12q71 14 108 120h14l-10 -108h106l-7 -24h-101l-24 -279q-8 -94 35 -94q36 0 67 42z" />
    <glyph glyph-name="u" unicode="u" horiz-adv-x="462" 
d="M426 33l2 -12q-66 -29 -86 -29q-14 0 -22.5 18.5t-7.5 47.5q-56 -66 -133 -66q-60 0 -88.5 32t-23.5 83l20 234q5 51 -50 26l-4 11l64 29q15 7 31 7q33 0 28 -38l-22 -251q-5 -51 11.5 -80t53.5 -29q52 0 114 74l24 268q3 35 -43 22l-3 11l51 16q21 7 38 7q27 0 25 -32
l-29 -327q-3 -28 21 -28q11 0 29 6z" />
    <glyph glyph-name="v" unicode="v" horiz-adv-x="391" 
d="M319 422q18 0 29.5 -17t9.5 -48q-8 -66 -40 -120l-137 -237h-26l-76 344q-7 27 -14.5 33t-32.5 -2l-3 12l45 20q14 7 30 7q29 0 37 -31l61 -306l91 162q29 50 29 84q0 19 -21.5 28.5t-19.5 29.5q3 41 38 41z" />
    <glyph glyph-name="w" unicode="w" horiz-adv-x="596" 
d="M524 422q19 0 30 -16.5t9 -48.5q-6 -55 -41 -120l-126 -237h-28l-55 239l-124 -239h-30l-79 343q-7 28 -14.5 34t-33.5 -2l-3 12l47 20q14 7 31 7q25 0 32 -31l65 -304l100 196l-15 68q-8 28 -15 34t-31 -1l-3 12l45 19q13 7 31 7q24 0 32 -31l64 -304l83 160
q28 48 30 85q1 13 -5.5 19.5t-15 8t-14.5 8.5t-5 21q2 41 39 41z" />
    <glyph glyph-name="x" unicode="x" horiz-adv-x="417" 
d="M46 388l41 19q14 7 33 7q29 0 41 -29l62 -131l76 118q31 47 72 47q17 0 27 -10t10 -25q0 -14 -8 -24.5t-23 -10.5q-29 0 -29 30q0 6 8 16q1 2 -1 2q-9 0 -30 -31l-89 -139l89 -187q15 -29 52 -6l-1 -12q-23 -30 -63 -30q-35 0 -53 36l-64 135l-77 -121q-33 -50 -72 -50
q-16 0 -27 9.5t-11 23.5q0 17 8.5 27t22.5 10q29 0 29 -29q0 -5 -3 -10t-4.5 -6.5t0.5 -2.5q9 0 30 34l90 143l-77 163q-19 39 -56 22z" />
    <glyph glyph-name="y" unicode="y" horiz-adv-x="384" 
d="M314 422q18 0 28.5 -17t8.5 -47q-3 -49 -41 -122l-152 -295q-55 -106 -121 -106q-25 0 -37.5 10t-11.5 26q3 34 30 34q14 0 27 -11.5t15 -12.5q8 -4 18.5 -1t26 23.5t34.5 56.5l31 60l-92 323q-4 12 -5 15.5t-5 11t-7.5 9t-9.5 1.5t-14 -3l-5 -2l-3 12l43 20q18 7 32 7
q26 0 35 -31l74 -286l73 142q26 55 28 81q2 14 -4.5 21.5t-15 9.5t-15 9t-5.5 19q3 43 40 43z" />
    <glyph glyph-name="z" unicode="z" horiz-adv-x="324" 
d="M278 63l11 -3l-19 -60h-263l1 3l222 387h-126q-20 0 -36 -39l-11 3l18 60h236v-3l-223 -387h154q20 0 36 39z" />
    <glyph glyph-name="braceleft" unicode="{" horiz-adv-x="293" 
d="M260 641q-38 0 -57.5 -24.5t-24.5 -85.5q-2 -30 7 -79.5t6 -78.5q-8 -89 -105 -104q96 -13 87 -103q-2 -28 -20 -78t-21 -81q-5 -61 9.5 -85.5t52.5 -24.5q21 0 37 8l-17 -33q-29 0 -51 5t-45 18t-34.5 42t-7.5 72q4 44 28 92t26 76q4 43 -19.5 62t-69.5 24v12
q48 5 74.5 24t30.5 63q3 28 -12.5 76t-11.5 91q11 137 162 137l10 -32q-14 7 -34 7z" />
    <glyph glyph-name="bar" unicode="|" horiz-adv-x="145" 
d="M99 715h35l-72 -828h-35z" />
    <glyph glyph-name="braceright" unicode="}" horiz-adv-x="292" 
d="M108 641q-20 0 -35 -7l16 32q29 0 51.5 -5t45.5 -18t34 -42t7 -72t-28 -91t-26 -76q-3 -44 20 -63t70 -24l-2 -12q-47 -5 -74 -24t-30 -62q-3 -28 13 -76.5t12 -91.5q-14 -137 -162 -137l-12 33q15 -8 36 -8q38 0 57 24.5t24 85.5q3 31 -6 81t-7 78q7 90 105 103
q-95 15 -87 104q2 29 20 78.5t21 79.5q6 61 -9.5 85.5t-53.5 24.5z" />
    <glyph glyph-name="asciitilde" unicode="~" horiz-adv-x="369" 
d="M31 216q8 32 32.5 53.5t58.5 21.5q35 0 75.5 -30.5t64.5 -30.5q37 0 58 42h18q-7 -32 -31.5 -53.5t-58.5 -21.5q-35 0 -76 30.5t-64 30.5q-37 0 -58 -42h-19z" />
    <glyph glyph-name="exclamdown" unicode="&#xa1;" horiz-adv-x="211" 
d="M121 411q-17 0 -27 10.5t-8 27.5q1 16 13 29t31 13q16 0 26 -10.5t9 -27.5q-1 -16 -13.5 -29t-30.5 -13zM100 345l-59 -506l69 -31l22 535z" />
    <glyph glyph-name="cent" unicode="&#xa2;" horiz-adv-x="396" 
d="M262 422q55 0 85.5 -27t27.5 -64q-2 -22 -14.5 -32.5t-27.5 -10.5q-14 0 -22.5 9.5t-7.5 26.5q1 10 10 24q8 13 3 23q-7 27 -59 27h-9l-32 -380q62 7 109 66l4 -17q-42 -60 -115 -72l-4 -45h-23l4 42h-12q-84 0 -122 59.5t-25 142.5q13 86 66.5 149t128.5 76l4 45h23
l-4 -42h12zM193 17l32 377q-98 -22 -123 -190q-12 -78 12 -130.5t79 -56.5z" />
    <glyph glyph-name="sterling" unicode="&#xa3;" horiz-adv-x="426" 
d="M325 543q1 10 11.5 23.5t11.5 22.5q2 17 -15 29.5t-44 12.5q-38 0 -56 -30.5t-25 -112.5l-12 -143h136l-13 -29h-126q-7 -68 -17 -111.5t-29 -74.5t-37 -48t-54 -45q60 15 84.5 10t61.5 -18t64 -13q32 0 48.5 13t17.5 27q0 7 -7.5 21t-6.5 25q1 14 13 24t26 10
q17 0 27 -13.5t8 -30.5q-1 -12 -7.5 -26.5t-20 -32.5t-41 -30t-63.5 -12q-28 0 -60.5 8.5t-55 15t-61 2.5t-85.5 -25l-8 26q69 59 82 75q32 37 43 116q6 36 12 107h-75l13 29h65l9 107q7 91 44 148.5t106 57.5q53 0 83 -32.5t27 -70.5q-2 -22 -13.5 -33.5t-26.5 -11.5
q-13 0 -24 9.5t-10 23.5z" />
    <glyph glyph-name="currency" unicode="&#xa4;" horiz-adv-x="501" 
d="M426 348q47 -62 40 -141q-8 -81 -64 -141l27 -29l-25 -23l-26 30q-65 -52 -146 -52q-82 0 -137 52l-31 -30l-21 23l32 29q-47 61 -40 141q8 81 64 141l-26 29l25 23l26 -29q65 51 146 51t136 -52l32 30l20 -23zM421 207q7 76 -39.5 126.5t-115.5 50.5q-74 0 -126.5 -49.5
t-59.5 -127.5q-7 -76 40.5 -126.5t115.5 -50.5q74 0 126 50t59 127z" />
    <glyph glyph-name="yen" unicode="&#xa5;" horiz-adv-x="546" 
d="M437 650h121l-2 -11q-29 0 -50 -32l-177 -275h91l-12 -28h-94l-4 -56h102l-11 -29h-94l-15 -178q-1 -14 20.5 -22t49.5 -8l-1 -11h-214v11q28 0 51.5 8t24.5 22l16 178h-119l11 29h110l5 54l-1 2h-118l12 28h93l-130 285q-12 22 -37 22l1 11h94l141 -312l173 271
q7 12 -6 21t-32 9z" />
    <glyph glyph-name="brokenbar" unicode="&#xa6;" horiz-adv-x="145" 
d="M72 401l27 314h35l-27 -314h-35zM89 201l-27 -314h-35l27 314h35z" />
    <glyph glyph-name="section" unicode="&#xa7;" horiz-adv-x="395" 
d="M260 363q67 -72 85.5 -111t14.5 -75q-7 -80 -62 -132.5t-138 -52.5q-66 0 -99.5 32t-29.5 73q2 21 13 35.5t30 14.5q12 0 20 -7.5t7 -21.5q-1 -10 -9.5 -20t-9.5 -22q-2 -28 21 -44t60 -16q48 0 75.5 24.5t30.5 62.5q3 29 -18 66t-88 111l-25 28q-55 60 -71 90t-12 78
q9 89 66.5 135.5t124.5 46.5q55 0 88 -32t30 -73q-2 -20 -12.5 -34.5t-27.5 -14.5q-13 0 -22 8t-8 22q1 10 10.5 21t10.5 20q1 19 -16.5 39t-56.5 20q-44 0 -70 -26t-29 -67q-2 -19 1.5 -34t16 -32.5t22.5 -29.5t35.5 -38t41.5 -44zM314 126q10 24 11.5 46.5t-3 41.5t-19 41
t-29.5 40t-40 45q-83 89 -104.5 118.5t-22.5 65.5h-7q-7 -19 -9.5 -36t-3.5 -29t5.5 -28t9 -23.5t16.5 -24.5l19 -23t25 -27t26 -28q115 -125 119 -179h7z" />
    <glyph glyph-name="dieresis" unicode="&#xa8;" horiz-adv-x="208" 
d="M107 742q11 0 17 -7.5t5 -19.5q-5 -24 -30 -24q-11 0 -17 7.5t-4 19.5q2 11 10 17.5t19 6.5zM198 742q11 0 17 -7.5t5 -19.5q-5 -24 -30 -24q-11 0 -17 7.5t-4 19.5q2 11 10 17.5t19 6.5z" />
    <glyph glyph-name="copyright" unicode="&#xa9;" horiz-adv-x="710" 
d="M336 -8q-133 0 -218 97.5t-73 235.5t114 235.5t235 97.5t218 -97.5t73 -235.5t-114 -235.5t-235 -97.5zM339 26q115 0 204 87.5t100 211.5t-63 211.5t-189 87.5t-204 -87.5t-100 -211.5t63 -211.5t189 -87.5zM499 202l5 -17q-46 -75 -143 -75q-84 0 -127.5 59.5
t-37.5 142.5q6 97 64.5 162.5t145.5 65.5q55 0 88 -27t33 -64q0 -22 -11.5 -32.5t-26.5 -10.5q-14 0 -23.5 9.5t-9.5 26.5q0 12 8 24q7 13 1 23q-10 27 -62 27q-125 0 -138 -194q-5 -81 25.5 -134t90.5 -53q70 0 118 67z" />
    <glyph glyph-name="ordfeminine" unicode="&#xaa;" horiz-adv-x="268" 
d="M273 419l3 -9q-37 -19 -61 -19q-15 0 -20 29q-37 -29 -79 -29q-33 0 -59.5 17t-24.5 57q3 49 49.5 69t122.5 24l2 30q5 53 -51 53q-47 0 -49 -21q0 -3 5.5 -10t4.5 -17q-2 -25 -27 -25q-13 0 -20 9.5t-5 23.5q3 23 27.5 41t70.5 18q98 0 90 -96l-11 -123q-2 -12 -1 -19
t12 -7q9 0 21 4zM85 473q-2 -27 9.5 -42.5t35.5 -15.5q29 0 63 21l9 106q-60 -8 -87 -20.5t-30 -48.5zM53 307l7 24h171l-7 -24h-171z" />
    <glyph glyph-name="guillemotleft" unicode="&#xab;" horiz-adv-x="459" 
d="M37 223l159 -179l15 28l-111 156l139 156l-10 28l-192 -179v-10zM206 223l159 -179l15 28l-111 156l139 156l-10 28l-192 -179v-10z" />
    <glyph glyph-name="logicalnot" unicode="&#xac;" horiz-adv-x="367" 
d="M338 263l-12 -143h-31l10 114h-266l2 29h297z" />
    <glyph glyph-name="uni00AD" unicode="&#xad;" horiz-adv-x="227" 
d="M30 218l189 69l-18 -35l-188 -69z" />
    <glyph glyph-name="registered" unicode="&#xae;" horiz-adv-x="528" 
d="M313 769q95 0 156 -70t52 -169t-82 -168.5t-168 -69.5t-156 70t-52 168q9 99 82 169t168 70zM483 529q7 84 -43 145.5t-130 61.5q-79 0 -139.5 -60.5t-68.5 -145.5q-8 -84 42.5 -144.5t129.5 -60.5t140 60t69 144zM372 452q21 -31 46 -31v-7h-79q9 11 1 25l-47 77
q-20 -5 -40 -6l-6 -65q-3 -24 37 -24l-1 -7h-102v7q28 0 31 19l17 197q1 11 -7.5 18t-22.5 7v8h104q37 0 60 -16.5t19 -50.5q-3 -51 -57 -76zM265 652l-10 -123q46 3 66 24t22 47q6 54 -53 54q-7 0 -25 -2z" />
    <glyph glyph-name="macron" unicode="&#xaf;" horiz-adv-x="236" 
d="M87 729h162l-11 -28h-162z" />
    <glyph glyph-name="degree" unicode="&#xb0;" horiz-adv-x="211" 
d="M135 552q-30 0 -48 20.5t-16 50.5q2 31 24.5 52.5t52.5 21.5t48 -21.5t16 -52.5q-3 -30 -25 -50.5t-52 -20.5zM138 579q17 0 29.5 13t14.5 31t-8.5 32t-27.5 14q-18 0 -30.5 -14t-14.5 -32t8.5 -31t28.5 -13z" />
    <glyph glyph-name="plusminus" unicode="&#xb1;" horiz-adv-x="327" 
d="M184 263h112l-2 -29h-112l-10 -114h-33l10 114h-112l2 29h112l10 114h33zM21 54l2 29h257l-2 -29h-257z" />
    <glyph glyph-name="uni00B2" unicode="&#xb2;" horiz-adv-x="232" 
d="M214 463q10 0 17 -8.5t6 -20.5q-2 -23 -20.5 -39t-50.5 -16q-17 0 -40 8t-36 8q-32 0 -53 -11l-7 11l43.5 51.5l36.5 43.5t26.5 33t21.5 29.5t13 24t10 26.5t4 26q5 57 -42 57q-13 0 -24 -5.5t-12 -12.5q0 -4 4.5 -11.5t3.5 -12.5q-3 -22 -26 -22t-20 28q2 22 23.5 38
t58.5 16t60 -18.5t20 -58.5q-1 -11 -5 -23.5t-8.5 -22.5t-15 -25l-17 -24t-22 -27.5l-23 -27.5t-28 -31.5t-28.5 -32.5q5 1 17 1q14 -1 36.5 -8.5t31.5 -7.5q25 0 27 16q0 3 -5 10t-4 16q1 11 9 17t18 6z" />
    <glyph glyph-name="uni00B3" unicode="&#xb3;" horiz-adv-x="219" 
d="M112 397q61 0 67 63q3 35 -14 55t-58 31l1 9q67 15 73 74q5 57 -46 57q-34 0 -36 -17q0 -6 5 -13t4 -15q-2 -21 -26 -21q-11 0 -18 8t-6 19q3 23 26 40t57 17q36 0 61.5 -16.5t22.5 -51.5q-3 -50 -60 -79q67 -26 62 -85q-3 -39 -31.5 -66t-81.5 -27q-40 0 -61.5 16
t-19.5 39q1 14 9 22.5t18 8.5t17 -8t6 -19q-1 -7 -7 -13.5t-6 -9.5q-1 -4 3.5 -8t14.5 -7t24 -3z" />
    <glyph glyph-name="acute" unicode="&#xb4;" horiz-adv-x="172" 
d="M135 782l-59 -80l11 -19l103 99h-55z" />
    <glyph glyph-name="uni00B5" unicode="&#xb5;" horiz-adv-x="479" 
d="M450 33l4 -12q-65 -29 -90 -29q-29 0 -26 76q-26 -34 -66.5 -55t-80.5 -21q-36 0 -62 16l-16 -188h-110l1 11q46 0 49 30l43 486q3 36 -23 36q-13 0 -33 -8l-3 12l66 27q16 8 31 8q31 0 28 -35l-23 -272q-3 -41 19.5 -67t61.5 -26q61 0 119 77l28 315h62l-31 -361
q-3 -27 24 -27q12 0 28 7z" />
    <glyph glyph-name="paragraph" unicode="&#xb6;" horiz-adv-x="394" 
d="M187 650h230v-11q-25 0 -49.5 -11.5t-25.5 -26.5l-51 -601h-47l54 625h-68l-54 -625h-45l33 388h-2q-48 0 -76.5 36.5t-23.5 91.5q5 58 40.5 96t84.5 38z" />
    <glyph glyph-name="periodcentered" unicode="&#xb7;" horiz-adv-x="227" 
d="M105 289q18 0 27.5 -12t7.5 -27q-1 -18 -13 -28t-27 -10q-18 0 -27.5 12t-8.5 28q1 18 13 27.5t28 9.5z" />
    <glyph glyph-name="cedilla" unicode="&#xb8;" horiz-adv-x="160" 
d="M71 -31q16 0 26.5 -8t6.5 -25q-4 -23 -26.5 -38.5t-47.5 -15.5q-10 0 -14 1l8 13q34 0 41 34q4 24 -13 24t-35 -16l-5 11l33 55h28q-1 0 -13 -20t-12 -21q12 6 23 6z" />
    <glyph glyph-name="uni00B9" unicode="&#xb9;" horiz-adv-x="155" 
d="M119 415q-1 -11 8.5 -16.5t29.5 -5.5l-1 -9h-126l1 9q44 0 47 19l19 217q1 16 -5 16q-2 0 -8.5 -2t-15 -5.5t-14.5 -5.5l-2 7q42 23 65 61h30q-5 -27 -6 -36z" />
    <glyph glyph-name="ordmasculine" unicode="&#xba;" horiz-adv-x="276" 
d="M153 391q-52 0 -83 35t-27 95q4 64 43.5 101.5t93.5 37.5q52 0 82.5 -34.5t26.5 -93.5q-4 -64 -42.5 -102.5t-93.5 -38.5zM164 412q60 0 70 101q6 55 -10.5 90.5t-53.5 35.5q-62 0 -72 -99q-5 -56 12.5 -92t53.5 -36zM58 331h186l-8 -24h-185z" />
    <glyph glyph-name="guillemotright" unicode="&#xbb;" horiz-adv-x="448" 
d="M244 223l2 10l-161 179l-15 -28l112 -156l-138 -156l10 -28zM413 223l2 10l-161 179l-15 -28l112 -156l-138 -156l10 -28z" />
    <glyph glyph-name="onequarter" unicode="&#xbc;" horiz-adv-x="435" 
d="M115 365q-1 -11 8.5 -16.5t29.5 -5.5l-1 -9h-126l1 9q44 0 47 19l19 217q1 16 -5 16q-2 0 -8.5 -2t-15 -5.5t-14.5 -5.5l-2 7q42 23 65 61h30q-5 -27 -6 -36zM332 650h31l-277 -650h-31zM397 121l-6 -65h-9q2 22 -17 22h-23l-3 -47q-1 -11 7.5 -16.5t24.5 -5.5l-1 -9
h-110l1 9q36 0 37 25l4 44h-117l1 7l146 231h31l-19 -218h23q18 0 21 23h9zM224 98h80l13 156z" />
    <glyph glyph-name="onehalf" unicode="&#xbd;" horiz-adv-x="466" 
d="M115 365q-1 -11 8.5 -16.5t29.5 -5.5l-1 -9h-126l1 9q44 0 47 19l19 217q1 16 -5 16q-2 0 -8.5 -2t-15 -5.5t-14.5 -5.5l-2 7q42 23 65 61h30q-5 -27 -6 -36zM332 650h31l-277 -650h-31zM399 79q10 0 17 -8.5t6 -20.5q-2 -23 -20.5 -39t-50.5 -16q-17 0 -40 8t-36 8
q-32 0 -53 -11l-7 11l43.5 51.5l36.5 43.5t26.5 33t21.5 29.5t13 24t10 26.5t4 26q5 57 -42 57q-13 0 -24 -5.5t-12 -12.5q0 -4 4.5 -11.5t3.5 -12.5q-3 -22 -26 -22q-10 0 -16 8t-4 20q2 22 23.5 38t58.5 16t60 -18.5t20 -58.5q-1 -11 -5 -23.5t-8.5 -22.5t-15 -25l-17 -24
t-22 -27.5l-23 -27.5l-27.5 -31.5l-29 -32.5q5 1 17 1q14 -1 36.5 -8.5t31.5 -7.5q25 0 27 16q0 3 -5 10t-4 16q1 11 9 17t18 6z" />
    <glyph glyph-name="threequarters" unicode="&#xbe;" horiz-adv-x="494" 
d="M113 347q61 0 67 63q3 35 -14 55t-58 31l1 9q67 15 73 74q5 57 -46 57q-34 0 -36 -17q0 -6 5 -13t4 -15q-2 -21 -26 -21q-11 0 -18 8t-6 19q3 23 26 40t57 17q36 0 61.5 -16.5t22.5 -51.5q-3 -50 -60 -79q67 -26 62 -85q-3 -39 -31.5 -66t-81.5 -27q-40 0 -61.5 16
t-19.5 39q1 14 9 22.5t18 8.5t17 -8t6 -19q-1 -7 -7 -13.5t-6 -9.5q-1 -4 3.5 -8t14.5 -7t24 -3zM386 650h31l-277 -650h-31zM455 121l-6 -65h-9q2 22 -17 22h-23l-3 -47q-1 -11 7.5 -16.5t24.5 -5.5l-1 -9h-110l1 9q36 0 37 25l4 44h-117l1 7l146 231h31l-19 -218h23
q18 0 21 23h9zM282 98h80l13 156z" />
    <glyph glyph-name="questiondown" unicode="&#xbf;" horiz-adv-x="342" 
d="M237 395q-18 0 -28.5 13t-8.5 29q1 17 13.5 27.5t28.5 10.5q18 0 28.5 -13t8.5 -29q-1 -17 -13.5 -27.5t-28.5 -10.5zM187 293l18 33q60 0 67.5 -38t-54.5 -102q-14 -14 -45 -41t-43 -41t-25.5 -44t-16.5 -69q-7 -77 21.5 -114.5t76.5 -39.5q34 -1 57 13t25 30
q0 8 -10.5 19t-9.5 27q1 17 12 27.5t28 10.5q18 0 28 -14.5t8 -34.5q-2 -32 -37.5 -67.5t-107.5 -35.5q-80 0 -126.5 44t-39.5 123q3 33 15 61t32 50.5t37 37t43 34t37 28.5q84 70 10 103z" />
    <glyph glyph-name="Agrave" unicode="&#xc0;" horiz-adv-x="581" 
d="M266 782l-16 -41l135 -58l8 19zM506 33q9 -22 45 -22l-1 -11h-159l1 11q18 0 30 6t10 16l-48 189h-219l-77 -188q-5 -11 13 -17t45 -6l-1 -11h-150l2 11q43 0 52 19l264 628l22 7zM177 251h199l-77 293z" />
    <glyph glyph-name="Aacute" unicode="&#xc1;" horiz-adv-x="581" 
d="M388 782l-134 -80l7 -19l140 58zM506 33q9 -22 45 -22l-1 -11h-159l1 11q18 0 30 6t10 16l-48 189h-219l-77 -188q-5 -11 13 -17t45 -6l-1 -11h-150l2 11q43 0 52 19l264 628l22 7zM177 251h199l-77 293z" />
    <glyph glyph-name="Acircumflex" unicode="&#xc2;" horiz-adv-x="581" 
d="M241 690l73 90h38l58 -90h-26l-53 64l-64 -64h-26zM506 33q9 -22 45 -22l-1 -11h-159l1 11q18 0 30 6t10 16l-48 189h-219l-77 -188q-5 -11 13 -17t45 -6l-1 -11h-150l2 11q43 0 52 19l264 628l22 7zM177 251h199l-77 293z" />
    <glyph glyph-name="Atilde" unicode="&#xc3;" horiz-adv-x="581" 
d="M225 712q19 53 61 53q27 0 53.5 -23t42.5 -23q9 0 17 5.5t10.5 9.5t9.5 16l12 -5q-18 -53 -61 -53q-27 0 -53 23t-42 23q-21 0 -37 -31zM506 33q9 -22 45 -22l-1 -11h-159l1 11q18 0 30 6t10 16l-48 189h-219l-77 -188q-5 -11 13 -17t45 -6l-1 -11h-150l2 11q43 0 52 19
l264 628l22 7zM177 251h199l-77 293z" />
    <glyph glyph-name="Adieresis" unicode="&#xc4;" horiz-adv-x="581" 
d="M283 742q11 0 18 -7.5t6 -19.5q-2 -24 -27 -24q-11 0 -18 7.5t-6 19.5q2 24 27 24zM374 742q11 0 18 -7.5t6 -19.5q-2 -24 -27 -24q-11 0 -18 7.5t-6 19.5q2 24 27 24zM506 33q9 -22 45 -22l-1 -11h-159l1 11q18 0 30 6t10 16l-48 189h-219l-77 -188q-5 -11 13 -17t45 -6
l-1 -11h-150l2 11q43 0 52 19l264 628l22 7zM177 251h199l-77 293z" />
    <glyph glyph-name="Aring" unicode="&#xc5;" horiz-adv-x="581" 
d="M325 683q-20 0 -33.5 15t-11.5 35q1 20 17 34.5t36 14.5t33.5 -14.5t11.5 -34.5t-17.5 -35t-35.5 -15zM327 708q11 0 18.5 7.5t8.5 17.5t-6 17.5t-17 7.5t-17.5 -7.5t-9.5 -17.5q-1 -11 6 -18t17 -7zM506 33q9 -22 45 -22l-1 -11h-159l1 11q18 0 30 6t10 16l-48 189h-219
l-77 -188q-5 -11 13 -17t45 -6l-1 -11h-150l2 11q43 0 52 19l264 628l22 7zM177 251h199l-77 293z" />
    <glyph glyph-name="AE" unicode="&#xc6;" horiz-adv-x="794" 
d="M741 93l12 -4l-28 -89h-327l16 188h-215l-97 -147q-10 -14 9.5 -22t47.5 -8l-1 -11h-168l2 11q48 0 68 27l404 612h296l28 -90l-12 -3q-24 64 -72 64h-183l-23 -270h158q29 0 36 67h11l-14 -162h-12q7 66 -23 66h-159l-25 -293h205q24 0 37.5 14.5t28.5 49.5zM217 216
h200l30 352z" />
    <glyph glyph-name="Ccedilla" unicode="&#xc7;" horiz-adv-x="593" 
d="M351 24q52 0 101.5 22t79.5 61l10 -19q-35 -49 -93 -72.5t-119 -23.5h-3q-14 -28 -15 -29q12 6 23 6q15 0 26.5 -8t9.5 -25q-2 -23 -23.5 -38.5t-46.5 -15.5q-10 0 -14 1l7 13q34 0 38 34q2 24 -15 24q-16 0 -34 -16l-6 11l23 44q-116 12 -190 101.5t-63 220.5
q14 157 115.5 250t226.5 93q61 0 115 -22q42 -18 52 5l11 -5l-41 -136l-11 4q9 44 5 65t-23 32q-40 25 -116 25q-108 0 -176.5 -81t-82.5 -213q-14 -131 54.5 -219.5t174.5 -88.5z" />
    <glyph glyph-name="Egrave" unicode="&#xc8;" horiz-adv-x="474" 
d="M237 782l-16 -41l135 -58l8 19zM421 93l12 -4l-28 -89h-381l1 11q19 0 37.5 8t19.5 22l49 568q1 14 -16 22t-36 8l1 11h360l28 -90l-12 -3q-24 64 -71 64h-184l-23 -270h159q14 0 23.5 19t11.5 48h11l-14 -162h-11q5 66 -23 66h-159l-26 -293h205q25 0 38.5 14.5
t27.5 49.5z" />
    <glyph glyph-name="Eacute" unicode="&#xc9;" horiz-adv-x="474" 
d="M359 782l-134 -80l7 -19l140 58zM421 93l12 -4l-28 -89h-381l1 11q19 0 37.5 8t19.5 22l49 568q1 14 -16 22t-36 8l1 11h360l28 -90l-12 -3q-24 64 -71 64h-184l-23 -270h159q14 0 23.5 19t11.5 48h11l-14 -162h-11q5 66 -23 66h-159l-26 -293h205q25 0 38.5 14.5
t27.5 49.5z" />
    <glyph glyph-name="Ecircumflex" unicode="&#xca;" horiz-adv-x="474" 
d="M212 690l73 90h38l58 -90h-26l-53 64l-64 -64h-26zM421 93l12 -4l-28 -89h-381l1 11q19 0 37.5 8t19.5 22l49 568q1 14 -16 22t-36 8l1 11h360l28 -90l-12 -3q-24 64 -71 64h-184l-23 -270h159q14 0 23.5 19t11.5 48h11l-14 -162h-11q5 66 -23 66h-159l-26 -293h205
q25 0 38.5 14.5t27.5 49.5z" />
    <glyph glyph-name="Edieresis" unicode="&#xcb;" horiz-adv-x="474" 
d="M254 742q11 0 18 -7.5t6 -19.5q-2 -24 -27 -24q-11 0 -18 7.5t-6 19.5q2 24 27 24zM345 742q11 0 18 -7.5t6 -19.5q-2 -24 -27 -24q-11 0 -18 7.5t-6 19.5q2 24 27 24zM421 93l12 -4l-28 -89h-381l1 11q19 0 37.5 8t19.5 22l49 568q1 14 -16 22t-36 8l1 11h360l28 -90
l-12 -3q-24 64 -71 64h-184l-23 -270h159q14 0 23.5 19t11.5 48h11l-14 -162h-11q5 66 -23 66h-159l-26 -293h205q25 0 38.5 14.5t27.5 49.5z" />
    <glyph glyph-name="Igrave" unicode="&#xcc;" horiz-adv-x="245" 
d="M106 782l-16 -41l135 -58l8 19zM241 639q-16 0 -32 -8t-17 -22l-50 -568q-1 -14 12.5 -22t29.5 -8l-2 -11h-159l1 11q17 0 32.5 8t16.5 22l50 568q1 14 -12.5 22t-29.5 8l1 11h160z" />
    <glyph glyph-name="Iacute" unicode="&#xcd;" horiz-adv-x="245" 
d="M228 782l-134 -80l7 -19l140 58zM241 639q-16 0 -32 -8t-17 -22l-50 -568q-1 -14 12.5 -22t29.5 -8l-2 -11h-159l1 11q17 0 32.5 8t16.5 22l50 568q1 14 -12.5 22t-29.5 8l1 11h160z" />
    <glyph glyph-name="Icircumflex" unicode="&#xce;" horiz-adv-x="245" 
d="M81 690l73 90h38l58 -90h-26l-53 64l-64 -64h-26zM241 639q-16 0 -32 -8t-17 -22l-50 -568q-1 -14 12.5 -22t29.5 -8l-2 -11h-159l1 11q17 0 32.5 8t16.5 22l50 568q1 14 -12.5 22t-29.5 8l1 11h160z" />
    <glyph glyph-name="Idieresis" unicode="&#xcf;" horiz-adv-x="245" 
d="M123 742q11 0 18 -7.5t6 -19.5q-2 -24 -27 -24q-11 0 -18 7.5t-6 19.5q2 24 27 24zM214 742q11 0 18 -7.5t6 -19.5q-2 -24 -27 -24q-11 0 -18 7.5t-6 19.5q2 24 27 24zM241 639q-16 0 -32 -8t-17 -22l-50 -568q-1 -14 12.5 -22t29.5 -8l-2 -11h-159l1 11q17 0 32.5 8
t16.5 22l50 568q1 14 -12.5 22t-29.5 8l1 11h160z" />
    <glyph glyph-name="Eth" unicode="&#xd0;" horiz-adv-x="624" 
d="M341 650q51 0 98.5 -21t86 -59t58.5 -99.5t14 -135.5q-8 -89 -43.5 -163t-103.5 -123t-156 -49h-272l1 11q19 0 37 8t19 22l25 289h-46l14 29h35l22 250q1 14 -15 22t-35 8l1 11h260zM522 316q12 139 -46.5 224t-178.5 85q-57 0 -97 -8l-23 -258h198l-14 -29h-186
l-26 -296q58 -9 117 -9q56 0 99.5 17t71 43.5t46 66t27 78.5t12.5 86z" />
    <glyph glyph-name="Ntilde" unicode="&#xd1;" horiz-adv-x="669" 
d="M279 712q19 53 61 53q27 0 53.5 -23t42.5 -23q9 0 17 5.5t10.5 9.5t9.5 16l12 -5q-18 -53 -61 -53q-27 0 -53 23t-42 23q-21 0 -37 -31zM671 650l-1 -11q-19 0 -36.5 -8t-18.5 -22l-54 -613h-14l-387 540l-44 -495q-3 -30 71 -30l-1 -11h-163l1 11q20 0 38 8t19 22
l50 568q1 14 -15.5 22t-36.5 8l2 11h84l372 -519l42 478q3 30 -70 30l1 11h161z" />
    <glyph glyph-name="Ograve" unicode="&#xd2;" horiz-adv-x="681" 
d="M325 782l-16 -41l135 -58l8 19zM315 -8q-125 0 -203 90t-66 233q13 158 112.5 250.5t228.5 92.5q126 0 203 -90t65 -232q-13 -159 -112.5 -251.5t-227.5 -92.5zM332 24q101 0 169.5 75t80.5 226q11 135 -46 218t-166 83q-98 0 -168 -73t-83 -227q-11 -136 46.5 -219
t166.5 -83z" />
    <glyph glyph-name="Oacute" unicode="&#xd3;" horiz-adv-x="681" 
d="M447 782l-134 -80l7 -19l140 58zM315 -8q-125 0 -203 90t-66 233q13 158 112.5 250.5t228.5 92.5q126 0 203 -90t65 -232q-13 -159 -112.5 -251.5t-227.5 -92.5zM332 24q101 0 169.5 75t80.5 226q11 135 -46 218t-166 83q-98 0 -168 -73t-83 -227q-11 -136 46.5 -219
t166.5 -83z" />
    <glyph glyph-name="Ocircumflex" unicode="&#xd4;" horiz-adv-x="681" 
d="M300 690l73 90h38l58 -90h-26l-53 64l-64 -64h-26zM315 -8q-125 0 -203 90t-66 233q13 158 112.5 250.5t228.5 92.5q126 0 203 -90t65 -232q-13 -159 -112.5 -251.5t-227.5 -92.5zM332 24q101 0 169.5 75t80.5 226q11 135 -46 218t-166 83q-98 0 -168 -73t-83 -227
q-11 -136 46.5 -219t166.5 -83z" />
    <glyph glyph-name="Otilde" unicode="&#xd5;" horiz-adv-x="681" 
d="M284 712q19 53 61 53q27 0 53.5 -23t42.5 -23q9 0 17 5.5t10.5 9.5t9.5 16l12 -5q-18 -53 -61 -53q-27 0 -53 23t-42 23q-21 0 -37 -31zM315 -8q-125 0 -203 90t-66 233q13 158 112.5 250.5t228.5 92.5q126 0 203 -90t65 -232q-13 -159 -112.5 -251.5t-227.5 -92.5z
M332 24q101 0 169.5 75t80.5 226q11 135 -46 218t-166 83q-98 0 -168 -73t-83 -227q-11 -136 46.5 -219t166.5 -83z" />
    <glyph glyph-name="Odieresis" unicode="&#xd6;" horiz-adv-x="681" 
d="M342 742q11 0 18 -7.5t6 -19.5q-2 -24 -27 -24q-11 0 -18 7.5t-6 19.5q2 24 27 24zM433 742q11 0 18 -7.5t6 -19.5q-2 -24 -27 -24q-11 0 -18 7.5t-6 19.5q2 24 27 24zM315 -8q-125 0 -203 90t-66 233q13 158 112.5 250.5t228.5 92.5q126 0 203 -90t65 -232
q-13 -159 -112.5 -251.5t-227.5 -92.5zM332 24q101 0 169.5 75t80.5 226q11 135 -46 218t-166 83q-98 0 -168 -73t-83 -227q-11 -136 46.5 -219t166.5 -83z" />
    <glyph glyph-name="multiply" unicode="&#xd7;" horiz-adv-x="267" 
d="M241 337l-88 -89l72 -88l-21 -20l-71 87l-86 -87l-19 20l88 89l-72 88l21 20l71 -87l86 87z" />
    <glyph glyph-name="Oslash" unicode="&#xd8;" horiz-adv-x="681" 
d="M582 577q85 -91 73 -241q-13 -159 -112.5 -251.5t-227.5 -92.5q-114 0 -188 74l-60 -68h-39l80 89q-74 90 -62 228q13 158 112.5 250.5t228.5 92.5q102 0 174 -61l47 53h39zM119 326q-9 -113 30 -192l376 423q-56 69 -155 69q-98 0 -168 -73t-83 -227zM582 325
q11 127 -40 207l-377 -424q59 -84 167 -84q101 0 169.5 75t80.5 226z" />
    <glyph glyph-name="Ugrave" unicode="&#xd9;" horiz-adv-x="626" 
d="M306 782l-16 -41l135 -58l8 19zM629 650l-1 -11q-19 0 -37 -8t-19 -22l-37 -427q-8 -93 -77.5 -141.5t-163.5 -48.5q-96 0 -154.5 52t-49.5 149l37 416q1 14 -15.5 22t-36.5 8l1 11h177l-1 -11q-19 0 -37 -8t-19 -22l-36 -407q-8 -91 33.5 -134.5t113.5 -43.5
q74 0 128 41.5t59 104.5l39 439q1 14 -15 22t-36 8l2 11h145z" />
    <glyph glyph-name="Uacute" unicode="&#xda;" horiz-adv-x="626" 
d="M428 782l-134 -80l7 -19l140 58zM629 650l-1 -11q-19 0 -37 -8t-19 -22l-37 -427q-8 -93 -77.5 -141.5t-163.5 -48.5q-96 0 -154.5 52t-49.5 149l37 416q1 14 -15.5 22t-36.5 8l1 11h177l-1 -11q-19 0 -37 -8t-19 -22l-36 -407q-8 -91 33.5 -134.5t113.5 -43.5
q74 0 128 41.5t59 104.5l39 439q1 14 -15 22t-36 8l2 11h145z" />
    <glyph glyph-name="Ucircumflex" unicode="&#xdb;" horiz-adv-x="626" 
d="M281 690l73 90h38l58 -90h-26l-53 64l-64 -64h-26zM629 650l-1 -11q-19 0 -37 -8t-19 -22l-37 -427q-8 -93 -77.5 -141.5t-163.5 -48.5q-96 0 -154.5 52t-49.5 149l37 416q1 14 -15.5 22t-36.5 8l1 11h177l-1 -11q-19 0 -37 -8t-19 -22l-36 -407q-8 -91 33.5 -134.5
t113.5 -43.5q74 0 128 41.5t59 104.5l39 439q1 14 -15 22t-36 8l2 11h145z" />
    <glyph glyph-name="Udieresis" unicode="&#xdc;" horiz-adv-x="626" 
d="M323 742q11 0 18 -7.5t6 -19.5q-2 -24 -27 -24q-11 0 -18 7.5t-6 19.5q2 24 27 24zM414 742q11 0 18 -7.5t6 -19.5q-2 -24 -27 -24q-11 0 -18 7.5t-6 19.5q2 24 27 24zM629 650l-1 -11q-19 0 -37 -8t-19 -22l-37 -427q-8 -93 -77.5 -141.5t-163.5 -48.5q-96 0 -154.5 52
t-49.5 149l37 416q1 14 -15.5 22t-36.5 8l1 11h177l-1 -11q-19 0 -37 -8t-19 -22l-36 -407q-8 -91 33.5 -134.5t113.5 -43.5q74 0 128 41.5t59 104.5l39 439q1 14 -15 22t-36 8l2 11h145z" />
    <glyph glyph-name="Yacute" unicode="&#xdd;" horiz-adv-x="546" 
d="M384 782l-134 -80l7 -19l140 58zM558 650l-2 -11q-29 0 -50 -32l-191 -297l-23 -269q-1 -14 20.5 -22t49.5 -8l-1 -11h-214v11q28 0 51.5 8t24.5 22l23 261l-144 315q-12 22 -37 22l1 11h94l141 -312l173 271q7 12 -6 21t-32 9l1 11h121z" />
    <glyph glyph-name="Thorn" unicode="&#xde;" horiz-adv-x="496" 
d="M272 550q29 0 57 -5.5t55.5 -19t47 -34t30 -52.5t7.5 -71q-4 -50 -26 -91t-53.5 -67t-72 -43.5t-80.5 -25.5t-80 -9l-8 -91q-1 -15 12.5 -22.5t33.5 -7.5l-1 -11h-171l1 11q20 0 37.5 8t18.5 22l50 568q1 14 -14.5 22t-35.5 8l1 11h167l-1 -11q-45 0 -48 -30l-5 -59h78z
M395 372q6 65 -34 109t-111 44q-34 0 -59 -11l-31 -354q217 2 235 212z" />
    <glyph glyph-name="germandbls" unicode="&#xdf;" horiz-adv-x="462" 
d="M281 343q69 -27 109.5 -74.5t34.5 -112.5q-5 -65 -46 -114.5t-109 -49.5q-41 0 -69.5 20.5t-25.5 53.5q2 20 12.5 28.5t22.5 8.5q13 0 23.5 -9.5t9.5 -27.5q-1 -8 -6 -15t-5 -11q-2 -24 37 -24q77 0 86 116q7 75 -26.5 120t-119.5 80v10q79 20 106.5 55.5t31.5 90.5
q7 76 -16 111t-79 35q-79 0 -85 -78l-45 -515q-1 -12 8.5 -21t25.5 -9l-1 -11h-149l1 11q18 0 33 7.5t16 22.5l42 475q6 66 54 104t116 38q64 0 107 -36t36 -114q-9 -111 -130 -165z" />
    <glyph glyph-name="agrave" unicode="&#xe0;" horiz-adv-x="436" 
d="M293 486l-13 -19l-87 99h55zM401 33l2 -12q-62 -29 -88 -29q-23 0 -29 35q-41 -35 -102 -35q-81 0 -126 62t-34 157q10 91 65 151t139 60q54 0 91 -28l24 20h39l-32 -359q-1 -15 3 -21.5t18 -6.5q15 0 30 6zM286 57l27 307q-31 34 -79 34q-63 0 -100.5 -55.5
t-42.5 -142.5q-5 -83 27 -133.5t84 -50.5t84 41z" />
    <glyph glyph-name="aacute" unicode="&#xe1;" horiz-adv-x="436" 
d="M304 566l-95 -99l-12 19l52 80h55zM401 33l2 -12q-62 -29 -88 -29q-23 0 -29 35q-41 -35 -102 -35q-81 0 -126 62t-34 157q10 91 65 151t139 60q54 0 91 -28l24 20h39l-32 -359q-1 -15 3 -21.5t18 -6.5q15 0 30 6zM286 57l27 307q-31 34 -79 34q-63 0 -100.5 -55.5
t-42.5 -142.5q-5 -83 27 -133.5t84 -50.5t84 41z" />
    <glyph glyph-name="acircumflex" unicode="&#xe2;" horiz-adv-x="436" 
d="M251 538l-64 -64h-26l73 90h38l58 -90h-26zM401 33l2 -12q-62 -29 -88 -29q-23 0 -29 35q-41 -35 -102 -35q-81 0 -126 62t-34 157q10 91 65 151t139 60q54 0 91 -28l24 20h39l-32 -359q-1 -15 3 -21.5t18 -6.5q15 0 30 6zM286 57l27 307q-31 34 -79 34
q-63 0 -100.5 -55.5t-42.5 -142.5q-5 -83 27 -133.5t84 -50.5t84 41z" />
    <glyph glyph-name="atilde" unicode="&#xe3;" horiz-adv-x="436" 
d="M195 522q-21 0 -37 -31l-13 5q19 53 61 53q27 0 53.5 -23t42.5 -23q9 0 17 5.5t10.5 9.5t9.5 16l12 -5q-18 -53 -61 -53q-27 0 -53 23t-42 23zM401 33l2 -12q-62 -29 -88 -29q-23 0 -29 35q-41 -35 -102 -35q-81 0 -126 62t-34 157q10 91 65 151t139 60q54 0 91 -28
l24 20h39l-32 -359q-1 -15 3 -21.5t18 -6.5q15 0 30 6zM286 57l27 307q-31 34 -79 34q-63 0 -100.5 -55.5t-42.5 -142.5q-5 -83 27 -133.5t84 -50.5t84 41z" />
    <glyph glyph-name="adieresis" unicode="&#xe4;" horiz-adv-x="436" 
d="M200 475q-11 0 -18 7.5t-6 19.5q2 24 27 24q11 0 18 -7.5t6 -19.5q-2 -24 -27 -24zM291 475q-11 0 -18 7.5t-6 19.5q2 24 27 24q11 0 18 -7.5t6 -19.5q-2 -24 -27 -24zM401 33l2 -12q-62 -29 -88 -29q-23 0 -29 35q-41 -35 -102 -35q-81 0 -126 62t-34 157q10 91 65 151
t139 60q54 0 91 -28l24 20h39l-32 -359q-1 -15 3 -21.5t18 -6.5q15 0 30 6zM286 57l27 307q-31 34 -79 34q-63 0 -100.5 -55.5t-42.5 -142.5q-5 -83 27 -133.5t84 -50.5t84 41z" />
    <glyph glyph-name="aring" unicode="&#xe5;" horiz-adv-x="436" 
d="M245 467q-20 0 -33.5 15t-11.5 35q1 20 17 34.5t36 14.5t33.5 -14.5t11.5 -34.5t-17.5 -35t-35.5 -15zM224 517q-1 -11 6 -18t17 -7q11 0 18.5 7.5t8.5 17.5t-6 17.5t-17 7.5t-17.5 -7.5t-9.5 -17.5zM401 33l2 -12q-62 -29 -88 -29q-23 0 -29 35q-41 -35 -102 -35
q-81 0 -126 62t-34 157q10 91 65 151t139 60q54 0 91 -28l24 20h39l-32 -359q-1 -15 3 -21.5t18 -6.5q15 0 30 6zM286 57l27 307q-31 34 -79 34q-63 0 -100.5 -55.5t-42.5 -142.5q-5 -83 27 -133.5t84 -50.5t84 41z" />
    <glyph glyph-name="ae" unicode="&#xe6;" horiz-adv-x="659" 
d="M628 224h-261q-8 -91 21 -149t93 -58q59 0 107 44l7 -17q-57 -52 -133 -52q-86 0 -133 72q-52 -72 -138 -72q-84 0 -129 62t-39 151q7 90 64.5 153.5t147.5 63.5q51 0 88 -23l17 15h40l-3 -38q51 46 119 46q72 0 106 -55t26 -143zM93 217q-7 -100 26 -150.5t87 -50.5
q37 0 76 26l29 330q-33 26 -81 26q-125 0 -137 -181zM483 398q-46 0 -77 -45.5t-36 -104.5h193q8 60 -13 105t-67 45z" />
    <glyph glyph-name="ccedilla" unicode="&#xe7;" horiz-adv-x="384" 
d="M291 324q0 12 8 24q7 13 1 23q-10 27 -62 27q-125 0 -138 -194q-5 -81 25.5 -134t90.5 -53q70 0 118 67l5 -17q-45 -73 -139 -75q-14 -28 -15 -29q12 6 23 6q15 0 26.5 -8t9.5 -25q-2 -23 -23.5 -38.5t-46.5 -15.5q-10 0 -14 1l7 13q34 0 38 34q2 24 -15 24
q-16 0 -34 -16l-6 11l23 44q-73 9 -110.5 67t-31.5 134q6 97 64.5 162.5t145.5 65.5q55 0 88 -27t33 -64q0 -22 -11.5 -32.5t-26.5 -10.5q-14 0 -23.5 9.5t-9.5 26.5z" />
    <glyph glyph-name="egrave" unicode="&#xe8;" horiz-adv-x="395" 
d="M236 566h-55l87 -99l13 19zM216 17q59 0 107 44l7 -17q-57 -52 -133 -52q-77 0 -125.5 61t-40.5 148q8 94 63 157.5t137 63.5q72 0 106 -55t26 -143h-261q-8 -91 21 -149t93 -58zM218 398q-46 0 -77 -45.5t-36 -104.5h193q8 60 -13 105t-67 45z" />
    <glyph glyph-name="eacute" unicode="&#xe9;" horiz-adv-x="395" 
d="M237 566l-52 -80l12 -19l95 99h-55zM216 17q59 0 107 44l7 -17q-57 -52 -133 -52q-77 0 -125.5 61t-40.5 148q8 94 63 157.5t137 63.5q72 0 106 -55t26 -143h-261q-8 -91 21 -149t93 -58zM218 398q-46 0 -77 -45.5t-36 -104.5h193q8 60 -13 105t-67 45z" />
    <glyph glyph-name="ecircumflex" unicode="&#xea;" horiz-adv-x="395" 
d="M149 474l73 90h38l58 -90h-26l-53 64l-64 -64h-26zM216 17q59 0 107 44l7 -17q-57 -52 -133 -52q-77 0 -125.5 61t-40.5 148q8 94 63 157.5t137 63.5q72 0 106 -55t26 -143h-261q-8 -91 21 -149t93 -58zM218 398q-46 0 -77 -45.5t-36 -104.5h193q8 60 -13 105t-67 45z
" />
    <glyph glyph-name="edieresis" unicode="&#xeb;" horiz-adv-x="395" 
d="M191 526q11 0 18 -7.5t6 -19.5q-2 -24 -27 -24q-11 0 -18 7.5t-6 19.5q2 24 27 24zM282 526q11 0 18 -7.5t6 -19.5q-2 -24 -27 -24q-11 0 -18 7.5t-6 19.5q2 24 27 24zM216 17q59 0 107 44l7 -17q-57 -52 -133 -52q-77 0 -125.5 61t-40.5 148q8 94 63 157.5t137 63.5
q72 0 106 -55t26 -143h-261q-8 -91 21 -149t93 -58zM218 398q-46 0 -77 -45.5t-36 -104.5h193q8 60 -13 105t-67 45z" />
    <glyph glyph-name="igrave" unicode="&#xec;" horiz-adv-x="223" 
d="M131 577h-55l87 -99l13 19zM127 44q-1 -10 9.5 -14.5t24.5 -3t25 7.5l-1 -12q-43 -30 -85 -30q-23 0 -32 15.5t-7 35.5l27 295q4 35 -22 35q-11 2 -29 -6l-4 12l66 29q12 6 29 6q33 0 29 -37z" />
    <glyph glyph-name="iacute" unicode="&#xed;" horiz-adv-x="219" 
d="M127 578l-52 -80l12 -19l95 99h-55zM127 44q-1 -10 9.5 -14.5t24.5 -3t25 7.5l-1 -12q-43 -30 -85 -30q-23 0 -32 15.5t-7 35.5l27 295q4 35 -22 35q-11 2 -29 -6l-4 12l66 29q12 6 29 6q33 0 29 -37z" />
    <glyph glyph-name="icircumflex" unicode="&#xee;" horiz-adv-x="223" 
d="M42 485l73 90h38l58 -90h-26l-53 64l-64 -64h-26zM127 44q-1 -10 9.5 -14.5t24.5 -3t25 7.5l-1 -12q-43 -30 -85 -30q-23 0 -32 15.5t-7 35.5l27 295q4 35 -22 35q-11 2 -29 -6l-4 12l66 29q12 6 29 6q33 0 29 -37z" />
    <glyph glyph-name="idieresis" unicode="&#xef;" horiz-adv-x="223" 
d="M93 546q11 0 18 -7.5t6 -19.5q-2 -24 -27 -24q-11 0 -18 7.5t-6 19.5q2 24 27 24zM184 546q11 0 18 -7.5t6 -19.5q-2 -24 -27 -24q-11 0 -18 7.5t-6 19.5q2 24 27 24zM127 44q-1 -10 9.5 -14.5t24.5 -3t25 7.5l-1 -12q-43 -30 -85 -30q-23 0 -32 15.5t-7 35.5l27 295
q4 35 -22 35q-11 2 -29 -6l-4 12l66 29q12 6 29 6q33 0 29 -37z" />
    <glyph glyph-name="eth" unicode="&#xf0;" horiz-adv-x="471" 
d="M348 587q111 -107 89 -354q-10 -110 -72 -175.5t-152 -65.5q-86 0 -138 60t-44 149q8 94 75 157.5t153 63.5q71 0 114 -55q-6 127 -57 191l-36 -35l-19 19l37 35q-29 29 -75 46l14 28q52 -15 90 -46l39 37l19 -19zM368 202q3 31 -0.5 61.5t-14.5 62t-37.5 50.5t-65.5 19
q-64 0 -103 -50t-45 -122q-6 -81 27.5 -142.5t98.5 -61.5q60 0 96.5 53t43.5 130z" />
    <glyph glyph-name="ntilde" unicode="&#xf1;" horiz-adv-x="479" 
d="M168 496q19 53 61 53q27 0 53.5 -23t42.5 -23q9 0 17 5.5t10.5 9.5t9.5 16l12 -5q-18 -53 -61 -53q-27 0 -53 23t-42 23q-21 0 -37 -31zM61 0l30 338q2 27 -13 33.5t-36 -4.5l-5 12l63 28q19 7 32 7q28 0 28 -32l-4 -37q84 77 164 77q48 0 70 -32t17 -85l-23 -260
q-1 -10 9 -14.5t24 -3.5t26 7l-2 -12q-46 -30 -84 -30q-44 0 -39 52l22 241q9 101 -54 101q-30 0 -67 -21t-65 -52l-28 -313h-65z" />
    <glyph glyph-name="ograve" unicode="&#xf2;" horiz-adv-x="446" 
d="M252 566h-55l87 -99l13 19zM201 -8q-81 0 -129 56.5t-41 146.5q7 95 67.5 161t146.5 66q78 0 128.5 -55t41.5 -150q-7 -87 -64 -156t-150 -69zM216 16q61 0 92 53t38 136q8 92 -25.5 142.5t-91.5 50.5q-32 0 -56.5 -16.5t-39 -45t-22.5 -60.5t-10 -69q-7 -86 24.5 -138.5
t90.5 -52.5z" />
    <glyph glyph-name="oacute" unicode="&#xf3;" horiz-adv-x="446" 
d="M253 566l-52 -80l12 -19l95 99h-55zM201 -8q-81 0 -129 56.5t-41 146.5q7 95 67.5 161t146.5 66q78 0 128.5 -55t41.5 -150q-7 -87 -64 -156t-150 -69zM216 16q61 0 92 53t38 136q8 92 -25.5 142.5t-91.5 50.5q-32 0 -56.5 -16.5t-39 -45t-22.5 -60.5t-10 -69
q-7 -86 24.5 -138.5t90.5 -52.5z" />
    <glyph glyph-name="ocircumflex" unicode="&#xf4;" horiz-adv-x="446" 
d="M165 474l73 90h38l58 -90h-26l-53 64l-64 -64h-26zM201 -8q-81 0 -129 56.5t-41 146.5q7 95 67.5 161t146.5 66q78 0 128.5 -55t41.5 -150q-7 -87 -64 -156t-150 -69zM216 16q61 0 92 53t38 136q8 92 -25.5 142.5t-91.5 50.5q-32 0 -56.5 -16.5t-39 -45t-22.5 -60.5
t-10 -69q-7 -86 24.5 -138.5t90.5 -52.5z" />
    <glyph glyph-name="otilde" unicode="&#xf5;" horiz-adv-x="446" 
d="M149 496q19 53 61 53q27 0 53.5 -23t42.5 -23q9 0 17 5.5t10.5 9.5t9.5 16l12 -5q-18 -53 -61 -53q-27 0 -53 23t-42 23q-21 0 -37 -31zM201 -8q-81 0 -129 56.5t-41 146.5q7 95 67.5 161t146.5 66q78 0 128.5 -55t41.5 -150q-7 -87 -64 -156t-150 -69zM216 16
q61 0 92 53t38 136q8 92 -25.5 142.5t-91.5 50.5q-32 0 -56.5 -16.5t-39 -45t-22.5 -60.5t-10 -69q-7 -86 24.5 -138.5t90.5 -52.5z" />
    <glyph glyph-name="odieresis" unicode="&#xf6;" horiz-adv-x="446" 
d="M207 526q11 0 18 -7.5t6 -19.5q-2 -24 -27 -24q-11 0 -18 7.5t-6 19.5q2 24 27 24zM298 526q11 0 18 -7.5t6 -19.5q-2 -24 -27 -24q-11 0 -18 7.5t-6 19.5q2 24 27 24zM201 -8q-81 0 -129 56.5t-41 146.5q7 95 67.5 161t146.5 66q78 0 128.5 -55t41.5 -150
q-7 -87 -64 -156t-150 -69zM216 16q61 0 92 53t38 136q8 92 -25.5 142.5t-91.5 50.5q-32 0 -56.5 -16.5t-39 -45t-22.5 -60.5t-10 -69q-7 -86 24.5 -138.5t90.5 -52.5z" />
    <glyph glyph-name="divide" unicode="&#xf7;" horiz-adv-x="270" 
d="M141 307q-9 0 -14.5 6.5t-4.5 14.5t7.5 14.5t15.5 6.5q8 0 13.5 -6.5t4.5 -14.5t-7.5 -14.5t-14.5 -6.5zM37 263h200l-3 -29h-200zM127 148q-9 0 -14.5 6.5t-4.5 14.5t7.5 14.5t15.5 6.5q8 0 13.5 -6.5t4.5 -14.5t-7.5 -14.5t-14.5 -6.5z" />
    <glyph glyph-name="oslash" unicode="&#xf8;" horiz-adv-x="446" 
d="M372 368q52 -57 43 -151q-7 -87 -64 -156t-150 -69q-70 0 -116 43l-30 -35h-36l48 55q-42 54 -36 140q7 95 67.5 161t146.5 66q63 0 107 -35l24 27h36zM101 207q-5 -59 9 -102l209 243q-32 50 -90 50q-32 0 -56.5 -16.5t-39 -45t-22.5 -60.5t-10 -69zM346 205
q6 70 -13 117l-212 -245q31 -61 95 -61q61 0 92 53t38 136z" />
    <glyph glyph-name="ugrave" unicode="&#xf9;" horiz-adv-x="462" 
d="M259 566h-55l87 -99l13 19zM426 33l2 -12q-66 -29 -86 -29q-14 0 -22.5 18.5t-7.5 47.5q-56 -66 -133 -66q-60 0 -88.5 32t-23.5 83l20 234q5 51 -50 26l-4 11l64 29q15 7 31 7q33 0 28 -38l-22 -251q-5 -51 11.5 -80t53.5 -29q52 0 114 74l24 268q3 35 -43 22l-3 11
l51 16q21 7 38 7q27 0 25 -32l-29 -327q-3 -28 21 -28q11 0 29 6z" />
    <glyph glyph-name="uacute" unicode="&#xfa;" horiz-adv-x="462" 
d="M260 566l-52 -80l12 -19l95 99h-55zM426 33l2 -12q-66 -29 -86 -29q-14 0 -22.5 18.5t-7.5 47.5q-56 -66 -133 -66q-60 0 -88.5 32t-23.5 83l20 234q5 51 -50 26l-4 11l64 29q15 7 31 7q33 0 28 -38l-22 -251q-5 -51 11.5 -80t53.5 -29q52 0 114 74l24 268q3 35 -43 22
l-3 11l51 16q21 7 38 7q27 0 25 -32l-29 -327q-3 -28 21 -28q11 0 29 6z" />
    <glyph glyph-name="ucircumflex" unicode="&#xfb;" horiz-adv-x="462" 
d="M172 474l73 90h38l58 -90h-26l-53 64l-64 -64h-26zM426 33l2 -12q-66 -29 -86 -29q-14 0 -22.5 18.5t-7.5 47.5q-56 -66 -133 -66q-60 0 -88.5 32t-23.5 83l20 234q5 51 -50 26l-4 11l64 29q15 7 31 7q33 0 28 -38l-22 -251q-5 -51 11.5 -80t53.5 -29q52 0 114 74l24 268
q3 35 -43 22l-3 11l51 16q21 7 38 7q27 0 25 -32l-29 -327q-3 -28 21 -28q11 0 29 6z" />
    <glyph glyph-name="udieresis" unicode="&#xfc;" horiz-adv-x="462" 
d="M214 526q11 0 18 -7.5t6 -19.5q-2 -24 -27 -24q-11 0 -18 7.5t-6 19.5q2 24 27 24zM305 526q11 0 18 -7.5t6 -19.5q-2 -24 -27 -24q-11 0 -18 7.5t-6 19.5q2 24 27 24zM426 33l2 -12q-66 -29 -86 -29q-14 0 -22.5 18.5t-7.5 47.5q-56 -66 -133 -66q-60 0 -88.5 32
t-23.5 83l20 234q5 51 -50 26l-4 11l64 29q15 7 31 7q33 0 28 -38l-22 -251q-5 -51 11.5 -80t53.5 -29q52 0 114 74l24 268q3 35 -43 22l-3 11l51 16q21 7 38 7q27 0 25 -32l-29 -327q-3 -28 21 -28q11 0 29 6z" />
    <glyph glyph-name="yacute" unicode="&#xfd;" horiz-adv-x="384" 
d="M220 566l-52 -80l12 -19l95 99h-55zM314 422q18 0 28.5 -17t8.5 -47q-3 -49 -41 -122l-152 -295q-55 -106 -121 -106q-25 0 -37.5 10t-11.5 26q3 34 30 34q14 0 27 -11.5t15 -12.5q8 -4 18.5 -1t26 23.5t34.5 56.5l31 60l-92 323q-4 12 -5 15.5t-5 11t-7.5 9t-9.5 1.5
t-14 -3l-5 -2l-3 12l43 20q18 7 32 7q26 0 35 -31l74 -286l73 142q26 55 28 81q2 14 -4.5 21.5t-15 9.5t-15 9t-5.5 19q3 43 40 43z" />
    <glyph glyph-name="thorn" unicode="&#xfe;" horiz-adv-x="420" 
d="M250 422q64 0 105 -58.5t33 -152.5q-9 -95 -64 -157t-127 -62q-51 0 -83 26l-14 -157q-1 -15 16 -22.5t43 -7.5l-1 -11h-172l1 11q40 0 46 26l60 678q1 17 -11 22q-9 6 -21 3l-8 -3l-4 12l52 16q24 6 35 6q29 0 24 -31l-16 -191q56 53 106 53zM316 194q8 91 -14.5 147.5
t-68.5 56.5q-34 0 -92 -62l-25 -288q34 -32 73 -32q52 0 86 48.5t41 129.5z" />
    <glyph glyph-name="ydieresis" unicode="&#xff;" horiz-adv-x="384" 
d="M174 526q11 0 18 -7.5t6 -19.5q-2 -24 -27 -24q-11 0 -18 7.5t-6 19.5q2 24 27 24zM265 526q11 0 18 -7.5t6 -19.5q-2 -24 -27 -24q-11 0 -18 7.5t-6 19.5q2 24 27 24zM314 422q18 0 28.5 -17t8.5 -47q-3 -49 -41 -122l-152 -295q-55 -106 -121 -106q-25 0 -37.5 10
t-11.5 26q3 34 30 34q14 0 27 -11.5t15 -12.5q8 -4 18.5 -1t26 23.5t34.5 56.5l31 60l-92 323q-4 12 -5 15.5t-5 11t-7.5 9t-9.5 1.5t-14 -3l-5 -2l-3 12l43 20q18 7 32 7q26 0 35 -31l74 -286l73 142q26 55 28 81q2 14 -4.5 21.5t-15 9.5t-15 9t-5.5 19q3 43 40 43z" />
    <glyph glyph-name="Amacron" unicode="&#x100;" horiz-adv-x="581" 
d="M250 729h162l-8 -28h-162zM506 33q9 -22 45 -22l-1 -11h-159l1 11q18 0 30 6t10 16l-48 189h-219l-77 -188q-5 -11 13 -17t45 -6l-1 -11h-150l2 11q43 0 52 19l264 628l22 7zM177 251h199l-77 293z" />
    <glyph glyph-name="amacron" unicode="&#x101;" horiz-adv-x="436" 
d="M332 513l-8 -28h-162l8 28h162zM401 33l2 -12q-62 -29 -88 -29q-23 0 -29 35q-41 -35 -102 -35q-81 0 -126 62t-34 157q10 91 65 151t139 60q54 0 91 -28l24 20h39l-32 -359q-1 -15 3 -21.5t18 -6.5q15 0 30 6zM286 57l27 307q-31 34 -79 34q-63 0 -100.5 -55.5
t-42.5 -142.5q-5 -83 27 -133.5t84 -50.5t84 41z" />
    <glyph glyph-name="Abreve" unicode="&#x102;" horiz-adv-x="581" 
d="M326 691q-50 0 -71 55l22 6q16 -31 52 -31q37 0 56 31l21 -6q-28 -55 -80 -55zM506 33q9 -22 45 -22l-1 -11h-159l1 11q18 0 30 6t10 16l-48 189h-219l-77 -188q-5 -11 13 -17t45 -6l-1 -11h-150l2 11q43 0 52 19l264 628l22 7zM177 251h199l-77 293z" />
    <glyph glyph-name="abreve" unicode="&#x103;" horiz-adv-x="436" 
d="M246 475q-50 0 -71 55l22 6q16 -31 52 -31q37 0 56 31l21 -6q-28 -55 -80 -55zM401 33l2 -12q-62 -29 -88 -29q-23 0 -29 35q-41 -35 -102 -35q-81 0 -126 62t-34 157q10 91 65 151t139 60q54 0 91 -28l24 20h39l-32 -359q-1 -15 3 -21.5t18 -6.5q15 0 30 6zM286 57
l27 307q-31 34 -79 34q-63 0 -100.5 -55.5t-42.5 -142.5q-5 -83 27 -133.5t84 -50.5t84 41z" />
    <glyph glyph-name="Aogonek" unicode="&#x104;" horiz-adv-x="581" 
d="M506 33q9 -22 45 -22l-1 -11h-22q-51 -26 -54 -63q-1 -15 6.5 -24t18.5 -9t18 6l5 -13q-17 -14 -45 -14q-24 0 -39 12t-13 35q2 25 22 43.5t46 26.5h-102l1 11q18 0 30 6t10 16l-48 189h-219l-77 -188q-5 -11 13 -17t45 -6l-1 -11h-150l2 11q43 0 52 19l264 628l22 7z
M177 251h199l-77 293z" />
    <glyph glyph-name="aogonek" unicode="&#x105;" horiz-adv-x="436" 
d="M318 -95q11 0 18 6l5 -13q-17 -14 -45 -14q-24 0 -39 12t-13 35q3 42 57 66q-12 10 -15 30q-41 -35 -102 -35q-81 0 -126 62t-34 157q10 91 65 151t139 60q54 0 91 -28l24 20h39l-32 -359q-1 -15 3 -21.5t18 -6.5q15 0 30 6l2 -12q-34 -16 -64 -24q-43 -26 -46 -59
q-1 -15 6.5 -24t18.5 -9zM286 57l27 307q-31 34 -79 34q-63 0 -100.5 -55.5t-42.5 -142.5q-5 -83 27 -133.5t84 -50.5t84 41z" />
    <glyph glyph-name="Cacute" unicode="&#x106;" horiz-adv-x="593" 
d="M453 782l-134 -80l7 -19l140 58zM532 107l10 -19q-35 -49 -93 -72.5t-119 -23.5q-126 0 -210.5 91.5t-72.5 231.5q14 157 115.5 250t226.5 93q61 0 115 -22q42 -18 52 5l11 -5l-41 -136l-11 4q9 44 5 65t-23 32q-40 25 -116 25q-108 0 -176.5 -81t-82.5 -213
q-14 -131 54.5 -219.5t174.5 -88.5q52 0 101.5 22t79.5 61z" />
    <glyph glyph-name="cacute" unicode="&#x107;" horiz-adv-x="384" 
d="M246 566l-52 -80l12 -19l95 99h-55zM334 84l5 -17q-46 -75 -143 -75q-84 0 -127.5 59.5t-37.5 142.5q6 97 64.5 162.5t145.5 65.5q55 0 88 -27t33 -64q0 -22 -11.5 -32.5t-26.5 -10.5q-14 0 -23.5 9.5t-9.5 26.5q0 12 8 24q7 13 1 23q-10 27 -62 27q-125 0 -138 -194
q-5 -81 25.5 -134t90.5 -53q70 0 118 67z" />
    <glyph glyph-name="Cdotaccent" unicode="&#x10a;" horiz-adv-x="593" 
d="M394 748q14 0 22.5 -10t6.5 -22q-1 -14 -10.5 -21.5t-20.5 -7.5q-14 0 -22.5 9.5t-7.5 22.5q1 14 10.5 21.5t21.5 7.5zM532 107l10 -19q-35 -49 -93 -72.5t-119 -23.5q-126 0 -210.5 91.5t-72.5 231.5q14 157 115.5 250t226.5 93q61 0 115 -22q42 -18 52 5l11 -5
l-41 -136l-11 4q9 44 5 65t-23 32q-40 25 -116 25q-108 0 -176.5 -81t-82.5 -213q-14 -131 54.5 -219.5t174.5 -88.5q52 0 101.5 22t79.5 61z" />
    <glyph glyph-name="cdotaccent" unicode="&#x10b;" horiz-adv-x="384" 
d="M246 532q14 0 22.5 -10t6.5 -22q-1 -14 -10.5 -21.5t-20.5 -7.5q-14 0 -22.5 9.5t-7.5 22.5q1 14 10.5 21.5t21.5 7.5zM334 84l5 -17q-46 -75 -143 -75q-84 0 -127.5 59.5t-37.5 142.5q6 97 64.5 162.5t145.5 65.5q55 0 88 -27t33 -64q0 -22 -11.5 -32.5t-26.5 -10.5
q-14 0 -23.5 9.5t-9.5 26.5q0 12 8 24q7 13 1 23q-10 27 -62 27q-125 0 -138 -194q-5 -81 25.5 -134t90.5 -53q70 0 118 67z" />
    <glyph glyph-name="Ccaron" unicode="&#x10c;" horiz-adv-x="593" 
d="M314 780l64 -90h26l79 90h-34l-56 -64l-44 64h-35zM532 107l10 -19q-35 -49 -93 -72.5t-119 -23.5q-126 0 -210.5 91.5t-72.5 231.5q14 157 115.5 250t226.5 93q61 0 115 -22q42 -18 52 5l11 -5l-41 -136l-11 4q9 44 5 65t-23 32q-40 25 -116 25q-108 0 -176.5 -81
t-82.5 -213q-14 -131 54.5 -219.5t174.5 -88.5q52 0 101.5 22t79.5 61z" />
    <glyph glyph-name="ccaron" unicode="&#x10d;" horiz-adv-x="384" 
d="M166 564l64 -90h26l79 90h-34l-56 -64l-44 64h-35zM334 84l5 -17q-46 -75 -143 -75q-84 0 -127.5 59.5t-37.5 142.5q6 97 64.5 162.5t145.5 65.5q55 0 88 -27t33 -64q0 -22 -11.5 -32.5t-26.5 -10.5q-14 0 -23.5 9.5t-9.5 26.5q0 12 8 24q7 13 1 23q-10 27 -62 27
q-125 0 -138 -194q-5 -81 25.5 -134t90.5 -53q70 0 118 67z" />
    <glyph glyph-name="Dcaron" unicode="&#x10e;" horiz-adv-x="624" 
d="M265 780l64 -90h26l79 90h-34l-56 -64l-44 64h-35zM341 650q51 0 98.5 -21t86 -59t58.5 -99.5t14 -135.5q-8 -89 -43.5 -163t-103.5 -123t-156 -49h-272l1 11q19 0 37 8t19 22l50 568q1 14 -15 22t-35 8l1 11h260zM266 25q56 0 99.5 17t71 43.5t46 66t27 78.5t12.5 86
q12 139 -46.5 224t-178.5 85q-57 0 -97 -8l-51 -583q58 -9 117 -9z" />
    <glyph glyph-name="dcaron" unicode="&#x10f;" horiz-adv-x="506" 
d="M473 675q5 14 21 14q14 0 22 -9.5t3 -18.5l-64 -155q-3 -6 -8 -6q-10 0 -6 9zM411 33l2 -12q-60 -29 -88 -29q-22 0 -29 35q-38 -35 -101 -35q-75 0 -119.5 55.5t-43.5 142.5q1 102 60.5 167t142.5 65q57 0 90 -33l18 213q3 35 -42 22l-3 11l50 16q23 7 38 7q28 0 26 -32
l-50 -571q-2 -15 2 -21.5t19 -6.5q12 0 28 6zM101 206q-2 -80 28 -135t84 -55q49 0 82 40l26 292q-8 21 -30 35.5t-51 14.5q-62 0 -100 -52t-39 -140z" />
    <glyph glyph-name="Dcroat" unicode="&#x110;" horiz-adv-x="624" 
d="M341 650q51 0 98.5 -21t86 -59t58.5 -99.5t14 -135.5q-8 -89 -43.5 -163t-103.5 -123t-156 -49h-272l1 11q19 0 37 8t19 22l25 289h-46l14 29h35l22 250q1 14 -15 22t-35 8l1 11h260zM522 316q12 139 -46.5 224t-178.5 85q-57 0 -97 -8l-23 -258h198l-14 -29h-186
l-26 -296q58 -9 117 -9q56 0 99.5 17t71 43.5t46 66t27 78.5t12.5 86z" />
    <glyph glyph-name="dcroat" unicode="&#x111;" horiz-adv-x="450" 
d="M403 527l-41 -472q-2 -15 2 -21.5t19 -6.5q12 0 28 6l2 -12q-60 -29 -88 -29q-22 0 -29 35q-38 -35 -101 -35q-75 0 -119.5 55.5t-43.5 142.5q1 102 60.5 167t142.5 65q57 0 90 -33l12 138h-62l12 29h52l4 46q3 35 -42 22l-3 11l50 16q23 7 38 7q28 0 26 -32l-6 -70h58
l-12 -29h-49zM295 56l26 292q-8 21 -30 35.5t-51 14.5q-62 0 -100 -52t-39 -140q-2 -80 28 -135t84 -55q49 0 82 40z" />
    <glyph glyph-name="Emacron" unicode="&#x112;" horiz-adv-x="474" 
d="M221 729h162l-8 -28h-162zM421 93l12 -4l-28 -89h-381l1 11q19 0 37.5 8t19.5 22l49 568q1 14 -16 22t-36 8l1 11h360l28 -90l-12 -3q-24 64 -71 64h-184l-23 -270h159q14 0 23.5 19t11.5 48h11l-14 -162h-11q5 66 -23 66h-159l-26 -293h205q25 0 38.5 14.5t27.5 49.5z
" />
    <glyph glyph-name="emacron" unicode="&#x113;" horiz-adv-x="395" 
d="M158 513h162l-8 -28h-162zM216 17q59 0 107 44l7 -17q-57 -52 -133 -52q-77 0 -125.5 61t-40.5 148q8 94 63 157.5t137 63.5q72 0 106 -55t26 -143h-261q-8 -91 21 -149t93 -58zM218 398q-46 0 -77 -45.5t-36 -104.5h193q8 60 -13 105t-67 45z" />
    <glyph glyph-name="Edotaccent" unicode="&#x116;" horiz-adv-x="474" 
d="M300 748q14 0 22.5 -10t6.5 -22q-1 -14 -10.5 -21.5t-20.5 -7.5q-14 0 -22.5 9.5t-7.5 22.5q1 14 10.5 21.5t21.5 7.5zM421 93l12 -4l-28 -89h-381l1 11q19 0 37.5 8t19.5 22l49 568q1 14 -16 22t-36 8l1 11h360l28 -90l-12 -3q-24 64 -71 64h-184l-23 -270h159
q14 0 23.5 19t11.5 48h11l-14 -162h-11q5 66 -23 66h-159l-26 -293h205q25 0 38.5 14.5t27.5 49.5z" />
    <glyph glyph-name="edotaccent" unicode="&#x117;" horiz-adv-x="395" 
d="M237 532q14 0 22.5 -10t6.5 -22q-1 -14 -10.5 -21.5t-20.5 -7.5q-14 0 -22.5 9.5t-7.5 22.5q1 14 10.5 21.5t21.5 7.5zM216 17q59 0 107 44l7 -17q-57 -52 -133 -52q-77 0 -125.5 61t-40.5 148q8 94 63 157.5t137 63.5q72 0 106 -55t26 -143h-261q-8 -91 21 -149t93 -58z
M218 398q-46 0 -77 -45.5t-36 -104.5h193q8 60 -13 105t-67 45z" />
    <glyph glyph-name="Eogonek" unicode="&#x118;" horiz-adv-x="474" 
d="M385 621h-184l-23 -270h159q14 0 23.5 19t11.5 48h11l-14 -162h-11q5 66 -23 66h-159l-26 -293h205q25 0 38.5 14.5t27.5 49.5l12 -4l-28 -89h-32q-51 -26 -54 -63q-1 -15 6.5 -24t18.5 -9q10 0 18 6l5 -13q-17 -14 -45 -14q-24 0 -39 12t-13 35q2 25 22 43.5t46 26.5
h-314l1 11q19 0 37.5 8t19.5 22l49 568q1 14 -16 22t-36 8l1 11h360l28 -90l-12 -3q-24 64 -71 64z" />
    <glyph glyph-name="eogonek" unicode="&#x119;" horiz-adv-x="395" 
d="M363 224h-261q-8 -91 21 -149t93 -58q59 0 107 44l7 -17q-32 -29 -75 -43q-47 -26 -50 -61q-1 -15 6.5 -24t18.5 -9t18 6l5 -13q-17 -14 -45 -14q-24 0 -39 12t-13 35q3 35 43 59h-2q-77 0 -125.5 61t-40.5 148q8 94 63 157.5t137 63.5q72 0 106 -55t26 -143zM218 398
q-46 0 -77 -45.5t-36 -104.5h193q8 60 -13 105t-67 45z" />
    <glyph glyph-name="Ecaron" unicode="&#x11a;" horiz-adv-x="474" 
d="M220 780l64 -90h26l79 90h-34l-56 -64l-44 64h-35zM421 93l12 -4l-28 -89h-381l1 11q19 0 37.5 8t19.5 22l49 568q1 14 -16 22t-36 8l1 11h360l28 -90l-12 -3q-24 64 -71 64h-184l-23 -270h159q14 0 23.5 19t11.5 48h11l-14 -162h-11q5 66 -23 66h-159l-26 -293h205
q25 0 38.5 14.5t27.5 49.5z" />
    <glyph glyph-name="ecaron" unicode="&#x11b;" horiz-adv-x="395" 
d="M157 564l64 -90h26l79 90h-34l-56 -64l-44 64h-35zM216 17q59 0 107 44l7 -17q-57 -52 -133 -52q-77 0 -125.5 61t-40.5 148q8 94 63 157.5t137 63.5q72 0 106 -55t26 -143h-261q-8 -91 21 -149t93 -58zM218 398q-46 0 -77 -45.5t-36 -104.5h193q8 60 -13 105t-67 45z
" />
    <glyph glyph-name="Gbreve" unicode="&#x11e;" horiz-adv-x="638" 
d="M394 691q-50 0 -71 55l22 6q16 -31 52 -31q37 0 56 31l21 -6q-28 -55 -80 -55zM617 296q-36 -2 -39 -30l-13 -144q-1 -28 6 -45q-104 -85 -243 -85q-132 0 -212 87.5t-70 234.5q10 154 109 249t244 95q68 0 138 -31q20 -10 31 12h12l-12 -131l-10 5q1 57 -48 85t-119 28
q-116 0 -189 -75.5t-82 -226.5q-9 -145 56 -222.5t169 -77.5q86 0 150 40l16 180q2 25 -20 38t-57 14l1 11h183z" />
    <glyph glyph-name="gbreve" unicode="&#x11f;" horiz-adv-x="395" 
d="M214 475q-50 0 -71 55l22 6q16 -31 52 -31q37 0 56 31l21 -6q-28 -55 -80 -55zM343 277q-4 -60 -48.5 -102t-113.5 -42q-34 0 -63 13l-26 -26q-13 -15 4 -22q18 -6 52 -15l57 -15t51 -17.5t44.5 -24t27.5 -32t9 -43.5q-5 -59 -57 -95t-134 -36q-65 0 -106.5 26.5
t-37.5 70.5q3 35 29 61.5t64 35.5l3 -11q-46 -28 -49 -78q-3 -36 28.5 -58.5t83.5 -22.5q51 0 77.5 25.5t29.5 59.5q2 25 -15.5 46t-47.5 35.5t-58 24.5t-57 17.5t-35 10.5q-21 10 -20.5 24.5t16.5 27.5l47 42q-57 45 -50 117q5 65 50 106.5t113 41.5q48 0 79 -26
q25 48 69 48q15 0 25.5 -11t9.5 -25q-3 -34 -34 -34q-13 0 -21 8t-7 22q0 13 9 22q-23 -7 -32 -46q40 -40 34 -103zM195 398q-72 0 -82 -110q-7 -60 15.5 -95t66.5 -35q74 0 84 108q5 60 -16.5 96t-67.5 36z" />
    <glyph glyph-name="Gdotaccent" unicode="&#x120;" horiz-adv-x="638" 
d="M397 748q14 0 22.5 -10t6.5 -22q-1 -14 -10.5 -21.5t-20.5 -7.5q-14 0 -22.5 9.5t-7.5 22.5q1 14 10.5 21.5t21.5 7.5zM617 296q-36 -2 -39 -30l-13 -144q-1 -28 6 -45q-104 -85 -243 -85q-132 0 -212 87.5t-70 234.5q10 154 109 249t244 95q68 0 138 -31q20 -10 31 12
h12l-12 -131l-10 5q1 57 -48 85t-119 28q-116 0 -189 -75.5t-82 -226.5q-9 -145 56 -222.5t169 -77.5q86 0 150 40l16 180q2 25 -20 38t-57 14l1 11h183z" />
    <glyph glyph-name="gdotaccent" unicode="&#x121;" horiz-adv-x="395" 
d="M217 532q14 0 22.5 -10t6.5 -22q-1 -14 -10.5 -21.5t-20.5 -7.5q-14 0 -22.5 9.5t-7.5 22.5q1 14 10.5 21.5t21.5 7.5zM343 277q-4 -60 -48.5 -102t-113.5 -42q-34 0 -63 13l-26 -26q-13 -15 4 -22q18 -6 52 -15l57 -15t51 -17.5t44.5 -24t27.5 -32t9 -43.5
q-5 -59 -57 -95t-134 -36q-65 0 -106.5 26.5t-37.5 70.5q3 35 29 61.5t64 35.5l3 -11q-46 -28 -49 -78q-3 -36 28.5 -58.5t83.5 -22.5q51 0 77.5 25.5t29.5 59.5q2 25 -15.5 46t-47.5 35.5t-58 24.5t-57 17.5t-35 10.5q-21 10 -20.5 24.5t16.5 27.5l47 42q-57 45 -50 117
q5 65 50 106.5t113 41.5q48 0 79 -26q25 48 69 48q15 0 25.5 -11t9.5 -25q-3 -34 -34 -34q-13 0 -21 8t-7 22q0 13 9 22q-23 -7 -32 -46q40 -40 34 -103zM195 398q-72 0 -82 -110q-7 -60 15.5 -95t66.5 -35q74 0 84 108q5 60 -16.5 96t-67.5 36z" />
    <glyph glyph-name="Gcommaaccent" unicode="&#x122;" horiz-adv-x="638" 
d="M617 296q-36 -2 -39 -30l-13 -144q-1 -28 6 -45q-104 -85 -243 -85q-132 0 -212 87.5t-70 234.5q10 154 109 249t244 95q68 0 138 -31q20 -10 31 12h12l-12 -131l-10 5q1 57 -48 85t-119 28q-116 0 -189 -75.5t-82 -226.5q-9 -145 56 -222.5t169 -77.5q86 0 150 40
l16 180q2 25 -20 38t-57 14l1 11h183zM319 -31l-5 -18l-33 -62l7 -19l68 78l2 21h-39z" />
    <glyph glyph-name="gcommaaccent" unicode="&#x123;" horiz-adv-x="395" 
d="M343 277q-4 -60 -48.5 -102t-113.5 -42q-34 0 -63 13l-26 -26q-13 -15 4 -22q18 -6 52 -15l57 -15t51 -17.5t44.5 -24t27.5 -32t9 -43.5q-5 -59 -57 -95t-134 -36q-65 0 -106.5 26.5t-37.5 70.5q3 35 29 61.5t64 35.5l3 -11q-46 -28 -49 -78q-3 -36 28.5 -58.5
t83.5 -22.5q51 0 77.5 25.5t29.5 59.5q2 25 -15.5 46t-47.5 35.5t-58 24.5t-57 17.5t-35 10.5q-21 10 -20.5 24.5t16.5 27.5l47 42q-57 45 -50 117q5 65 50 106.5t113 41.5q48 0 79 -26q25 48 69 48q15 0 25.5 -11t9.5 -25q-3 -34 -34 -34q-13 0 -21 8t-7 22q0 13 9 22
q-23 -7 -32 -46q40 -40 34 -103zM195 398q-72 0 -82 -110q-7 -60 15.5 -95t66.5 -35q74 0 84 108q5 60 -16.5 96t-67.5 36zM138 -195l-5 -18l-33 -62l7 -19l68 78l2 21h-39z" />
    <glyph glyph-name="Hbar" unicode="&#x126;" horiz-adv-x="656" 
d="M652 639q-20 0 -38.5 -8t-19.5 -22l-50 -568q-1 -14 15.5 -22t36.5 -8l-1 -11h-169l1 11q45 0 48 30l21 235h-324l-21 -235q-1 -15 11 -22.5t31 -7.5l-1 -11h-169l1 11q20 0 38.5 8t19.5 22l50 568q1 14 -16 22t-37 8l1 11h169l-1 -11q-44 0 -47 -30l-18 -204h324l18 204
q1 15 -11 22.5t-31 7.5l1 11h169zM175 304h324l6 73h-324z" />
    <glyph glyph-name="hbar" unicode="&#x127;" horiz-adv-x="475" 
d="M379 44q-1 -10 9 -14.5t24 -3t26 7.5l-1 -12q-45 -30 -84 -30q-46 0 -39 52l20 232q5 51 -11 80.5t-53 29.5q-65 0 -130 -83l-26 -303h-66l46 527h-49l12 29h40l4 46q1 16 -11 22t-32 0l-3 11l47 15q25 8 39 8q30 0 28 -33l-6 -69h71l-12 -29h-62l-17 -188q77 83 158 83
q54 0 80 -33t21 -92z" />
    <glyph glyph-name="Itilde" unicode="&#x128;" horiz-adv-x="245" 
d="M65 712q19 53 61 53q27 0 53.5 -23t42.5 -23q9 0 17 5.5t10.5 9.5t9.5 16l12 -5q-18 -53 -61 -53q-27 0 -53 23t-42 23q-21 0 -37 -31zM241 639q-16 0 -32 -8t-17 -22l-50 -568q-1 -14 12.5 -22t29.5 -8l-2 -11h-159l1 11q17 0 32.5 8t16.5 22l50 568q1 14 -12.5 22
t-29.5 8l1 11h160z" />
    <glyph glyph-name="itilde" unicode="&#x129;" horiz-adv-x="223" 
d="M35 516q19 53 61 53q27 0 53.5 -23t42.5 -23q9 0 17 5.5t10.5 9.5t9.5 16l12 -5q-18 -53 -61 -53q-27 0 -53 23t-42 23q-21 0 -37 -31zM127 44q-1 -10 9.5 -14.5t24.5 -3t25 7.5l-1 -12q-43 -30 -85 -30q-23 0 -32 15.5t-7 35.5l27 295q4 35 -22 35q-11 2 -29 -6l-4 12
l66 29q12 6 29 6q33 0 29 -37z" />
    <glyph glyph-name="Imacron" unicode="&#x12a;" horiz-adv-x="245" 
d="M90 729h162l-8 -28h-162zM241 639q-16 0 -32 -8t-17 -22l-50 -568q-1 -14 12.5 -22t29.5 -8l-2 -11h-159l1 11q17 0 32.5 8t16.5 22l50 568q1 14 -12.5 22t-29.5 8l1 11h160z" />
    <glyph glyph-name="imacron" unicode="&#x12b;" horiz-adv-x="223" 
d="M60 533h162l-8 -28h-162zM127 44q-1 -10 9.5 -14.5t24.5 -3t25 7.5l-1 -12q-43 -30 -85 -30q-23 0 -32 15.5t-7 35.5l27 295q4 35 -22 35q-11 2 -29 -6l-4 12l66 29q12 6 29 6q33 0 29 -37z" />
    <glyph glyph-name="Iogonek" unicode="&#x12e;" horiz-adv-x="245" 
d="M82 650h160l-1 -11q-16 0 -32 -8t-17 -22l-50 -568q-1 -14 12.5 -22t29.5 -8l-2 -11h-21q-51 -26 -54 -63q-1 -15 6.5 -24t18.5 -9q10 0 18 6l5 -13q-17 -14 -45 -14q-24 0 -39 12t-13 35q2 25 22 43.5t46 26.5h-103l1 11q17 0 32.5 8t16.5 22l50 568q1 14 -12.5 22
t-29.5 8z" />
    <glyph glyph-name="iogonek" unicode="&#x12f;" horiz-adv-x="219" 
d="M132 494q-33 0 -33 38q0 19 11.5 30t27.5 11q34 0 34 -38q0 -19 -11.5 -30t-28.5 -11zM182 34l-1 -12q-19 -13 -45 -22q-51 -26 -54 -63q-1 -15 6.5 -24t18.5 -9t18 6l5 -13q-17 -14 -45 -14q-24 0 -39 12t-13 35q3 40 51 63q-32 8 -27 50l27 295q4 35 -22 35
q-11 2 -29 -6l-4 12l66 29q12 6 29 6q33 0 29 -37l-30 -333q-1 -10 9.5 -14.5t24.5 -3t25 7.5z" />
    <glyph glyph-name="Idotaccent" unicode="&#x130;" horiz-adv-x="245" 
d="M169 748q14 0 22.5 -10t6.5 -22q-1 -14 -10.5 -21.5t-20.5 -7.5q-14 0 -22.5 9.5t-7.5 22.5q1 14 10.5 21.5t21.5 7.5zM241 639q-16 0 -32 -8t-17 -22l-50 -568q-1 -14 12.5 -22t29.5 -8l-2 -11h-159l1 11q17 0 32.5 8t16.5 22l50 568q1 14 -12.5 22t-29.5 8l1 11h160z
" />
    <glyph glyph-name="dotlessi" unicode="&#x131;" horiz-adv-x="223" 
d="M127 44q-1 -10 9.5 -14.5t24.5 -3t25 7.5l-1 -12q-43 -30 -85 -30q-23 0 -32 15.5t-7 35.5l27 295q4 35 -22 35q-11 2 -29 -6l-4 12l66 29q12 6 29 6q33 0 29 -37z" />
    <glyph glyph-name="Kcommaaccent" unicode="&#x136;" horiz-adv-x="627" 
d="M495 61q40 -50 107 -50l-1 -11h-166q10 18 1 33l-229 286l-34 -31l-22 -247q-1 -15 18.5 -22.5t45.5 -7.5l-2 -11h-190l1 11q20 0 38.5 8t19.5 22l50 568q1 14 -16 22t-37 8l1 11h169l-1 -11q-44 0 -47 -30l-24 -275l291 273q10 12 4 22t-19 10l1 11h150l-1 -11
q-50 0 -88 -31l-259 -245zM286 -31l-5 -18l-33 -62l7 -19l68 78l2 21h-39z" />
    <glyph glyph-name="kcommaaccent" unicode="&#x137;" horiz-adv-x="419" 
d="M361 19q21 0 39 15l-1 -12q-24 -30 -67 -30q-11 0 -22 3t-22 11.5l-19.5 15.5t-20 22.5t-18.5 26t-19.5 31.5t-19 33l-20.5 37.5l-21 37.5l2 22q74 0 112 24.5t43 65.5q4 30 -10.5 51.5t-35.5 21.5q-25 0 -59 -26.5t-61 -61.5l-27 -307h-66l53 602q1 16 -11 22t-32 0
l-3 11l54 17q19 6 33 6q30 0 27 -39l-24 -275q27 32 63.5 55t73.5 23q41 0 68.5 -25.5t23.5 -67.5q-6 -51 -54 -81.5t-102 -30.5l27 -48.5l25 -44l21 -35.5t20 -30.5t17 -21t17 -14.5t16 -4zM199 -49l5 18h39l-2 -21l-68 -78l-7 19z" />
    <glyph glyph-name="Lacute" unicode="&#x139;" horiz-adv-x="462" 
d="M336 782l-134 -80l7 -19l140 58zM411 93l11 -4l-28 -89h-371l1 11q20 0 38.5 8t19.5 22l49 568q1 14 -15 22t-36 8l1 11h189l-2 -11q-25 0 -46 -7.5t-22 -22.5l-50 -580h194q24 0 38.5 15t28.5 49z" />
    <glyph glyph-name="lacute" unicode="&#x13a;" horiz-adv-x="210" 
d="M194 782l-134 -80l7 -19l140 58zM118 45q-1 -10 9 -14.5t24 -3.5t26 7l-1 -12q-49 -30 -85 -30q-44 0 -38 51l48 559q1 16 -11 22.5t-32 -0.5l-3 11l48 15q24 8 41 8q12 0 19 -8.5t6 -22.5z" />
    <glyph glyph-name="Lcommaaccent" unicode="&#x13b;" horiz-adv-x="462" 
d="M411 93l11 -4l-28 -89h-371l1 11q20 0 38.5 8t19.5 22l49 568q1 14 -15 22t-36 8l1 11h189l-2 -11q-25 0 -46 -7.5t-22 -22.5l-50 -580h194q24 0 38.5 15t28.5 49zM199 -31l-5 -18l-33 -62l7 -19l68 78l2 21h-39z" />
    <glyph glyph-name="lcommaaccent" unicode="&#x13c;" horiz-adv-x="210" 
d="M118 45q-1 -10 9 -14.5t24 -3.5t26 7l-1 -12q-49 -30 -85 -30q-44 0 -38 51l48 559q1 16 -11 22.5t-32 -0.5l-3 11l48 15q24 8 41 8q12 0 19 -8.5t6 -22.5zM77 -31l-5 -18l-33 -62l7 -19l68 78l2 21h-39z" />
    <glyph glyph-name="Lcaron" unicode="&#x13d;" horiz-adv-x="462" 
d="M380 675q5 14 21 14q14 0 22 -9.5t3 -18.5l-64 -155q-3 -6 -8 -6q-10 0 -6 9zM411 93l11 -4l-28 -89h-371l1 11q20 0 38.5 8t19.5 22l49 568q1 14 -15 22t-36 8l1 11h189l-2 -11q-25 0 -46 -7.5t-22 -22.5l-50 -580h194q24 0 38.5 15t28.5 49z" />
    <glyph glyph-name="lcaron" unicode="&#x13e;" horiz-adv-x="246" 
d="M229 675q5 14 21 14q14 0 22 -9.5t3 -18.5l-64 -155q-3 -6 -8 -6q-10 0 -6 9zM118 45q-1 -10 9 -14.5t24 -3.5t26 7l-1 -12q-49 -30 -85 -30q-44 0 -38 51l48 559q1 16 -11 22.5t-32 -0.5l-3 11l48 15q24 8 41 8q12 0 19 -8.5t6 -22.5z" />
    <glyph glyph-name="Ldot" unicode="&#x13f;" horiz-adv-x="462" 
d="M411 93l11 -4l-28 -89h-371l1 11q20 0 38.5 8t19.5 22l49 568q1 14 -15 22t-36 8l1 11h189l-2 -11q-25 0 -46 -7.5t-22 -22.5l-50 -580h194q24 0 38.5 15t28.5 49zM345 363q14 0 22.5 -10t6.5 -22q-1 -14 -10.5 -21.5t-20.5 -7.5q-14 0 -22.5 9.5t-7.5 22.5
q1 14 10.5 21.5t21.5 7.5z" />
    <glyph glyph-name="ldot" unicode="&#x140;" horiz-adv-x="236" 
d="M118 45q-1 -10 9 -14.5t24 -3.5t26 7l-1 -12q-49 -30 -85 -30q-44 0 -38 51l48 559q1 16 -11 22.5t-32 -0.5l-3 11l48 15q24 8 41 8q12 0 19 -8.5t6 -22.5zM214 363q14 0 22.5 -10t6.5 -22q-1 -14 -10.5 -21.5t-20.5 -7.5q-14 0 -22.5 9.5t-7.5 22.5q1 14 10.5 21.5
t21.5 7.5z" />
    <glyph glyph-name="Lslash" unicode="&#x141;" horiz-adv-x="462" 
d="M411 93l11 -4l-28 -89h-371l1 11q20 0 38.5 8t19.5 22l23 264l-43 -18v31l46 20l23 271q1 14 -15 22t-36 8l1 11h189l-2 -11q-25 0 -46 -7.5t-22 -22.5l-21 -241l46 20v-32l-49 -21l-26 -306h194q24 0 38.5 15t28.5 49z" />
    <glyph glyph-name="lslash" unicode="&#x142;" horiz-adv-x="210" 
d="M143 336l-25 -291q-1 -10 9 -14.5t24 -3.5t26 7l-1 -12q-49 -30 -85 -30q-44 0 -38 51l23 264l-48 -20v31l50 22l23 262q1 16 -11 22.5t-32 -0.5l-3 11l48 15q24 8 41 8q12 0 19 -8.5t6 -22.5l-23 -258l45 19v-32z" />
    <glyph glyph-name="Nacute" unicode="&#x143;" horiz-adv-x="669" 
d="M442 782l-134 -80l7 -19l140 58zM671 650l-1 -11q-19 0 -36.5 -8t-18.5 -22l-54 -613h-14l-387 540l-44 -495q-3 -30 71 -30l-1 -11h-163l1 11q20 0 38 8t19 22l50 568q1 14 -15.5 22t-36.5 8l2 11h84l372 -519l42 478q3 30 -70 30l1 11h161z" />
    <glyph glyph-name="nacute" unicode="&#x144;" horiz-adv-x="479" 
d="M272 566l-52 -80l12 -19l95 99h-55zM61 0l30 338q2 27 -13 33.5t-36 -4.5l-5 12l63 28q19 7 32 7q28 0 28 -32l-4 -37q84 77 164 77q48 0 70 -32t17 -85l-23 -260q-1 -10 9 -14.5t24 -3.5t26 7l-2 -12q-46 -30 -84 -30q-44 0 -39 52l22 241q9 101 -54 101q-30 0 -67 -21
t-65 -52l-28 -313h-65z" />
    <glyph glyph-name="Ncommaaccent" unicode="&#x145;" horiz-adv-x="669" 
d="M671 650l-1 -11q-19 0 -36.5 -8t-18.5 -22l-54 -613h-14l-387 540l-44 -495q-3 -30 71 -30l-1 -11h-163l1 11q20 0 38 8t19 22l50 568q1 14 -15.5 22t-36.5 8l2 11h84l372 -519l42 478q3 30 -70 30l1 11h161zM315 -31l-5 -18l-33 -62l7 -19l68 78l2 21h-39z" />
    <glyph glyph-name="ncommaaccent" unicode="&#x146;" horiz-adv-x="479" 
d="M61 0l30 338q2 27 -13 33.5t-36 -4.5l-5 12l63 28q19 7 32 7q28 0 28 -32l-4 -37q84 77 164 77q48 0 70 -32t17 -85l-23 -260q-1 -10 9 -14.5t24 -3.5t26 7l-2 -12q-46 -30 -84 -30q-44 0 -39 52l22 241q9 101 -54 101q-30 0 -67 -21t-65 -52l-28 -313h-65zM205 -31
l-5 -18l-33 -62l7 -19l68 78l2 21h-39z" />
    <glyph glyph-name="Ncaron" unicode="&#x147;" horiz-adv-x="669" 
d="M303 780l64 -90h26l79 90h-34l-56 -64l-44 64h-35zM671 650l-1 -11q-19 0 -36.5 -8t-18.5 -22l-54 -613h-14l-387 540l-44 -495q-3 -30 71 -30l-1 -11h-163l1 11q20 0 38 8t19 22l50 568q1 14 -15.5 22t-36.5 8l2 11h84l372 -519l42 478q3 30 -70 30l1 11h161z" />
    <glyph glyph-name="ncaron" unicode="&#x148;" horiz-adv-x="479" 
d="M192 564l64 -90h26l79 90h-34l-56 -64l-44 64h-35zM61 0l30 338q2 27 -13 33.5t-36 -4.5l-5 12l63 28q19 7 32 7q28 0 28 -32l-4 -37q84 77 164 77q48 0 70 -32t17 -85l-23 -260q-1 -10 9 -14.5t24 -3.5t26 7l-2 -12q-46 -30 -84 -30q-44 0 -39 52l22 241q9 101 -54 101
q-30 0 -67 -21t-65 -52l-28 -313h-65z" />
    <glyph glyph-name="Eng" unicode="&#x14a;" horiz-adv-x="669" 
d="M510 650h161l-1 -11q-19 0 -36.5 -8t-18.5 -22l-54 -613q-5 -57 -80 -88l-5 11q23 11 38.5 30.5t16.5 40.5q1 23 -12 45l-359 501l-44 -495q-3 -30 71 -30l-1 -11h-163l1 11q20 0 38 8t19 22l50 568q1 14 -15.5 22t-36.5 8l2 11h84l372 -519l42 478q3 30 -70 30z" />
    <glyph glyph-name="eng" unicode="&#x14b;" horiz-adv-x="453" 
d="M320 422q48 0 70 -32t17 -85l-24 -269q-6 -69 -120 -109l-4 10q51 25 57 85l24 263q9 101 -54 101q-30 0 -67 -21t-65 -52l-28 -313h-65l30 338q2 28 -13 34q-15 5 -36 -5l-5 12l63 28q19 7 32 7q28 0 28 -32l-4 -37q84 77 164 77z" />
    <glyph glyph-name="Omacron" unicode="&#x14c;" horiz-adv-x="681" 
d="M309 729h162l-8 -28h-162zM315 -8q-125 0 -203 90t-66 233q13 158 112.5 250.5t228.5 92.5q126 0 203 -90t65 -232q-13 -159 -112.5 -251.5t-227.5 -92.5zM332 24q101 0 169.5 75t80.5 226q11 135 -46 218t-166 83q-98 0 -168 -73t-83 -227q-11 -136 46.5 -219t166.5 -83
z" />
    <glyph glyph-name="omacron" unicode="&#x14d;" horiz-adv-x="446" 
d="M174 513h162l-8 -28h-162zM201 -8q-81 0 -129 56.5t-41 146.5q7 95 67.5 161t146.5 66q78 0 128.5 -55t41.5 -150q-7 -87 -64 -156t-150 -69zM216 16q61 0 92 53t38 136q8 92 -25.5 142.5t-91.5 50.5q-32 0 -56.5 -16.5t-39 -45t-22.5 -60.5t-10 -69q-7 -86 24.5 -138.5
t90.5 -52.5z" />
    <glyph glyph-name="Ohungarumlaut" unicode="&#x150;" horiz-adv-x="681" 
d="M367 782l-77 -70l10 -29l99 80zM457 782l-77 -70l10 -29l98 80zM315 -8q-125 0 -203 90t-66 233q13 158 112.5 250.5t228.5 92.5q126 0 203 -90t65 -232q-13 -159 -112.5 -251.5t-227.5 -92.5zM332 24q101 0 169.5 75t80.5 226q11 135 -46 218t-166 83q-98 0 -168 -73
t-83 -227q-11 -136 46.5 -219t166.5 -83z" />
    <glyph glyph-name="ohungarumlaut" unicode="&#x151;" horiz-adv-x="446" 
d="M220 566l-32 -82l11 -17l66 99h-45zM301 566l-33 -82l12 -17l65 99h-44zM201 -8q-81 0 -129 56.5t-41 146.5q7 95 67.5 161t146.5 66q78 0 128.5 -55t41.5 -150q-7 -87 -64 -156t-150 -69zM216 16q61 0 92 53t38 136q8 92 -25.5 142.5t-91.5 50.5q-32 0 -56.5 -16.5
t-39 -45t-22.5 -60.5t-10 -69q-7 -86 24.5 -138.5t90.5 -52.5z" />
    <glyph glyph-name="OE" unicode="&#x152;" horiz-adv-x="792" 
d="M702 621h-184l-23 -270h159q14 0 23.5 19t11.5 48h11l-14 -162h-11q5 66 -23 66h-159l-26 -293h205q25 0 38.5 14.5t27.5 49.5l12 -4l-28 -89h-338q-37 -8 -70 -8q-125 0 -202.5 89t-65.5 232q14 159 113.5 252t227.5 93q35 0 70 -8h300l28 -90l-12 -3q-24 64 -71 64z
M448 609v2q-35 15 -79 15q-98 0 -167 -73t-83 -229q-12 -134 46.5 -217t167.5 -83q35 0 64 10q2 4 2 7z" />
    <glyph glyph-name="oe" unicode="&#x153;" horiz-adv-x="712" 
d="M680 224h-261q-8 -91 21 -149t93 -58q59 0 107 44l7 -17q-57 -52 -133 -52q-47 0 -85.5 24.5t-59.5 67.5q-62 -92 -168 -92q-81 0 -129 56.5t-41 146.5q7 95 67.5 161t146.5 66q48 0 87.5 -22t61.5 -63q57 85 154 85q72 0 106 -55t26 -143zM216 16q61 0 92 53t38 136
q8 92 -25.5 142.5t-91.5 50.5q-32 0 -56.5 -16.5t-39 -45t-22.5 -60.5t-10 -69q-7 -86 24.5 -138.5t90.5 -52.5zM535 398q-46 0 -77 -45.5t-36 -104.5h193q8 60 -13 105t-67 45z" />
    <glyph glyph-name="Racute" unicode="&#x154;" horiz-adv-x="584" 
d="M375 782l-134 -80l7 -19l140 58zM468 61q36 -50 91 -50l-1 -11h-151q14 18 2 36l-146 226q-42 -8 -94 -10l-20 -211q-1 -15 16.5 -22.5t43.5 -7.5l-1 -11h-185l1 11q19 0 37 8t19 22l50 568q1 14 -15 22t-36 8l1 11h207q84 0 137.5 -43t47.5 -115q-6 -69 -46.5 -124
t-101.5 -86zM200 618l-29 -337q106 2 161.5 51.5t64.5 153.5q6 64 -28.5 101.5t-109.5 37.5q-33 0 -59 -7z" />
    <glyph glyph-name="racute" unicode="&#x155;" horiz-adv-x="346" 
d="M210 566l-52 -80l12 -19l95 99h-55zM62 0l29 334q2 29 -9.5 36.5t-40.5 -4.5l-4 13l62 28q19 7 32 7q31 0 28 -37l-5 -62q17 44 46.5 75.5t71.5 31.5q30 0 47 -20.5t16 -47.5q-1 -20 -12 -33t-26 -13q-14 0 -24.5 9t-10.5 25q1 15 10 26t9 19q0 13 -21 13
q-28 0 -55 -35.5t-42 -76t-18 -69.5l-19 -219h-64z" />
    <glyph glyph-name="Rcommaaccent" unicode="&#x156;" horiz-adv-x="584" 
d="M468 61q36 -50 91 -50l-1 -11h-151q14 18 2 36l-146 226q-42 -8 -94 -10l-20 -211q-1 -15 16.5 -22.5t43.5 -7.5l-1 -11h-185l1 11q19 0 37 8t19 22l50 568q1 14 -15 22t-36 8l1 11h207q84 0 137.5 -43t47.5 -115q-6 -69 -46.5 -124t-101.5 -86zM200 618l-29 -337
q106 2 161.5 51.5t64.5 153.5q6 64 -28.5 101.5t-109.5 37.5q-33 0 -59 -7zM262 -31l-5 -18l-33 -62l7 -19l68 78l2 21h-39z" />
    <glyph glyph-name="rcommaaccent" unicode="&#x157;" horiz-adv-x="346" 
d="M62 0l29 334q2 29 -9.5 36.5t-40.5 -4.5l-4 13l62 28q19 7 32 7q31 0 28 -37l-5 -62q17 44 46.5 75.5t71.5 31.5q30 0 47 -20.5t16 -47.5q-1 -20 -12 -33t-26 -13q-14 0 -24.5 9t-10.5 25q1 15 10 26t9 19q0 13 -21 13q-28 0 -55 -35.5t-42 -76t-18 -69.5l-19 -219h-64z
M128 -31l-5 -18l-33 -62l7 -19l68 78l2 21h-39z" />
    <glyph glyph-name="Rcaron" unicode="&#x158;" horiz-adv-x="584" 
d="M236 780l64 -90h26l79 90h-34l-56 -64l-44 64h-35zM468 61q36 -50 91 -50l-1 -11h-151q14 18 2 36l-146 226q-42 -8 -94 -10l-20 -211q-1 -15 16.5 -22.5t43.5 -7.5l-1 -11h-185l1 11q19 0 37 8t19 22l50 568q1 14 -15 22t-36 8l1 11h207q84 0 137.5 -43t47.5 -115
q-6 -69 -46.5 -124t-101.5 -86zM200 618l-29 -337q106 2 161.5 51.5t64.5 153.5q6 64 -28.5 101.5t-109.5 37.5q-33 0 -59 -7z" />
    <glyph glyph-name="rcaron" unicode="&#x159;" horiz-adv-x="346" 
d="M130 564l64 -90h26l79 90h-34l-56 -64l-44 64h-35zM62 0l29 334q2 29 -9.5 36.5t-40.5 -4.5l-4 13l62 28q19 7 32 7q31 0 28 -37l-5 -62q17 44 46.5 75.5t71.5 31.5q30 0 47 -20.5t16 -47.5q-1 -20 -12 -33t-26 -13q-14 0 -24.5 9t-10.5 25q1 15 10 26t9 19q0 13 -21 13
q-28 0 -55 -35.5t-42 -76t-18 -69.5l-19 -219h-64z" />
    <glyph glyph-name="Sacute" unicode="&#x15a;" horiz-adv-x="460" 
d="M334 782l-134 -80l7 -19l140 58zM201 -8q-30 0 -55 7t-39 15l-25.5 14.5t-20.5 5.5t-19 -12l-10 5l43 140l11 -5q-11 -64 18.5 -101.5t99.5 -37.5q130 0 140 128q3 32 -5 58t-29 47.5t-36 33t-48 31.5t-42 26q-49 32 -73.5 67.5t-19.5 88.5q7 72 57 113.5t122 41.5
q29 0 56 -7.5t40 -14.5t24 -6t19 14l10 -4l-37 -121l-9 4q9 50 -22.5 77t-87.5 27q-52 0 -78 -24.5t-31 -77.5q-2 -21 2.5 -37.5t10 -27.5t27.5 -29t35.5 -27l54.5 -36q43 -28 67.5 -49.5t44.5 -59t16 -80.5q-7 -79 -65 -133t-146 -54z" />
    <glyph glyph-name="sacute" unicode="&#x15b;" horiz-adv-x="337" 
d="M198 567l-52 -80l12 -19l95 99h-55zM138 -8q-70 0 -120 48l24 77l11 -4q-10 -44 18 -70.5t72 -26.5t65.5 24.5t24.5 59.5q2 17 -3 31t-19.5 26t-23.5 18t-32.5 18l-29.5 15q-75 44 -71 102q4 46 39.5 79t98.5 33q56 0 107 -39l-33 -79l-10 5q14 45 -10 67t-59 22
q-31 0 -52.5 -17t-23.5 -49q-1 -15 3.5 -26t19.5 -22.5t27 -19t40 -22.5q32 -16 50 -28.5t33 -37t12 -54.5q-5 -61 -48.5 -95.5t-109.5 -34.5z" />
    <glyph glyph-name="Scedilla" unicode="&#x15e;" horiz-adv-x="460" 
d="M284 368q43 -28 67.5 -49.5t44.5 -59t16 -80.5q-7 -79 -65 -133t-146 -54h-3q-14 -28 -15 -29q12 6 23 6q15 0 26.5 -8t9.5 -25q-2 -23 -23.5 -38.5t-46.5 -15.5q-10 0 -14 1l7 13q34 0 38 34q2 24 -15 24q-16 0 -34 -16l-6 11q16 31 24 45q-23 3 -42.5 10.5t-31 14.5
t-21.5 12t-18 3t-17 -12l-10 5l43 140l11 -5q-11 -64 18.5 -101.5t99.5 -37.5q130 0 140 128q3 32 -5 58t-29 47.5t-36 33t-48 31.5t-42 26q-49 32 -73.5 67.5t-19.5 88.5q7 72 57 113.5t122 41.5q29 0 56 -7.5t40 -14.5t24 -6t19 14l10 -4l-37 -121l-9 4q9 50 -22.5 77
t-87.5 27q-52 0 -78 -24.5t-31 -77.5q-2 -21 2.5 -37.5t10 -27.5t27.5 -29t35.5 -27z" />
    <glyph glyph-name="scedilla" unicode="&#x15f;" horiz-adv-x="337" 
d="M201 242q32 -16 50 -28.5t33 -37t12 -54.5q-5 -60 -46.5 -94t-104.5 -36q-3 -5 -7 -12.5l-6 -11.5l-3 -5q12 6 23 6q15 0 26.5 -8t9.5 -25q-2 -23 -23.5 -38.5t-46.5 -15.5q-10 0 -14 1l7 13q34 0 38 34q2 24 -15 24q-16 0 -34 -16l-6 11l23 44q-56 6 -99 47l24 77l11 -4
q-10 -44 18 -70.5t72 -26.5t65.5 24.5t24.5 59.5q2 17 -3 31t-19.5 26t-23.5 18t-32.5 18l-29.5 15q-75 44 -71 102q4 46 39.5 79t98.5 33q56 0 107 -39l-33 -79l-10 5q14 45 -10 67t-59 22q-31 0 -52.5 -17t-23.5 -49q-1 -15 3.5 -26t19.5 -22.5t27 -19t40 -22.5z" />
    <glyph glyph-name="Scaron" unicode="&#x160;" horiz-adv-x="460" 
d="M195 780l64 -90h26l79 90h-34l-56 -64l-44 64h-35zM201 -8q-30 0 -55 7t-39 15l-25.5 14.5t-20.5 5.5t-19 -12l-10 5l43 140l11 -5q-11 -64 18.5 -101.5t99.5 -37.5q130 0 140 128q3 32 -5 58t-29 47.5t-36 33t-48 31.5t-42 26q-49 32 -73.5 67.5t-19.5 88.5
q7 72 57 113.5t122 41.5q29 0 56 -7.5t40 -14.5t24 -6t19 14l10 -4l-37 -121l-9 4q9 50 -22.5 77t-87.5 27q-52 0 -78 -24.5t-31 -77.5q-2 -21 2.5 -37.5t10 -27.5t27.5 -29t35.5 -27l54.5 -36q43 -28 67.5 -49.5t44.5 -59t16 -80.5q-7 -79 -65 -133t-146 -54z" />
    <glyph glyph-name="scaron" unicode="&#x161;" horiz-adv-x="337" 
d="M118 565l64 -90h26l79 90h-34l-56 -64l-44 64h-35zM138 -8q-70 0 -120 48l24 77l11 -4q-10 -44 18 -70.5t72 -26.5t65.5 24.5t24.5 59.5q2 17 -3 31t-19.5 26t-23.5 18t-32.5 18l-29.5 15q-75 44 -71 102q4 46 39.5 79t98.5 33q56 0 107 -39l-33 -79l-10 5q14 45 -10 67
t-59 22q-31 0 -52.5 -17t-23.5 -49q-1 -15 3.5 -26t19.5 -22.5t27 -19t40 -22.5q32 -16 50 -28.5t33 -37t12 -54.5q-5 -61 -48.5 -95.5t-109.5 -34.5z" />
    <glyph glyph-name="uni0162" unicode="&#x162;" horiz-adv-x="555" 
d="M535 657l30 -97l-12 -3q-22 64 -71 64h-133l-54 -580q-1 -10 11 -17t28.5 -10t33.5 -3l-2 -11h-103q-3 -4 -7.5 -13.5t-8.5 -16.5l-4 -7q12 6 23 6q15 0 26.5 -8t9.5 -25q-2 -23 -23.5 -38.5t-46.5 -15.5q-10 0 -14 1l7 13q34 0 38 34q2 24 -15 24q-16 0 -34 -16l-6 11
l27 51h-86l1 11q28 0 51.5 8t24.5 22l54 580h-144q-47 0 -72 -64l-12 3l30 97q5 -5 21 -7h409q16 1 23 7z" />
    <glyph glyph-name="uni0163" unicode="&#x163;" horiz-adv-x="275" 
d="M153 390l-24 -279q-8 -94 35 -94q36 0 67 42l5 -14q-32 -51 -94 -53q-3 -5 -7 -12.5t-7 -11.5l-2 -5q12 6 23 6q15 0 26.5 -8t9.5 -25q-2 -23 -23.5 -38.5t-46.5 -15.5q-10 0 -14 1l7 13q34 0 38 34q2 24 -15 24q-16 0 -34 -16l-6 11l24 45q-61 12 -54 94l27 302h-46
l1 12q71 14 108 120h14l-10 -108h106l-7 -24h-101z" />
    <glyph glyph-name="Tcaron" unicode="&#x164;" horiz-adv-x="555" 
d="M245 780l64 -90h26l79 90h-34l-56 -64l-44 64h-35zM565 560l-12 -3q-22 64 -71 64h-133l-54 -580q-1 -10 11 -17t28.5 -10t33.5 -3l-2 -11h-217l1 11q28 0 51.5 8t24.5 22l54 580h-144q-47 0 -72 -64l-12 3l30 97q5 -5 21 -7h409q16 1 23 7z" />
    <glyph glyph-name="tcaron" unicode="&#x165;" horiz-adv-x="276" 
d="M232 634q5 14 21 14q14 0 22 -9.5t3 -18.5l-64 -155q-3 -6 -8 -6q-10 0 -6 9zM231 59l5 -14q-34 -53 -99 -53q-84 0 -76 96l27 302h-46l1 12q71 14 108 120h14l-10 -108h106l-7 -24h-101l-24 -279q-8 -94 35 -94q36 0 67 42z" />
    <glyph glyph-name="Tbar" unicode="&#x166;" horiz-adv-x="555" 
d="M535 657l30 -97l-12 -3q-22 64 -71 64h-133l-24 -262h58l-12 -29h-49l-27 -289q-1 -10 11 -17t28.5 -10t33.5 -3l-2 -11h-217l1 11q28 0 51.5 8t24.5 22l27 289h-59l12 29h50l24 262h-144q-47 0 -72 -64l-12 3l30 97q5 -5 21 -7h409q16 1 23 7z" />
    <glyph glyph-name="tbar" unicode="&#x167;" horiz-adv-x="302" 
d="M254 390h-101l-7 -81h86l-7 -24h-81l-15 -174q-8 -94 35 -94q36 0 67 42l5 -14q-34 -53 -99 -53q-84 0 -76 96l18 197h-46l2 24h46l7 81h-46l1 12q71 14 108 120h14l-10 -108h106z" />
    <glyph glyph-name="Umacron" unicode="&#x16a;" horiz-adv-x="626" 
d="M290 729h162l-8 -28h-162zM629 650l-1 -11q-19 0 -37 -8t-19 -22l-37 -427q-8 -93 -77.5 -141.5t-163.5 -48.5q-96 0 -154.5 52t-49.5 149l37 416q1 14 -15.5 22t-36.5 8l1 11h177l-1 -11q-19 0 -37 -8t-19 -22l-36 -407q-8 -91 33.5 -134.5t113.5 -43.5q74 0 128 41.5
t59 104.5l39 439q1 14 -15 22t-36 8l2 11h145z" />
    <glyph glyph-name="umacron" unicode="&#x16b;" horiz-adv-x="462" 
d="M181 513h162l-8 -28h-162zM426 33l2 -12q-66 -29 -86 -29q-14 0 -22.5 18.5t-7.5 47.5q-56 -66 -133 -66q-60 0 -88.5 32t-23.5 83l20 234q5 51 -50 26l-4 11l64 29q15 7 31 7q33 0 28 -38l-22 -251q-5 -51 11.5 -80t53.5 -29q52 0 114 74l24 268q3 35 -43 22l-3 11
l51 16q21 7 38 7q27 0 25 -32l-29 -327q-3 -28 21 -28q11 0 29 6z" />
    <glyph glyph-name="ubreve" unicode="&#x16d;" horiz-adv-x="462" 
d="M257 475q-50 0 -71 55l22 6q16 -31 52 -31q37 0 56 31l21 -6q-28 -55 -80 -55zM426 33l2 -12q-66 -29 -86 -29q-14 0 -22.5 18.5t-7.5 47.5q-56 -66 -133 -66q-60 0 -88.5 32t-23.5 83l20 234q5 51 -50 26l-4 11l64 29q15 7 31 7q33 0 28 -38l-22 -251q-5 -51 11.5 -80
t53.5 -29q52 0 114 74l24 268q3 35 -43 22l-3 11l51 16q21 7 38 7q27 0 25 -32l-29 -327q-3 -28 21 -28q11 0 29 6z" />
    <glyph glyph-name="Uring" unicode="&#x16e;" horiz-adv-x="626" 
d="M365 683q-20 0 -33.5 15t-11.5 35q1 20 17 34.5t36 14.5t33.5 -14.5t11.5 -34.5t-17.5 -35t-35.5 -15zM367 708q11 0 18.5 7.5t8.5 17.5t-6 17.5t-17 7.5t-17.5 -7.5t-9.5 -17.5q-1 -11 6 -18t17 -7zM629 650l-1 -11q-19 0 -37 -8t-19 -22l-37 -427q-8 -93 -77.5 -141.5
t-163.5 -48.5q-96 0 -154.5 52t-49.5 149l37 416q1 14 -15.5 22t-36.5 8l1 11h177l-1 -11q-19 0 -37 -8t-19 -22l-36 -407q-8 -91 33.5 -134.5t113.5 -43.5q74 0 128 41.5t59 104.5l39 439q1 14 -15 22t-36 8l2 11h145z" />
    <glyph glyph-name="uring" unicode="&#x16f;" horiz-adv-x="462" 
d="M256 467q-20 0 -33.5 15t-11.5 35q1 20 17 34.5t36 14.5t33.5 -14.5t11.5 -34.5t-17.5 -35t-35.5 -15zM258 492q11 0 18.5 7.5t8.5 17.5t-6 17.5t-17 7.5t-17.5 -7.5t-9.5 -17.5q-1 -11 6 -18t17 -7zM426 33l2 -12q-66 -29 -86 -29q-14 0 -22.5 18.5t-7.5 47.5
q-56 -66 -133 -66q-60 0 -88.5 32t-23.5 83l20 234q5 51 -50 26l-4 11l64 29q15 7 31 7q33 0 28 -38l-22 -251q-5 -51 11.5 -80t53.5 -29q52 0 114 74l24 268q3 35 -43 22l-3 11l51 16q21 7 38 7q27 0 25 -32l-29 -327q-3 -28 21 -28q11 0 29 6z" />
    <glyph glyph-name="Uhungarumlaut" unicode="&#x170;" horiz-adv-x="626" 
d="M348 782l-77 -70l10 -29l99 80zM438 782l-77 -70l10 -29l98 80zM629 650l-1 -11q-19 0 -37 -8t-19 -22l-37 -427q-8 -93 -77.5 -141.5t-163.5 -48.5q-96 0 -154.5 52t-49.5 149l37 416q1 14 -15.5 22t-36.5 8l1 11h177l-1 -11q-19 0 -37 -8t-19 -22l-36 -407
q-8 -91 33.5 -134.5t113.5 -43.5q74 0 128 41.5t59 104.5l39 439q1 14 -15 22t-36 8l2 11h145z" />
    <glyph glyph-name="uhungarumlaut" unicode="&#x171;" horiz-adv-x="462" 
d="M227 566l-32 -82l11 -17l66 99h-45zM308 566l-33 -82l12 -17l65 99h-44zM426 33l2 -12q-66 -29 -86 -29q-14 0 -22.5 18.5t-7.5 47.5q-56 -66 -133 -66q-60 0 -88.5 32t-23.5 83l20 234q5 51 -50 26l-4 11l64 29q15 7 31 7q33 0 28 -38l-22 -251q-5 -51 11.5 -80
t53.5 -29q52 0 114 74l24 268q3 35 -43 22l-3 11l51 16q21 7 38 7q27 0 25 -32l-29 -327q-3 -28 21 -28q11 0 29 6z" />
    <glyph glyph-name="Uogonek" unicode="&#x172;" horiz-adv-x="626" 
d="M484 650h145l-1 -11q-19 0 -37 -8t-19 -22l-37 -427q-6 -64 -42 -107.5t-93 -64.5q-51 -26 -54 -63q-1 -15 6.5 -24t18.5 -9t18 6l5 -13q-17 -14 -45 -14q-24 0 -39 12t-13 35q3 31 35 54q-24 -2 -38 -2q-96 0 -154.5 52t-49.5 149l37 416q1 14 -15.5 22t-36.5 8l1 11
h177l-1 -11q-19 0 -37 -8t-19 -22l-36 -407q-8 -91 33.5 -134.5t113.5 -43.5q74 0 128 41.5t59 104.5l39 439q1 14 -15 22t-36 8z" />
    <glyph glyph-name="uogonek" unicode="&#x173;" horiz-adv-x="462" 
d="M349 -95q11 0 18 6l5 -13q-17 -14 -45 -14q-24 0 -39 12t-13 35q3 42 55 65q-20 16 -18 62q-56 -66 -133 -66q-60 0 -88.5 32t-23.5 83l20 234q5 51 -50 26l-4 11l64 29q15 7 31 7q33 0 28 -38l-22 -251q-5 -51 11.5 -80t53.5 -29q52 0 114 74l24 268q3 35 -43 22l-3 11
l51 16q21 7 38 7q27 0 25 -32l-29 -327q-3 -28 21 -28q11 0 29 6l2 -12q-14 -7 -52 -21q-49 -26 -52 -62q-1 -15 6.5 -24t18.5 -9z" />
    <glyph glyph-name="Wcircumflex" unicode="&#x174;" horiz-adv-x="854" 
d="M388 690l73 90h38l58 -90h-26l-53 64l-64 -64h-26zM866 650l-1 -11q-39 0 -52 -30l-241 -616h-15l-108 450l-176 -450h-15l-149 618q-9 28 -44 28l1 11h102l123 -527l143 379l-26 109q-8 28 -62 28l1 11h120l122 -527l184 485q5 14 -13.5 22.5t-50.5 8.5l1 11h156z" />
    <glyph glyph-name="wcircumflex" unicode="&#x175;" horiz-adv-x="596" 
d="M235 474l73 90h38l58 -90h-26l-53 64l-64 -64h-26zM524 422q19 0 30 -16.5t9 -48.5q-6 -55 -41 -120l-126 -237h-28l-55 239l-124 -239h-30l-79 343q-7 28 -14.5 34t-33.5 -2l-3 12l47 20q14 7 31 7q25 0 32 -31l65 -304l100 196l-15 68q-8 28 -15 34t-31 -1l-3 12l45 19
q13 7 31 7q24 0 32 -31l64 -304l83 160q28 48 30 85q1 13 -5.5 19.5t-15 8t-14.5 8.5t-5 21q2 41 39 41z" />
    <glyph glyph-name="Ycircumflex" unicode="&#x176;" horiz-adv-x="546" 
d="M237 690l73 90h38l58 -90h-26l-53 64l-64 -64h-26zM558 650l-2 -11q-29 0 -50 -32l-191 -297l-23 -269q-1 -14 20.5 -22t49.5 -8l-1 -11h-214v11q28 0 51.5 8t24.5 22l23 261l-144 315q-12 22 -37 22l1 11h94l141 -312l173 271q7 12 -6 21t-32 9l1 11h121z" />
    <glyph glyph-name="ycircumflex" unicode="&#x177;" horiz-adv-x="384" 
d="M132 474l73 90h38l58 -90h-26l-53 64l-64 -64h-26zM314 422q18 0 28.5 -17t8.5 -47q-3 -49 -41 -122l-152 -295q-55 -106 -121 -106q-25 0 -37.5 10t-11.5 26q3 34 30 34q14 0 27 -11.5t15 -12.5q8 -4 18.5 -1t26 23.5t34.5 56.5l31 60l-92 323q-4 12 -5 15.5t-5 11
t-7.5 9t-9.5 1.5t-14 -3l-5 -2l-3 12l43 20q18 7 32 7q26 0 35 -31l74 -286l73 142q26 55 28 81q2 14 -4.5 21.5t-15 9.5t-15 9t-5.5 19q3 43 40 43z" />
    <glyph glyph-name="Ydieresis" unicode="&#x178;" horiz-adv-x="546" 
d="M279 742q11 0 18 -7.5t6 -19.5q-2 -24 -27 -24q-11 0 -18 7.5t-6 19.5q2 24 27 24zM370 742q11 0 18 -7.5t6 -19.5q-2 -24 -27 -24q-11 0 -18 7.5t-6 19.5q2 24 27 24zM558 650l-2 -11q-29 0 -50 -32l-191 -297l-23 -269q-1 -14 20.5 -22t49.5 -8l-1 -11h-214v11
q28 0 51.5 8t24.5 22l23 261l-144 315q-12 22 -37 22l1 11h94l141 -312l173 271q7 12 -6 21t-32 9l1 11h121z" />
    <glyph glyph-name="Zacute" unicode="&#x179;" horiz-adv-x="477" 
d="M348 782l-134 -80l7 -19l140 58zM470 650v-6l-371 -615h253q44 0 71 64l11 -3l-34 -90h-386l1 6l371 615h-216q-46 0 -71 -64l-12 3l34 90h349z" />
    <glyph glyph-name="zacute" unicode="&#x17a;" horiz-adv-x="324" 
d="M199 566l-52 -80l12 -19l95 99h-55zM278 63l11 -3l-19 -60h-263l1 3l222 387h-126q-20 0 -36 -39l-11 3l18 60h236v-3l-223 -387h154q20 0 36 39z" />
    <glyph glyph-name="Zdotaccent" unicode="&#x17b;" horiz-adv-x="477" 
d="M289 748q14 0 22.5 -10t6.5 -22q-1 -14 -10.5 -21.5t-20.5 -7.5q-14 0 -22.5 9.5t-7.5 22.5q1 14 10.5 21.5t21.5 7.5zM470 650v-6l-371 -615h253q44 0 71 64l11 -3l-34 -90h-386l1 6l371 615h-216q-46 0 -71 -64l-12 3l34 90h349z" />
    <glyph glyph-name="zdotaccent" unicode="&#x17c;" horiz-adv-x="324" 
d="M199 532q14 0 22.5 -10t6.5 -22q-1 -14 -10.5 -21.5t-20.5 -7.5q-14 0 -22.5 9.5t-7.5 22.5q1 14 10.5 21.5t21.5 7.5zM278 63l11 -3l-19 -60h-263l1 3l222 387h-126q-20 0 -36 -39l-11 3l18 60h236v-3l-223 -387h154q20 0 36 39z" />
    <glyph glyph-name="Zcaron" unicode="&#x17d;" horiz-adv-x="477" 
d="M209 780l64 -90h26l79 90h-34l-56 -64l-44 64h-35zM470 650v-6l-371 -615h253q44 0 71 64l11 -3l-34 -90h-386l1 6l371 615h-216q-46 0 -71 -64l-12 3l34 90h349z" />
    <glyph glyph-name="zcaron" unicode="&#x17e;" horiz-adv-x="324" 
d="M119 564l64 -90h26l79 90h-34l-56 -64l-44 64h-35zM278 63l11 -3l-19 -60h-263l1 3l222 387h-126q-20 0 -36 -39l-11 3l18 60h236v-3l-223 -387h154q20 0 36 39z" />
    <glyph glyph-name="florin" unicode="&#x192;" horiz-adv-x="338" 
d="M287 658q43 0 63.5 -25.5t20.5 -51.5q0 -18 -11 -29.5t-27 -11.5q-13 0 -23 8.5t-10 24.5q0 11 8.5 23t8.5 20q0 18 -29 18q-30 0 -44 -20t-21 -66l-25 -149h93l-13 -29h-85l-49 -291q-13 -85 -52 -142.5t-102 -57.5q-44 0 -62.5 25t-18.5 51q0 18 9.5 31t26.5 13
q13 0 23.5 -8.5t10.5 -24.5q0 -11 -8 -23t-8 -20q0 -17 25 -17q58 0 73 90l63 374h-59l13 29h51l11 66q13 84 50 138.5t97 54.5z" />
    <glyph glyph-name="Scommaaccent" unicode="&#x218;" horiz-adv-x="460" 
d="M201 -8q-30 0 -55 7t-39 15l-25.5 14.5t-20.5 5.5t-19 -12l-10 5l43 140l11 -5q-11 -64 18.5 -101.5t99.5 -37.5q130 0 140 128q3 32 -5 58t-29 47.5t-36 33t-48 31.5t-42 26q-49 32 -73.5 67.5t-19.5 88.5q7 72 57 113.5t122 41.5q29 0 56 -7.5t40 -14.5t24 -6t19 14
l10 -4l-37 -121l-9 4q9 50 -22.5 77t-87.5 27q-52 0 -78 -24.5t-31 -77.5q-2 -21 2.5 -37.5t10 -27.5t27.5 -29t35.5 -27l54.5 -36q43 -28 67.5 -49.5t44.5 -59t16 -80.5q-7 -79 -65 -133t-146 -54zM188 -31l-5 -18l-33 -62l7 -19l68 78l2 21h-39z" />
    <glyph glyph-name="scommaaccent" unicode="&#x219;" horiz-adv-x="337" 
d="M138 -8q-70 0 -120 48l24 77l11 -4q-10 -44 18 -70.5t72 -26.5t65.5 24.5t24.5 59.5q2 17 -3 31t-19.5 26t-23.5 18t-32.5 18l-29.5 15q-75 44 -71 102q4 46 39.5 79t98.5 33q56 0 107 -39l-33 -79l-10 5q14 45 -10 67t-59 22q-31 0 -52.5 -17t-23.5 -49q-1 -15 3.5 -26
t19.5 -22.5t27 -19t40 -22.5q32 -16 50 -28.5t33 -37t12 -54.5q-5 -61 -48.5 -95.5t-109.5 -34.5zM134 -31l-5 -18l-33 -62l7 -19l68 78l2 21h-39z" />
    <glyph glyph-name="uni021A" unicode="&#x21a;" horiz-adv-x="555" 
d="M565 560l-12 -3q-22 64 -71 64h-133l-54 -580q-1 -10 11 -17t28.5 -10t33.5 -3l-2 -11h-217l1 11q28 0 51.5 8t24.5 22l54 580h-144q-47 0 -72 -64l-12 3l30 97q5 -5 21 -7h409q16 1 23 7zM248 -31l-5 -18l-33 -62l7 -19l68 78l2 21h-39z" />
    <glyph glyph-name="uni021B" unicode="&#x21b;" horiz-adv-x="275" 
d="M231 59l5 -14q-34 -53 -99 -53q-84 0 -76 96l27 302h-46l1 12q71 14 108 120h14l-10 -108h106l-7 -24h-101l-24 -279q-8 -94 35 -94q36 0 67 42zM131 -31l-5 -18l-33 -62l7 -19l68 78l2 21h-39z" />
    <glyph glyph-name="circumflex" unicode="&#x2c6;" horiz-adv-x="235" 
d="M75 690l81 90h38l50 -90h-26l-47 64l-70 -64h-26z" />
    <glyph glyph-name="caron" unicode="&#x2c7;" horiz-adv-x="235" 
d="M83 780l56 -90h26l87 90h-34l-61 -64l-39 64h-35z" />
    <glyph glyph-name="breve" unicode="&#x2d8;" horiz-adv-x="216" 
d="M145 691q-49 0 -66 55l23 6q13 -31 49 -31q37 0 59 31l20 -6q-32 -55 -85 -55z" />
    <glyph glyph-name="dotaccent" unicode="&#x2d9;" horiz-adv-x="127" 
d="M112 748q14 0 21.5 -10t5.5 -22q-3 -14 -13 -21.5t-21 -7.5q-14 0 -21.5 9.5t-5.5 22.5q6 29 34 29z" />
    <glyph glyph-name="ring" unicode="&#x2da;" horiz-adv-x="164" 
d="M120 683q-20 0 -32 15t-9 35t20 34.5t37 14.5t32.5 -14.5t8.5 -34.5q-3 -20 -20 -35t-37 -15zM124 708q11 0 19.5 7.5t9.5 17.5q2 10 -4.5 17.5t-16.5 7.5t-18.5 -7.5t-10.5 -17.5q-2 -11 4.5 -18t16.5 -7z" />
    <glyph glyph-name="ogonek" unicode="&#x2db;" horiz-adv-x="170" 
d="M103 -103q-19 -14 -46 -14q-24 0 -38 12t-10 35q4 27 29.5 46.5t54.5 26.5l25 -3q-53 -26 -60 -63q-1 -15 5.5 -24t17.5 -9t18 6z" />
    <glyph glyph-name="tilde" unicode="&#x2dc;" horiz-adv-x="272" 
d="M77 712q24 53 66 53q27 0 51.5 -23t40.5 -23q4 0 7.5 1t7 3l6 3.5t5.5 5.5t4.5 5.5t5 6.5t4.5 6l11 -5q-23 -53 -65 -53q-27 0 -51 23t-40 23q-21 0 -40 -31z" />
    <glyph glyph-name="hungarumlaut" unicode="&#x2dd;" horiz-adv-x="223" 
d="M115 782l-39 -82l10 -17l74 99h-45zM196 782l-40 -82l11 -17l73 99h-44z" />
    <glyph glyph-name="gravecomb" unicode="&#x300;" 
d="M-2 782h-55l87 -99l13 19z" />
    <glyph glyph-name="acutecomb" unicode="&#x301;" 
d="M-4 782l-52 -80l12 -19l95 99h-55z" />
    <glyph glyph-name="uni0302" unicode="&#x302;" 
d="M-127 690l73 90h38l58 -90h-26l-53 64l-64 -64h-26z" />
    <glyph glyph-name="tildecomb" unicode="&#x303;" 
d="M-159 712q19 53 61 53q27 0 53.5 -23t42.5 -23q9 0 17 5.5t10.5 9.5t9.5 16l12 -5q-18 -53 -61 -53q-27 0 -53 23t-42 23q-21 0 -37 -31z" />
    <glyph glyph-name="uni0304" unicode="&#x304;" 
d="M-116 729h162l-8 -28h-162z" />
    <glyph glyph-name="uni0306" unicode="&#x306;" 
d="M-33 691q-50 0 -71 55l22 6q16 -31 52 -31q37 0 56 31l21 -6q-28 -55 -80 -55z" />
    <glyph glyph-name="uni0307" unicode="&#x307;" 
d="M15 748q14 0 22.5 -10t6.5 -22q-1 -14 -10.5 -21.5t-20.5 -7.5q-14 0 -22.5 9.5t-7.5 22.5q1 14 10.5 21.5t21.5 7.5z" />
    <glyph glyph-name="uni0308" unicode="&#x308;" 
d="M-71 742q11 0 18 -7.5t6 -19.5q-2 -24 -27 -24q-11 0 -18 7.5t-6 19.5q2 24 27 24zM20 742q11 0 18 -7.5t6 -19.5q-2 -24 -27 -24q-11 0 -18 7.5t-6 19.5q2 24 27 24z" />
    <glyph glyph-name="uni030A" unicode="&#x30a;" 
d="M-7 683q-20 0 -33.5 15t-11.5 35q1 20 17 34.5t36 14.5t33.5 -14.5t11.5 -34.5t-17.5 -35t-35.5 -15zM-5 708q11 0 18.5 7.5t8.5 17.5t-6 17.5t-17 7.5t-17.5 -7.5t-9.5 -17.5q-1 -11 6 -18t17 -7z" />
    <glyph glyph-name="uni030B" unicode="&#x30b;" 
d="M-75 782l-32 -82l11 -17l66 99h-45zM6 782l-33 -82l12 -17l65 99h-44z" />
    <glyph glyph-name="uni030C" unicode="&#x30c;" 
d="M-119 780l64 -90h26l79 90h-34l-56 -64l-44 64h-35z" />
    <glyph glyph-name="uni0312" unicode="&#x312;" 
d="M-6 697q-2 26 12 49t42 29v-7q-16 -5 -25 -17.5t-8 -22.5q0 -6 9 -6q11 0 16.5 -8t3.5 -18q-2 -12 -10.5 -18.5t-18.5 -6.5q-23 0 -21 26z" />
    <glyph glyph-name="uni0326" unicode="&#x326;" 
d="M-60 -31l-5 -18l-33 -62l7 -19l68 78l2 21h-39z" />
    <glyph glyph-name="uni0327" unicode="&#x327;" 
d="M-60 -31q15 0 26.5 -8t9.5 -25q-2 -23 -23.5 -38.5t-46.5 -15.5q-10 0 -14 1l7 13q34 0 38 34q2 24 -15 24q-16 0 -34 -16l-6 11l29 55h28q0 -1 -10.5 -20.5t-11.5 -20.5q12 6 23 6z" />
    <glyph glyph-name="uni0328" unicode="&#x328;" 
d="M-27 -103q-17 -14 -45 -14q-24 0 -39 12t-13 35q2 28 25.5 47t52.5 26l25 -3q-51 -26 -54 -63q-1 -15 6.5 -24t18.5 -9q10 0 18 6z" />
    <glyph glyph-name="uni0335" unicode="&#x335;" 
d="M-164 359h177l-12 -29h-177z" />
    <glyph glyph-name="uni0336" unicode="&#x336;" 
d="M-289 359h302l-14 -29h-302z" />
    <glyph glyph-name="uni0337" unicode="&#x337;" 
d="M-18 414h36l-357 -414h-36z" />
    <glyph glyph-name="uni0338" unicode="&#x338;" 
d="M0 650h39l-580 -652h-39z" />
    <glyph glyph-name="uni0394" unicode="&#x394;" horiz-adv-x="617" 
d="M586 0h-591l315 630l-6 20h67zM500 29l-174 555l-275 -556z" />
    <glyph glyph-name="uni03A9" unicode="&#x3a9;" horiz-adv-x="673" 
d="M653 346q-9 -108 -65.5 -192t-137.5 -126h96q23 0 39 15.5t30 48.5l11 -4l-35 -88h-223l3 29q78 12 138.5 89t71.5 207q12 138 -46 219.5t-178 81.5q-43 0 -80 -11.5t-72 -38.5t-58.5 -78.5t-29.5 -124.5q-7 -75 6 -145.5t51.5 -127t96.5 -72.5l-3 -28h-224l-18 88l12 4
q13 -64 57 -64h106q-80 47 -123.5 135t-33.5 195q7 78 40 138t82 94t103.5 51t110.5 17q132 0 209 -85t64 -227z" />
    <glyph glyph-name="uni03BC" unicode="&#x3bc;" horiz-adv-x="488" 
d="M451 33l4 -12q-65 -29 -90 -29q-29 0 -26 76q-26 -34 -66.5 -55t-80.5 -21q-36 0 -62 16l-16 -188h-110l1 11q46 0 49 30l43 486q3 36 -23 36q-13 0 -33 -8l-3 12l66 27q16 8 31 8q31 0 28 -35l-23 -272q-3 -41 19.5 -67t61.5 -26q61 0 119 77l28 315h62l-31 -361
q-3 -27 24 -27q12 0 28 7z" />
    <glyph glyph-name="pi" unicode="&#x3c0;" horiz-adv-x="522" 
d="M388 389l-23 -273q-9 -99 39 -99q38 0 72 40l6 -18q-39 -47 -99 -47q-39 0 -64 23t-21 73l26 301h-139l-34 -397h-65l34 397h-78l8 25h456l-8 -25h-110z" />
    <glyph glyph-name="Wgrave" unicode="&#x1e80;" horiz-adv-x="854" 
d="M413 782l-16 -41l135 -58l8 19zM866 650l-1 -11q-39 0 -52 -30l-241 -616h-15l-108 450l-176 -450h-15l-149 618q-9 28 -44 28l1 11h102l123 -527l143 379l-26 109q-8 28 -62 28l1 11h120l122 -527l184 485q5 14 -13.5 22.5t-50.5 8.5l1 11h156z" />
    <glyph glyph-name="wgrave" unicode="&#x1e81;" horiz-adv-x="596" 
d="M322 566h-55l87 -99l13 19zM524 422q19 0 30 -16.5t9 -48.5q-6 -55 -41 -120l-126 -237h-28l-55 239l-124 -239h-30l-79 343q-7 28 -14.5 34t-33.5 -2l-3 12l47 20q14 7 31 7q25 0 32 -31l65 -304l100 196l-15 68q-8 28 -15 34t-31 -1l-3 12l45 19q13 7 31 7q24 0 32 -31
l64 -304l83 160q28 48 30 85q1 13 -5.5 19.5t-15 8t-14.5 8.5t-5 21q2 41 39 41z" />
    <glyph glyph-name="Wacute" unicode="&#x1e82;" horiz-adv-x="854" 
d="M535 782l-134 -80l7 -19l140 58zM866 650l-1 -11q-39 0 -52 -30l-241 -616h-15l-108 450l-176 -450h-15l-149 618q-9 28 -44 28l1 11h102l123 -527l143 379l-26 109q-8 28 -62 28l1 11h120l122 -527l184 485q5 14 -13.5 22.5t-50.5 8.5l1 11h156z" />
    <glyph glyph-name="wacute" unicode="&#x1e83;" horiz-adv-x="596" 
d="M323 566l-52 -80l12 -19l95 99h-55zM524 422q19 0 30 -16.5t9 -48.5q-6 -55 -41 -120l-126 -237h-28l-55 239l-124 -239h-30l-79 343q-7 28 -14.5 34t-33.5 -2l-3 12l47 20q14 7 31 7q25 0 32 -31l65 -304l100 196l-15 68q-8 28 -15 34t-31 -1l-3 12l45 19q13 7 31 7
q24 0 32 -31l64 -304l83 160q28 48 30 85q1 13 -5.5 19.5t-15 8t-14.5 8.5t-5 21q2 41 39 41z" />
    <glyph glyph-name="Wdieresis" unicode="&#x1e84;" horiz-adv-x="854" 
d="M430 742q11 0 18 -7.5t6 -19.5q-2 -24 -27 -24q-11 0 -18 7.5t-6 19.5q2 24 27 24zM521 742q11 0 18 -7.5t6 -19.5q-2 -24 -27 -24q-11 0 -18 7.5t-6 19.5q2 24 27 24zM866 650l-1 -11q-39 0 -52 -30l-241 -616h-15l-108 450l-176 -450h-15l-149 618q-9 28 -44 28l1 11
h102l123 -527l143 379l-26 109q-8 28 -62 28l1 11h120l122 -527l184 485q5 14 -13.5 22.5t-50.5 8.5l1 11h156z" />
    <glyph glyph-name="wdieresis" unicode="&#x1e85;" horiz-adv-x="596" 
d="M277 526q11 0 18 -7.5t6 -19.5q-2 -24 -27 -24q-11 0 -18 7.5t-6 19.5q2 24 27 24zM368 526q11 0 18 -7.5t6 -19.5q-2 -24 -27 -24q-11 0 -18 7.5t-6 19.5q2 24 27 24zM524 422q19 0 30 -16.5t9 -48.5q-6 -55 -41 -120l-126 -237h-28l-55 239l-124 -239h-30l-79 343
q-7 28 -14.5 34t-33.5 -2l-3 12l47 20q14 7 31 7q25 0 32 -31l65 -304l100 196l-15 68q-8 28 -15 34t-31 -1l-3 12l45 19q13 7 31 7q24 0 32 -31l64 -304l83 160q28 48 30 85q1 13 -5.5 19.5t-15 8t-14.5 8.5t-5 21q2 41 39 41z" />
    <glyph glyph-name="Ygrave" unicode="&#x1ef2;" horiz-adv-x="546" 
d="M262 782l-16 -41l135 -58l8 19zM558 650l-2 -11q-29 0 -50 -32l-191 -297l-23 -269q-1 -14 20.5 -22t49.5 -8l-1 -11h-214v11q28 0 51.5 8t24.5 22l23 261l-144 315q-12 22 -37 22l1 11h94l141 -312l173 271q7 12 -6 21t-32 9l1 11h121z" />
    <glyph glyph-name="ygrave" unicode="&#x1ef3;" horiz-adv-x="384" 
d="M219 566h-55l87 -99l13 19zM314 422q18 0 28.5 -17t8.5 -47q-3 -49 -41 -122l-152 -295q-55 -106 -121 -106q-25 0 -37.5 10t-11.5 26q3 34 30 34q14 0 27 -11.5t15 -12.5q8 -4 18.5 -1t26 23.5t34.5 56.5l31 60l-92 323q-4 12 -5 15.5t-5 11t-7.5 9t-9.5 1.5t-14 -3
l-5 -2l-3 12l43 20q18 7 32 7q26 0 35 -31l74 -286l73 142q26 55 28 81q2 14 -4.5 21.5t-15 9.5t-15 9t-5.5 19q3 43 40 43z" />
    <glyph glyph-name="endash" unicode="&#x2013;" horiz-adv-x="474" 
d="M38 251h415l-12 -25h-414z" />
    <glyph glyph-name="emdash" unicode="&#x2014;" horiz-adv-x="776" 
d="M71 251h651l-12 -25h-650z" />
    <glyph glyph-name="quoteleft" unicode="&#x2018;" horiz-adv-x="164" 
d="M66 547q16 91 100 121l2 -14q-48 -22 -58 -65q-5 -22 15 -30q36 -19 29 -51q-9 -41 -51 -41q-51 0 -37 80z" />
    <glyph glyph-name="quoteright" unicode="&#x2019;" horiz-adv-x="166" 
d="M164 588q-9 -91 -90 -121l-3 14q46 22 52 65q3 22 -17 30q-38 19 -34 51q5 41 48 41q50 0 44 -80z" />
    <glyph glyph-name="quotesinglbase" unicode="&#x201a;" horiz-adv-x="161" 
d="M108 -32q-16 -91 -99 -121l-2 14q46 21 57 65q4 22 -15 30q-36 19 -30 51q8 41 51 41q50 0 38 -80z" />
    <glyph glyph-name="quotedblleft" unicode="&#x201c;" horiz-adv-x="303" 
d="M65 547q16 91 100 121l2 -14q-48 -22 -58 -65q-5 -22 15 -30q36 -19 29 -51q-9 -41 -51 -41q-51 0 -37 80zM206 547q16 91 100 121l2 -14q-48 -22 -58 -65q-5 -22 15 -30q36 -19 29 -51q-9 -41 -51 -41q-51 0 -37 80z" />
    <glyph glyph-name="quotedblright" unicode="&#x201d;" horiz-adv-x="301" 
d="M162 588q-16 -91 -99 -121l-2 14q46 21 57 65q4 22 -15 30q-36 19 -30 51q8 41 51 41q50 0 38 -80zM303 588q-16 -91 -99 -121l-2 14q46 21 57 65q4 22 -15 30q-36 19 -30 51q8 41 51 41q50 0 38 -80z" />
    <glyph glyph-name="quotedblbase" unicode="&#x201e;" horiz-adv-x="302" 
d="M108 -32q-16 -91 -99 -121l-2 14q46 21 57 65q4 22 -15 30q-36 19 -30 51q8 41 51 41q50 0 38 -80zM249 -32q-16 -91 -99 -121l-2 14q46 21 57 65q4 22 -15 30q-36 19 -30 51q8 41 51 41q50 0 38 -80z" />
    <glyph glyph-name="dagger" unicode="&#x2020;" horiz-adv-x="320" 
d="M298 589q-2 -15 18 -25l-2 -9q-7 -4 -14 -13t-7 -15h-9q-27 20 -81 20q-16 -227 -9 -319q-7 -2 -12.5 -10t-8 -15l-7 -20.5l-5.5 -16.5h-10q-6 57 -22 62q27 105 46 319q-54 0 -82 -20h-10q1 6 -4.5 15t-12.5 13l1 9q20 11 22 25h9q26 -17 79 -17q7 70 -5 97l1 9
q11 0 26 37h10q7 -37 21 -37l-1 -9q-16 -27 -23 -97q55 0 83 17h9z" />
    <glyph glyph-name="daggerdbl" unicode="&#x2021;" horiz-adv-x="320" 
d="M298 589q-2 -15 18 -25l-2 -9q-7 -4 -14 -13t-7 -15h-9q-27 20 -81 20q0 -8 -2.5 -25t-3 -28t1.5 -26t8 -27q-8 -12 -13 -27.5t-6 -26t-1.5 -28.5t-1.5 -25q55 0 83 20h9q0 -6 5.5 -15t12.5 -13l-1 -9q-20 -10 -22 -25h-9q-26 17 -80 17q-7 -70 6 -97l-1 -9
q-12 0 -27 -37h-10q-7 37 -20 37l1 9q17 29 23 97q-55 0 -83 -17h-10q1 6 -4.5 13.5t-12.5 11.5l1 9q7 4 14.5 13t7.5 15h9q26 -20 80 -20q1 6 3 25l3 29t-1.5 25.5t-8.5 27.5q8 12 13 27.5t6 25.5t1.5 28t1.5 25q-54 0 -82 -20h-10q1 6 -4.5 15t-12.5 13l1 9q20 11 22 25h9
q26 -17 79 -17q7 70 -5 97l1 9q11 0 26 37h10q7 -37 21 -37l-1 -9q-16 -27 -23 -97q55 0 83 17h9z" />
    <glyph glyph-name="bullet" unicode="&#x2022;" horiz-adv-x="248" 
d="M132 317q32 0 49 -22t15 -49q-3 -32 -24.5 -49.5t-48.5 -17.5q-32 0 -49 22t-15 49q3 32 24.5 49.5t48.5 17.5z" />
    <glyph glyph-name="ellipsis" unicode="&#x2026;" horiz-adv-x="438" 
d="M61 72q18 0 27.5 -12t7.5 -27q-1 -18 -13 -28t-27 -10q-18 0 -27.5 12t-8.5 28q1 18 13 27.5t28 9.5zM207 72q18 0 27.5 -12t7.5 -27q-1 -18 -13 -28t-27 -10q-18 0 -27.5 12t-8.5 28q1 18 13 27.5t28 9.5zM353 72q18 0 27.5 -12t7.5 -27q-1 -18 -13 -28t-27 -10
q-18 0 -27.5 12t-8.5 28q1 18 13 27.5t28 9.5z" />
    <glyph glyph-name="perthousand" unicode="&#x2030;" horiz-adv-x="870" 
d="M168 329q-49 0 -75.5 40.5t-19.5 118.5q7 85 45.5 125.5t82.5 40.5q49 0 75 -40.5t20 -117.5q-6 -85 -44.5 -126t-83.5 -41zM435 650h31l-277 -650h-31zM177 348q32 0 48 29.5t23 107.5q13 150 -56 150q-31 0 -48 -28.5t-23 -98.5q-13 -160 56 -160zM426 -4
q-49 0 -75.5 40.5t-19.5 118.5q7 85 45.5 125.5t82.5 40.5q49 0 75 -40.5t20 -117.5q-6 -85 -44.5 -126t-83.5 -41zM690 -4q-49 0 -75.5 40.5t-19.5 118.5q7 85 45.5 125.5t82.5 40.5q49 0 75 -40.5t20 -117.5q-6 -85 -44.5 -126t-83.5 -41zM435 15q32 0 48 29.5t23 107.5
q13 150 -56 150q-31 0 -48 -28.5t-23 -98.5q-13 -160 56 -160zM699 15q32 0 48 29.5t23 107.5q13 150 -56 150q-31 0 -48 -28.5t-23 -98.5q-13 -160 56 -160z" />
    <glyph glyph-name="guilsinglleft" unicode="&#x2039;" horiz-adv-x="279" 
d="M37 223l159 -179l15 28l-111 156l139 156l-10 28l-192 -179v-10z" />
    <glyph glyph-name="guilsinglright" unicode="&#x203a;" horiz-adv-x="278" 
d="M244 223l2 10l-161 179l-15 -28l112 -156l-138 -156l10 -28z" />
    <glyph glyph-name="fraction" unicode="&#x2044;" horiz-adv-x="68" 
d="M157 650h31l-277 -650h-31z" />
    <glyph glyph-name="uni2070" unicode="&#x2070;" horiz-adv-x="251" 
d="M138 379q-49 0 -75.5 40.5t-19.5 118.5q7 85 45.5 125.5t82.5 40.5q49 0 75 -40.5t20 -117.5q-6 -85 -44.5 -126t-83.5 -41zM147 398q32 0 48 29.5t23 107.5q13 150 -56 150q-31 0 -48 -28.5t-23 -98.5q-13 -160 56 -160z" />
    <glyph glyph-name="uni2074" unicode="&#x2074;" horiz-adv-x="236" 
d="M248 505l-6 -65h-9q2 22 -17 22h-23l-3 -47q-1 -11 7.5 -16.5t24.5 -5.5l-1 -9h-110l1 9q36 0 37 25l4 44h-117l1 7l146 231h31l-19 -218h23q18 0 21 23h9zM75 482h80l13 156z" />
    <glyph glyph-name="uni2075" unicode="&#x2075;" horiz-adv-x="220" 
d="M233 688q-41 -12 -123 -12l-22 -103q22 18 57 18q46 0 68 -27.5t17 -73.5q-5 -45 -32.5 -78t-85.5 -33q-41 0 -60.5 16.5t-17.5 39.5q1 12 8.5 19.5t17.5 7.5t16 -7.5t5 -18.5q-1 -7 -5.5 -12.5t-4.5 -8.5q-1 -7 10 -12.5t29 -5.5q36 0 52 22t20 62q9 91 -47 91
q-37 0 -59 -38l-27 8l36 158h150z" />
    <glyph glyph-name="uni2076" unicode="&#x2076;" horiz-adv-x="226" 
d="M151 582q40 0 64.5 -27t20.5 -72q-4 -43 -31.5 -73.5t-75.5 -30.5q-53 0 -73 38t-16 90q6 66 48 120.5t119 77.5l4 -13q-49 -21 -77 -51t-41 -81q25 22 58 22zM191 474q8 89 -49 89q-32 0 -53 -27q-2 -20 -4 -29q-11 -110 49 -110q49 0 57 77z" />
    <glyph glyph-name="uni2077" unicode="&#x2077;" horiz-adv-x="194" 
d="M229 700l3 -8q-70 -93 -97 -165t-32 -143h-41q16 143 118 295h-75q-35 -3 -62 -20l13 41h173z" />
    <glyph glyph-name="uni2078" unicode="&#x2078;" horiz-adv-x="225" 
d="M174 563q22 -14 32.5 -22t19.5 -25t8 -39q-3 -42 -34 -70t-78 -28q-41 0 -65.5 22.5t-20.5 60.5q3 29 21 56.5t50 43.5q-39 23 -36 66q2 37 30 56.5t61 19.5q30 0 50 -17t18 -49q-6 -49 -56 -75zM109 641q-3 -22 6.5 -34.5t33.5 -29.5l10 -6q30 21 33 58q3 28 -9.5 42.5
t-32.5 14.5q-36 0 -41 -45zM191 462q3 33 -10.5 49.5t-56.5 40.5q-40 -27 -44 -76q-2 -34 12 -56.5t45 -22.5q49 0 54 65z" />
    <glyph glyph-name="uni2079" unicode="&#x2079;" horiz-adv-x="225" 
d="M154 705q52 0 72.5 -37.5t16.5 -90.5q-6 -66 -51.5 -123t-124.5 -75l-5 13q96 32 124 120q-19 -11 -45 -11q-43 0 -70 28t-23 73q4 43 31.5 73t74.5 30zM192 534q5 22 6 43q8 110 -48 110q-50 0 -56 -76q-4 -33 8.5 -62t46.5 -29q25 0 43 14z" />
    <glyph glyph-name="uni2080" unicode="&#x2080;" horiz-adv-x="271" 
d="M134 -188q-49 0 -75.5 40.5t-19.5 118.5q7 85 45.5 125.5t82.5 40.5q49 0 75 -40.5t20 -117.5q-6 -85 -44.5 -126t-83.5 -41zM143 -169q32 0 48 29.5t23 107.5q13 150 -56 150q-31 0 -48 -28.5t-23 -98.5q-13 -160 56 -160z" />
    <glyph glyph-name="uni2081" unicode="&#x2081;" horiz-adv-x="175" 
d="M115 -149q-1 -11 8.5 -16.5t29.5 -5.5l-1 -9h-126l1 9q44 0 47 19l19 217q1 16 -5 16q-2 0 -8.5 -2t-15 -5.5t-14.5 -5.5l-2 7q42 23 65 61h30q-5 -27 -6 -36z" />
    <glyph glyph-name="uni2082" unicode="&#x2082;" horiz-adv-x="251" 
d="M210 -104q10 0 17 -8.5t6 -20.5q-2 -23 -20.5 -39t-50.5 -16q-17 0 -40 8t-36 8q-32 0 -53 -11l-7 11l43.5 51.5l36.5 43.5t26.5 33t21.5 29.5t13 24t10 26.5t4 26q5 57 -42 57q-13 0 -24 -5.5t-12 -12.5q0 -4 4.5 -11.5t3.5 -12.5q-3 -22 -26 -22t-20 28q2 22 23.5 38
t58.5 16t60 -18.5t20 -58.5q-1 -11 -5 -23.5t-8.5 -22.5t-15 -25l-17 -24t-22 -27.5l-23 -27.5t-28 -31.5t-28.5 -32.5q5 1 17 1q14 -1 36.5 -8.5t31.5 -7.5q25 0 27 16q0 3 -5 10t-4 16q1 11 9 17t18 6z" />
    <glyph glyph-name="uni2083" unicode="&#x2083;" horiz-adv-x="239" 
d="M108 -170q61 0 67 63q3 35 -14 55t-58 31l1 9q67 15 73 74q5 57 -46 57q-34 0 -36 -17q0 -6 5 -13t4 -15q-2 -21 -26 -21q-11 0 -18 8t-6 19q3 23 26 40t57 17q36 0 61.5 -16.5t22.5 -51.5q-3 -50 -60 -79q67 -26 62 -85q-3 -39 -31.5 -66t-81.5 -27q-40 0 -61.5 16
t-19.5 39q1 14 9 22.5t18 8.5t17 -8t6 -19q-1 -7 -7 -13.5t-6 -9.5q-1 -4 3.5 -8t14.5 -7t24 -3z" />
    <glyph glyph-name="uni2084" unicode="&#x2084;" horiz-adv-x="256" 
d="M244 -59l-6 -65h-9q2 22 -17 22h-23l-3 -47q-1 -11 7.5 -16.5t24.5 -5.5l-1 -9h-110l1 9q36 0 37 25l4 44h-117l1 7l146 231h31l-19 -218h23q18 0 21 23h9zM71 -82h80l13 156z" />
    <glyph glyph-name="uni2085" unicode="&#x2085;" horiz-adv-x="239" 
d="M229 121q-41 -12 -123 -12l-22 -103q22 18 57 18q46 0 68 -27.5t17 -73.5q-5 -45 -32.5 -78t-85.5 -33q-41 0 -60.5 16.5t-17.5 39.5q1 12 8.5 19.5t17.5 7.5t16 -7.5t5 -18.5q-1 -7 -5.5 -12.5t-4.5 -8.5q-1 -7 10 -12.5t29 -5.5q36 0 52 22t20 62q9 91 -47 91
q-37 0 -59 -38l-27 8l36 158h150z" />
    <glyph glyph-name="uni2086" unicode="&#x2086;" horiz-adv-x="246" 
d="M147 15q40 0 64.5 -27t20.5 -72q-4 -43 -31.5 -73.5t-75.5 -30.5q-53 0 -73 38t-16 90q6 66 48 120.5t119 77.5l4 -13q-49 -21 -77 -51t-41 -81q25 22 58 22zM187 -93q8 89 -49 89q-32 0 -53 -27q-2 -20 -4 -29q-11 -110 49 -110q49 0 57 77z" />
    <glyph glyph-name="uni2087" unicode="&#x2087;" horiz-adv-x="214" 
d="M225 136l3 -8q-70 -93 -97 -165t-32 -143h-41q16 143 118 295h-75q-35 -3 -62 -20l13 41h173z" />
    <glyph glyph-name="uni2088" unicode="&#x2088;" horiz-adv-x="245" 
d="M170 -4q22 -14 32.5 -22t19.5 -25t8 -39q-3 -42 -34 -70t-78 -28q-41 0 -65.5 22.5t-20.5 60.5q3 29 21 56.5t50 43.5q-39 23 -36 66q2 37 30 56.5t61 19.5q30 0 50 -17t18 -49q-6 -49 -56 -75zM105 74q-3 -22 6.5 -34.5t33.5 -29.5l10 -6q30 21 33 58q3 28 -9.5 42.5
t-32.5 14.5q-36 0 -41 -45zM187 -105q3 33 -10.5 49.5t-56.5 40.5q-40 -27 -44 -76q-2 -34 12 -56.5t45 -22.5q49 0 54 65z" />
    <glyph glyph-name="uni2089" unicode="&#x2089;" horiz-adv-x="245" 
d="M150 138q52 0 72.5 -37.5t16.5 -90.5q-6 -66 -51.5 -123t-124.5 -75l-5 13q96 32 124 120q-19 -11 -45 -11q-43 0 -70 28t-23 73q4 43 31.5 73t74.5 30zM188 -33q5 22 6 43q8 110 -48 110q-50 0 -56 -76q-4 -33 8.5 -62t46.5 -29q25 0 43 14z" />
    <glyph glyph-name="Euro" unicode="&#x20ac;" horiz-adv-x="487" 
d="M295 24q49 0 87 25t60 58l11 -18q-28 -45 -73.5 -71t-100.5 -26q-92 0 -149 73.5t-55 213.5h-52l12 29h42q0 11 1 17q0 7 2 20t2 19h-52l13 29h44q25 134 95.5 199.5t152.5 65.5q26 0 72 -14q47 -14 57 8l9 -4l-37 -135l-10 4q8 45 1.5 63t-31.5 32q-32 17 -70 17
q-135 0 -168 -236h209l-13 -29h-199l-2 -20l-3 -36h173l-13 -29h-161q-2 -126 35.5 -190.5t110.5 -64.5z" />
    <glyph glyph-name="trademark" unicode="&#x2122;" horiz-adv-x="544" 
d="M264 617l-7 -2q-7 22 -15.5 28.5t-27.5 6.5h-34l-19 -210q0 -18 35 -18l-1 -8h-111l1 8q36 0 39 23l18 205h-36q-20 0 -29.5 -6.5t-18.5 -26.5l-7 2l23 56q3 -5 16 -5h144q10 0 18 5zM516 440q0 -18 32 -18l-1 -8h-99l1 8q29 0 30 15l3 162l-89 -187h-5l-60 178l-24 -151
q-1 -9 6.5 -13t20.5 -4l-1 -8h-83l1 8q28 0 32 10l32 205q3 26 -26 26l1 7h48l69 -188l88 188h59l-1 -7q-13 0 -21.5 -8.5t-8.5 -20.5z" />
    <glyph glyph-name="uni2153" unicode="&#x2153;" horiz-adv-x="466" 
d="M115 365q-1 -11 8.5 -16.5t29.5 -5.5l-1 -9h-126l1 9q44 0 47 19l19 217q1 16 -5 16q-2 0 -8.5 -2t-15 -5.5t-14.5 -5.5l-2 7q42 23 65 61h30q-5 -27 -6 -36zM332 650h31l-277 -650h-31zM310 14q61 0 67 63q3 35 -14 55t-58 31l1 9q67 15 73 74q5 57 -46 57
q-34 0 -36 -17q0 -6 5 -13t4 -15q-2 -21 -26 -21q-11 0 -18 8t-6 19q3 23 26 40t57 17q36 0 61.5 -16.5t22.5 -51.5q-3 -50 -60 -79q67 -26 62 -85q-3 -39 -31.5 -66t-81.5 -27q-40 0 -61.5 16t-19.5 39q1 14 9 22.5t18 8.5t17 -8t6 -19q-1 -7 -7 -13.5t-6 -9.5
q-1 -4 3.5 -8t14.5 -7t24 -3z" />
    <glyph glyph-name="uni2154" unicode="&#x2154;" horiz-adv-x="539" 
d="M215 413q10 0 17 -8.5t6 -20.5q-2 -23 -20.5 -39t-50.5 -16q-17 0 -40 8t-36 8q-32 0 -53 -11l-7 11l43.5 51.5l36.5 43.5t26.5 33t21.5 29.5t13 24t10 26.5t4 26q5 57 -42 57q-13 0 -24 -5.5t-12 -12.5q0 -4 4.5 -11.5t3.5 -12.5q-3 -22 -26 -22q-10 0 -16 8t-4 20
q2 22 23.5 38t58.5 16t60 -18.5t20 -58.5q-1 -11 -5 -23.5t-8.5 -22.5t-15 -25l-17 -24t-22 -27.5l-23 -27.5t-28 -31.5t-28.5 -32.5q5 1 17 1q14 -1 36.5 -8.5t31.5 -7.5q25 0 27 16q0 3 -5 10t-4 16q1 11 9 17t18 6zM399 650h31l-277 -650h-31zM373 14q61 0 67 63
q3 35 -14 55t-58 31l1 9q67 15 73 74q5 57 -46 57q-34 0 -36 -17q0 -6 5 -13t4 -15q-2 -21 -26 -21q-11 0 -18 8t-6 19q3 23 26 40t57 17q36 0 61.5 -16.5t22.5 -51.5q-3 -50 -60 -79q67 -26 62 -85q-3 -39 -31.5 -66t-81.5 -27q-40 0 -61.5 16t-19.5 39q1 14 9 22.5t18 8.5
t17 -8t6 -19q-1 -7 -7 -13.5t-6 -9.5q-1 -4 3.5 -8t14.5 -7t24 -3z" />
    <glyph glyph-name="oneeighth" unicode="&#x215b;" horiz-adv-x="460" 
d="M115 365q-1 -11 8.5 -16.5t29.5 -5.5l-1 -9h-126l1 9q44 0 47 19l19 217q1 16 -5 16q-2 0 -8.5 -2t-15 -5.5t-14.5 -5.5l-2 7q42 23 65 61h30q-5 -27 -6 -36zM332 650h31l-277 -650h-31zM359 180q22 -14 32.5 -22t19.5 -25t8 -39q-3 -42 -34 -70t-78 -28
q-41 0 -65.5 22.5t-20.5 60.5q3 29 21 56.5t50 43.5q-39 23 -36 66q2 37 30 56.5t61 19.5q30 0 50 -17t18 -49q-6 -49 -56 -75zM294 258q-3 -22 6.5 -34.5t33.5 -29.5l10 -6q30 21 33 58q3 28 -9.5 42.5t-32.5 14.5q-36 0 -41 -45zM376 79q3 33 -10.5 49.5t-56.5 40.5
q-40 -27 -44 -76q-2 -34 12 -56.5t45 -22.5q49 0 54 65z" />
    <glyph glyph-name="threeeighths" unicode="&#x215c;" horiz-adv-x="508" 
d="M113 347q61 0 67 63q3 35 -14 55t-58 31l1 9q67 15 73 74q5 57 -46 57q-34 0 -36 -17q0 -6 5 -13t4 -15q-2 -21 -26 -21q-11 0 -18 8t-6 19q3 23 26 40t57 17q36 0 61.5 -16.5t22.5 -51.5q-3 -50 -60 -79q67 -26 62 -85q-3 -39 -31.5 -66t-81.5 -27q-40 0 -61.5 16
t-19.5 39q1 14 9 22.5t18 8.5t17 -8t6 -19q-1 -7 -7 -13.5t-6 -9.5q-1 -4 3.5 -8t14.5 -7t24 -3zM385 650h31l-277 -650h-31zM407 180q22 -14 32.5 -22t19.5 -25t8 -39q-3 -42 -34 -70t-78 -28q-41 0 -65.5 22.5t-20.5 60.5q3 29 21 56.5t50 43.5q-39 23 -36 66
q2 37 30 56.5t61 19.5q30 0 50 -17t18 -49q-6 -49 -56 -75zM342 258q-3 -22 6.5 -34.5t33.5 -29.5l10 -6q30 21 33 58q3 28 -9.5 42.5t-32.5 14.5q-36 0 -41 -45zM424 79q3 33 -10.5 49.5t-56.5 40.5q-40 -27 -44 -76q-2 -34 12 -56.5t45 -22.5q49 0 54 65z" />
    <glyph glyph-name="fiveeighths" unicode="&#x215d;" horiz-adv-x="512" 
d="M234 638q-41 -12 -123 -12l-22 -103q22 18 57 18q46 0 68 -27.5t17 -73.5q-5 -45 -32.5 -78t-85.5 -33q-41 0 -60.5 16.5t-17.5 39.5q1 12 8.5 19.5t17.5 7.5t16 -7.5t5 -18.5q-1 -7 -5.5 -12.5t-4.5 -8.5q-1 -7 10 -12.5t29 -5.5q36 0 52 22t20 62q9 91 -47 91
q-37 0 -59 -38l-27 8l36 158h150zM389 650h31l-277 -650h-31zM411 180q22 -14 32.5 -22t19.5 -25t8 -39q-3 -42 -34 -70t-78 -28q-41 0 -65.5 22.5t-20.5 60.5q3 29 21 56.5t50 43.5q-39 23 -36 66q2 37 30 56.5t61 19.5q30 0 50 -17t18 -49q-6 -49 -56 -75zM346 258
q-3 -22 6.5 -34.5t33.5 -29.5l10 -6q30 21 33 58q3 28 -9.5 42.5t-32.5 14.5q-36 0 -41 -45zM428 79q3 33 -10.5 49.5t-56.5 40.5q-40 -27 -44 -76q-2 -34 12 -56.5t45 -22.5q49 0 54 65z" />
    <glyph glyph-name="seveneighths" unicode="&#x215e;" horiz-adv-x="443" 
d="M320 650h31l-277 -650h-31zM230 650l3 -8q-70 -93 -97 -165t-32 -143h-41q16 143 118 295h-75q-35 -3 -62 -20l13 41h173zM342 180q22 -14 32.5 -22t19.5 -25t8 -39q-3 -42 -34 -70t-78 -28q-41 0 -65.5 22.5t-20.5 60.5q3 29 21 56.5t50 43.5q-39 23 -36 66
q2 37 30 56.5t61 19.5q30 0 50 -17t18 -49q-6 -49 -56 -75zM277 258q-3 -22 6.5 -34.5t33.5 -29.5l10 -6q30 21 33 58q3 28 -9.5 42.5t-32.5 14.5q-36 0 -41 -45zM359 79q3 33 -10.5 49.5t-56.5 40.5q-40 -27 -44 -76q-2 -34 12 -56.5t45 -22.5q49 0 54 65z" />
    <glyph glyph-name="partialdiff" unicode="&#x2202;" horiz-adv-x="433" 
d="M264 650q109 0 138.5 -117.5t-22.5 -340.5q-23 -96 -82 -148t-136 -52q-76 0 -108.5 47t-26.5 116q8 93 75 159.5t157 66.5q66 0 92 -47q10 77 8 140t-30 104.5t-79 42.5q-63 2 -122 -41l-6 19q64 51 142 51zM302 157q25 62 14.5 113t-60.5 62q-60 8 -95 -33.5
t-49 -111.5q-8 -23 -10 -52t12.5 -59t48.5 -38q43 -5 80 24t59 95z" />
    <glyph glyph-name="emptyset" unicode="&#x2205;" horiz-adv-x="501" 
d="M426 349q47 -62 40 -142q-7 -90 -75.5 -152.5t-158.5 -62.5q-80 0 -137 52l-32 -29l-19 21l32 29q-48 61 -41 142q7 90 76 152.5t159 62.5q80 0 137 -52l32 29l19 -21zM68 207q-6 -68 32 -119l283 259q-49 47 -115 47q-76 0 -134.5 -53t-65.5 -134zM433 207q6 66 -32 119
l-282 -259q49 -47 115 -47q76 0 134 53t65 134z" />
    <glyph glyph-name="product" unicode="&#x220f;" horiz-adv-x="613" 
d="M585 650l20 -90l-12 -3q-16 64 -64 64h-46l-63 -734h-58l64 734h-176l-63 -734h-58l64 734h-46q-48 0 -73 -64l-12 3l34 90h489z" />
    <glyph glyph-name="summation" unicode="&#x2211;" horiz-adv-x="480" 
d="M447 650l20 -90l-12 -3q-16 64 -64 64h-214l120 -347v-10l-180 -348h216q50 0 75 64l12 -4l-35 -89h-382v11q17 0 34.5 10t26.5 25l172 336l-116 333q-5 16 -20 26.5t-31 10.5v11h378z" />
    <glyph glyph-name="minus" unicode="&#x2212;" horiz-adv-x="290" 
d="M37 263h220l-3 -29h-220z" />
    <glyph glyph-name="radical" unicode="&#x221a;" horiz-adv-x="529" 
d="M558 650l-2 -29h-85l-286 -734h-17l-104 305q-14 42 -58 42l-2 14h102l85 -258l256 660h111z" />
    <glyph glyph-name="infinity" unicode="&#x221e;" horiz-adv-x="617" 
d="M455 366q53 0 93 -38.5t35 -96.5q-5 -51 -41.5 -91t-91.5 -40q-44 0 -76 26t-63 70q-81 -96 -154 -96q-54 0 -91 41.5t-32 93.5q5 47 40 89t93 42q79 0 139 -97q40 47 75 72t74 25zM151 145q33 0 63 24.5t68 70.5q-35 51 -59 71.5t-60 20.5q-45 0 -73 -28t-30 -64
q-4 -40 25 -67.5t66 -27.5zM558 227q4 39 -24.5 66.5t-67.5 27.5q-25 0 -50.5 -16.5t-39 -31t-41.5 -48.5q34 -50 60 -70.5t57 -20.5q43 0 73 28t33 65z" />
    <glyph glyph-name="integral" unicode="&#x222b;" horiz-adv-x="317" 
d="M184 464q21 89 61 142t102 52l-12 -30q-34 1 -51 -16.5t-29 -65.5l-119 -466q-15 -60 -33 -101t-52 -70.5t-79 -29.5l13 33q32 -1 50 18.5t29 67.5z" />
    <glyph glyph-name="approxequal" unicode="&#x2248;" horiz-adv-x="370" 
d="M34 276q10 32 36.5 53.5t60.5 21.5q35 0 73 -30.5t62 -30.5q37 0 62 42h18q-10 -32 -36.5 -53.5t-60.5 -21.5q-35 0 -73 30.5t-61 30.5q-37 0 -62 -42h-19zM25 164q10 32 36.5 53.5t60.5 21.5q35 0 73 -30.5t62 -30.5q37 0 62 42h18q-10 -32 -36.5 -53.5t-60.5 -21.5
q-35 0 -73 30.5t-61 30.5q-37 0 -62 -42h-19z" />
    <glyph glyph-name="notequal" unicode="&#x2260;" horiz-adv-x="327" 
d="M298 284h-100l-36 -71h124l-6 -29h-133l-34 -67h-33l34 67h-89l6 29h98l36 71h-122l5 29h132l34 66h33l-34 -66h90z" />
    <glyph glyph-name="lessequal" unicode="&#x2264;" horiz-adv-x="321" 
d="M298 371l-2 -36l-219 -88l203 -89l-4 -36l-240 108l3 33zM21 54l4 29h250l-4 -29h-250z" />
    <glyph glyph-name="greaterequal" unicode="&#x2265;" horiz-adv-x="321" 
d="M50 371l240 -108l-3 -33l-259 -108l3 36l218 88l-203 89zM21 54l2 29h250l-2 -29h-250z" />
    <glyph glyph-name="lozenge" unicode="&#x25ca;" horiz-adv-x="442" 
d="M256 650l162 -319v-12l-215 -319h-16l-163 319l1 12l215 319h16zM64 337l143 -282l170 257l-142 283z" />
    <glyph glyph-name="A.ss01" horiz-adv-x="581" 
d="M506 36q6 -25 45 -25l-1 -11h-159l1 11q18 0 30.5 6.5t9.5 17.5l-35 133l-224 72l-86 -206q-4 -11 14 -17t45 -6l-1 -11h-150l2 11q43 0 52 19l264 628l22 7zM186 269l202 -65l-89 339z" />
    <glyph glyph-name="Aacute.ss01" horiz-adv-x="581" 
d="M391 782l-134 -80l7 -19l140 58zM506 36q6 -25 45 -25l-1 -11h-159l1 11q18 0 30.5 6.5t9.5 17.5l-35 133l-224 72l-86 -206q-4 -11 14 -17t45 -6l-1 -11h-150l2 11q43 0 52 19l264 628l22 7zM186 269l202 -65l-89 339z" />
    <glyph glyph-name="Abreve.ss01" horiz-adv-x="581" 
d="M329 691q-50 0 -71 55l22 6q16 -31 52 -31q37 0 56 31l21 -6q-28 -55 -80 -55zM506 36q6 -25 45 -25l-1 -11h-159l1 11q18 0 30.5 6.5t9.5 17.5l-35 133l-224 72l-86 -206q-4 -11 14 -17t45 -6l-1 -11h-150l2 11q43 0 52 19l264 628l22 7zM186 269l202 -65l-89 339z" />
    <glyph glyph-name="Acircumflex.ss01" horiz-adv-x="581" 
d="M244 690l73 90h38l58 -90h-26l-53 64l-64 -64h-26zM506 36q6 -25 45 -25l-1 -11h-159l1 11q18 0 30.5 6.5t9.5 17.5l-35 133l-224 72l-86 -206q-4 -11 14 -17t45 -6l-1 -11h-150l2 11q43 0 52 19l264 628l22 7zM186 269l202 -65l-89 339z" />
    <glyph glyph-name="Adieresis.ss01" horiz-adv-x="581" 
d="M286 742q11 0 18 -7.5t6 -19.5q-2 -24 -27 -24q-11 0 -18 7.5t-6 19.5q2 24 27 24zM377 742q11 0 18 -7.5t6 -19.5q-2 -24 -27 -24q-11 0 -18 7.5t-6 19.5q2 24 27 24zM506 36q6 -25 45 -25l-1 -11h-159l1 11q18 0 30.5 6.5t9.5 17.5l-35 133l-224 72l-86 -206
q-4 -11 14 -17t45 -6l-1 -11h-150l2 11q43 0 52 19l264 628l22 7zM186 269l202 -65l-89 339z" />
    <glyph glyph-name="Agrave.ss01" horiz-adv-x="581" 
d="M269 782l-16 -41l135 -58l8 19zM506 36q6 -25 45 -25l-1 -11h-159l1 11q18 0 30.5 6.5t9.5 17.5l-35 133l-224 72l-86 -206q-4 -11 14 -17t45 -6l-1 -11h-150l2 11q43 0 52 19l264 628l22 7zM186 269l202 -65l-89 339z" />
    <glyph glyph-name="Amacron.ss01" horiz-adv-x="581" 
d="M253 729h162l-8 -28h-162zM506 36q6 -25 45 -25l-1 -11h-159l1 11q18 0 30.5 6.5t9.5 17.5l-35 133l-224 72l-86 -206q-4 -11 14 -17t45 -6l-1 -11h-150l2 11q43 0 52 19l264 628l22 7zM186 269l202 -65l-89 339z" />
    <glyph glyph-name="Aogonek.ss01" horiz-adv-x="581" 
d="M506 36q6 -25 45 -25l-1 -11h-22q-51 -26 -54 -63q-1 -15 6.5 -24t18.5 -9t18 6l5 -13q-17 -14 -45 -14q-24 0 -39 12t-13 35q2 25 22 43.5t46 26.5h-102l1 11q18 0 30.5 6.5t9.5 17.5l-35 133l-224 72l-86 -206q-4 -11 14 -17t45 -6l-1 -11h-150l2 11q43 0 52 19
l264 628l22 7zM186 269l202 -65l-89 339z" />
    <glyph glyph-name="Aring.ss01" horiz-adv-x="581" 
d="M328 683q-20 0 -33.5 15t-11.5 35q1 20 17 34.5t36 14.5t33.5 -14.5t11.5 -34.5t-17.5 -35t-35.5 -15zM330 708q11 0 18.5 7.5t8.5 17.5t-6 17.5t-17 7.5t-17.5 -7.5t-9.5 -17.5q-1 -11 6 -18t17 -7zM506 36q6 -25 45 -25l-1 -11h-159l1 11q18 0 30.5 6.5t9.5 17.5
l-35 133l-224 72l-86 -206q-4 -11 14 -17t45 -6l-1 -11h-150l2 11q43 0 52 19l264 628l22 7zM186 269l202 -65l-89 339z" />
    <glyph glyph-name="Atilde.ss01" horiz-adv-x="581" 
d="M228 712q19 53 61 53q27 0 53.5 -23t42.5 -23q9 0 17 5.5t10.5 9.5t9.5 16l12 -5q-18 -53 -61 -53q-27 0 -53 23t-42 23q-21 0 -37 -31zM506 36q6 -25 45 -25l-1 -11h-159l1 11q18 0 30.5 6.5t9.5 17.5l-35 133l-224 72l-86 -206q-4 -11 14 -17t45 -6l-1 -11h-150l2 11
q43 0 52 19l264 628l22 7zM186 269l202 -65l-89 339z" />
    <glyph glyph-name="AE.ss01" horiz-adv-x="794" 
d="M741 93l12 -4l-28 -89h-327l13 153l-193 63l-116 -175q-10 -14 9.5 -22t47.5 -8l-1 -11h-168l2 11q48 0 68 27l404 612h296l28 -90l-12 -3q-24 64 -72 64h-183l-23 -270h158q29 0 36 67h11l-14 -162h-12q7 66 -23 66h-159l-25 -293h205q24 0 37.5 14.5t28.5 49.5z
M234 243l180 -59l33 384z" />
    <glyph glyph-name="K.ss01" horiz-adv-x="584" 
d="M666 -57q85 -49 175.5 -69.5t170 -14.5t144.5 36l-1 -11q-99 -57 -255.5 -54.5t-276.5 71.5q-64 36 -136.5 101.5t-125.5 139.5l-131 186l-43 -40l-23 -247q-1 -15 19 -22.5t46 -7.5l-1 -11h-193l1 11q20 0 39 8t20 22l52 568q1 14 -16.5 22t-37.5 8l1 11h171l-1 -11
q-45 0 -48 -30l-25 -275l297 273q11 12 4.5 22t-20.5 10l1 11h153l-1 -11q-49 0 -90 -31l-256 -236l104 -148q44 -61 74.5 -99.5t88.5 -92.5t120 -89z" />
    <glyph glyph-name="Kcommaaccent.ss01" horiz-adv-x="584" 
d="M666 -57q85 -49 175.5 -69.5t170 -14.5t144.5 36l-1 -11q-99 -57 -255.5 -54.5t-276.5 71.5q-64 36 -136.5 101.5t-125.5 139.5l-131 186l-43 -40l-23 -247q-1 -15 19 -22.5t46 -7.5l-1 -11h-193l1 11q20 0 39 8t20 22l52 568q1 14 -16.5 22t-37.5 8l1 11h171l-1 -11
q-45 0 -48 -30l-25 -275l297 273q11 12 4.5 22t-20.5 10l1 11h153l-1 -11q-49 0 -90 -31l-256 -236l104 -148q44 -61 74.5 -99.5t88.5 -92.5t120 -89zM303 -31l-5 -18l-33 -62l7 -19l68 78l2 21h-39z" />
    <glyph glyph-name="M.ss01" horiz-adv-x="800" 
d="M788 639q-20 0 -38.5 -8t-19.5 -22l-50 -568q-1 -14 15.5 -22t36.5 -8l-1 -11h-176l1 11q20 0 37 7.5t18 22.5l44 494l-282 -539h-11l-197 523l-42 -478q-1 -15 17 -22.5t44 -7.5l-1 -11h-151l1 11q20 0 37.5 8t18.5 22l50 568q1 14 -14.5 22t-35.5 8l1 11h100l205 -548
l285 548h109z" />
    <glyph glyph-name="Q.ss01" horiz-adv-x="730" 
d="M648 -37q48 -24 97 -23.5t75.5 11t38.5 22.5l-1 -11q-12 -13 -34.5 -26t-54.5 -24t-73 -9.5t-80 18.5q-26 12 -55 34t-42.5 35l-43.5 44q-73 -42 -160 -42q-125 0 -203 90t-66 233q13 158 112.5 250.5t228.5 92.5q126 0 203 -90t65 -232q-14 -178 -141 -276
q96 -78 134 -97zM119 326q-11 -136 46.5 -219t166.5 -83q67 0 121 33q-19 18 -33.5 29t-31.5 18t-34 4t-34 -16v11q24 25 53 27.5t54 -10t59 -37.5q83 78 96 242q11 135 -46 218t-166 83q-98 0 -168 -73t-83 -227z" />
    <glyph glyph-name="R.ss01" horiz-adv-x="552" 
d="M647 -57q128 -70 261 -81.5t230 33.5l-1 -11q-106 -57 -259 -52.5t-275 69.5q-137 72 -227 202l-113 159q-41 -8 -92 -10l-19 -211q-1 -15 17 -22.5t45 -7.5l-1 -11h-189l1 11q20 0 38.5 8t19.5 22l50 568q1 14 -16.5 22t-37.5 8l1 11h212q54 0 97 -15t70.5 -50t23.5 -86
q-5 -75 -47.5 -130.5t-107.5 -87.5l71 -100q71 -98 108 -136q59 -58 140 -102zM203 618l-29 -337q219 4 235 213q5 61 -33 96t-113 35q-30 0 -60 -7z" />
    <glyph glyph-name="Racute.ss01" horiz-adv-x="552" 
d="M380 782l-134 -80l7 -19l140 58zM647 -57q128 -70 261 -81.5t230 33.5l-1 -11q-106 -57 -259 -52.5t-275 69.5q-137 72 -227 202l-113 159q-41 -8 -92 -10l-19 -211q-1 -15 17 -22.5t45 -7.5l-1 -11h-189l1 11q20 0 38.5 8t19.5 22l50 568q1 14 -16.5 22t-37.5 8l1 11
h212q54 0 97 -15t70.5 -50t23.5 -86q-5 -75 -47.5 -130.5t-107.5 -87.5l71 -100q71 -98 108 -136q59 -58 140 -102zM203 618l-29 -337q219 4 235 213q5 61 -33 96t-113 35q-30 0 -60 -7z" />
    <glyph glyph-name="Rcaron.ss01" horiz-adv-x="552" 
d="M241 780l64 -90h26l79 90h-34l-56 -64l-44 64h-35zM647 -57q128 -70 261 -81.5t230 33.5l-1 -11q-106 -57 -259 -52.5t-275 69.5q-137 72 -227 202l-113 159q-41 -8 -92 -10l-19 -211q-1 -15 17 -22.5t45 -7.5l-1 -11h-189l1 11q20 0 38.5 8t19.5 22l50 568
q1 14 -16.5 22t-37.5 8l1 11h212q54 0 97 -15t70.5 -50t23.5 -86q-5 -75 -47.5 -130.5t-107.5 -87.5l71 -100q71 -98 108 -136q59 -58 140 -102zM203 618l-29 -337q219 4 235 213q5 61 -33 96t-113 35q-30 0 -60 -7z" />
    <glyph glyph-name="Rcommaaccent.ss01" horiz-adv-x="552" 
d="M647 -57q128 -70 261 -81.5t230 33.5l-1 -11q-106 -57 -259 -52.5t-275 69.5q-137 72 -227 202l-113 159q-41 -8 -92 -10l-19 -211q-1 -15 17 -22.5t45 -7.5l-1 -11h-189l1 11q20 0 38.5 8t19.5 22l50 568q1 14 -16.5 22t-37.5 8l1 11h212q54 0 97 -15t70.5 -50t23.5 -86
q-5 -75 -47.5 -130.5t-107.5 -87.5l71 -100q71 -98 108 -136q59 -58 140 -102zM203 618l-29 -337q219 4 235 213q5 61 -33 96t-113 35q-30 0 -60 -7zM269 -31l-5 -18l-33 -62l7 -19l68 78l2 21h-39z" />
    <glyph glyph-name="S.ss01" horiz-adv-x="501" 
d="M-29 -40q28 -42 83.5 -71.5t121.5 -29.5q98 0 151 61.5t53 141.5q0 67 -41.5 117.5t-125.5 112.5q-39 30 -61.5 51t-43 58t-20.5 79q0 79 53.5 128.5t128.5 49.5q28 0 54 -7.5t39 -14t24.5 -5.5t19.5 14l10 -5l-37 -121l-9 4q9 49 -21.5 76.5t-83.5 27.5
q-114 0 -114 -123q0 -12 2 -23t4 -20t8.5 -19.5l10.5 -17t14.5 -17.5l16 -16.5t20 -17.5l21.5 -17.5l25.5 -20l26.5 -20.5q70 -54 110.5 -108.5t40.5 -126.5q0 -101 -79 -174t-190 -73q-75 0 -134.5 34t-82.5 83z" />
    <glyph glyph-name="Sacute.ss01" horiz-adv-x="501" 
d="M333 782l-134 -80l7 -19l140 58zM-29 -40q28 -42 83.5 -71.5t121.5 -29.5q98 0 151 61.5t53 141.5q0 67 -41.5 117.5t-125.5 112.5q-39 30 -61.5 51t-43 58t-20.5 79q0 79 53.5 128.5t128.5 49.5q28 0 54 -7.5t39 -14t24.5 -5.5t19.5 14l10 -5l-37 -121l-9 4
q9 49 -21.5 76.5t-83.5 27.5q-114 0 -114 -123q0 -12 2 -23t4 -20t8.5 -19.5l10.5 -17t14.5 -17.5l16 -16.5t20 -17.5l21.5 -17.5l25.5 -20l26.5 -20.5q70 -54 110.5 -108.5t40.5 -126.5q0 -101 -79 -174t-190 -73q-75 0 -134.5 34t-82.5 83z" />
    <glyph glyph-name="Scaron.ss01" horiz-adv-x="501" 
d="M194 780l64 -90h26l79 90h-34l-56 -64l-44 64h-35zM-29 -40q28 -42 83.5 -71.5t121.5 -29.5q98 0 151 61.5t53 141.5q0 67 -41.5 117.5t-125.5 112.5q-39 30 -61.5 51t-43 58t-20.5 79q0 79 53.5 128.5t128.5 49.5q28 0 54 -7.5t39 -14t24.5 -5.5t19.5 14l10 -5l-37 -121
l-9 4q9 49 -21.5 76.5t-83.5 27.5q-114 0 -114 -123q0 -12 2 -23t4 -20t8.5 -19.5l10.5 -17t14.5 -17.5l16 -16.5t20 -17.5l21.5 -17.5l25.5 -20l26.5 -20.5q70 -54 110.5 -108.5t40.5 -126.5q0 -101 -79 -174t-190 -73q-75 0 -134.5 34t-82.5 83z" />
    <glyph glyph-name="Scedilla.ss01" horiz-adv-x="501" 
d="M183 -167h-7l-10 -18q12 6 23 6q15 0 26.5 -8t9.5 -25q-2 -23 -23.5 -38.5t-46.5 -15.5q-10 0 -14 1l7 13q34 0 38 34q2 24 -15 24q-16 0 -34 -16l-6 11q9 18 18 34q-64 7 -113 39.5t-70 75.5l5 10q28 -42 83.5 -71.5t121.5 -29.5q98 0 151 61.5t53 141.5
q0 67 -41.5 117.5t-125.5 112.5q-39 30 -61.5 51t-43 58t-20.5 79q0 79 53.5 128.5t128.5 49.5q28 0 54 -7.5t39 -14t24.5 -5.5t19.5 14l10 -5l-37 -121l-9 4q9 49 -21.5 76.5t-83.5 27.5q-114 0 -114 -123q0 -12 2 -23t4 -20t8.5 -19.5l10.5 -17t14.5 -17.5l16 -16.5
t20 -17.5l21.5 -17.5l25.5 -20l26.5 -20.5q70 -54 110.5 -108.5t40.5 -126.5q0 -101 -79 -174t-190 -73z" />
    <glyph glyph-name="Scommaaccent.ss01" horiz-adv-x="501" 
d="M-29 -40q28 -42 83.5 -71.5t121.5 -29.5q98 0 151 61.5t53 141.5q0 67 -41.5 117.5t-125.5 112.5q-39 30 -61.5 51t-43 58t-20.5 79q0 79 53.5 128.5t128.5 49.5q28 0 54 -7.5t39 -14t24.5 -5.5t19.5 14l10 -5l-37 -121l-9 4q9 49 -21.5 76.5t-83.5 27.5
q-114 0 -114 -123q0 -12 2 -23t4 -20t8.5 -19.5l10.5 -17t14.5 -17.5l16 -16.5t20 -17.5l21.5 -17.5l25.5 -20l26.5 -20.5q70 -54 110.5 -108.5t40.5 -126.5q0 -101 -79 -174t-190 -73q-75 0 -134.5 34t-82.5 83zM171 -179l-5 -18l-33 -62l7 -19l68 78l2 21h-39z" />
    <glyph glyph-name="U.ss01" horiz-adv-x="650" 
d="M646 638q-19 0 -36.5 -8t-18.5 -22l-50 -567q-1 -14 15 -22t35 -8l-1 -11h-122l4 47q-67 -55 -179 -55q-98 0 -156 47.5t-49 140.5l37 428q1 14 -15 22t-35 8l1 12h122l-40 -458q-14 -168 161 -168q94 0 156 55l46 527q3 32 -59 32l1 12h184z" />
    <glyph glyph-name="Uacute.ss01" horiz-adv-x="650" 
d="M432 782l-134 -80l7 -19l140 58zM646 638q-19 0 -36.5 -8t-18.5 -22l-50 -567q-1 -14 15 -22t35 -8l-1 -11h-122l4 47q-67 -55 -179 -55q-98 0 -156 47.5t-49 140.5l37 428q1 14 -15 22t-35 8l1 12h122l-40 -458q-14 -168 161 -168q94 0 156 55l46 527q3 32 -59 32l1 12
h184z" />
    <glyph glyph-name="Ucircumflex.ss01" horiz-adv-x="650" 
d="M285 690l73 90h38l58 -90h-26l-53 64l-64 -64h-26zM646 638q-19 0 -36.5 -8t-18.5 -22l-50 -567q-1 -14 15 -22t35 -8l-1 -11h-122l4 47q-67 -55 -179 -55q-98 0 -156 47.5t-49 140.5l37 428q1 14 -15 22t-35 8l1 12h122l-40 -458q-14 -168 161 -168q94 0 156 55l46 527
q3 32 -59 32l1 12h184z" />
    <glyph glyph-name="Udieresis.ss01" horiz-adv-x="650" 
d="M327 742q11 0 18 -7.5t6 -19.5q-2 -24 -27 -24q-11 0 -18 7.5t-6 19.5q2 24 27 24zM418 742q11 0 18 -7.5t6 -19.5q-2 -24 -27 -24q-11 0 -18 7.5t-6 19.5q2 24 27 24zM646 638q-19 0 -36.5 -8t-18.5 -22l-50 -567q-1 -14 15 -22t35 -8l-1 -11h-122l4 47
q-67 -55 -179 -55q-98 0 -156 47.5t-49 140.5l37 428q1 14 -15 22t-35 8l1 12h122l-40 -458q-14 -168 161 -168q94 0 156 55l46 527q3 32 -59 32l1 12h184z" />
    <glyph glyph-name="Ugrave.ss01" horiz-adv-x="650" 
d="M310 782l-16 -41l135 -58l8 19zM646 638q-19 0 -36.5 -8t-18.5 -22l-50 -567q-1 -14 15 -22t35 -8l-1 -11h-122l4 47q-67 -55 -179 -55q-98 0 -156 47.5t-49 140.5l37 428q1 14 -15 22t-35 8l1 12h122l-40 -458q-14 -168 161 -168q94 0 156 55l46 527q3 32 -59 32l1 12
h184z" />
    <glyph glyph-name="Uhungarumlaut.ss01" horiz-adv-x="650" 
d="M352 782l-77 -70l10 -29l99 80zM442 782l-77 -70l10 -29l98 80zM646 638q-19 0 -36.5 -8t-18.5 -22l-50 -567q-1 -14 15 -22t35 -8l-1 -11h-122l4 47q-67 -55 -179 -55q-98 0 -156 47.5t-49 140.5l37 428q1 14 -15 22t-35 8l1 12h122l-40 -458q-14 -168 161 -168
q94 0 156 55l46 527q3 32 -59 32l1 12h184z" />
    <glyph glyph-name="Umacron.ss01" horiz-adv-x="650" 
d="M294 729h162l-8 -28h-162zM646 638q-19 0 -36.5 -8t-18.5 -22l-50 -567q-1 -14 15 -22t35 -8l-1 -11h-122l4 47q-67 -55 -179 -55q-98 0 -156 47.5t-49 140.5l37 428q1 14 -15 22t-35 8l1 12h122l-40 -458q-14 -168 161 -168q94 0 156 55l46 527q3 32 -59 32l1 12h184z
" />
    <glyph glyph-name="Uogonek.ss01" horiz-adv-x="650" 
d="M463 650h184l-1 -12q-19 0 -36.5 -8t-18.5 -22l-50 -567q-1 -14 15 -22t35 -8l-1 -11h-122l4 47q-28 -23 -72 -38h1q-51 -26 -54 -63q-1 -15 6.5 -24t18.5 -9q10 0 18 6l5 -13q-17 -14 -45 -14q-24 0 -39 12t-13 35q3 33 38 56q-22 -3 -43 -3q-98 0 -156 47.5t-49 140.5
l37 428q1 14 -15 22t-35 8l1 12h122l-40 -458q-14 -168 161 -168q94 0 156 55l46 527q3 32 -59 32z" />
    <glyph glyph-name="Uring.ss01" horiz-adv-x="650" 
d="M369 683q-20 0 -33.5 15t-11.5 35q1 20 17 34.5t36 14.5t33.5 -14.5t11.5 -34.5t-17.5 -35t-35.5 -15zM371 708q11 0 18.5 7.5t8.5 17.5t-6 17.5t-17 7.5t-17.5 -7.5t-9.5 -17.5q-1 -11 6 -18t17 -7zM646 638q-19 0 -36.5 -8t-18.5 -22l-50 -567q-1 -14 15 -22t35 -8
l-1 -11h-122l4 47q-67 -55 -179 -55q-98 0 -156 47.5t-49 140.5l37 428q1 14 -15 22t-35 8l1 12h122l-40 -458q-14 -168 161 -168q94 0 156 55l46 527q3 32 -59 32l1 12h184z" />
    <glyph glyph-name="e.ss01" horiz-adv-x="391" 
d="M217 17q54 0 105 42l4 -18q-49 -49 -129 -49q-76 0 -124.5 61.5t-40.5 153.5q8 89 63 152t132 63q57 0 92 -38t44 -108l-261 -82q-2 -76 26 -126.5t89 -50.5zM104 232q0 -2 -0.5 -5.5t-0.5 -5.5l191 62q-11 115 -77 115q-45 0 -75.5 -47t-37.5 -119z" />
    <glyph glyph-name="eacute.ss01" horiz-adv-x="391" 
d="M280 566l-95 -99l-12 19l52 80h55zM217 17q54 0 105 42l4 -18q-49 -49 -129 -49q-76 0 -124.5 61.5t-40.5 153.5q8 89 63 152t132 63q57 0 92 -38t44 -108l-261 -82q-2 -76 26 -126.5t89 -50.5zM104 232q0 -2 -0.5 -5.5t-0.5 -5.5l191 62q-11 115 -77 115
q-45 0 -75.5 -47t-37.5 -119z" />
    <glyph glyph-name="ecaron.ss01" horiz-adv-x="391" 
d="M235 474h-26l-64 90h35l44 -64l56 64h34zM217 17q54 0 105 42l4 -18q-49 -49 -129 -49q-76 0 -124.5 61.5t-40.5 153.5q8 89 63 152t132 63q57 0 92 -38t44 -108l-261 -82q-2 -76 26 -126.5t89 -50.5zM104 232q0 -2 -0.5 -5.5t-0.5 -5.5l191 62q-11 115 -77 115
q-45 0 -75.5 -47t-37.5 -119z" />
    <glyph glyph-name="ecircumflex.ss01" horiz-adv-x="391" 
d="M227 538l-64 -64h-26l73 90h38l58 -90h-26zM217 17q54 0 105 42l4 -18q-49 -49 -129 -49q-76 0 -124.5 61.5t-40.5 153.5q8 89 63 152t132 63q57 0 92 -38t44 -108l-261 -82q-2 -76 26 -126.5t89 -50.5zM104 232q0 -2 -0.5 -5.5t-0.5 -5.5l191 62q-11 115 -77 115
q-45 0 -75.5 -47t-37.5 -119z" />
    <glyph glyph-name="edieresis.ss01" horiz-adv-x="391" 
d="M176 475q-11 0 -18 7.5t-6 19.5q2 24 27 24q11 0 18 -7.5t6 -19.5q-2 -24 -27 -24zM267 475q-11 0 -18 7.5t-6 19.5q2 24 27 24q11 0 18 -7.5t6 -19.5q-2 -24 -27 -24zM217 17q54 0 105 42l4 -18q-49 -49 -129 -49q-76 0 -124.5 61.5t-40.5 153.5q8 89 63 152t132 63
q57 0 92 -38t44 -108l-261 -82q-2 -76 26 -126.5t89 -50.5zM104 232q0 -2 -0.5 -5.5t-0.5 -5.5l191 62q-11 115 -77 115q-45 0 -75.5 -47t-37.5 -119z" />
    <glyph glyph-name="edotaccent.ss01" horiz-adv-x="391" 
d="M223 471q-14 0 -22.5 9.5t-7.5 22.5q1 14 10.5 21.5t21.5 7.5q14 0 22.5 -10t6.5 -22q-1 -14 -10.5 -21.5t-20.5 -7.5zM217 17q54 0 105 42l4 -18q-49 -49 -129 -49q-76 0 -124.5 61.5t-40.5 153.5q8 89 63 152t132 63q57 0 92 -38t44 -108l-261 -82q-2 -76 26 -126.5
t89 -50.5zM104 232q0 -2 -0.5 -5.5t-0.5 -5.5l191 62q-11 115 -77 115q-45 0 -75.5 -47t-37.5 -119z" />
    <glyph glyph-name="egrave.ss01" horiz-adv-x="391" 
d="M269 486l-13 -19l-87 99h55zM217 17q54 0 105 42l4 -18q-49 -49 -129 -49q-76 0 -124.5 61.5t-40.5 153.5q8 89 63 152t132 63q57 0 92 -38t44 -108l-261 -82q-2 -76 26 -126.5t89 -50.5zM104 232q0 -2 -0.5 -5.5t-0.5 -5.5l191 62q-11 115 -77 115q-45 0 -75.5 -47
t-37.5 -119z" />
    <glyph glyph-name="emacron.ss01" horiz-adv-x="391" 
d="M308 513l-8 -28h-162l8 28h162zM217 17q54 0 105 42l4 -18q-49 -49 -129 -49q-76 0 -124.5 61.5t-40.5 153.5q8 89 63 152t132 63q57 0 92 -38t44 -108l-261 -82q-2 -76 26 -126.5t89 -50.5zM104 232q0 -2 -0.5 -5.5t-0.5 -5.5l191 62q-11 115 -77 115q-45 0 -75.5 -47
t-37.5 -119z" />
    <glyph glyph-name="eogonek.ss01" horiz-adv-x="391" 
d="M322 59l4 -18q-24 -24 -61 -37l5 -1q-51 -26 -54 -63q-1 -15 6.5 -24t18.5 -9t18 6l5 -13q-17 -14 -45 -14q-24 0 -39 12t-13 35q3 37 44 59h-14q-76 0 -124.5 61.5t-40.5 153.5q8 89 63 152t132 63q57 0 92 -38t44 -108l-261 -82q-2 -76 26 -126.5t89 -50.5q54 0 105 42
zM104 232q0 -2 -0.5 -5.5t-0.5 -5.5l191 62q-11 115 -77 115q-45 0 -75.5 -47t-37.5 -119z" />
    <glyph glyph-name="i.loclTRK" horiz-adv-x="223" 
d="M139 552q14 0 22.5 -10t6.5 -22q-1 -14 -10.5 -21.5t-20.5 -7.5q-14 0 -22.5 9.5t-7.5 22.5q1 14 10.5 21.5t21.5 7.5zM127 44q-1 -10 9.5 -14.5t24.5 -3t25 7.5l-1 -12q-43 -30 -85 -30q-23 0 -32 15.5t-7 35.5l27 295q4 35 -22 35q-11 2 -29 -6l-4 12l66 29q12 6 29 6
q33 0 29 -37z" />
    <glyph glyph-name="oe.ss01" horiz-adv-x="708" 
d="M535 17q54 0 105 42l4 -18q-49 -49 -129 -49q-47 0 -85 25t-60 69q-61 -94 -169 -94q-81 0 -129 56.5t-41 146.5q7 95 67.5 161t146.5 66q48 0 88 -22.5t62 -63.5q58 86 150 86q57 0 92 -38t44 -108l-261 -82q-2 -76 26 -126.5t89 -50.5zM346 205q8 92 -25.5 142.5
t-91.5 50.5q-32 0 -56.5 -16.5t-39 -45t-22.5 -60.5t-10 -69q-7 -86 24.5 -138.5t90.5 -52.5q61 0 92 53t38 136zM422 232q0 -2 -0.5 -5.5t-0.5 -5.5l191 62q-11 115 -77 115q-45 0 -75.5 -47t-37.5 -119z" />
    <glyph glyph-name="C_H" horiz-adv-x="865" 
d="M532 107l10 -19q-35 -49 -93 -72.5t-119 -23.5q-126 0 -210.5 91.5t-72.5 231.5q14 157 115.5 250t226.5 93q61 0 115 -22q42 -18 52 5l11 -5l-41 -136l-11 4q9 44 5 65t-23 32q-40 25 -116 25q-108 0 -176.5 -81t-82.5 -213q-14 -131 54.5 -219.5t174.5 -88.5
q52 0 101.5 22t79.5 61zM861 650l-2 -11q-20 0 -38 -7t-19 -21l-50 -570q-1 -14 16.5 -22t37.5 -8l-1 -11h-172l2 11q44 0 47 27l26 291h-321l-14 -162q-1 -13 10.5 -19.5t28.5 -6.5l-1 -11h-155l1 11q44 0 47 30l27 311q1 13 -11.5 20t-30.5 7l1 11h155l-1 -11
q-40 0 -44 -32l-10 -119h321l21 251q1 15 -12 22.5t-32 7.5l1 11h172z" />
    <glyph glyph-name="K_A" horiz-adv-x="1067" 
d="M825 657l22 6l153 -547q8 -22 44 -22l-1 -11h-157l1 11q17 0 29 6t11 16l-43 161h-191l-49 -119q-5 -11 2 -16.5t18 -5.5l-1 -11h-92l1 11q24 0 32 17zM529 92q82 -46 174 -66.5t174 -14.5t146 34l-1 -11q-66 -34 -159 -46.5t-195.5 3t-182.5 59.5q-66 36 -137 101.5
t-121 137.5l-21 30l-33 -31l-21 -247q-1 -15 19 -22.5t47 -7.5l-2 -11h-193l1 11q20 0 39 8t20 22l49 568q1 14 -16 22t-37 8l1 11h171l-1 -11q-46 0 -49 -30l-23 -275l296 273q9 12 3.5 22t-19.5 10l1 11h153l-1 -11q-52 0 -90 -31l-267 -246q74 -103 135.5 -165
t139.5 -105zM704 302h173l-66 248z" />
    <glyph glyph-name="K_E" horiz-adv-x="1060" 
d="M516 91q118 -68 253 -78.5t225 32.5l-1 -11q-105 -55 -256.5 -51t-262.5 67q-123 71 -245 239l-22 30l-33 -31l-21 -247q-1 -15 18.5 -22.5t46.5 -7.5l-2 -11h-193l1 11q20 0 39.5 8t20.5 22l49 568q1 14 -16.5 22t-37.5 8l1 11h171l-1 -11q-45 0 -48 -30l-24 -275
l296 273q10 12 4 22t-20 10l1 11h153l-1 -11q-51 0 -90 -31l-267 -246q93 -126 130 -167q60 -63 132 -104zM1015 174l11 -3l-28 -88h-340l1 11q19 0 36.5 8t18.5 22l43 485q1 14 -15 22t-35 8l1 11h321l27 -88l-12 -4q-12 33 -27 48t-38 15h-156l-19 -228h126q31 0 36 67h11
l-14 -162h-11q7 66 -25 66h-126l-22 -252h173q23 0 36 13.5t27 48.5z" />
    <glyph glyph-name="K_I" horiz-adv-x="883" 
d="M445 126q171 -172 382 -81l-1 -11q-69 -36 -136.5 -46.5t-145.5 11.5t-147 84q-28 26 -59 62.5t-47.5 58.5l-62.5 85l-21 30l-33 -31l-22 -247q-1 -15 18.5 -22.5t45.5 -7.5l-1 -11h-192l1 11q20 0 39 8t20 22l51 568q1 14 -16 22t-37 8l1 11h170l-1 -11q-45 0 -48 -30
l-25 -275l295 273q10 12 4 22t-20 10l1 11h152l-1 -11q-51 0 -89 -31l-265 -246q93 -134 190 -236zM880 639q-20 0 -38 -8t-19 -22l-44 -485q-1 -14 15.5 -22t36.5 -8l-1 -11h-174l1 11q20 0 38 8t19 22l43 485q1 14 -15 22t-36 8l1 11h174z" />
    <glyph glyph-name="K_O" horiz-adv-x="1183" 
d="M924 658q112 0 180 -76.5t56 -208.5q-8 -98 -58 -168t-115 -100t-136 -30q-112 0 -180.5 76.5t-56.5 208.5q13 144 105.5 221t204.5 77zM516 91q118 -68 258.5 -78.5t231.5 32.5l-2 -11q-105 -55 -262 -51t-268 67q-128 74 -246 239l-21 30l-34 -31l-21 -247
q-1 -15 19 -22.5t46 -7.5l-1 -11h-193l1 11q20 0 39 8t20 22l51 568q1 14 -16.5 22t-37.5 8l1 11h171l-1 -11q-45 0 -48 -30l-25 -275l297 273q10 12 4 22t-20 10l1 11h154l-1 -11q-52 0 -90 -31l-268 -246q91 -125 130 -167q60 -64 131 -104zM868 106q85 0 146.5 61
t73.5 193q10 126 -38 196.5t-142 70.5q-86 0 -147.5 -61t-73.5 -193q-11 -126 38 -196.5t143 -70.5z" />
    <glyph glyph-name="K_S" horiz-adv-x="1030" 
d="M673 229l9 -5q-10 -52 20.5 -85t94.5 -33t92 31.5t31 71.5q2 25 -5 46.5t-15.5 36t-29.5 31t-32 23.5t-38 22.5l-34 19.5q-42 25 -63 54t-16 80q5 71 53.5 103.5t108.5 32.5q24 0 45 -5.5t31.5 -10t22 -2.5t22.5 13l10 -5l-38 -121l-9 4q9 47 -14.5 71.5t-70.5 24.5
q-92 0 -99 -86q-3 -29 9.5 -51t28.5 -34t59 -39q9 -6 14 -9q33 -20 51.5 -33.5t39.5 -34.5t29.5 -46.5t5.5 -56.5q-6 -69 -59 -115.5t-131 -46.5q-32 0 -60.5 8t-40 15.5t-27.5 9.5t-24 -10l-9 5zM511 91q103 -68 223 -78t204 32l-1 -11q-67 -35 -149.5 -46.5t-167.5 4.5
t-152 59q-48 32 -116.5 97.5t-123.5 140.5l-21 30l-33 -31l-22 -247q-1 -15 19 -22.5t46 -7.5l-2 -11h-192l1 11q20 0 39 8t20 22l51 568q1 14 -16.5 22t-37.5 8l1 11h171l-1 -11q-45 0 -48 -30l-25 -275l296 273q10 12 4 22t-19 10l1 11h152l-1 -11q-51 0 -89 -31
l-267 -246q137 -192 256 -271z" />
    <glyph glyph-name="K_U" horiz-adv-x="1207" 
d="M514 91q78 -46 170.5 -65.5t171 -13t135.5 32.5l-1 -11q-99 -53 -255 -49.5t-266 65.5q-119 71 -240 239l-21 30l-34 -31l-21 -247q-2 -14 18 -22t46 -8l-1 -11h-193l1 11q21 0 40 8t20 22l50 568q1 14 -16.5 22t-37.5 8l1 11h171l-1 -11q-45 0 -48 -30l-24 -275l297 273
q10 12 4 22t-20 10l1 11h153l-1 -11q-51 0 -90 -31l-268 -246l82 -111t75.5 -82t101.5 -78zM1210 650l-1 -11q-14 0 -30.5 -8t-17.5 -22l-32 -350q-4 -47 -25.5 -83.5t-53.5 -58t-70 -32t-79 -10.5q-89 0 -142.5 48t-44.5 143l31 343q1 14 -15.5 22t-36.5 8l1 11h176l-1 -11
q-20 0 -38 -8t-19 -22l-29 -327q-8 -92 30.5 -134t104.5 -42t116.5 37.5t56.5 101.5l32 364q1 14 -15.5 22t-36.5 8l1 11h138z" />
    <glyph glyph-name="L_A" horiz-adv-x="843" 
d="M768 33q8 -22 45 -22l-1 -11h-159l2 11q17 0 29 6t11 16l-60 225h-200l-25 -58q-5 -11 5 -17t29 -6l-1 -11h-127l2 11q45 0 53 20l200 460l22 8zM418 29q26 0 39.5 14.5t27.5 49.5l12 -4l-27 -89h-447l1 11q20 0 39 8t20 22l49 568q1 14 -16 22t-37 8l1 11h193l-1 -11
q-26 0 -48 -7.5t-23 -22.5l-50 -580h267zM447 286h180l-70 261z" />
    <glyph glyph-name="L_E" horiz-adv-x="648" 
d="M455 0h-432l1 11q20 0 38.5 8t19.5 22l51 568q1 14 -15.5 22t-36.5 8l1 11h188l-1 -11q-25 0 -45.5 -7.5t-21.5 -22.5l-52 -580h254q24 0 38.5 15t28.5 49l11 -4zM614 650l26 -88l-11 -4q-23 63 -66 63h-116l-17 -190h89q30 0 35 59h11l-14 -143h-11q7 57 -23 57h-90
l-19 -209h139q22 0 36 14t27 48l11 -3l-26 -88h-306l1 11q19 0 36 8t18 22l36 402q1 14 -13.5 22t-33.5 8l1 11h280z" />
    <glyph glyph-name="L_I" horiz-adv-x="561" 
d="M414 29q25 0 39 14.5t29 49.5l11 -4l-27 -89h-443l1 11q21 0 40 8t20 22l49 568q1 14 -16.5 22t-37.5 8l1 11h193l-1 -11q-26 0 -47.5 -7.5t-22.5 -22.5l-50 -580h262zM552 639q-20 0 -38 -8t-19 -22l-35 -402q-1 -14 15 -22t36 -8l-1 -11h-174l1 11q20 0 38 8t19 22
l35 402q1 14 -15 22t-36 8l1 11h174z" />
    <glyph glyph-name="L_O" horiz-adv-x="832" 
d="M610 658q96 0 155 -64t48 -179q-12 -127 -92 -192.5t-178 -65.5q-97 0 -156.5 65t-49.5 181q6 65 33 116t67 80t84 44t89 15zM471 29q24 0 38 14.5t29 49.5l11 -4l-29 -89h-497l1 11q20 0 39 8t20 22l49 568q1 14 -16 22t-37 8l1 11h189l-1 -11q-25 0 -45.5 -7.5
t-21.5 -22.5l-50 -580h320zM562 188q31 0 58.5 10.5t53 34t43.5 67t23 103.5q10 108 -30.5 166t-117.5 58q-32 0 -60 -10.5t-54.5 -33.5t-44.5 -66t-23 -102q-10 -108 32 -167.5t120 -59.5z" />
    <glyph glyph-name="L_U" horiz-adv-x="804" 
d="M457 29q25 0 40 15t28 49l11 -4l-29 -89h-484l1 11q20 0 39 8t20 22l49 568q1 14 -16 22t-37 8l1 11h190l-1 -11q-25 0 -46 -7.5t-22 -22.5l-50 -580h306zM808 650l-1 -11q-19 0 -34 -7.5t-16 -22.5l-25 -290q-7 -77 -58.5 -119t-136.5 -42q-89 0 -132 45t-36 121l24 285
q1 15 -11.5 22.5t-30.5 7.5l1 11h159l-1 -11q-46 0 -49 -30l-24 -269q-14 -151 114 -151q62 0 100 33t43 83l26 304q1 15 -11.5 22.5t-31.5 7.5l2 11h129z" />
    <glyph glyph-name="R_A" horiz-adv-x="1020" 
d="M953 116q8 -22 44 -22l-1 -11h-157l1 11q18 0 29.5 6t10.5 16l-43 161h-190l-50 -119q-5 -11 2 -16.5t18 -5.5l-1 -11h-92l1 11q25 0 33 17l220 504l22 6zM933 45l-1 -11q-129 -55 -265 -51.5t-227 67.5q-83 57 -198 208q-32 -4 -72 -6l-19 -211q-1 -15 17 -22.5t45 -7.5
l-1 -11h-189l1 11q20 0 38.5 8t19.5 22l50 568q1 14 -16 22t-37 8l1 11h209q86 0 142.5 -43t49.5 -119q-5 -61 -53 -122.5t-116 -90.5l18 -23.5l20.5 -27l20 -25.5t24 -28l25 -26t30 -27.5t31.5 -23.5q97 -67 212 -80t240 31zM202 618l-30 -337q102 2 164.5 52t69.5 144
q12 148 -145 148q-31 0 -59 -7zM658 302h172l-66 248z" />
    <glyph glyph-name="R_C" horiz-adv-x="1061" 
d="M1007 185l9 -19q-65 -91 -195 -91q-117 0 -191.5 82.5t-63.5 210.5q6 72 38 129.5t78.5 91t97.5 51.5t100 18q52 0 100 -19l20 -8.5t16 -1t15 11.5l11 -5l-40 -130l-11 5q8 43 2.5 64.5t-30.5 34.5q-35 20 -89 20q-92 0 -156.5 -63t-74.5 -181q-11 -121 43.5 -202
t150.5 -81q51 0 95.5 22t74.5 60zM494 103q62 -41 131 -63.5t157.5 -25.5t177.5 31l-1 -11q-137 -54 -275 -44.5t-233 71.5q-94 62 -207 197q-35 -4 -75 -6l-18 -211q-1 -16 18 -23t44 -7l-1 -11h-189l1 11q20 0 38.5 8t19.5 22l50 568q1 14 -16 22t-37 8l1 11h210
q87 0 143 -43.5t48 -119.5q-7 -67 -58.5 -128.5t-108.5 -82.5q6 -6 34.5 -38.5t43.5 -48t44 -41t58 -45.5zM202 618l-30 -337q102 2 164.5 51.5t69.5 142.5q11 150 -143 150q-33 0 -61 -7z" />
    <glyph glyph-name="R_E" horiz-adv-x="968" 
d="M894 45l-1 -11q-124 -55 -252 -51.5t-214 69.5q-73 55 -184 206q-34 -4 -73 -6l-19 -211q-1 -15 17 -22.5t44 -7.5l-1 -11h-188l1 11q20 0 38.5 8t19.5 22l51 568q1 14 -16 22t-37 8l1 11h209q86 0 143 -43t49 -119q-7 -66 -58.5 -128.5t-111.5 -84.5q2 -2 19.5 -25.5
l23.5 -31.5t23.5 -29.5t29 -34t29 -29t33.5 -29.5q176 -139 424 -51zM922 174l12 -3l-28 -88h-341l1 11q19 0 37 8t19 22l42 485q1 14 -15 22t-35 8l1 11h322l27 -88l-12 -4q-23 63 -66 63h-156l-18 -228h126q29 0 36 67h11l-14 -162h-12q7 66 -24 66h-127l-21 -252h173
q23 0 35.5 14t26.5 48zM203 618l-30 -337q104 2 166 52.5t69 143.5q10 148 -145 148q-32 0 -60 -7z" />
    <glyph glyph-name="R_I" horiz-adv-x="818" 
d="M482 82q123 -103 279 -37l-1 -11q-78 -53 -165.5 -51.5t-155.5 55.5q-66 50 -196 220q-35 -4 -73 -6l-19 -211q-1 -15 16.5 -22.5t43.5 -7.5l-1 -11h-187l1 11q20 0 38.5 8t19.5 22l52 568q1 14 -16 22t-37 8l1 11h207q86 0 142 -42.5t50 -119.5q-5 -63 -52 -122
t-117 -91q99 -132 170 -193zM814 639q-19 0 -37 -8t-19 -22l-44 -485q-1 -14 15.5 -22t36.5 -8l-2 -11h-174l2 11q19 0 37 8t19 22l44 485q1 14 -15.5 22t-36.5 8l1 11h175zM204 618l-31 -337q103 2 165 53.5t69 143.5q5 72 -31.5 109.5t-112.5 37.5q-33 0 -59 -7z" />
    <glyph glyph-name="R_O" horiz-adv-x="1139" 
d="M880 658q111 0 179 -76.5t57 -209.5q-13 -144 -105.5 -220.5t-205.5 -76.5q-111 0 -179.5 76.5t-56.5 209.5q13 144 105.5 220.5t205.5 76.5zM967 45l-1 -11q-135 -54 -275 -45t-238 72q-91 58 -209 197q-35 -4 -74 -6l-19 -211q-1 -15 17 -22.5t45 -7.5l-1 -11h-189
l1 11q20 0 38.5 8t19.5 22l50 568q1 14 -16 22t-37 8l1 11h209q87 0 143 -43.5t49 -119.5q-7 -66 -58 -128t-109 -83l34.5 -38.5l42.5 -46.5t46 -43.5t58 -44.5q63 -40 133.5 -63t160 -26t178.5 31zM824 106q87 0 147.5 61.5t71.5 192.5q11 126 -37.5 196.5t-142.5 70.5
q-86 0 -148 -61.5t-73 -191.5q-11 -127 38 -197.5t144 -70.5zM202 618l-30 -337q104 2 165.5 52t68.5 143q11 149 -144 149q-32 0 -60 -7z" />
    <glyph glyph-name="R_S" horiz-adv-x="955" 
d="M598 229l9 -5q-10 -52 20.5 -85t94.5 -33q65 0 92.5 31t30.5 72q2 25 -5 46.5t-15.5 36t-29.5 31t-32 23.5t-38 22.5l-34 19.5q-41 24 -62 53.5t-17 80.5q4 49 31.5 81t61 43.5t70.5 11.5q23 0 44.5 -5.5t31.5 -10t21.5 -2.5t22.5 13l10 -5l-38 -121l-9 4q10 46 -13.5 71
t-71.5 25t-72 -23.5t-27 -62.5q-4 -49 35 -82q15 -13 76 -51q33 -20 52 -34t39.5 -35t29 -46t5.5 -56q-6 -67 -58 -114.5t-133 -47.5q-31 0 -59 8t-39.5 15.5t-27.5 9.5t-25 -10l-9 5zM878 45l-1 -11q-126 -54 -249.5 -49t-204.5 67q-66 50 -180 206q-35 -4 -73 -6l-19 -211
q-1 -15 16.5 -22.5t44.5 -7.5l-1 -11h-188l1 11q20 0 38.5 8t19.5 22l51 568q1 14 -16 22t-37 8l1 11h208q85 0 143 -43t50 -120q-7 -66 -59.5 -128.5t-110.5 -83.5q95 -133 154 -181q167 -138 412 -49zM203 618l-31 -337q103 2 166 52t70 143q9 149 -146 149q-31 0 -59 -7z
" />
    <glyph glyph-name="R_T" horiz-adv-x="1077" 
d="M1081 560l-12 -3q-12 33 -28 48.5t-42 15.5h-132l-43 -497q-1 -10 11 -17t28.5 -10t34.5 -3l-1 -11h-220l1 11q29 0 54 8t26 22l43 497h-136q-51 0 -75 -64l-12 3l30 97q7 -6 23 -7h397q16 1 23 7zM474 93q173 -137 420 -48l-1 -11q-126 -56 -252.5 -52.5t-208.5 67.5
q-77 62 -189 209q-38 -5 -73 -6l-19 -211q-1 -15 17.5 -22.5t43.5 -7.5l-1 -11h-188l1 11q20 0 38.5 8t19.5 22l51 568q1 14 -16 22t-37 8l1 11h210q86 0 142.5 -43.5t48.5 -120.5q-7 -66 -58 -127.5t-111 -83.5l23 -29q22 -30 31 -41l29.5 -35.5t39 -42.5t38.5 -34z
M203 618l-31 -337q106 2 167 50t69 141q13 153 -144 153q-31 0 -61 -7z" />
    <glyph glyph-name="R_U" horiz-adv-x="1120" 
d="M494 103q44 -30 94 -50.5t109 -32t126.5 -5.5t134.5 30l-2 -11q-142 -56 -275 -46.5t-231 73.5q-38 25 -98 78t-108 119q-36 -4 -74 -6l-18 -211q-1 -15 17 -22.5t44 -7.5l-1 -11h-189l1 11q20 0 39 8t20 22l51 568q1 14 -16 22t-38 8l1 11h209q88 0 143 -43.5t46 -119.5
q-7 -68 -58 -130.5t-109 -81.5q29 -39 80.5 -88.5t101.5 -83.5zM1123 650l-1 -11q-20 0 -37.5 -8t-18.5 -22l-32 -350q-4 -47 -25.5 -83.5t-53.5 -58t-70 -32t-79 -10.5q-89 0 -142 48t-44 143l30 343q1 14 -15 22t-36 8l1 11h175l-1 -11q-19 0 -37 -8t-19 -22l-30 -327
q-9 -89 29 -132.5t105 -43.5q66 0 117 38.5t57 100.5l33 364q1 14 -16 22t-37 8l1 11h146zM203 618l-30 -337q103 2 164 52t68 143q11 149 -142 149q-32 0 -60 -7z" />
    <glyph glyph-name="T_h" horiz-adv-x="969" 
d="M608 0h-66l52 580q2 17 -7.5 29t-28.5 12h-190l-50 -581q-1 -14 22.5 -21.5t51.5 -7.5l-1 -11h-223l1 11q29 0 54 8t26 22l50 580h-161q-48 0 -75 -64l-11 3l38 97q6 -5 22 -7h473q8 0 25.5 4t24.5 4q31 0 28 -33l-25 -286q77 83 158 83q53 0 79 -33.5t21 -91.5l-22 -253
q-1 -10 9 -14.5t24 -3t26 7.5l-2 -12q-45 -30 -84 -30q-44 0 -39 52l21 232q5 51 -11.5 80.5t-53.5 29.5q-66 0 -129 -83z" />
    <glyph glyph-name="c_b" horiz-adv-x="804" 
d="M615 422q78 0 121.5 -53.5t36.5 -146.5q-7 -96 -61.5 -163t-149.5 -67q-69 0 -103.5 36t-29.5 92l39 452q2 28 -19 48.5t-60 20.5q-54 0 -89 -33t-40 -83q-6 -68 48 -117q54 -26 54 -77q0 -22 -11.5 -32.5t-26.5 -10.5q-14 0 -23.5 9.5t-9.5 26.5q0 12 8 24q7 13 1 23
q-10 27 -62 27q-125 0 -138 -194q-5 -81 25.5 -134t90.5 -53q70 0 118 67l5 -17q-46 -75 -143 -75q-84 0 -127.5 59.5t-37.5 142.5q6 97 64.5 162.5t145.5 65.5q17 0 32 -3q-42 43 -36 101q5 60 50 99t112 39q64 0 101 -27.5t32 -69.5l-15 -172q39 33 98 33zM703 206
q7 90 -20 141t-81 51q-52 0 -88 -46l-25 -287q5 -21 27 -34.5t53 -13.5q121 0 134 189z" />
    <glyph glyph-name="c_h" horiz-adv-x="845" 
d="M750 44q-1 -10 9 -14.5t24 -3t25 7.5l-1 -12q-45 -30 -84 -30q-44 0 -39 52l20 232q5 52 -11.5 81t-52.5 29q-66 0 -129 -83l-27 -303h-66l51 571q2 28 -21 49t-57 21q-55 0 -91 -34t-40 -82q-5 -69 48 -117q54 -26 54 -77q0 -22 -11.5 -32.5t-26.5 -10.5
q-14 0 -23.5 9.5t-9.5 26.5q0 12 8 24q7 13 1 23q-10 27 -62 27q-125 0 -138 -194q-5 -81 25.5 -134t90.5 -53q70 0 118 67l5 -17q-46 -75 -143 -75q-84 0 -127.5 59.5t-37.5 142.5q6 97 64.5 162.5t145.5 65.5q17 0 31 -3q-40 45 -35 101q5 60 51 99t114 39q59 0 97 -28
t34 -69l-19 -222q77 83 157 83q54 0 80 -33t21 -92z" />
    <glyph glyph-name="c_k" horiz-adv-x="790" 
d="M732 19q20 0 38 15l-1 -12q-24 -30 -67 -30q-11 0 -22 3t-22 11.5l-19.5 15.5t-20 22.5t-18.5 26t-19.5 31.5t-19 33l-20.5 37.5l-21 37.5l2 22q126 0 138 90q4 30 -6 51.5t-32 21.5q-46 0 -110 -87l-27 -308h-66l49 571q2 28 -20.5 49t-56.5 21q-55 0 -91 -33.5
t-40 -82.5q-5 -69 48 -117q54 -26 54 -77q0 -22 -11.5 -32.5t-26.5 -10.5q-14 0 -23.5 9.5t-9.5 26.5q0 12 8 24q7 13 1 23q-10 27 -62 27q-125 0 -138 -194q-5 -81 25.5 -134t90.5 -53q70 0 118 67l5 -17q-46 -75 -143 -75q-84 0 -127.5 59.5t-37.5 142.5q6 97 64.5 162.5
t145.5 65.5q17 0 31 -3q-40 45 -35 101q5 60 51 99t114 39q58 0 97.5 -27t35.5 -67l-20 -218q64 76 129 76q41 0 64.5 -26t18.5 -67q-6 -53 -49 -82.5t-90 -29.5l27.5 -48l25 -44l20.5 -35.5t20 -31t17.5 -21t17.5 -14.5t16 -4z" />
    <glyph glyph-name="c_l" horiz-adv-x="581" 
d="M489 45q-1 -10 9 -14.5t24 -3.5t26 7l-1 -12q-49 -30 -84 -30q-44 0 -39 51l46 532q2 26 -18.5 46t-54.5 20q-55 0 -93.5 -33.5t-43.5 -82.5q-3 -30 9.5 -61.5t38.5 -55.5q54 -26 54 -77q0 -22 -11.5 -32.5t-26.5 -10.5q-14 0 -23.5 9.5t-9.5 26.5q0 12 8 24q7 13 1 23
q-10 27 -62 27q-125 0 -138 -194q-5 -81 25.5 -134t90.5 -53q70 0 118 67l5 -17q-46 -75 -143 -75q-84 0 -127.5 59.5t-37.5 142.5q6 97 64.5 162.5t145.5 65.5q17 0 31 -3q-40 45 -35 101q5 60 51 99t114 39q59 0 98 -28t35 -69z" />
    <glyph glyph-name="c_t" horiz-adv-x="653" 
d="M531 390l-24 -279q-8 -94 35 -94q36 0 67 42l5 -14q-34 -53 -99 -53q-84 0 -76 96l27 302h-46l1 12h-2q38 14 65.5 50t30.5 72q5 56 -31.5 86.5t-86.5 30.5q-62 0 -97 -32.5t-40 -83.5q-6 -67 49 -117q53 -26 53 -77q0 -22 -11.5 -32.5t-26.5 -10.5q-14 0 -23.5 9.5
t-9.5 26.5q0 12 8 24q7 13 1 23q-10 27 -62 27q-125 0 -138 -194q-5 -81 25.5 -134t90.5 -53q70 0 118 67l5 -17q-46 -75 -143 -75q-84 0 -127.5 59.5t-37.5 142.5q6 97 64.5 162.5t145.5 65.5q18 0 33 -3q-41 45 -37 101q5 59 49.5 98.5t117.5 39.5q62 0 101 -38.5
t34 -97.5h4l-10 -108h106l-7 -24h-101z" />
    <glyph glyph-name="f_b" horiz-adv-x="704" 
d="M514 422q77 0 121.5 -54.5t36.5 -145.5q-8 -98 -62 -164t-148 -66q-69 0 -104 36t-30 92l38 435q3 31 -12.5 55t-59.5 24q-40 0 -67.5 -25t-31.5 -68l-11 -127h93l-2 -25h-93l-35 -386q-15 -164 -117 -164q-41 0 -59 21t-15 45q2 29 28 29q14 0 23.5 -7t8.5 -23
q-1 -9 -6.5 -17.5t-5.5 -11.5q0 -16 26 -16q22 0 31.5 16t13.5 58l41 456h-55l7 25h50l4 51q8 84 56 138.5t119 54.5q35 0 59 -13q42 13 55 13q29 0 27 -31l-21 -238q39 33 97 33zM603 206q8 88 -20.5 140t-81.5 52t-87 -46l-26 -287q5 -20 27.5 -34t49.5 -14q69 0 99.5 49
t38.5 140z" />
    <glyph glyph-name="f_f.ss01" horiz-adv-x="566" 
d="M499 658q42 0 62.5 -23.5t20.5 -50.5q-1 -18 -11 -29t-26 -11q-14 0 -24 9t-10 26q1 13 8 25t7 16q0 18 -26 18q-28 0 -42.5 -22.5t-19.5 -74.5l-11 -127h82l-8 -25h-76l-34 -386q-15 -164 -117 -164q-41 0 -59 21t-15 45q2 29 28 29q14 0 23.5 -7t8.5 -23
q-1 -9 -6.5 -17.5t-5.5 -11.5q0 -16 26 -16q22 0 31.5 16t13.5 58l40 456h-178l-34 -386q-15 -164 -117 -164q-41 0 -59 21t-15 45q2 29 28 29q14 0 23.5 -7t8.5 -23q-1 -9 -6.5 -17.5t-5.5 -11.5q0 -16 26 -16q22 0 31.5 16t13.5 58l40 456h-50l8 25h44l5 45
q19 197 133 197q42 0 63 -24t21 -51q-1 -17 -11 -28t-26 -11q-14 0 -24.5 9.5t-9.5 26.5q0 12 7 23.5t7 16.5q0 17 -27 17q-28 0 -42 -22t-19 -74l-11 -125h178l5 45q17 199 133 199z" />
    <glyph glyph-name="f_f_b" horiz-adv-x="939" 
d="M750 422q77 0 121.5 -54.5t36.5 -145.5q-9 -98 -63 -164t-147 -66q-69 0 -104 36t-30 92l37 430q8 84 -71 84q-40 0 -67.5 -25t-31.5 -68l-11 -127h92l-2 -25h-93l-34 -386q-15 -164 -118 -164q-40 0 -58 21t-16 45q3 29 29 29q14 0 23.5 -7t7.5 -23q-1 -9 -6.5 -17.5
t-5.5 -11.5q0 -16 27 -16q21 0 31 16t14 58l40 456h-169l-35 -386q-15 -164 -117 -164q-41 0 -59 21t-15 45q2 29 28 29q14 0 23.5 -7t8.5 -23q-1 -9 -6.5 -17.5t-5.5 -11.5q0 -16 26 -16q22 0 31.5 16t13.5 58l40 456h-50l8 25h44l3 31q8 84 56 138.5t119 54.5
q72 0 101 -57q51 77 137 77q35 0 59 -13q40 13 54 13q31 0 27 -31l-21 -238q39 33 98 33zM353 414l11 122q2 16 -1 31.5t-21 31t-50 15.5q-40 0 -67.5 -25t-31.5 -68l-9 -107h169zM839 206q7 88 -21 140t-82 52q-52 0 -86 -46l-26 -287q5 -20 27 -34t49 -14q69 0 100 49
t39 140z" />
    <glyph glyph-name="f_f_h" horiz-adv-x="979" 
d="M883 44q-1 -10 9 -14.5t24 -3t26 7.5l-1 -12q-45 -30 -84 -30q-46 0 -39 52l20 232q5 51 -11.5 80.5t-52.5 29.5q-65 0 -130 -83l-26 -303h-66l49 565q3 25 -12.5 47t-58.5 22q-40 0 -67.5 -25t-31.5 -68l-11 -127h92l-3 -25h-92l-34 -386q-15 -164 -118 -164
q-40 0 -58 21t-16 45q3 29 29 29q14 0 23.5 -7t7.5 -23q-1 -9 -6.5 -17.5t-5.5 -11.5q0 -16 27 -16q21 0 31 16t14 58l40 456h-169l-35 -386q-15 -164 -117 -164q-41 0 -59 21t-15 45q2 29 28 29q14 0 23.5 -7t8.5 -23q-1 -9 -6.5 -17.5t-5.5 -11.5q0 -16 26 -16
q22 0 31.5 16t13.5 58l40 456h-50l8 25h44l3 31q8 84 56 138.5t119 54.5q70 0 101 -57q51 77 137 77q49 0 79 -28q18 7 35 7q27 0 24 -31l-24 -267q77 83 158 83q54 0 80 -33t21 -92zM353 414l11 122q2 16 -1 31.5t-21 31t-50 15.5q-40 0 -67.5 -25t-31.5 -68l-9 -107h169z
" />
    <glyph glyph-name="f_f_k" horiz-adv-x="924" 
d="M866 19q19 0 39 15l-2 -12q-22 -30 -67 -30q-15 0 -28.5 5t-27.5 19l-23.5 24t-25.5 36l-23.5 39l-26.5 47.5t-27 47.5l2 22q127 0 138 90q4 31 -6 52t-31 21q-25 0 -56 -26t-56 -62l-27 -307h-66l50 568q2 24 -15 45t-57 21t-67.5 -25t-31.5 -68l-11 -127h92l-3 -25h-92
l-34 -386q-15 -164 -118 -164q-40 0 -58 21t-16 45q3 29 29 29q14 0 23.5 -7t7.5 -23q-1 -9 -6.5 -17.5t-5.5 -11.5q0 -16 27 -16q21 0 31 16t14 58l40 456h-169l-35 -386q-15 -164 -117 -164q-41 0 -59 21t-15 45q2 29 28 29q14 0 23.5 -7t8.5 -23q-1 -9 -6.5 -17.5
t-5.5 -11.5q0 -16 26 -16q22 0 31.5 16t13.5 58l40 456h-50l8 25h44l3 31q8 84 56 138.5t119 54.5q70 0 101 -57q51 77 137 77q49 0 79 -28q18 7 35 7q27 0 24 -31l-23 -261q62 77 130 77q42 0 65 -26t18 -67q-6 -52 -48.5 -82t-89.5 -30l27 -48.5t24.5 -44l21 -35t20 -30.5
t17 -21t17.5 -15t16 -4zM353 414l11 122q2 16 -1 31.5t-21 31t-50 15.5q-40 0 -67.5 -25t-31.5 -68l-9 -107h169z" />
    <glyph glyph-name="f_h" horiz-adv-x="744" 
d="M648 44q-1 -10 9 -14.5t24 -3t26 7.5l-1 -12q-47 -30 -84 -30q-45 0 -40 52l21 232q5 51 -11.5 80.5t-53.5 29.5q-64 0 -129 -83l-27 -303h-65l50 568q2 25 -15.5 45.5t-57.5 20.5t-67.5 -25t-31.5 -68l-11 -127h92l-2 -25h-92l-35 -386q-15 -164 -117 -164q-41 0 -59 21
t-15 45q2 29 28 29q14 0 23.5 -7t8.5 -23q-1 -9 -6.5 -17.5t-5.5 -11.5q0 -16 26 -16q22 0 31.5 16t13.5 58l41 456h-51l8 25h45l4 51q8 84 56 138.5t119 54.5q51 0 79 -28q20 7 36 7q12 0 19 -8.5t5 -22.5l-24 -267q77 83 158 83q53 0 79.5 -33.5t21.5 -91.5z" />
    <glyph glyph-name="f_j" horiz-adv-x="455" 
d="M385 414q34 0 31 -37l-33 -376q-7 -67 -44 -115q-26 -33 -87 -66l-3 11q35 33 49 64q12 33 17 80l33 378q3 36 -29 36h-138l-34 -386q-15 -164 -117 -164q-41 0 -59 21t-15 45q2 29 28 29q14 0 23.5 -7t8.5 -23q-1 -9 -6.5 -17.5t-5.5 -11.5q0 -16 26 -16q22 0 31.5 16
t13.5 58l41 456h-51l8 25h45l5 63q7 83 53 132t112 49q59 0 90.5 -38t28.5 -70q-1 -15 -11.5 -25.5t-25.5 -10.5q-16 0 -26 10.5t-8 27.5q1 11 6 21.5t5 15.5q1 8 -2 17t-18 19t-42 10q-37 0 -61 -19.5t-28 -58.5l-13 -143h202z" />
    <glyph glyph-name="f_k" horiz-adv-x="688" 
d="M630 19q21 0 39 15l-1 -12q-24 -30 -67 -30q-11 0 -22 3t-22 11.5l-19.5 15.5t-20 22.5t-18.5 26t-19.5 31.5t-19 33l-20.5 37.5l-21 37.5l2 22q127 0 138 90q3 32 -7 52.5t-31 20.5q-24 0 -55 -26t-56 -62l-27 -307h-66l51 568q1 25 -16 45.5t-58 20.5q-40 0 -67.5 -25
t-31.5 -68l-11 -127h92l-2 -25h-92l-35 -386q-15 -164 -117 -164q-41 0 -59 21t-15 45q2 29 28 29q14 0 23.5 -7t8.5 -23q-1 -9 -6.5 -17.5t-5.5 -11.5q0 -16 26 -16q22 0 31.5 16t13.5 58l41 456h-50l8 25h44l4 51q8 84 56 138.5t119 54.5q50 0 80 -28q20 7 35 7
q27 0 25 -31l-24 -261q62 77 130 77q41 0 64 -26t18 -67q-6 -52 -48.5 -82t-89.5 -30l27.5 -48l24.5 -44l21 -36t19.5 -30.5t17 -21t17.5 -14.5t16 -4z" />
    <glyph glyph-name="s_b" horiz-adv-x="755" 
d="M566 422q78 0 121.5 -53.5t36.5 -146.5q-7 -96 -61.5 -163t-149.5 -67q-69 0 -103.5 36t-29.5 92l39 452q2 28 -19 48.5t-56 20.5q-58 0 -92 -32.5t-39 -83.5q-6 -72 49 -118q18 -10 37 -24l-33 -79l-10 5q14 45 -10 67t-59 22q-31 0 -52.5 -17t-23.5 -49q-1 -15 3.5 -26
t19.5 -22.5t27 -19t40 -22.5q32 -16 50 -28.5t33 -37t12 -54.5q-5 -61 -48.5 -95.5t-109.5 -34.5q-70 0 -120 48l24 77l11 -4q-10 -44 18 -70.5t72 -26.5t65.5 24.5t24.5 59.5q2 17 -3 31t-19.5 26t-23.5 18t-32.5 18l-29.5 15q-75 44 -71 102q4 46 39.5 79t98.5 33
q19 0 34 -3q-42 43 -36 101q5 61 49 99.5t115 38.5q61 0 97 -27.5t32 -69.5l-15 -172q39 33 98 33zM650 206q7 90 -20.5 141t-80.5 51t-88 -46l-26 -287q6 -21 27.5 -34.5t53.5 -13.5q121 0 134 189z" />
    <glyph glyph-name="s_h" horiz-adv-x="805" 
d="M709 44q-1 -10 9 -14.5t24 -3t26 7.5l-1 -12q-47 -30 -84 -30q-45 0 -40 52l21 232q5 52 -12 81t-53 29q-64 0 -129 -83l-27 -303h-65l50 571q2 28 -21.5 49t-60.5 21q-59 0 -94 -33.5t-39 -82.5q-3 -32 10.5 -64.5t38.5 -54.5q16 -8 37 -23l-33 -79l-10 5q14 45 -10 67
t-59 22q-31 0 -52.5 -17t-23.5 -49q-1 -15 3.5 -26t19.5 -22.5t27 -19t40 -22.5q32 -16 50 -28.5t33 -37t12 -54.5q-5 -61 -48.5 -95.5t-109.5 -34.5q-70 0 -120 48l24 77l11 -4q-10 -44 18 -70.5t72 -26.5t65.5 24.5t24.5 59.5q2 17 -3 31t-19.5 26t-23.5 18t-32.5 18
l-29.5 15q-75 44 -71 102q4 46 39.5 79t98.5 33q19 0 34 -3q-42 43 -36 101q5 61 50 99.5t117 38.5q62 0 100.5 -28t34.5 -69l-19 -222q77 83 158 83q53 0 79.5 -33.5t21.5 -91.5z" />
    <glyph glyph-name="s_k" horiz-adv-x="750" 
d="M692 19q19 0 39 15l-1 -12q-24 -30 -68 -30q-11 0 -22 3t-22 11t-19.5 16t-19.5 23l-18.5 25.5t-19.5 31t-19 33.5l-20.5 37.5l-20.5 37.5l2 22q125 0 137 90q4 30 -5.5 51.5t-31.5 21.5q-47 0 -111 -87l-27 -308h-66l49 571q2 28 -21.5 49t-60.5 21q-59 0 -94 -33
t-39 -83q-3 -32 10.5 -64.5t38.5 -54.5q16 -8 37 -23l-33 -79l-10 5q14 45 -10 67t-59 22q-31 0 -52.5 -17t-23.5 -49q-1 -15 3.5 -26t19.5 -22.5t27 -19t40 -22.5q32 -16 50 -28.5t33 -37t12 -54.5q-5 -61 -48.5 -95.5t-109.5 -34.5q-70 0 -120 48l24 77l11 -4
q-10 -44 18 -70.5t72 -26.5t65.5 24.5t24.5 59.5q2 17 -3 31t-19.5 26t-23.5 18t-32.5 18l-29.5 15q-75 44 -71 102q4 46 39.5 79t98.5 33q19 0 34 -3q-42 43 -36 101q5 61 50 99.5t118 38.5q61 0 101 -26.5t36 -67.5l-20 -218q64 76 129 76q42 0 65 -26t18 -67
q-6 -53 -49 -82.5t-89 -29.5l27 -48.5t24.5 -44l21 -35t20 -30.5t17 -21t17.5 -15t16 -4z" />
    <glyph glyph-name="s_l" horiz-adv-x="539" 
d="M448 45q-1 -10 8.5 -14.5t23.5 -3.5t27 7l-1 -12q-49 -30 -85 -30q-44 0 -39 51l46 532q2 26 -18.5 46t-57.5 20q-59 0 -96.5 -33t-42.5 -83q-3 -30 10 -63t39 -55q18 -10 37 -24l-33 -79l-10 5q14 45 -10 67t-59 22q-31 0 -52.5 -17t-23.5 -49q-1 -15 3.5 -26
t19.5 -22.5t27 -19t40 -22.5q32 -16 50 -28.5t33 -37t12 -54.5q-5 -61 -48.5 -95.5t-109.5 -34.5q-70 0 -120 48l24 77l11 -4q-10 -44 18 -70.5t72 -26.5t65.5 24.5t24.5 59.5q2 17 -3 31t-19.5 26t-23.5 18t-32.5 18l-29.5 15q-75 44 -71 102q4 46 39.5 79t98.5 33
q19 0 34 -3q-42 43 -36 101q5 61 50 99.5t117 38.5q62 0 101 -28t35 -69z" />
    <glyph glyph-name="s_t" horiz-adv-x="597" 
d="M475 390l-24 -279q-8 -94 35 -94q36 0 67 42l5 -14q-34 -53 -99 -53q-84 0 -76 96l27 302h-46l1 12h-1q38 14 65.5 50t30.5 72q5 58 -27 87.5t-84 29.5q-61 0 -97.5 -33t-40.5 -83q-3 -32 11.5 -64.5t40.5 -54.5q14 -6 36 -23l-33 -79l-10 5q14 45 -10 67t-59 22
q-31 0 -52.5 -17t-23.5 -49q-1 -15 3.5 -26t19.5 -22.5t27 -19t40 -22.5q32 -16 50 -28.5t33 -37t12 -54.5q-5 -61 -48.5 -95.5t-109.5 -34.5q-70 0 -120 48l24 77l11 -4q-10 -44 18 -70.5t72 -26.5t65.5 24.5t24.5 59.5q2 17 -3 31t-19.5 26t-23.5 18t-32.5 18l-29.5 15
q-75 44 -71 102q4 46 39.5 79t98.5 33q18 0 34 -3q-43 45 -39 101q5 59 51 98.5t118 39.5q65 0 99 -37.5t29 -98.5h3l-10 -108h106l-7 -24h-101z" />
    <glyph glyph-name="a.sc" horiz-adv-x="481" 
d="M420 32q7 -21 40 -21l-1 -11h-146l2 11q17 0 27.5 4t7.5 14l-40 152h-176l-64 -152q-2 -4 2 -7.5t12 -6t17.5 -3.5t19.5 -1l-1 -11h-134l1 11q39 0 49 18l219 512l20 6zM145 207h158l-61 232z" />
    <glyph glyph-name="a.sc.ss01" horiz-adv-x="481" 
d="M420 32q7 -21 40 -21l-1 -11h-146l2 11q17 0 27.5 4t7.5 14l-31 116l-176 58l-73 -174q-2 -4 2 -7.5t12 -6t17.5 -3.5t19.5 -1l-1 -11h-134l1 11q39 0 49 18l219 512l20 6zM154 228l157 -52l-69 263z" />
    <glyph glyph-name="aacute.sc" horiz-adv-x="481" 
d="M274 692l-52 -80l12 -19l95 99h-55zM420 32q7 -21 40 -21l-1 -11h-146l2 11q17 0 27.5 4t7.5 14l-40 152h-176l-64 -152q-2 -4 2 -7.5t12 -6t17.5 -3.5t19.5 -1l-1 -11h-134l1 11q39 0 49 18l219 512l20 6zM145 207h158l-61 232z" />
    <glyph glyph-name="aacute.sc.ss01" horiz-adv-x="481" 
d="M274 692l-52 -80l12 -19l95 99h-55zM420 32q7 -21 40 -21l-1 -11h-146l2 11q17 0 27.5 4t7.5 14l-31 116l-176 58l-73 -174q-2 -4 2 -7.5t12 -6t17.5 -3.5t19.5 -1l-1 -11h-134l1 11q39 0 49 18l219 512l20 6zM154 228l157 -52l-69 263z" />
    <glyph glyph-name="abreve.sc" horiz-adv-x="481" 
d="M271 601q-50 0 -71 55l22 6q16 -31 52 -31q37 0 56 31l21 -6q-28 -55 -80 -55zM420 32q7 -21 40 -21l-1 -11h-146l2 11q17 0 27.5 4t7.5 14l-40 152h-176l-64 -152q-2 -4 2 -7.5t12 -6t17.5 -3.5t19.5 -1l-1 -11h-134l1 11q39 0 49 18l219 512l20 6zM145 207h158l-61 232
z" />
    <glyph glyph-name="abreve.sc.ss01" horiz-adv-x="481" 
d="M271 601q-50 0 -71 55l22 6q16 -31 52 -31q37 0 56 31l21 -6q-28 -55 -80 -55zM420 32q7 -21 40 -21l-1 -11h-146l2 11q17 0 27.5 4t7.5 14l-31 116l-176 58l-73 -174q-2 -4 2 -7.5t12 -6t17.5 -3.5t19.5 -1l-1 -11h-134l1 11q39 0 49 18l219 512l20 6zM154 228l157 -52
l-69 263z" />
    <glyph glyph-name="acircumflex.sc" horiz-adv-x="481" 
d="M186 600l73 90h38l58 -90h-26l-53 64l-64 -64h-26zM420 32q7 -21 40 -21l-1 -11h-146l2 11q17 0 27.5 4t7.5 14l-40 152h-176l-64 -152q-2 -4 2 -7.5t12 -6t17.5 -3.5t19.5 -1l-1 -11h-134l1 11q39 0 49 18l219 512l20 6zM145 207h158l-61 232z" />
    <glyph glyph-name="acircumflex.sc.ss01" horiz-adv-x="481" 
d="M186 600l73 90h38l58 -90h-26l-53 64l-64 -64h-26zM420 32q7 -21 40 -21l-1 -11h-146l2 11q17 0 27.5 4t7.5 14l-31 116l-176 58l-73 -174q-2 -4 2 -7.5t12 -6t17.5 -3.5t19.5 -1l-1 -11h-134l1 11q39 0 49 18l219 512l20 6zM154 228l157 -52l-69 263z" />
    <glyph glyph-name="adieresis.sc" horiz-adv-x="481" 
d="M228 652q11 0 18 -7.5t6 -19.5q-2 -24 -27 -24q-11 0 -18 7.5t-6 19.5q2 24 27 24zM319 652q11 0 18 -7.5t6 -19.5q-2 -24 -27 -24q-11 0 -18 7.5t-6 19.5q2 24 27 24zM420 32q7 -21 40 -21l-1 -11h-146l2 11q17 0 27.5 4t7.5 14l-40 152h-176l-64 -152q-2 -4 2 -7.5
t12 -6t17.5 -3.5t19.5 -1l-1 -11h-134l1 11q39 0 49 18l219 512l20 6zM145 207h158l-61 232z" />
    <glyph glyph-name="adieresis.sc.ss01" horiz-adv-x="481" 
d="M228 652q11 0 18 -7.5t6 -19.5q-2 -24 -27 -24q-11 0 -18 7.5t-6 19.5q2 24 27 24zM319 652q11 0 18 -7.5t6 -19.5q-2 -24 -27 -24q-11 0 -18 7.5t-6 19.5q2 24 27 24zM420 32q7 -21 40 -21l-1 -11h-146l2 11q17 0 27.5 4t7.5 14l-40 152h-176l-64 -152q-2 -4 2 -7.5
t12 -6t17.5 -3.5t19.5 -1l-1 -11h-134l1 11q39 0 49 18l219 512l20 6zM145 207h158l-61 232z" />
    <glyph glyph-name="agrave.sc" horiz-adv-x="481" 
d="M273 692h-55l87 -99l13 19zM420 32q7 -21 40 -21l-1 -11h-146l2 11q17 0 27.5 4t7.5 14l-40 152h-176l-64 -152q-2 -4 2 -7.5t12 -6t17.5 -3.5t19.5 -1l-1 -11h-134l1 11q39 0 49 18l219 512l20 6zM145 207h158l-61 232z" />
    <glyph glyph-name="agrave.sc.ss01" horiz-adv-x="481" 
d="M273 692h-55l87 -99l13 19zM420 32q7 -21 40 -21l-1 -11h-146l2 11q17 0 27.5 4t7.5 14l-31 116l-176 58l-73 -174q-2 -4 2 -7.5t12 -6t17.5 -3.5t19.5 -1l-1 -11h-134l1 11q39 0 49 18l219 512l20 6zM154 228l157 -52l-69 263z" />
    <glyph glyph-name="amacron.sc" horiz-adv-x="481" 
d="M195 639h162l-8 -28h-162zM420 32q7 -21 40 -21l-1 -11h-146l2 11q17 0 27.5 4t7.5 14l-40 152h-176l-64 -152q-2 -4 2 -7.5t12 -6t17.5 -3.5t19.5 -1l-1 -11h-134l1 11q39 0 49 18l219 512l20 6zM145 207h158l-61 232z" />
    <glyph glyph-name="amacron.sc.ss01" horiz-adv-x="481" 
d="M195 639h162l-8 -28h-162zM420 32q7 -21 40 -21l-1 -11h-146l2 11q17 0 27.5 4t7.5 14l-31 116l-176 58l-73 -174q-2 -4 2 -7.5t12 -6t17.5 -3.5t19.5 -1l-1 -11h-134l1 11q39 0 49 18l219 512l20 6zM154 228l157 -52l-69 263z" />
    <glyph glyph-name="aogonek.sc" horiz-adv-x="481" 
d="M420 32q7 -21 40 -21l-1 -11h-21q-51 -26 -54 -63q-1 -15 6.5 -24t18.5 -9t18 6l5 -13q-17 -14 -45 -14q-24 0 -39 12t-13 35q2 25 22 43.5t46 26.5h-90l2 11q17 0 27.5 4t7.5 14l-40 152h-176l-64 -152q-2 -4 2 -7.5t12 -6t17.5 -3.5t19.5 -1l-1 -11h-134l1 11
q39 0 49 18l219 512l20 6zM145 207h158l-61 232z" />
    <glyph glyph-name="aogonek.sc.ss01" horiz-adv-x="481" 
d="M420 32q7 -21 40 -21l-1 -11h-21q-51 -26 -54 -63q-1 -15 6.5 -24t18.5 -9t18 6l5 -13q-17 -14 -45 -14q-24 0 -39 12t-13 35q2 25 22 43.5t46 26.5h-90l2 11q17 0 27.5 4t7.5 14l-31 116l-176 58l-73 -174q-2 -4 2 -7.5t12 -6t17.5 -3.5t19.5 -1l-1 -11h-134l1 11
q39 0 49 18l219 512l20 6zM154 228l157 -52l-69 263z" />
    <glyph glyph-name="aring.sc" horiz-adv-x="481" 
d="M270 593q-20 0 -33.5 15t-11.5 35q1 20 17 34.5t36 14.5t33.5 -14.5t11.5 -34.5t-17.5 -35t-35.5 -15zM272 618q11 0 18.5 7.5t8.5 17.5t-6 17.5t-17 7.5t-17.5 -7.5t-9.5 -17.5q-1 -11 6 -18t17 -7zM420 32q7 -21 40 -21l-1 -11h-146l2 11q17 0 27.5 4t7.5 14l-40 152
h-176l-64 -152q-2 -4 2 -7.5t12 -6t17.5 -3.5t19.5 -1l-1 -11h-134l1 11q39 0 49 18l219 512l20 6zM145 207h158l-61 232z" />
    <glyph glyph-name="aring.sc.ss01" horiz-adv-x="481" 
d="M270 593q-20 0 -33.5 15t-11.5 35q1 20 17 34.5t36 14.5t33.5 -14.5t11.5 -34.5t-17.5 -35t-35.5 -15zM272 618q11 0 18.5 7.5t8.5 17.5t-6 17.5t-17 7.5t-17.5 -7.5t-9.5 -17.5q-1 -11 6 -18t17 -7zM420 32q7 -21 40 -21l-1 -11h-146l2 11q17 0 27.5 4t7.5 14l-31 116
l-176 58l-73 -174q-2 -4 2 -7.5t12 -6t17.5 -3.5t19.5 -1l-1 -11h-134l1 11q39 0 49 18l219 512l20 6zM154 228l157 -52l-69 263z" />
    <glyph glyph-name="atilde.sc" horiz-adv-x="481" 
d="M170 622q19 53 61 53q27 0 53.5 -23t42.5 -23q9 0 17 5.5t10.5 9.5t9.5 16l12 -5q-18 -53 -61 -53q-27 0 -53 23t-42 23q-21 0 -37 -31zM420 32q7 -21 40 -21l-1 -11h-146l2 11q17 0 27.5 4t7.5 14l-40 152h-176l-64 -152q-2 -4 2 -7.5t12 -6t17.5 -3.5t19.5 -1l-1 -11
h-134l1 11q39 0 49 18l219 512l20 6zM145 207h158l-61 232z" />
    <glyph glyph-name="atilde.sc.ss01" horiz-adv-x="481" 
d="M170 622q19 53 61 53q27 0 53.5 -23t42.5 -23q9 0 17 5.5t10.5 9.5t9.5 16l12 -5q-18 -53 -61 -53q-27 0 -53 23t-42 23q-21 0 -37 -31zM420 32q7 -21 40 -21l-1 -11h-146l2 11q17 0 27.5 4t7.5 14l-31 116l-176 58l-73 -174q-2 -4 2 -7.5t12 -6t17.5 -3.5t19.5 -1
l-1 -11h-134l1 11q39 0 49 18l219 512l20 6zM154 228l157 -52l-69 263z" />
    <glyph glyph-name="ae.sc" horiz-adv-x="666" 
d="M578 513h-143l-20 -220h121q30 0 35 55h10l-5 -55l-2 -26l-4 -56h-12q5 55 -24 55h-121l-21 -240h163q21 0 34 12.5t26 42.5l12 -4l-24 -77h-278l13 159h-169l-78 -118q-9 -14 7 -22t40 -8l-1 -11h-151l1 11q43 0 64 27l330 501h251l24 -77l-12 -4q-15 55 -66 55z
M187 186h155l24 275z" />
    <glyph glyph-name="ae.sc.ss01" horiz-adv-x="665" 
d="M613 81l12 -4l-23 -77h-278l12 133l-153 49l-93 -141q-10 -14 7 -22t41 -8l-1 -11h-151l1 11q46 0 65 28l329 500h250l24 -77l-12 -4q-15 55 -66 55h-142l-20 -220h120q30 0 35 55h10l-12 -137h-11q5 55 -25 55h-119l-22 -240h161q23 0 35.5 12.5t25.5 42.5zM199 207
l139 -45l28 298z" />
    <glyph glyph-name="b.sc" horiz-adv-x="420" 
d="M308 288q94 -27 85 -133q-6 -70 -52 -112.5t-116 -42.5h-201l1 11q17 0 33 7t17 19l41 461q1 14 -13 22t-32 8l1 11h197q54 0 89 -32t29 -96q-11 -90 -79 -123zM180 509l-19 -215h81q20 0 35 8.5t22.5 19.5t13 29.5t7 29.5t3.5 29q5 51 -14.5 78t-72.5 27q-24 0 -56 -6z
M325 145q5 65 -18 93.5t-60 28.5h-88l-21 -237q25 -6 71 -6q107 0 116 121z" />
    <glyph glyph-name="c.sc" horiz-adv-x="486" 
d="M440 97l9 -17q-63 -88 -183 -88q-109 0 -177 76t-58 199q6 68 35 123t71.5 88.5t89.5 51t93 17.5q53 0 92 -17q38 -17 49 4l10 -5l-36 -119l-10 4q9 37 5.5 56t-27.5 32q-33 18 -85 18q-85 0 -144 -59.5t-69 -171.5q-11 -117 39 -193.5t139 -76.5q47 0 88.5 21t68.5 57z
" />
    <glyph glyph-name="cacute.sc" horiz-adv-x="486" 
d="M331 692l-52 -80l12 -19l95 99h-55zM440 97l9 -17q-63 -88 -183 -88q-109 0 -177 76t-58 199q6 68 35 123t71.5 88.5t89.5 51t93 17.5q53 0 92 -17q38 -17 49 4l10 -5l-36 -119l-10 4q9 37 5.5 56t-27.5 32q-33 18 -85 18q-85 0 -144 -59.5t-69 -171.5
q-11 -117 39 -193.5t139 -76.5q47 0 88.5 21t68.5 57z" />
    <glyph glyph-name="ccaron.sc" horiz-adv-x="486" 
d="M251 690l64 -90h26l79 90h-34l-56 -64l-44 64h-35zM440 97l9 -17q-63 -88 -183 -88q-109 0 -177 76t-58 199q6 68 35 123t71.5 88.5t89.5 51t93 17.5q53 0 92 -17q38 -17 49 4l10 -5l-36 -119l-10 4q9 37 5.5 56t-27.5 32q-33 18 -85 18q-85 0 -144 -59.5t-69 -171.5
q-11 -117 39 -193.5t139 -76.5q47 0 88.5 21t68.5 57z" />
    <glyph glyph-name="ccedilla.sc" horiz-adv-x="486" 
d="M283 19q47 0 88.5 21t68.5 57l9 -17q-63 -88 -182 -88q-14 -28 -15 -29q12 6 23 6q15 0 26.5 -8t9.5 -25q-2 -23 -23.5 -38.5t-46.5 -15.5q-10 0 -14 1l7 13q34 0 38 34q2 24 -15 24q-16 0 -34 -16l-6 11l23 44q-99 9 -159 83.5t-50 190.5q6 68 35 123t71.5 88.5t89.5 51
t93 17.5q53 0 92 -17q38 -17 49 4l10 -5l-36 -119l-10 4q9 37 5.5 56t-27.5 32q-33 18 -85 18q-85 0 -144 -59.5t-69 -171.5q-11 -117 39 -193.5t139 -76.5z" />
    <glyph glyph-name="cdotaccent.sc" horiz-adv-x="486" 
d="M331 658q14 0 22.5 -10t6.5 -22q-1 -14 -10.5 -21.5t-20.5 -7.5q-14 0 -22.5 9.5t-7.5 22.5q1 14 10.5 21.5t21.5 7.5zM440 97l9 -17q-63 -88 -183 -88q-109 0 -177 76t-58 199q6 68 35 123t71.5 88.5t89.5 51t93 17.5q53 0 92 -17q38 -17 49 4l10 -5l-36 -119l-10 4
q9 37 5.5 56t-27.5 32q-33 18 -85 18q-85 0 -144 -59.5t-69 -171.5q-11 -117 39 -193.5t139 -76.5q47 0 88.5 21t68.5 57z" />
    <glyph glyph-name="d.sc" horiz-adv-x="539" 
d="M304 539q112 0 169 -73t46 -184q-12 -126 -81.5 -204t-174.5 -78h-239l1 11q17 0 34 7t20 19l40 461q1 14 -14 22t-34 8l1 11h232zM446 257q10 118 -32 188t-133 70q-36 0 -94 -7l-40 -475q65 -9 105 -9q87 0 135 57t59 176z" />
    <glyph glyph-name="eth.sc" horiz-adv-x="539" 
d="M304 539q112 0 169 -73t46 -184q-12 -126 -81.5 -204t-174.5 -78h-239l1 11q17 0 34 7t20 19l20 230h-46l12 29h36l18 202q1 14 -14 22t-34 8l1 11h232zM446 257q10 118 -32 188t-133 70q-36 0 -94 -7l-18 -212h73l-12 -29h-63l-20 -234q65 -9 105 -9q87 0 135 57t59 176
z" />
    <glyph glyph-name="dcaron.sc" horiz-adv-x="539" 
d="M228 690l64 -90h26l79 90h-34l-56 -64l-44 64h-35zM304 539q112 0 169 -73t46 -184q-12 -126 -81.5 -204t-174.5 -78h-239l1 11q17 0 34 7t20 19l40 461q1 14 -14 22t-34 8l1 11h232zM446 257q10 118 -32 188t-133 70q-36 0 -94 -7l-40 -475q65 -9 105 -9q87 0 135 57
t59 176z" />
    <glyph glyph-name="dcroat.sc" horiz-adv-x="539" 
d="M304 539q112 0 169 -73t46 -184q-12 -126 -81.5 -204t-174.5 -78h-239l1 11q17 0 34 7t20 19l20 230h-46l12 29h36l18 202q1 14 -14 22t-34 8l1 11h232zM446 257q10 118 -32 188t-133 70q-36 0 -94 -7l-18 -212h73l-12 -29h-63l-20 -234q65 -9 105 -9q87 0 135 57t59 176
z" />
    <glyph glyph-name="e.sc" horiz-adv-x="412" 
d="M324 513h-138l-19 -220h118q29 0 34 55h11l-13 -137h-11q5 55 -23 55h-119l-20 -240h157q23 0 35.5 12.5t25.5 42.5l11 -4l-24 -77h-325l1 11q18 0 34.5 8t17.5 22l40 457q1 14 -13.5 22t-32.5 8l1 11h306l24 -77l-11 -4q-16 55 -67 55z" />
    <glyph glyph-name="eacute.sc" horiz-adv-x="412" 
d="M258 692l-52 -80l12 -19l95 99h-55zM324 513h-138l-19 -220h118q29 0 34 55h11l-13 -137h-11q5 55 -23 55h-119l-20 -240h157q23 0 35.5 12.5t25.5 42.5l11 -4l-24 -77h-325l1 11q18 0 34.5 8t17.5 22l40 457q1 14 -13.5 22t-32.5 8l1 11h306l24 -77l-11 -4
q-16 55 -67 55z" />
    <glyph glyph-name="ecaron.sc" horiz-adv-x="412" 
d="M178 690l64 -90h26l79 90h-34l-56 -64l-44 64h-35zM324 513h-138l-19 -220h118q29 0 34 55h11l-13 -137h-11q5 55 -23 55h-119l-20 -240h157q23 0 35.5 12.5t25.5 42.5l11 -4l-24 -77h-325l1 11q18 0 34.5 8t17.5 22l40 457q1 14 -13.5 22t-32.5 8l1 11h306l24 -77
l-11 -4q-16 55 -67 55z" />
    <glyph glyph-name="ecircumflex.sc" horiz-adv-x="412" 
d="M170 600l73 90h38l58 -90h-26l-53 64l-64 -64h-26zM324 513h-138l-19 -220h118q29 0 34 55h11l-13 -137h-11q5 55 -23 55h-119l-20 -240h157q23 0 35.5 12.5t25.5 42.5l11 -4l-24 -77h-325l1 11q18 0 34.5 8t17.5 22l40 457q1 14 -13.5 22t-32.5 8l1 11h306l24 -77
l-11 -4q-16 55 -67 55z" />
    <glyph glyph-name="edieresis.sc" horiz-adv-x="412" 
d="M212 652q11 0 18 -7.5t6 -19.5q-2 -24 -27 -24q-11 0 -18 7.5t-6 19.5q2 24 27 24zM303 652q11 0 18 -7.5t6 -19.5q-2 -24 -27 -24q-11 0 -18 7.5t-6 19.5q2 24 27 24zM324 513h-138l-19 -220h118q29 0 34 55h11l-13 -137h-11q5 55 -23 55h-119l-20 -240h157
q23 0 35.5 12.5t25.5 42.5l11 -4l-24 -77h-325l1 11q18 0 34.5 8t17.5 22l40 457q1 14 -13.5 22t-32.5 8l1 11h306l24 -77l-11 -4q-16 55 -67 55z" />
    <glyph glyph-name="edotaccent.sc" horiz-adv-x="412" 
d="M258 658q14 0 22.5 -10t6.5 -22q-1 -14 -10.5 -21.5t-20.5 -7.5q-14 0 -22.5 9.5t-7.5 22.5q1 14 10.5 21.5t21.5 7.5zM324 513h-138l-19 -220h118q29 0 34 55h11l-13 -137h-11q5 55 -23 55h-119l-20 -240h157q23 0 35.5 12.5t25.5 42.5l11 -4l-24 -77h-325l1 11
q18 0 34.5 8t17.5 22l40 457q1 14 -13.5 22t-32.5 8l1 11h306l24 -77l-11 -4q-16 55 -67 55z" />
    <glyph glyph-name="egrave.sc" horiz-adv-x="412" 
d="M257 692h-55l87 -99l13 19zM324 513h-138l-19 -220h118q29 0 34 55h11l-13 -137h-11q5 55 -23 55h-119l-20 -240h157q23 0 35.5 12.5t25.5 42.5l11 -4l-24 -77h-325l1 11q18 0 34.5 8t17.5 22l40 457q1 14 -13.5 22t-32.5 8l1 11h306l24 -77l-11 -4q-16 55 -67 55z" />
    <glyph glyph-name="emacron.sc" horiz-adv-x="412" 
d="M179 639h162l-8 -28h-162zM324 513h-138l-19 -220h118q29 0 34 55h11l-13 -137h-11q5 55 -23 55h-119l-20 -240h157q23 0 35.5 12.5t25.5 42.5l11 -4l-24 -77h-325l1 11q18 0 34.5 8t17.5 22l40 457q1 14 -13.5 22t-32.5 8l1 11h306l24 -77l-11 -4q-16 55 -67 55z" />
    <glyph glyph-name="eogonek.sc" horiz-adv-x="412" 
d="M324 513h-138l-19 -220h118q29 0 34 55h11l-13 -137h-11q5 55 -23 55h-119l-20 -240h157q23 0 35.5 12.5t25.5 42.5l11 -4l-24 -77h-44q-51 -26 -54 -63q-1 -15 6.5 -24t18.5 -9q10 0 18 6l5 -13q-17 -14 -45 -14q-24 0 -39 12t-13 35q2 25 22 43.5t46 26.5h-246l1 11
q18 0 34.5 8t17.5 22l40 457q1 14 -13.5 22t-32.5 8l1 11h306l24 -77l-11 -4q-16 55 -67 55z" />
    <glyph glyph-name="f.sc" horiz-adv-x="396" 
d="M372 539l24 -77l-12 -4q-15 55 -64 55h-135l-20 -234h99q28 0 33 55h12l-13 -137h-11q5 55 -23 55h-100l-18 -213q0 -13 19 -20.5t41 -7.5l-1 -11h-179l1 11q18 0 35 8t18 21l40 458q1 14 -14 22t-33 8l1 11h300z" />
    <glyph glyph-name="g.sc" horiz-adv-x="532" 
d="M520 258l-2 -11q-32 0 -35 -30l-9 -110q-1 -28 6 -44l-11 -8q-75 -63 -195 -63q-117 0 -186 71.5t-57 201.5q12 134 98.5 208t199.5 74q56 0 110 -26q20 -9 31 12h12l-11 -122l-11 6q0 55 -38.5 79t-96.5 24q-89 0 -149 -58.5t-71 -180.5q-10 -123 40.5 -192.5
t149.5 -69.5q68 0 116 30l12 145q4 45 -73 53l1 11h169z" />
    <glyph glyph-name="gbreve.sc" horiz-adv-x="532" 
d="M329 601q-50 0 -71 55l22 6q16 -31 52 -31q37 0 56 31l21 -6q-28 -55 -80 -55zM520 258l-2 -11q-32 0 -35 -30l-9 -110q-1 -28 6 -44l-11 -8q-75 -63 -195 -63q-117 0 -186 71.5t-57 201.5q12 134 98.5 208t199.5 74q56 0 110 -26q20 -9 31 12h12l-11 -122l-11 6
q0 55 -38.5 79t-96.5 24q-89 0 -149 -58.5t-71 -180.5q-10 -123 40.5 -192.5t149.5 -69.5q68 0 116 30l12 145q4 45 -73 53l1 11h169z" />
    <glyph glyph-name="gcommaaccent.sc" horiz-adv-x="532" 
d="M520 258l-2 -11q-32 0 -35 -30l-9 -110q-1 -28 6 -44l-11 -8q-75 -63 -195 -63q-117 0 -186 71.5t-57 201.5q12 134 98.5 208t199.5 74q56 0 110 -26q20 -9 31 12h12l-11 -122l-11 6q0 55 -38.5 79t-96.5 24q-89 0 -149 -58.5t-71 -180.5q-10 -123 40.5 -192.5
t149.5 -69.5q68 0 116 30l12 145q4 45 -73 53l1 11h169zM269 -31l-5 -18l-33 -62l7 -19l68 78l2 21h-39z" />
    <glyph glyph-name="gdotaccent.sc" horiz-adv-x="532" 
d="M332 658q14 0 22.5 -10t6.5 -22q-1 -14 -10.5 -21.5t-20.5 -7.5q-14 0 -22.5 9.5t-7.5 22.5q1 14 10.5 21.5t21.5 7.5zM520 258l-2 -11q-32 0 -35 -30l-9 -110q-1 -28 6 -44l-11 -8q-75 -63 -195 -63q-117 0 -186 71.5t-57 201.5q12 134 98.5 208t199.5 74q56 0 110 -26
q20 -9 31 12h12l-11 -122l-11 6q0 55 -38.5 79t-96.5 24q-89 0 -149 -58.5t-71 -180.5q-10 -123 40.5 -192.5t149.5 -69.5q68 0 116 30l12 145q4 45 -73 53l1 11h169z" />
    <glyph glyph-name="h.sc" horiz-adv-x="579" 
d="M565 528q-19 0 -36 -7t-18 -20l-40 -460q-1 -14 14 -22t34 -8l-1 -11h-162l1 11q17 0 31 6.5t15 19.5l21 235h-258l-20 -231q-1 -15 11.5 -22.5t30.5 -7.5l-2 -11h-162l1 11q18 0 34.5 7t19.5 20l40 460q1 14 -14 22t-34 8l1 11h162l-1 -11q-43 0 -46 -27l-19 -202h258
l18 199q1 15 -11 22.5t-30 7.5l1 11h162z" />
    <glyph glyph-name="hbar.sc" horiz-adv-x="579" 
d="M565 528q-19 0 -36 -7t-18 -20l-40 -460q-1 -14 14 -22t34 -8l-1 -11h-162l1 11q17 0 31 6.5t15 19.5l17 190h-258l-16 -186q-1 -15 11.5 -22.5t30.5 -7.5l-2 -11h-162l1 11q18 0 35 7t19 20l40 460q1 14 -14 22t-34 8l1 11h162l-1 -11q-43 0 -46 -27l-15 -163h258
l14 160q1 15 -11 22.5t-30 7.5l1 11h162zM164 254h258l6 57h-258z" />
    <glyph glyph-name="i.sc" horiz-adv-x="240" 
d="M226 528q-16 0 -30.5 -7t-15.5 -20l-40 -460q-1 -15 11.5 -22.5t28.5 -7.5l-1 -11h-155l1 11q17 0 31.5 7t16.5 20l40 460q1 15 -12 22.5t-30 7.5l1 11h155z" />
    <glyph glyph-name="iacute.sc" horiz-adv-x="240" 
d="M161 692l-52 -80l12 -19l95 99h-55zM226 528q-16 0 -30.5 -7t-15.5 -20l-40 -460q-1 -15 11.5 -22.5t28.5 -7.5l-1 -11h-155l1 11q17 0 31.5 7t16.5 20l40 460q1 15 -12 22.5t-30 7.5l1 11h155z" />
    <glyph glyph-name="icircumflex.sc" horiz-adv-x="240" 
d="M73 600l73 90h38l58 -90h-26l-53 64l-64 -64h-26zM226 528q-16 0 -30.5 -7t-15.5 -20l-40 -460q-1 -15 11.5 -22.5t28.5 -7.5l-1 -11h-155l1 11q17 0 31.5 7t16.5 20l40 460q1 15 -12 22.5t-30 7.5l1 11h155z" />
    <glyph glyph-name="idieresis.sc" horiz-adv-x="240" 
d="M115 652q11 0 18 -7.5t6 -19.5q-2 -24 -27 -24q-11 0 -18 7.5t-6 19.5q2 24 27 24zM206 652q11 0 18 -7.5t6 -19.5q-2 -24 -27 -24q-11 0 -18 7.5t-6 19.5q2 24 27 24zM226 528q-16 0 -30.5 -7t-15.5 -20l-40 -460q-1 -15 11.5 -22.5t28.5 -7.5l-1 -11h-155l1 11
q17 0 31.5 7t16.5 20l40 460q1 15 -12 22.5t-30 7.5l1 11h155z" />
    <glyph glyph-name="i.sc.loclTRK" horiz-adv-x="240" 
d="M161 658q14 0 22.5 -10t6.5 -22q-1 -14 -10.5 -21.5t-20.5 -7.5q-14 0 -22.5 9.5t-7.5 22.5q1 14 10.5 21.5t21.5 7.5zM226 528q-16 0 -30.5 -7t-15.5 -20l-40 -460q-1 -15 11.5 -22.5t28.5 -7.5l-1 -11h-155l1 11q17 0 31.5 7t16.5 20l40 460q1 15 -12 22.5t-30 7.5
l1 11h155z" />
    <glyph glyph-name="igrave.sc" horiz-adv-x="240" 
d="M160 692h-55l87 -99l13 19zM226 528q-16 0 -30.5 -7t-15.5 -20l-40 -460q-1 -15 11.5 -22.5t28.5 -7.5l-1 -11h-155l1 11q17 0 31.5 7t16.5 20l40 460q1 15 -12 22.5t-30 7.5l1 11h155z" />
    <glyph glyph-name="imacron.sc" horiz-adv-x="240" 
d="M82 639h162l-8 -28h-162zM226 528q-16 0 -30.5 -7t-15.5 -20l-40 -460q-1 -15 11.5 -22.5t28.5 -7.5l-1 -11h-155l1 11q17 0 31.5 7t16.5 20l40 460q1 15 -12 22.5t-30 7.5l1 11h155z" />
    <glyph glyph-name="iogonek.sc" horiz-adv-x="240" 
d="M72 539h155l-1 -11q-16 0 -30.5 -7t-15.5 -20l-40 -460q-1 -15 11.5 -22.5t28.5 -7.5l-1 -11h-22q-51 -26 -54 -63q-1 -15 6.5 -24t18.5 -9q10 0 18 6l5 -13q-17 -14 -45 -14q-24 0 -39 12t-13 35q2 25 22 43.5t46 26.5h-98l1 11q17 0 31.5 7t16.5 20l40 460
q1 15 -12 22.5t-30 7.5z" />
    <glyph glyph-name="itilde.sc" horiz-adv-x="240" 
d="M57 622q19 53 61 53q27 0 53.5 -23t42.5 -23q9 0 17 5.5t10.5 9.5t9.5 16l12 -5q-18 -53 -61 -53q-27 0 -53 23t-42 23q-21 0 -37 -31zM226 528q-16 0 -30.5 -7t-15.5 -20l-40 -460q-1 -15 11.5 -22.5t28.5 -7.5l-1 -11h-155l1 11q17 0 31.5 7t16.5 20l40 460
q1 15 -12 22.5t-30 7.5l1 11h155z" />
    <glyph glyph-name="j.sc" horiz-adv-x="250" 
d="M246 539l-1 -11q-20 0 -36 -7.5t-17 -22.5l-36 -422q-4 -41 -15.5 -70.5t-36 -53.5t-46.5 -39t-65 -40l-3 11q47 32 70.5 69.5t27.5 90.5l40 458q0 12 -15.5 19t-33.5 7l1 11h166z" />
    <glyph glyph-name="k.sc" horiz-adv-x="539" 
d="M518 539l-1 -11q-46 0 -81 -30l-201 -191l197 -255q13 -16 40.5 -28.5t44.5 -12.5l-1 -11h-150q12 20 -3 41l-176 224l-24 -23l-17 -201q-1 -15 17.5 -22.5t43.5 -7.5l-1 -11h-182l1 11q19 0 35.5 7t17.5 20l41 460q1 14 -14 22t-34 8l1 11h161l-1 -11q-43 0 -46 -27
l-19 -217l228 217q10 11 5 19t-19 8l2 11h135z" />
    <glyph glyph-name="k.sc.ss01" horiz-adv-x="540" 
d="M561 -49q65 -37 135.5 -53t124 -13t90 11t50.5 18l-1 -11q-21 -16 -64.5 -28.5t-102 -18t-132 8.5t-139.5 49q-115 61 -225 214l-101 142l-32 -30l-18 -199q-1 -15 18.5 -22.5t45.5 -7.5l-1 -11h-185l1 11q19 0 35.5 7t18.5 20l40 460q1 15 -14 22.5t-35 7.5l1 11h165
l-2 -11q-44 0 -47 -27l-20 -218l236 218q10 11 5 19t-19 8l1 11h140l-1 -11q-49 0 -86 -30l-204 -189l76 -109q66 -93 121.5 -151.5t124.5 -97.5z" />
    <glyph glyph-name="kcommaaccent.sc" horiz-adv-x="539" 
d="M518 539l-1 -11q-46 0 -81 -30l-201 -191l197 -255q13 -16 40.5 -28.5t44.5 -12.5l-1 -11h-150q12 20 -3 41l-176 224l-24 -23l-17 -201q-1 -15 17.5 -22.5t43.5 -7.5l-1 -11h-182l1 11q19 0 35.5 7t17.5 20l41 460q1 14 -14 22t-34 8l1 11h161l-1 -11q-43 0 -46 -27
l-19 -217l228 217q10 11 5 19t-19 8l2 11h135zM262 -31l-5 -18l-33 -62l7 -19l68 78l2 21h-39z" />
    </font>
</defs>
</svg>
